# Blender 4.3.2
# www.blender.org
o output
v 0.000000 -0.126855 0.300000
v 0.100000 -0.126855 0.300000
v 0.100000 -0.302591 0.124264
v 0.100000 -0.302591 -0.124264
v 0.100000 -0.126855 -0.300000
v 0.100000 -0.110286 -0.260000
v 0.100000 -0.262591 -0.107696
v 0.100000 -0.262591 0.107695
v 0.100000 -0.110286 0.260000
v 0.000000 -0.302591 -0.124264
v 0.000000 -0.126855 -0.300000
v 0.000000 -0.302591 0.124264
v 0.000000 -0.182591 -0.074558
v 0.000000 -0.077149 -0.180000
v 0.000000 -0.077149 0.180000
v 0.000000 -0.182591 0.074558
v 1.728219 -0.077149 -0.180000
v 1.728219 -0.182591 -0.074558
v 1.728219 -0.182591 0.074558
v 1.728219 -0.077149 0.180000
v 1.728219 -0.126855 0.300000
v 1.728219 -0.302591 0.124264
v 1.728219 -0.302591 -0.124264
v 1.728219 -0.126855 -0.300000
v 1.522780 -0.110286 0.260000
v 1.522780 -0.262591 0.107696
v 1.522780 -0.262591 -0.107696
v 1.522780 -0.110286 -0.260000
v 1.522780 -0.126855 -0.300000
v 1.522780 -0.302591 -0.124264
v 1.522780 -0.302591 0.124264
v 1.522780 -0.126855 0.300000
v 0.100000 -0.002565 -0.300000
v 0.000000 -0.002565 -0.300000
v 0.000000 0.121699 -0.300000
v 0.100000 0.121699 -0.300000
v 0.100000 -0.002565 -0.260000
v 0.100000 0.297435 -0.124264
v 0.100000 0.297435 0.124264
v 0.100000 0.121699 0.300000
v 0.100000 -0.002565 0.300000
v 0.100000 -0.002565 0.260000
v 0.100000 0.105130 0.260000
v 0.100000 0.257435 0.107696
v 0.100000 0.257435 -0.107695
v 0.100000 0.105130 -0.260000
v 0.000000 0.297435 0.124264
v 0.000000 0.121699 0.300000
v 0.000000 0.297435 -0.124264
v 0.000000 -0.002565 0.300000
v 0.000000 0.177435 0.074558
v 0.000000 0.071993 0.180000
v 0.000000 -0.002565 0.180000
v 0.000000 -0.002565 -0.180000
v 0.000000 0.071993 -0.180000
v 0.000000 0.177435 -0.074558
v 1.728219 0.071993 0.180000
v 1.728219 -0.002565 0.180000
v 1.728219 0.177435 0.074558
v 1.728219 0.177435 -0.074558
v 1.728219 0.071993 -0.180000
v 1.728219 -0.002565 -0.180000
v 1.522780 -0.002565 -0.260000
v 1.522780 -0.002565 -0.300000
v 1.728219 -0.002565 -0.300000
v 1.728219 0.121699 -0.300000
v 1.728219 0.297435 -0.124264
v 1.728219 0.297435 0.124264
v 1.728219 0.121699 0.300000
v 1.728219 -0.002565 0.300000
v 1.522780 0.105130 -0.260000
v 1.522780 0.257435 -0.107696
v 1.522780 0.257435 0.107696
v 1.522780 0.105130 0.260000
v 1.522780 -0.002565 0.260000
v 1.522780 -0.002565 0.300000
v 1.522780 0.121699 0.300000
v 1.522780 0.297435 0.124264
v 1.522780 0.297435 -0.124264
v 1.522780 0.121699 -0.300000
vn -0.0000 -0.0000 1.0000
vn 1.0000 -0.0000 -0.0000
vn -0.0000 -0.7071 -0.7071
vn -0.0000 -1.0000 -0.0000
vn -0.0000 -0.7071 0.7071
vn -0.0000 -0.0000 -1.0000
vn -1.0000 -0.0000 -0.0000
vn -0.0000 0.7071 0.7071
vn -0.0000 1.0000 -0.0000
vn -0.0000 0.7071 -0.7071
vt 0.621320 0.000000
vt 1.242641 0.000000
vt 0.621320 0.500000
vt 1.242641 0.500000
vt 0.000000 1.300000
vt 0.000000 1.500000
vt -0.538478 1.300000
vt -0.621320 1.500000
vt -1.300000 0.538478
vt -1.500000 0.621320
vt -1.500000 -0.621320
vt -1.300000 -0.538478
vt -0.621320 -1.500000
vt -0.538478 -1.300000
vt 0.000000 -1.500000
vt 0.000000 -1.300000
vt 0.000000 0.000000
vt 0.000000 0.500000
vt 0.900000 0.372792
vt 1.500000 0.621320
vt 0.372792 0.900000
vt 0.621320 1.500000
vt 0.900000 0.000000
vt 1.500000 0.000000
vt -0.372792 0.900000
vt -0.900000 0.372792
vt -1.500000 0.000000
vt -0.900000 0.000000
vt 0.787006 5.000000
vt 0.414214 5.000000
vt 0.787006 0.000000
vt 0.414214 0.000000
vt 0.000000 0.787006
vt -5.000000 0.787006
vt 0.000000 0.041421
vt -5.000000 0.041421
vt 0.041421 5.000000
vt 0.041421 0.000000
vt -2.000000 1.300000
vt 2.500000 0.900000
vt 2.000000 1.300000
vt -2.500000 0.900000
vt 0.000000 0.900000
vt -0.900000 -0.372792
vt -0.372792 -0.900000
vt -0.000000 -0.900000
vt 1.076955 4.500000
vt 0.538478 4.500000
vt 1.076955 0.500000
vt 0.538478 0.500000
vt -0.000000 4.500000
vt 0.538478 1.300000
vt 1.300000 0.538478
vt 1.500000 -0.621320
vt 1.300000 -0.538478
vt 0.621320 -1.500000
vt 0.538478 -1.300000
vt 2.000000 -1.300000
vt 2.500000 -0.900000
vt -2.500000 -0.900000
vt -2.000000 -1.300000
vt 2.500000 1.500000
vt 2.000000 1.500000
vt -2.000000 1.500000
vt -2.500000 1.500000
vt 2.500000 -1.500000
vt -2.500000 -1.500000
vt -2.000000 -1.500000
vt 2.000000 -1.500000
s 1
f 50/1/1 1/2/1 41/3/1
f 41/3/1 1/2/1 2/4/1
f 42/5/2 41/6/2 9/7/2
f 9/7/2 41/6/2 2/8/2
f 9/7/2 2/8/2 8/9/2
f 8/9/2 2/8/2 3/10/2
f 8/9/2 3/10/2 4/11/2
f 8/9/2 4/11/2 7/12/2
f 7/12/2 4/11/2 5/13/2
f 7/12/2 5/13/2 6/14/2
f 6/14/2 5/13/2 33/15/2
f 6/14/2 33/15/2 37/16/2
f 10/17/3 11/2/3 4/18/3
f 4/18/3 11/2/3 5/4/3
f 12/17/4 10/2/4 3/18/4
f 3/18/4 10/2/4 4/4/4
f 1/17/5 12/2/5 2/18/5
f 2/18/5 12/2/5 3/4/5
f 33/3/6 5/18/6 34/1/6
f 34/1/6 5/18/6 11/17/6
f 14/19/7 11/20/7 13/21/7
f 13/21/7 11/20/7 10/22/7
f 13/21/7 10/22/7 12/8/7
f 54/23/7 34/24/7 14/19/7
f 14/19/7 34/24/7 11/20/7
f 13/21/7 12/8/7 16/25/7
f 16/25/7 12/8/7 1/10/7
f 16/25/7 1/10/7 15/26/7
f 15/26/7 1/10/7 50/27/7
f 15/26/7 50/27/7 53/28/7
f 17/29/1 62/30/1 14/31/1
f 14/31/1 62/30/1 54/32/1
f 13/33/8 18/34/8 14/35/8
f 14/35/8 18/34/8 17/36/8
f 16/33/9 19/34/9 13/35/9
f 13/35/9 19/34/9 18/36/9
f 15/33/10 20/34/10 16/35/10
f 16/35/10 20/34/10 19/36/10
f 58/30/6 20/37/6 53/32/6
f 53/32/6 20/37/6 15/38/6
f 75/39/9 53/40/9 42/41/9
f 75/39/9 58/42/9 53/40/9
f 20/25/2 21/8/2 19/26/2
f 19/26/2 21/8/2 22/10/2
f 19/26/2 22/10/2 23/11/2
f 58/43/2 70/6/2 20/25/2
f 20/25/2 70/6/2 21/8/2
f 19/26/2 23/11/2 18/44/2
f 18/44/2 23/11/2 24/13/2
f 18/44/2 24/13/2 17/45/2
f 17/45/2 24/13/2 65/15/2
f 17/45/2 65/15/2 62/46/2
f 25/47/1 75/48/1 9/49/1
f 9/49/1 75/48/1 42/50/1
f 26/47/5 25/51/5 8/49/5
f 8/49/5 25/51/5 9/18/5
f 27/47/4 26/51/4 7/49/4
f 7/49/4 26/51/4 8/18/4
f 28/47/3 27/51/3 6/49/3
f 6/49/3 27/51/3 7/18/3
f 37/50/6 63/48/6 6/18/6
f 6/18/6 63/48/6 28/51/6
f 75/5/7 25/52/7 76/6/7
f 76/6/7 25/52/7 32/22/7
f 32/22/7 25/52/7 26/53/7
f 32/22/7 26/53/7 31/20/7
f 31/20/7 26/53/7 30/54/7
f 30/54/7 26/53/7 27/55/7
f 30/54/7 27/55/7 29/56/7
f 29/56/7 27/55/7 28/57/7
f 29/56/7 28/57/7 64/15/7
f 64/15/7 28/57/7 63/16/7
f 76/3/1 32/18/1 70/1/1
f 70/1/1 32/18/1 21/17/1
f 24/17/3 23/2/3 29/18/3
f 29/18/3 23/2/3 30/4/3
f 23/17/4 22/2/4 30/18/4
f 30/18/4 22/2/4 31/4/4
f 22/17/5 21/2/5 31/18/5
f 31/18/5 21/2/5 32/4/5
f 65/1/6 24/2/6 64/3/6
f 64/3/6 24/2/6 29/4/6
f 37/58/9 54/59/9 62/60/9
f 37/58/9 62/60/9 63/61/9
f 34/1/6 35/2/6 33/3/6
f 33/3/6 35/2/6 36/4/6
f 37/5/2 33/6/2 46/7/2
f 46/7/2 33/6/2 36/8/2
f 46/7/2 36/8/2 45/9/2
f 45/9/2 36/8/2 38/10/2
f 45/9/2 38/10/2 39/11/2
f 45/9/2 39/11/2 44/12/2
f 44/12/2 39/11/2 40/13/2
f 44/12/2 40/13/2 43/14/2
f 43/14/2 40/13/2 41/15/2
f 43/14/2 41/15/2 42/16/2
f 47/17/8 48/2/8 39/18/8
f 39/18/8 48/2/8 40/4/8
f 49/17/9 47/2/9 38/18/9
f 38/18/9 47/2/9 39/4/9
f 35/17/10 49/2/10 36/18/10
f 36/18/10 49/2/10 38/4/10
f 41/3/1 40/18/1 50/1/1
f 50/1/1 40/18/1 48/17/1
f 52/19/7 48/20/7 51/21/7
f 51/21/7 48/20/7 47/22/7
f 51/21/7 47/22/7 49/8/7
f 53/23/7 50/24/7 52/19/7
f 52/19/7 50/24/7 48/20/7
f 51/21/7 49/8/7 56/25/7
f 56/25/7 49/8/7 35/10/7
f 56/25/7 35/10/7 55/26/7
f 55/26/7 35/10/7 34/27/7
f 55/26/7 34/27/7 54/28/7
f 57/29/6 58/30/6 52/31/6
f 52/31/6 58/30/6 53/32/6
f 51/33/3 59/34/3 52/35/3
f 52/35/3 59/34/3 57/36/3
f 56/33/4 60/34/4 51/35/4
f 51/35/4 60/34/4 59/36/4
f 55/33/5 61/34/5 56/35/5
f 56/35/5 61/34/5 60/36/5
f 62/30/1 61/37/1 54/32/1
f 54/32/1 61/37/1 55/38/1
f 63/39/4 54/40/4 37/41/4
f 37/41/4 54/40/4 34/62/4
f 37/41/4 34/62/4 33/63/4
f 64/64/4 65/65/4 63/39/4
f 63/39/4 65/65/4 62/42/4
f 63/39/4 62/42/4 54/40/4
f 61/25/2 66/8/2 60/26/2
f 60/26/2 66/8/2 67/10/2
f 60/26/2 67/10/2 68/11/2
f 62/43/2 65/6/2 61/25/2
f 61/25/2 65/6/2 66/8/2
f 60/26/2 68/11/2 59/44/2
f 59/44/2 68/11/2 69/13/2
f 59/44/2 69/13/2 57/45/2
f 57/45/2 69/13/2 70/15/2
f 57/45/2 70/15/2 58/46/2
f 71/47/6 63/48/6 46/49/6
f 46/49/6 63/48/6 37/50/6
f 72/47/10 71/51/10 45/49/10
f 45/49/10 71/51/10 46/18/10
f 73/47/9 72/51/9 44/49/9
f 44/49/9 72/51/9 45/18/9
f 74/47/8 73/51/8 43/49/8
f 43/49/8 73/51/8 44/18/8
f 42/50/1 75/48/1 43/18/1
f 43/18/1 75/48/1 74/51/1
f 63/5/7 71/52/7 64/6/7
f 64/6/7 71/52/7 80/22/7
f 80/22/7 71/52/7 72/53/7
f 80/22/7 72/53/7 79/20/7
f 79/20/7 72/53/7 78/54/7
f 78/54/7 72/53/7 73/55/7
f 78/54/7 73/55/7 77/56/7
f 77/56/7 73/55/7 74/57/7
f 77/56/7 74/57/7 76/15/7
f 76/15/7 74/57/7 75/16/7
f 64/3/6 80/18/6 65/1/6
f 65/1/6 80/18/6 66/17/6
f 69/17/8 68/2/8 77/18/8
f 77/18/8 68/2/8 78/4/8
f 68/17/9 67/2/9 78/18/9
f 78/18/9 67/2/9 79/4/9
f 67/17/10 66/2/10 79/18/10
f 79/18/10 66/2/10 80/4/10
f 70/1/1 69/2/1 76/3/1
f 76/3/1 69/2/1 77/4/1
f 50/66/4 53/59/4 42/58/4
f 42/58/4 53/59/4 58/60/4
f 42/58/4 58/60/4 75/61/4
f 75/61/4 58/60/4 70/67/4
f 75/61/4 70/67/4 76/68/4
f 42/58/4 41/69/4 50/66/4
