# Blender 4.3.2
# www.blender.org
o Pipe_-_Cross
v -0.150000 -0.069296 0.150000
v -0.150000 -0.007164 0.150000
v -0.450000 -0.007164 0.150000
v -0.450000 -0.069296 0.150000
v -0.062132 0.080704 0.062132
v -0.450000 0.080704 0.062132
v -0.062132 0.080704 -0.062132
v -0.150000 -0.007164 -0.150000
v -0.450000 -0.007164 -0.150000
v -0.450000 0.080704 -0.062132
v -0.450000 -0.069296 0.180000
v -0.450000 -0.069296 -0.150000
v -0.450000 -0.069296 -0.180000
v -0.450000 0.005262 -0.180000
v -0.450000 0.110704 -0.074558
v -0.450000 0.110704 0.074558
v -0.450000 0.005262 0.180000
v -0.500000 -0.027875 0.100000
v -0.500000 -0.069296 0.100000
v -0.500000 -0.069296 0.180000
v -0.500000 0.005262 0.180000
v -0.500000 0.110704 0.074558
v -0.500000 0.110704 -0.074558
v -0.500000 0.005262 -0.180000
v -0.500000 -0.069296 -0.180000
v -0.500000 -0.069296 -0.100000
v -0.500000 -0.027875 -0.100000
v -0.500000 0.030704 -0.041421
v -0.500000 0.030704 0.041421
v -0.150000 -0.069296 -0.150000
v -0.041422 0.030704 -0.500000
v -0.041422 0.030704 -0.041421
v -0.100000 -0.027875 -0.100000
v -0.100000 -0.027875 -0.500000
v -0.100000 -0.069296 -0.100000
v -0.100000 -0.069296 -0.500000
v -0.150000 -0.069296 -0.450000
v -0.180000 -0.069296 -0.450000
v -0.180000 -0.069296 -0.500000
v -0.150000 -0.007164 -0.450000
v -0.150000 -0.007164 0.450000
v -0.062132 0.080704 0.450000
v -0.062132 0.080704 -0.450000
v 0.062132 0.080704 0.450000
v 0.062132 0.080704 0.062132
v 0.450000 0.080704 0.062132
v 0.450000 0.080704 -0.062132
v 0.062132 0.080704 -0.062132
v 0.062132 0.080704 -0.450000
v 0.150000 -0.007164 0.150000
v 0.450000 -0.007164 0.150000
v 0.150000 -0.069296 0.150000
v 0.450000 -0.069296 0.150000
v 0.150000 -0.069296 -0.150000
v 0.150000 -0.007164 -0.150000
v 0.450000 -0.007164 -0.150000
v 0.450000 -0.069296 -0.150000
v 0.500000 -0.069296 0.100000
v 0.500000 -0.027875 0.100000
v 0.500000 0.030704 0.041421
v 0.500000 0.030704 -0.041421
v 0.500000 -0.027875 -0.100000
v 0.500000 -0.069296 -0.100000
v 0.500000 -0.069296 -0.180000
v 0.500000 0.005262 -0.180000
v 0.500000 0.110704 -0.074558
v 0.500000 0.110704 0.074558
v 0.500000 0.005262 0.180000
v 0.500000 -0.069296 0.180000
v 0.450000 -0.069296 0.180000
v 0.450000 0.005262 0.180000
v 0.450000 -0.069296 -0.180000
v 0.450000 0.005262 -0.180000
v 0.450000 0.110704 -0.074558
v 0.450000 0.110704 0.074558
v 0.150000 -0.069296 0.450000
v 0.180000 -0.069296 0.450000
v 0.180000 -0.069296 0.500000
v 0.100000 -0.069296 0.500000
v 0.100000 -0.069296 0.100000
v 0.150000 -0.007164 0.450000
v 0.150000 -0.007164 -0.450000
v 0.150000 -0.069296 -0.450000
v 0.100000 -0.069296 -0.100000
v 0.100000 -0.069296 -0.500000
v 0.180000 -0.069296 -0.500000
v 0.180000 -0.069296 -0.450000
v 0.100000 -0.027875 -0.100000
v 0.041421 0.030704 -0.041421
v 0.100000 -0.027875 -0.500000
v 0.041421 0.030704 -0.500000
v -0.180000 0.005262 -0.500000
v -0.074559 0.110704 -0.500000
v 0.074558 0.110704 -0.500000
v 0.180000 0.005262 -0.500000
v 0.180000 0.005262 -0.450000
v -0.180000 0.005262 -0.450000
v -0.074559 0.110704 -0.450000
v 0.074558 0.110704 -0.450000
v 0.100000 -0.027875 0.100000
v 0.041421 0.030704 0.041421
v -0.100000 -0.027875 0.100000
v -0.100000 -0.069296 0.100000
v -0.041422 0.030704 0.041421
v -0.150000 -0.069296 0.450000
v -0.100000 -0.069296 0.500000
v -0.180000 -0.069296 0.500000
v -0.180000 -0.069296 0.450000
v -0.100000 -0.027875 0.500000
v -0.041422 0.030704 0.500000
v 0.041421 0.030704 0.500000
v 0.100000 -0.027875 0.500000
v 0.180000 0.005262 0.500000
v 0.074558 0.110704 0.500000
v -0.074559 0.110704 0.500000
v -0.180000 0.005262 0.500000
v -0.180000 0.005262 0.450000
v 0.180000 0.005262 0.450000
v 0.074558 0.110704 0.450000
v -0.074559 0.110704 0.450000
vn -0.0000 -0.0000 1.0000
vn -0.0000 0.7071 0.7071
vn -0.0000 0.7071 -0.7071
vn 1.0000 -0.0000 -0.0000
vn -1.0000 -0.0000 -0.0000
vn -0.0000 -0.0000 -1.0000
vn -0.0000 1.0000 -0.0000
vn 0.7071 -0.7071 -0.0000
vn -0.0000 -1.0000 -0.0000
vn -0.7071 0.7071 -0.0000
vn 0.7071 0.7071 -0.0000
vn -0.0000 -0.7071 0.7071
vn -0.7071 -0.7071 -0.0000
vn -0.0000 -0.7071 -0.7071
vt 0.310660 1.750000
vt -0.000000 1.750000
vt 0.310660 0.250000
vt -0.000000 0.250000
vt -0.000000 2.189340
vt 0.621320 1.750000
vt 0.621320 0.250000
vt 0.621320 2.189340
vt 0.000000 -0.750000
vt -0.310660 -0.750000
vt 0.000000 -0.900000
vt -0.372792 -0.900000
vt -0.750000 -0.310660
vt -0.900000 -0.372792
vt -0.750000 0.310660
vt -0.900000 0.372792
vt -0.372792 0.900000
vt -0.310660 0.750000
vt 0.000000 0.900000
vt 0.000000 0.750000
vt 0.500000 -0.000000
vt 0.900000 -0.000000
vt 0.500000 0.207107
vt 0.900000 0.372792
vt 0.207107 0.500000
vt 0.372792 0.900000
vt -0.207107 0.500000
vt -0.500000 0.207107
vt -0.900000 -0.000000
vt -0.500000 -0.000000
vt 0.372792 0.000000
vt 0.745584 0.000000
vt 0.372792 0.250000
vt 0.745584 0.250000
vt 0.000000 0.000000
vt 0.000000 2.707107
vt 0.414214 3.000000
vt 0.000000 5.000000
vt 0.414214 5.000000
vt 0.207107 5.000000
vt 0.207107 3.000000
vt -0.000000 3.000000
vt 1.500000 4.750000
vt 1.250000 5.000000
vt 1.500000 3.250000
vt 1.250000 3.000000
vt 3.250000 3.000000
vt 1.650000 4.750000
vt 1.650000 5.000000
vt 3.000000 3.250000
vt 3.250000 3.400000
vt 3.000000 3.400000
vt 0.000000 3.250000
vt 0.310660 3.250000
vt 0.000000 4.750000
vt 0.310660 4.750000
vt 0.000000 2.810660
vt 0.621320 3.250000
vt 0.621320 4.750000
vt 0.621320 2.810660
vt -1.939340 2.810660
vt -1.939340 2.189340
vt 2.560660 2.189340
vt 2.560660 2.810660
vt 0.000000 -0.500000
vt -0.207107 -0.500000
vt -0.500000 -0.207107
vt 0.000000 0.500000
vt 0.310660 -0.750000
vt 0.372792 -0.900000
vt 0.750000 -0.310660
vt 0.900000 -0.372792
vt 0.750000 0.310660
vt 0.310660 0.750000
vt -1.750000 3.000000
vt 0.250000 3.000000
vt 0.250000 5.000000
vt -0.150000 5.000000
vt -0.150000 4.750000
vt -1.500000 3.250000
vt -1.750000 3.400000
vt -1.500000 3.400000
vt -0.414214 2.292893
vt -0.414214 0.000000
vt -0.000000 2.000000
vt -0.207107 2.000000
vt -0.207107 0.000000
vt -0.207107 3.000000
vt 0.000000 3.000000
vt -0.207107 5.000000
vt -0.414214 2.707107
vt -0.414214 5.000000
vt 0.414214 2.707107
vt -0.414214 -0.000000
vt -0.207107 -0.000000
vt 0.414214 0.000000
vt 0.000000 2.292893
vt 0.414214 2.292893
vt 2.707107 2.707107
vt 2.707107 2.292893
vt -2.292893 2.292893
vt -2.292893 2.707107
s 1
f 1/1/1 2/2/1 4/3/1
f 4/3/1 2/2/1 3/4/1
f 5/5/2 6/4/2 2/6/2
f 2/6/2 6/4/2 3/7/2
f 7/8/3 8/2/3 10/7/3
f 10/7/3 8/2/3 9/4/3
f 4/9/4 3/10/4 11/11/4
f 11/11/4 3/10/4 17/12/4
f 17/12/4 3/10/4 6/13/4
f 17/12/4 6/13/4 16/14/4
f 16/14/4 6/13/4 10/15/4
f 16/14/4 10/15/4 15/16/4
f 15/16/4 10/15/4 14/17/4
f 14/17/4 10/15/4 9/18/4
f 14/17/4 9/18/4 13/19/4
f 13/19/4 9/18/4 12/20/4
f 19/21/5 20/22/5 18/23/5
f 18/23/5 20/22/5 21/24/5
f 18/23/5 21/24/5 29/25/5
f 29/25/5 21/24/5 22/26/5
f 29/25/5 22/26/5 23/17/5
f 29/25/5 23/17/5 28/27/5
f 28/27/5 23/17/5 24/16/5
f 28/27/5 24/16/5 27/28/5
f 27/28/5 24/16/5 25/29/5
f 27/28/5 25/29/5 26/30/5
f 25/31/6 24/32/6 13/33/6
f 13/33/6 24/32/6 14/34/6
f 24/35/3 23/32/3 14/4/3
f 14/4/3 23/32/3 15/34/3
f 23/35/7 22/32/7 15/4/7
f 15/4/7 22/32/7 16/34/7
f 22/35/2 21/32/2 16/4/2
f 16/4/2 21/32/2 17/34/2
f 11/33/1 17/4/1 20/31/1
f 20/31/1 17/4/1 21/35/1
f 8/1/6 30/2/6 9/3/6
f 9/3/6 30/2/6 12/4/6
f 32/36/8 33/37/8 31/38/8
f 31/38/8 33/37/8 34/39/8
f 36/40/4 34/38/4 35/41/4
f 35/41/4 34/38/4 33/42/4
f 37/43/9 36/44/9 30/45/9
f 30/45/9 36/44/9 35/46/9
f 30/45/9 35/46/9 26/47/9
f 38/48/9 39/49/9 37/43/9
f 37/43/9 39/49/9 36/44/9
f 30/45/9 26/47/9 12/50/9
f 12/50/9 26/47/9 25/51/9
f 12/50/9 25/51/9 13/52/9
f 30/53/5 8/54/5 37/55/5
f 37/55/5 8/54/5 40/56/5
f 5/57/10 2/58/10 42/55/10
f 42/55/10 2/58/10 41/59/10
f 7/5/10 43/4/10 8/6/10
f 8/6/10 43/4/10 40/7/10
f 42/59/7 44/55/7 5/60/7
f 5/60/7 44/55/7 45/57/7
f 5/60/7 45/57/7 7/8/7
f 7/8/7 45/57/7 48/5/7
f 7/8/7 48/5/7 43/7/7
f 43/7/7 48/5/7 49/4/7
f 45/57/7 46/61/7 48/5/7
f 48/5/7 46/61/7 47/62/7
f 7/8/7 10/63/7 5/60/7
f 5/60/7 10/63/7 6/64/7
f 45/57/2 50/58/2 46/55/2
f 46/55/2 50/58/2 51/59/2
f 50/53/1 52/54/1 51/55/1
f 51/55/1 52/54/1 53/56/1
f 54/53/6 55/54/6 57/55/6
f 57/55/6 55/54/6 56/56/6
f 58/65/4 59/66/4 69/11/4
f 69/11/4 59/66/4 68/12/4
f 68/12/4 59/66/4 60/67/4
f 68/12/4 60/67/4 67/14/4
f 67/14/4 60/67/4 61/28/4
f 67/14/4 61/28/4 66/16/4
f 66/16/4 61/28/4 65/17/4
f 65/17/4 61/28/4 62/27/4
f 65/17/4 62/27/4 64/19/4
f 64/19/4 62/27/4 63/68/4
f 69/31/1 68/32/1 70/33/1
f 70/33/1 68/32/1 71/34/1
f 72/33/6 73/4/6 64/31/6
f 64/31/6 73/4/6 65/35/6
f 66/35/3 65/32/3 74/4/3
f 74/4/3 65/32/3 73/34/3
f 67/35/7 66/32/7 75/4/7
f 75/4/7 66/32/7 74/34/7
f 68/35/2 67/32/2 71/4/2
f 71/4/2 67/32/2 75/34/2
f 53/9/5 70/11/5 51/69/5
f 51/69/5 70/11/5 71/70/5
f 51/69/5 71/70/5 46/71/5
f 46/71/5 71/70/5 75/72/5
f 46/71/5 75/72/5 47/73/5
f 47/73/5 75/72/5 74/24/5
f 47/73/5 74/24/5 73/26/5
f 47/73/5 73/26/5 56/74/5
f 56/74/5 73/26/5 72/19/5
f 56/74/5 72/19/5 57/20/5
f 48/60/3 47/59/3 55/53/3
f 55/53/3 47/59/3 56/55/3
f 76/43/9 80/46/9 52/45/9
f 52/45/9 80/46/9 58/47/9
f 52/45/9 58/47/9 53/50/9
f 53/50/9 58/47/9 69/51/9
f 53/50/9 69/51/9 70/52/9
f 77/48/9 78/49/9 76/43/9
f 76/43/9 78/49/9 79/44/9
f 76/43/9 79/44/9 80/46/9
f 52/53/4 50/54/4 76/55/4
f 76/55/4 50/54/4 81/56/4
f 48/8/11 55/2/11 49/7/11
f 49/7/11 55/2/11 82/4/11
f 45/60/11 44/59/11 50/53/11
f 50/53/11 44/59/11 81/55/11
f 55/53/4 54/54/4 82/55/4
f 82/55/4 54/54/4 83/56/4
f 63/75/9 84/76/9 54/53/9
f 54/53/9 84/76/9 85/77/9
f 54/53/9 85/77/9 83/55/9
f 83/55/9 85/77/9 86/78/9
f 83/55/9 86/78/9 87/79/9
f 54/53/9 57/80/9 63/75/9
f 63/75/9 57/80/9 64/81/9
f 64/81/9 57/80/9 72/82/9
f 32/83/12 28/84/12 33/85/12
f 33/85/12 28/84/12 27/35/12
f 35/85/1 33/86/1 26/35/1
f 26/35/1 33/86/1 27/87/1
f 88/88/1 84/89/1 62/90/1
f 62/90/1 84/89/1 63/38/1
f 89/91/12 88/42/12 61/92/12
f 61/92/12 88/42/12 62/38/12
f 90/40/5 85/38/5 88/41/5
f 88/41/5 85/38/5 84/42/5
f 89/93/13 91/39/13 88/89/13
f 88/89/13 91/39/13 90/38/13
f 85/65/6 90/66/6 86/11/6
f 86/11/6 90/66/6 95/12/6
f 95/12/6 90/66/6 91/67/6
f 95/12/6 91/67/6 94/14/6
f 94/14/6 91/67/6 31/28/6
f 94/14/6 31/28/6 93/16/6
f 93/16/6 31/28/6 92/17/6
f 92/17/6 31/28/6 34/27/6
f 92/17/6 34/27/6 39/19/6
f 39/19/6 34/27/6 36/68/6
f 86/31/4 95/32/4 87/33/4
f 87/33/4 95/32/4 96/34/4
f 38/33/5 97/4/5 39/31/5
f 39/31/5 97/4/5 92/35/5
f 93/35/10 92/32/10 98/4/10
f 98/4/10 92/32/10 97/34/10
f 94/35/7 93/32/7 99/4/7
f 99/4/7 93/32/7 98/34/7
f 95/35/11 94/32/11 96/4/11
f 96/4/11 94/32/11 99/34/11
f 83/9/1 87/11/1 82/69/1
f 82/69/1 87/11/1 96/70/1
f 82/69/1 96/70/1 49/71/1
f 49/71/1 96/70/1 99/72/1
f 49/71/1 99/72/1 43/73/1
f 43/73/1 99/72/1 98/24/1
f 43/73/1 98/24/1 97/26/1
f 43/73/1 97/26/1 40/74/1
f 40/74/1 97/26/1 38/19/1
f 40/74/1 38/19/1 37/20/1
f 59/35/14 100/85/14 60/94/14
f 60/94/14 100/85/14 101/83/14
f 80/85/6 100/86/6 58/35/6
f 58/35/6 100/86/6 59/95/6
f 102/88/6 103/42/6 18/90/6
f 18/90/6 103/42/6 19/38/6
f 104/91/14 102/42/14 29/92/14
f 29/92/14 102/42/14 18/38/14
f 2/53/5 1/54/5 41/55/5
f 41/55/5 1/54/5 105/56/5
f 106/77/9 105/55/9 103/76/9
f 103/76/9 105/55/9 1/53/9
f 103/76/9 1/53/9 19/75/9
f 19/75/9 1/53/9 4/80/9
f 19/75/9 4/80/9 20/81/9
f 20/81/9 4/80/9 11/82/9
f 106/77/9 107/78/9 105/55/9
f 105/55/9 107/78/9 108/79/9
f 109/40/4 106/38/4 102/41/4
f 102/41/4 106/38/4 103/42/4
f 104/93/8 110/39/8 102/89/8
f 102/89/8 110/39/8 109/38/8
f 31/35/9 91/96/9 32/97/9
f 32/97/9 91/96/9 89/98/9
f 32/97/9 89/98/9 101/93/9
f 101/93/9 89/98/9 60/99/9
f 60/99/9 89/98/9 61/100/9
f 111/39/9 110/38/9 101/93/9
f 101/93/9 110/38/9 104/36/9
f 101/93/9 104/36/9 32/97/9
f 32/97/9 104/36/9 28/101/9
f 28/101/9 104/36/9 29/102/9
f 112/39/13 111/38/13 100/37/13
f 100/37/13 111/38/13 101/36/13
f 79/40/5 112/38/5 80/41/5
f 80/41/5 112/38/5 100/42/5
f 106/65/1 109/66/1 107/11/1
f 107/11/1 109/66/1 116/12/1
f 116/12/1 109/66/1 110/67/1
f 116/12/1 110/67/1 115/14/1
f 115/14/1 110/67/1 111/28/1
f 115/14/1 111/28/1 114/16/1
f 114/16/1 111/28/1 113/17/1
f 113/17/1 111/28/1 112/27/1
f 113/17/1 112/27/1 78/19/1
f 78/19/1 112/27/1 79/68/1
f 107/31/5 116/32/5 108/33/5
f 108/33/5 116/32/5 117/34/5
f 77/33/4 118/4/4 78/31/4
f 78/31/4 118/4/4 113/35/4
f 114/35/11 113/32/11 119/4/11
f 119/4/11 113/32/11 118/34/11
f 115/35/7 114/32/7 120/4/7
f 120/4/7 114/32/7 119/34/7
f 116/35/10 115/32/10 117/4/10
f 117/4/10 115/32/10 120/34/10
f 105/9/6 108/11/6 41/69/6
f 41/69/6 108/11/6 117/70/6
f 41/69/6 117/70/6 42/71/6
f 42/71/6 117/70/6 120/72/6
f 42/71/6 120/72/6 44/73/6
f 44/73/6 120/72/6 119/24/6
f 44/73/6 119/24/6 118/26/6
f 44/73/6 118/26/6 81/74/6
f 81/74/6 118/26/6 77/19/6
f 81/74/6 77/19/6 76/20/6
