# Blender 4.3.2
# www.blender.org
o Pipe_-_L-shape
v -0.041458 0.031361 0.499963
v -0.041458 0.031361 -0.041458
v 0.499963 0.031361 -0.041458
v 0.499963 0.031361 0.041384
v 0.041385 0.031361 0.041385
v 0.041385 0.031361 0.499963
v -0.100037 -0.027218 0.499963
v -0.100037 -0.027218 -0.060037
v -0.060037 0.012782 -0.060037
v 0.499963 -0.027218 -0.100037
v -0.060037 -0.027218 -0.100037
v -0.060037 -0.068639 -0.100037
v 0.499963 -0.068639 -0.100037
v 0.099963 -0.027218 0.099963
v 0.499963 -0.027218 0.099963
v 0.099963 -0.068639 0.099963
v 0.499963 -0.068639 0.099963
v 0.099963 -0.068639 0.499963
v 0.499963 -0.068639 0.179963
v 0.449963 -0.068639 0.179963
v 0.449963 -0.068639 0.149963
v 0.149963 -0.068639 0.149963
v 0.149963 -0.068639 0.449963
v 0.179963 -0.068639 0.449963
v 0.179963 -0.068639 0.499963
v -0.060037 -0.006507 -0.150037
v -0.060037 -0.068639 -0.150037
v -0.150037 -0.068639 -0.060037
v -0.150037 -0.006507 -0.060037
v -0.060037 0.081361 -0.062169
v -0.062169 0.081361 -0.060037
v -0.083070 0.037427 -0.083070
v -0.100037 -0.068639 -0.060037
v 0.062095 0.081361 0.062095
v 0.449963 0.081361 0.062095
v 0.449963 0.081361 -0.062169
v -0.062169 0.081361 0.449963
v 0.062095 0.081361 0.449963
v 0.099963 -0.027218 0.499963
v 0.499963 -0.068639 -0.180037
v 0.499963 0.005919 -0.180037
v 0.499963 0.111361 -0.074595
v 0.499963 0.111361 0.074522
v 0.499963 0.005919 0.179963
v 0.149963 -0.006507 0.149963
v 0.449963 -0.006507 0.149963
v 0.449963 -0.068639 -0.150037
v 0.449963 -0.068639 -0.180037
v -0.100037 -0.068639 0.499963
v -0.180037 -0.068639 0.499963
v -0.180037 -0.068639 0.449963
v -0.150037 -0.068639 0.449963
v 0.449963 -0.006507 -0.150037
v 0.449963 0.005919 0.179963
v 0.449963 0.005919 -0.180037
v 0.449963 0.111361 -0.074595
v 0.449963 0.111361 0.074522
v 0.149963 -0.006507 0.449963
v -0.150037 -0.006507 0.449963
v 0.179963 0.005919 0.499963
v 0.074522 0.111361 0.499963
v -0.074595 0.111361 0.499963
v -0.180037 0.005919 0.499963
v -0.180037 0.005919 0.449963
v 0.179963 0.005919 0.449963
v 0.074522 0.111361 0.449963
v -0.074595 0.111361 0.449963
vn -0.0000 -1.0000 -0.0000
vn 0.7071 -0.7071 -0.0000
vn -0.0000 -0.0000 1.0000
vn -0.0000 -0.7071 -0.7071
vn -0.0000 -0.0000 -1.0000
vn -0.7071 -0.0000 -0.7071
vn -0.5774 0.5773 -0.5773
vn -0.5774 0.5773 -0.5774
vn 0.5774 -0.5773 0.5774
vn 0.7071 -0.0000 0.7071
vn -0.0000 1.0000 -0.0000
vn -1.0000 -0.0000 -0.0000
vn 1.0000 -0.0000 -0.0000
vn -0.7071 -0.7071 -0.0000
vn -0.0000 -0.7071 0.7071
vn -0.0000 0.7071 -0.7071
vn -0.0000 0.7071 0.7071
vn 0.7071 0.7071 -0.0000
vn -0.7071 0.7071 -0.0000
vt 0.414214 5.000000
vt 0.000000 5.000000
vt 0.414214 2.707107
vt 0.000000 2.292893
vt 2.707107 2.292893
vt 2.707107 2.707107
vt 0.000000 2.200000
vt 0.282843 2.200000
vt 0.414214 2.292893
vt 0.207107 2.200000
vt 0.207107 5.000000
vt -0.000000 -0.000000
vt 0.414214 2.000000
vt 0.414214 0.000000
vt 0.207107 2.000000
vt 0.000000 2.000000
vt 0.207107 -0.000000
vt 1.650000 5.000000
vt 1.250000 5.000000
vt 1.500000 4.750000
vt 1.250000 3.000000
vt 1.500000 3.250000
vt 3.250000 3.000000
vt 3.000000 3.250000
vt 3.250000 3.400000
vt 3.000000 3.400000
vt 1.650000 4.750000
vt 0.310660 -0.000000
vt 0.310660 -0.636396
vt -0.000000 -0.636396
vt -0.538079 0.325736
vt -0.538079 0.000000
vt -0.269040 0.162868
vt -0.000000 0.325736
vt 0.282843 0.000000
vt 0.141421 -0.244949
vt 0.000000 -0.282843
vt 0.207107 0.000000
vt 0.207107 -0.282843
vt -1.939340 2.810660
vt -1.939340 2.189340
vt -0.000000 2.810660
vt 0.610660 2.189340
vt 0.621320 2.200000
vt 0.621320 4.750000
vt -0.000000 4.750000
vt 0.207107 3.000000
vt 0.000000 3.000000
vt 0.000000 -0.500000
vt -0.207107 -0.500000
vt 0.000000 -0.900000
vt -0.372792 -0.900000
vt -0.500000 -0.207107
vt -0.900000 -0.372792
vt -0.500000 0.207107
vt -0.900000 0.372792
vt -0.372792 0.900000
vt -0.207107 0.500000
vt 0.000000 0.900000
vt 0.000000 0.500000
vt 0.414214 3.000000
vt -0.000000 2.707107
vt 0.131371 2.200000
vt 0.414214 2.200000
vt 0.000000 3.250000
vt 0.310660 3.250000
vt 0.310660 4.750000
vt 1.250000 2.200000
vt 1.050000 2.000000
vt 1.050000 1.750000
vt 1.500000 2.200000
vt -1.500000 1.750000
vt -1.750000 2.000000
vt -1.750000 1.600000
vt -1.500000 1.600000
vt 0.310660 2.200000
vt 0.372792 0.000000
vt 0.745584 0.000000
vt 0.372792 0.250000
vt 0.745584 0.250000
vt 0.000000 0.250000
vt 0.000000 -0.750000
vt 0.310660 -0.750000
vt 0.372792 -0.900000
vt 0.750000 -0.310660
vt 0.900000 -0.372792
vt 0.750000 0.310660
vt 0.900000 0.372792
vt 0.372792 0.900000
vt 0.310660 0.750000
vt 0.000000 0.750000
vt 0.621320 3.250000
vt 0.621320 2.810660
s 1
f 6/1/1 1/2/1 5/3/1
f 5/3/1 1/2/1 2/4/1
f 5/3/1 2/4/1 3/5/1
f 3/5/1 4/6/1 5/3/1
f 8/7/2 9/8/2 7/2/2
f 7/2/2 9/8/2 1/1/2
f 1/1/2 9/8/2 2/9/2
f 11/7/3 12/10/3 10/2/3
f 10/2/3 12/10/3 13/11/3
f 5/4/4 4/12/4 14/13/4
f 14/13/4 4/12/4 15/14/4
f 16/15/5 14/16/5 17/17/5
f 17/17/5 14/16/5 15/12/5
f 25/18/1 18/19/1 23/20/1
f 23/20/1 18/19/1 16/21/1
f 23/20/1 16/21/1 22/22/1
f 22/22/1 16/21/1 17/23/1
f 22/22/1 17/23/1 21/24/1
f 21/24/1 17/23/1 19/25/1
f 21/24/1 19/25/1 20/26/1
f 23/20/1 24/27/1 25/18/1
f 26/28/6 27/12/6 29/29/6
f 29/29/6 27/12/6 28/30/6
f 31/31/7 30/32/7 32/33/8
f 32/33/8 30/32/7 26/12/8
f 32/33/8 26/12/8 29/34/8
f 29/34/8 31/31/7 32/33/8
f 11/35/9 9/12/9 8/36/9
f 11/12/10 8/37/10 12/38/10
f 12/38/10 8/37/10 33/39/10
f 35/40/11 36/41/11 34/42/11
f 34/42/11 36/41/11 30/43/11
f 34/42/11 30/43/11 31/44/11
f 31/44/11 37/45/11 34/42/11
f 34/42/11 37/45/11 38/46/11
f 16/47/12 18/11/12 14/48/12
f 14/48/12 18/11/12 39/2/12
f 17/49/13 15/50/13 19/51/13
f 19/51/13 15/50/13 44/52/13
f 44/52/13 15/50/13 4/53/13
f 44/52/13 4/53/13 43/54/13
f 43/54/13 4/53/13 3/55/13
f 43/54/13 3/55/13 42/56/13
f 42/56/13 3/55/13 41/57/13
f 41/57/13 3/55/13 10/58/13
f 41/57/13 10/58/13 40/59/13
f 40/59/13 10/58/13 13/60/13
f 39/1/14 6/2/14 14/61/14
f 14/61/14 6/2/14 5/62/14
f 2/4/15 9/63/15 3/2/15
f 3/2/15 9/63/15 10/1/15
f 10/1/15 9/63/15 11/64/15
f 45/65/3 22/66/3 46/46/3
f 46/46/3 22/66/3 21/67/3
f 48/27/1 40/18/1 47/20/1
f 47/20/1 40/18/1 13/19/1
f 47/20/1 13/19/1 12/68/1
f 33/69/1 28/70/1 12/68/1
f 12/68/1 28/70/1 27/71/1
f 12/68/1 27/71/1 47/20/1
f 28/70/1 33/69/1 52/72/1
f 52/72/1 33/69/1 49/73/1
f 52/72/1 49/73/1 50/74/1
f 50/74/1 51/75/1 52/72/1
f 53/67/5 47/46/5 26/76/5
f 26/76/5 47/46/5 27/7/5
f 19/77/3 44/78/3 20/79/3
f 20/79/3 44/78/3 54/80/3
f 48/79/5 55/81/5 40/77/5
f 40/77/5 55/81/5 41/12/5
f 42/12/16 41/78/16 56/81/16
f 56/81/16 41/78/16 55/80/16
f 43/12/11 42/78/11 57/81/11
f 57/81/11 42/78/11 56/80/11
f 44/12/17 43/78/17 54/81/17
f 54/81/17 43/78/17 57/80/17
f 21/82/12 20/51/12 46/83/12
f 46/83/12 20/51/12 54/84/12
f 46/83/12 54/84/12 35/85/12
f 35/85/12 54/84/12 57/86/12
f 35/85/12 57/86/12 36/87/12
f 36/87/12 57/86/12 56/88/12
f 36/87/12 56/88/12 55/89/12
f 36/87/12 55/89/12 53/90/12
f 53/90/12 55/89/12 48/59/12
f 53/90/12 48/59/12 47/91/12
f 30/44/16 36/45/16 26/7/16
f 26/7/16 36/45/16 53/46/16
f 34/42/17 45/92/17 35/46/17
f 35/46/17 45/92/17 46/45/17
f 22/65/13 45/66/13 23/46/13
f 23/46/13 45/66/13 58/67/13
f 34/93/18 38/45/18 45/65/18
f 45/65/18 38/45/18 58/46/18
f 31/7/19 29/44/19 37/46/19
f 37/46/19 29/44/19 59/45/19
f 52/67/12 59/46/12 28/76/12
f 28/76/12 59/46/12 29/7/12
f 18/60/3 25/59/3 39/58/3
f 39/58/3 25/59/3 60/57/3
f 39/58/3 60/57/3 6/55/3
f 6/55/3 60/57/3 61/56/3
f 6/55/3 61/56/3 62/54/3
f 6/55/3 62/54/3 1/53/3
f 1/53/3 62/54/3 63/52/3
f 1/53/3 63/52/3 7/50/3
f 7/50/3 63/52/3 50/51/3
f 7/50/3 50/51/3 49/49/3
f 50/77/12 63/78/12 51/79/12
f 51/79/12 63/78/12 64/80/12
f 24/79/13 65/81/13 25/77/13
f 25/77/13 65/81/13 60/12/13
f 61/12/18 60/78/18 66/81/18
f 66/81/18 60/78/18 65/80/18
f 62/12/11 61/78/11 67/81/11
f 67/81/11 61/78/11 66/80/11
f 63/12/19 62/78/19 64/81/19
f 64/81/19 62/78/19 67/80/19
f 52/82/5 51/51/5 59/83/5
f 59/83/5 51/51/5 64/84/5
f 59/83/5 64/84/5 37/85/5
f 37/85/5 64/84/5 67/86/5
f 37/85/5 67/86/5 38/87/5
f 38/87/5 67/86/5 66/88/5
f 38/87/5 66/88/5 65/89/5
f 38/87/5 65/89/5 58/90/5
f 58/90/5 65/89/5 24/59/5
f 58/90/5 24/59/5 23/91/5
f 33/7/13 8/10/13 49/2/13
f 49/2/13 8/10/13 7/11/13
