# Blender 4.4.0
# www.blender.org
o Upgraded_Pipe_-_Straight
v -0.400000 -0.000045 -0.300000
v -0.500000 -0.000045 -0.300000
v -0.500000 0.124219 -0.300000
v -0.400000 0.124219 -0.300000
v -0.400000 -0.000045 -0.260000
v -0.400000 0.299955 -0.124264
v -0.400000 0.299955 0.124264
v -0.400000 0.124219 0.300000
v -0.400000 -0.000045 0.300000
v -0.400000 -0.000045 0.260000
v -0.400000 0.107651 0.260000
v -0.400000 0.259955 0.107695
v -0.400000 0.259955 -0.107695
v -0.400000 0.107651 -0.260000
v -0.500000 0.299955 0.124264
v -0.500000 0.124219 0.300000
v -0.500000 0.299955 -0.124264
v -0.500000 -0.000045 0.300000
v -0.500000 0.179955 0.074558
v -0.500000 0.074514 0.180000
v -0.500000 -0.000045 0.180000
v -0.500000 -0.000045 -0.180000
v -0.500000 0.074514 -0.180000
v -0.500000 0.179955 -0.074558
v 0.500000 0.074514 0.180000
v 0.500000 -0.000045 0.180000
v 0.500000 0.179955 0.074558
v 0.500000 0.179955 -0.074558
v 0.500000 0.074514 -0.180000
v 0.500000 -0.000045 -0.180000
v 0.400000 -0.000045 -0.260000
v 0.400000 -0.000045 -0.300000
v 0.500000 -0.000045 -0.300000
v 0.500000 0.124219 -0.300000
v 0.500000 0.299955 -0.124264
v 0.500000 0.299955 0.124264
v 0.500000 0.124219 0.300000
v 0.500000 -0.000045 0.300000
v 0.400000 0.107651 -0.260000
v 0.400000 0.259955 -0.107696
v 0.400000 0.259955 0.107696
v 0.400000 0.107651 0.260000
v 0.400000 -0.000045 0.260000
v 0.400000 -0.000045 0.300000
v 0.400000 0.124219 0.300000
v 0.400000 0.299955 0.124264
v 0.400000 0.299955 -0.124264
v 0.400000 0.124219 -0.300000
vn -0.0000 -0.0000 -1.0000
vn 1.0000 -0.0000 -0.0000
vn -0.0000 0.7071 0.7071
vn -0.0000 1.0000 -0.0000
vn -0.0000 0.7071 -0.7071
vn -0.0000 -0.0000 1.0000
vn -1.0000 -0.0000 -0.0000
vn -0.0000 -0.7071 -0.7071
vn -0.0000 -1.0000 -0.0000
vn -0.0000 -0.7071 0.7071
vt 0.621320 0.000000
vt 1.242641 0.000000
vt 0.621320 0.500000
vt 1.242641 0.500000
vt 0.000000 1.300000
vt 0.000000 1.500000
vt -0.538478 1.300000
vt -0.621320 1.500000
vt -1.300000 0.538478
vt -1.500000 0.621320
vt -1.500000 -0.621320
vt -1.300000 -0.538478
vt -0.621320 -1.500000
vt -0.538478 -1.300000
vt 0.000000 -1.500000
vt 0.000000 -1.300000
vt 0.000000 0.000000
vt 0.000000 0.500000
vt 0.900000 0.372792
vt 1.500000 0.621320
vt 0.372792 0.900000
vt 0.621320 1.500000
vt 0.900000 0.000000
vt 1.500000 0.000000
vt -0.372792 0.900000
vt -0.900000 0.372792
vt -1.500000 0.000000
vt -0.900000 0.000000
vt 0.787006 5.000000
vt 0.414214 5.000000
vt 0.787006 0.000000
vt 0.414214 0.000000
vt 0.000000 0.787006
vt -5.000000 0.787006
vt 0.000000 0.041421
vt -5.000000 0.041421
vt 0.041421 5.000000
vt 0.041421 0.000000
vt -2.000000 1.300000
vt 2.500000 0.900000
vt 2.000000 1.300000
vt 2.500000 1.500000
vt 2.000000 1.500000
vt -2.000000 1.500000
vt -2.500000 1.500000
vt -2.500000 0.900000
vt 0.000000 0.900000
vt -0.900000 -0.372792
vt -0.372792 -0.900000
vt -0.000000 -0.900000
vt 1.076955 4.500000
vt 0.538478 4.500000
vt 1.076955 0.500000
vt 0.538478 0.500000
vt -0.000000 4.500000
vt 0.538478 1.300000
vt 1.300000 0.538478
vt 1.500000 -0.621320
vt 1.300000 -0.538478
vt 0.621320 -1.500000
vt 0.538478 -1.300000
vt 2.500000 -1.500000
vt 2.500000 -0.900000
vt 2.000000 -1.300000
vt -2.500000 -0.900000
vt -2.000000 -1.300000
vt -2.500000 -1.500000
vt -2.000000 -1.500000
vt 2.000000 -1.500000
s 1
f 2/1/1 3/2/1 1/3/1
f 1/3/1 3/2/1 4/4/1
f 5/5/2 1/6/2 14/7/2
f 14/7/2 1/6/2 4/8/2
f 14/7/2 4/8/2 13/9/2
f 13/9/2 4/8/2 6/10/2
f 13/9/2 6/10/2 7/11/2
f 13/9/2 7/11/2 12/12/2
f 12/12/2 7/11/2 8/13/2
f 12/12/2 8/13/2 11/14/2
f 11/14/2 8/13/2 9/15/2
f 11/14/2 9/15/2 10/16/2
f 15/17/3 16/2/3 7/18/3
f 7/18/3 16/2/3 8/4/3
f 17/17/4 15/2/4 6/18/4
f 6/18/4 15/2/4 7/4/4
f 3/17/5 17/2/5 4/18/5
f 4/18/5 17/2/5 6/4/5
f 9/3/6 8/18/6 18/1/6
f 18/1/6 8/18/6 16/17/6
f 20/19/7 16/20/7 19/21/7
f 19/21/7 16/20/7 15/22/7
f 19/21/7 15/22/7 17/8/7
f 21/23/7 18/24/7 20/19/7
f 20/19/7 18/24/7 16/20/7
f 19/21/7 17/8/7 24/25/7
f 24/25/7 17/8/7 3/10/7
f 24/25/7 3/10/7 23/26/7
f 23/26/7 3/10/7 2/27/7
f 23/26/7 2/27/7 22/28/7
f 25/29/1 26/30/1 20/31/1
f 20/31/1 26/30/1 21/32/1
f 19/33/8 27/34/8 20/35/8
f 20/35/8 27/34/8 25/36/8
f 24/33/9 28/34/9 19/35/9
f 19/35/9 28/34/9 27/36/9
f 23/33/10 29/34/10 24/35/10
f 24/35/10 29/34/10 28/36/10
f 30/30/6 29/37/6 22/32/6
f 22/32/6 29/37/6 23/38/6
f 31/39/9 22/40/9 5/41/9
f 5/41/9 22/40/9 2/42/9
f 5/41/9 2/42/9 1/43/9
f 32/44/9 33/45/9 31/39/9
f 31/39/9 33/45/9 30/46/9
f 31/39/9 30/46/9 22/40/9
f 29/25/2 34/8/2 28/26/2
f 28/26/2 34/8/2 35/10/2
f 28/26/2 35/10/2 36/11/2
f 30/47/2 33/6/2 29/25/2
f 29/25/2 33/6/2 34/8/2
f 28/26/2 36/11/2 27/48/2
f 27/48/2 36/11/2 37/13/2
f 27/48/2 37/13/2 25/49/2
f 25/49/2 37/13/2 38/15/2
f 25/49/2 38/15/2 26/50/2
f 39/51/1 31/52/1 14/53/1
f 14/53/1 31/52/1 5/54/1
f 40/51/5 39/55/5 13/53/5
f 13/53/5 39/55/5 14/18/5
f 41/51/4 40/55/4 12/53/4
f 12/53/4 40/55/4 13/18/4
f 42/51/3 41/55/3 11/53/3
f 11/53/3 41/55/3 12/18/3
f 10/54/6 43/52/6 11/18/6
f 11/18/6 43/52/6 42/55/6
f 31/5/7 39/56/7 32/6/7
f 32/6/7 39/56/7 48/22/7
f 48/22/7 39/56/7 40/57/7
f 48/22/7 40/57/7 47/20/7
f 47/20/7 40/57/7 46/58/7
f 46/58/7 40/57/7 41/59/7
f 46/58/7 41/59/7 45/60/7
f 45/60/7 41/59/7 42/61/7
f 45/60/7 42/61/7 44/15/7
f 44/15/7 42/61/7 43/16/7
f 32/3/1 48/18/1 33/1/1
f 33/1/1 48/18/1 34/17/1
f 37/17/3 36/2/3 45/18/3
f 45/18/3 36/2/3 46/4/3
f 36/17/4 35/2/4 46/18/4
f 46/18/4 35/2/4 47/4/4
f 35/17/5 34/2/5 47/18/5
f 47/18/5 34/2/5 48/4/5
f 38/1/6 37/2/6 44/3/6
f 44/3/6 37/2/6 45/4/6
f 18/62/9 21/63/9 10/64/9
f 10/64/9 21/63/9 26/65/9
f 10/64/9 26/65/9 43/66/9
f 43/66/9 26/65/9 38/67/9
f 43/66/9 38/67/9 44/68/9
f 10/64/9 9/69/9 18/62/9
