# WaveFront *.obj file (generated by Autodesk ATF)

mtllib Upgraded Pipe - L-shape.mtl

g Body31

v 50.000000 34.000001 -0.000000
v 34.000000 34.000001 -0.000000
v 34.000000 50.000000 0.000000
v 40.000000 50.000000 0.000000
v 40.000000 45.000000 0.000000
v 38.000000 45.000000 0.000000
v 38.000000 38.000000 0.000000
v 45.000000 38.000000 0.000000
v 45.000000 40.000000 0.000000
v 50.000000 40.000000 0.000000
v 19.615000 11.999999 5.384777
v 19.615000 19.615000 12.999777
v 11.999999 19.615000 5.384777
v 19.615000 11.999999 0.000000
v 11.999999 19.615000 0.000000
v 19.615000 15.999999 3.727922
v 19.615000 15.999999 0.000000
v 16.000000 19.615000 0.000000
v 16.000000 19.615000 3.727922
v 19.615001 19.615000 7.342923
v 19.615223 19.615224 13.000000
v 19.615223 19.615000 13.000001
v 30.385001 19.615000 12.999776
v 30.384777 19.615225 13.000001
v 30.384777 19.615000 13.000001
v 34.000000 34.000001 3.727922
v 34.000000 50.000000 3.727922
v 28.727921 28.727922 9.000001
v 28.727922 50.000000 9.000000
v 45.000000 11.999999 5.384777
v 45.000000 19.615223 13.000001
v 50.000000 28.727922 9.000001
v 50.000000 21.272078 9.000001
v 21.272078 21.272077 9.000000
v 21.272078 50.000000 9.000000
v 50.000000 34.000001 3.727922
v 19.615000 30.385001 12.999776
v 19.615000 19.615223 13.000001
v 19.615000 30.384777 13.000001
v 50.000000 15.999999 0.000000
v 50.000000 15.999999 3.727922
v 19.615225 30.384777 13.000001
v 50.000000 10.000000 0.000000
v 50.000000 40.000000 6.213203
v 50.000000 31.213203 15.000000
v 50.000000 18.786797 15.000000
v 50.000000 10.000000 6.213203
v 19.615223 45.000000 13.000001
v 11.999999 45.000000 5.384777
v 16.000000 50.000000 3.727922
v 45.000000 30.384777 13.000001
v 30.384776 30.384776 13.000000
v 30.384777 45.000000 13.000001
v 38.000000 38.000000 5.384776
v 45.000000 38.000001 5.384777
v 45.000000 12.000000 0.000000
v 45.000000 10.000000 0.000000
v 45.000000 10.000000 6.213203
v 45.000000 18.786797 15.000000
v 45.000000 31.213203 15.000000
v 45.000000 40.000000 6.213203
v 38.000001 45.000000 5.384777
v 16.000000 50.000000 0.000000
v 12.000000 45.000000 0.000000
v 10.000000 45.000000 0.000000
v 10.000000 50.000000 0.000000
v 10.000000 50.000000 6.213203
v 18.786797 50.000000 15.000000
v 31.213203 50.000000 15.000000
v 40.000000 50.000000 6.213203
v 40.000000 45.000000 6.213203
v 31.213203 45.000000 15.000000
v 18.786797 45.000000 15.000000
v 10.000000 45.000000 6.213203
vt -1.500000 -2.500000 0.000000
vt -0.900000 -2.500000 0.000000
vt -1.300000 -2.000000 0.000000
vt -0.900000 -0.900000 0.000000
vt -1.300000 -1.300000 0.000000
vt -2.000000 -1.300000 0.000000
vt -2.500000 -0.900000 0.000000
vt -2.500000 -1.500000 0.000000
vt -2.000000 -1.500000 0.000000
vt -1.500000 -2.000000 0.000000
vt -0.538462 -0.932643 0.000000
vt 0.000000 -0.000000 0.000000
vt -1.076924 -0.000000 0.000000
vt -0.538478 0.000000 0.000000
vt -0.000000 0.000000 0.000000
vt -0.538478 1.076924 0.000000
vt 0.000000 1.076924 0.000000
vt -0.372792 0.000000 0.000000
vt -0.000000 0.000000 0.000000
vt -0.372792 0.511238 0.000000
vt 0.000000 0.511238 0.000000
vt -0.255619 0.442745 0.000000
vt -0.000000 0.000000 0.000000
vt 0.255619 0.442745 0.000000
vt 0.000000 3.038478 0.000000
vt 0.000032 3.038500 0.000000
vt 0.000000 3.038500 0.000000
vt 1.076924 3.038500 0.000000
vt 1.076955 3.038478 0.000000
vt 1.076955 3.038500 0.000000
vt -0.000000 1.600000 0.000000
vt -0.000000 -0.000000 0.000000
vt 0.372792 1.600000 0.000000
vt 0.372792 -0.000000 0.000000
vt -0.000000 2.127208 0.000000
vt 0.000000 0.000000 0.000000
vt 0.745584 1.600000 0.000000
vt 0.745584 -0.000000 0.000000
vt -0.649978 0.538500 0.000000
vt -0.650000 0.538478 0.000000
vt -0.649978 -0.538500 0.000000
vt -0.650000 -0.538478 0.000000
vt 0.000032 1.961500 0.000000
vt 1.076955 1.961500 0.000000
vt 0.000032 3.038500 0.000000
vt 1.076955 4.500000 0.000000
vt -0.000000 4.500000 0.000000
vt -0.000000 3.038478 0.000000
vt 0.000000 0.000000 0.000000
vt 0.745584 0.000000 0.000000
vt 0.000000 2.127208 0.000000
vt 0.745585 2.872792 0.000000
vt -2.127208 2.872792 0.000000
vt -2.127208 2.127208 0.000000
vt 0.745584 2.127208 0.000000
vt 0.000000 1.600000 0.000000
vt 0.745584 0.000000 0.000000
vt 0.000000 0.000000 0.000000
vt 0.649978 0.538500 0.000000
vt 0.649978 -0.538500 0.000000
vt 0.650000 0.538478 0.000000
vt 0.650000 -0.538478 0.000000
vt 0.000000 0.000000 0.000000
vt 0.372792 0.000000 0.000000
vt 0.000000 1.600000 0.000000
vt 0.372792 1.600000 0.000000
vt 0.372792 3.038500 0.000000
vt 0.000000 3.038500 0.000000
vt 0.372792 0.000000 0.000000
vt 0.000000 0.000000 0.000000
vt 0.000000 2.872792 0.000000
vt 0.000000 0.000000 0.000000
vt 0.234346 3.038500 0.000000
vt 0.745584 0.000000 0.000000
vt 0.745584 3.038500 0.000000
vt 0.000000 3.038478 0.000000
vt 0.000032 3.038500 0.000000
vt 0.000000 3.038500 0.000000
vt -0.000000 -0.900000 0.000000
vt -0.372792 -0.900000 0.000000
vt 0.000000 -1.500000 0.000000
vt -0.621320 -1.500000 0.000000
vt -0.900000 -0.372792 0.000000
vt -1.500000 -0.621320 0.000000
vt -0.900000 0.372792 0.000000
vt -1.500000 0.621320 0.000000
vt -0.621320 1.500000 0.000000
vt -0.372792 0.900000 0.000000
vt 0.000000 1.500000 0.000000
vt 0.000000 0.900000 0.000000
vt 1.076924 1.961500 0.000000
vt 1.076924 3.038500 0.000000
vt -0.000000 1.961500 0.000000
vt -0.000000 4.500000 0.000000
vt 1.076955 4.500000 0.000000
vt 1.076955 3.038478 0.000000
vt -2.127208 0.041421 0.000000
vt -1.961500 0.275767 0.000000
vt -5.000000 0.041421 0.000000
vt -5.000000 0.787006 0.000000
vt -1.961500 0.787006 0.000000
vt -0.000022 3.038478 0.000000
vt -0.000022 1.961522 0.000000
vt 0.000000 3.038478 0.000000
vt -0.000000 1.961522 0.000000
vt 1.076955 1.961522 0.000000
vt 1.076955 1.961500 0.000000
vt -0.000000 1.961500 0.000000
vt 2.538478 1.961522 0.000000
vt 2.538478 3.038478 0.000000
vt 1.076955 3.038478 0.000000
vt 1.076955 4.500000 0.000000
vt -0.000000 4.500000 0.000000
vt 0.538478 3.800000 0.000000
vt 1.076955 3.800000 0.000000
vt 0.538478 4.500000 0.000000
vt 1.076955 4.500000 0.000000
vt 1.076955 3.038478 0.000000
vt 1.076955 4.500000 0.000000
vt 0.000000 3.800000 0.000000
vt -0.000000 4.500000 0.000000
vt 0.000032 1.961500 0.000000
vt 0.000000 1.961522 0.000000
vt -0.000000 1.961500 0.000000
vt 0.538478 4.500000 0.000000
vt -0.000000 4.500000 0.000000
vt 0.538478 1.961500 0.000000
vt -0.000000 1.961500 0.000000
vt 0.000000 1.300000 0.000000
vt 0.538478 1.300000 0.000000
vt 0.000000 1.500000 0.000000
vt 0.621320 1.500000 0.000000
vt 1.300000 0.538478 0.000000
vt 1.500000 0.621320 0.000000
vt 1.500000 -0.621320 0.000000
vt 1.300000 -0.538478 0.000000
vt 0.621320 -1.500000 0.000000
vt 0.538478 -1.300000 0.000000
vt 0.000000 -1.500000 0.000000
vt 0.000000 -1.300000 0.000000
vt 0.621320 0.500000 0.000000
vt 0.000000 0.500000 0.000000
vt 0.621320 0.000000 0.000000
vt -0.000000 0.000000 0.000000
vt 0.000000 0.000000 0.000000
vt 1.242641 0.000000 0.000000
vt 0.000000 0.500000 0.000000
vt 1.242641 0.500000 0.000000
vt 0.000000 0.000000 0.000000
vt 1.242641 0.000000 0.000000
vt 0.000000 0.500000 0.000000
vt 1.242641 0.500000 0.000000
vt 0.000000 0.000000 0.000000
vt 1.242641 0.000000 0.000000
vt 0.000000 0.500000 0.000000
vt 1.242641 0.500000 0.000000
vt 0.621320 0.000000 0.000000
vt 1.242641 0.000000 0.000000
vt 0.621320 0.500000 0.000000
vt 1.242641 0.500000 0.000000
vt 0.000000 3.038478 0.000000
vt 1.076955 3.800000 0.000000
vt -0.000000 4.500000 0.000000
vt 1.076955 4.500000 0.000000
vt 0.538478 3.800000 0.000000
vt 0.538478 4.500000 0.000000
vt -0.000000 3.800000 0.000000
vt -0.000000 4.500000 0.000000
vt 0.041421 1.961500 0.000000
vt 0.414214 1.961500 0.000000
vt 0.041421 5.000000 0.000000
vt 0.414214 5.000000 0.000000
vt -2.000000 1.500000 0.000000
vt -2.500000 1.500000 0.000000
vt -2.000000 1.300000 0.000000
vt -2.500000 0.900000 0.000000
vt 0.538500 0.900000 0.000000
vt 0.538500 1.300000 0.000000
vt 0.900000 0.538500 0.000000
vt 1.300000 0.538500 0.000000
vt 1.300000 -2.000000 0.000000
vt 0.900000 -2.500000 0.000000
vt 1.500000 -2.500000 0.000000
vt 1.500000 -2.000000 0.000000
vt 0.000000 0.900000 0.000000
vt 0.000000 1.500000 0.000000
vt -0.372792 0.900000 0.000000
vt -0.621320 1.500000 0.000000
vt -0.900000 0.372792 0.000000
vt -1.500000 0.621320 0.000000
vt -1.500000 -0.621320 0.000000
vt -0.900000 -0.372792 0.000000
vt -0.621320 -1.500000 0.000000
vt -0.372792 -0.900000 0.000000
vt 0.000000 -1.500000 0.000000
vt -0.000000 -0.900000 0.000000
vt 1.076955 4.500000 0.000000
vt 0.538478 4.500000 0.000000
vt 1.076955 1.961500 0.000000
vt 0.538478 1.961500 0.000000
vt 0.000000 1.300000 0.000000
vt 0.538478 1.300000 0.000000
vt 0.000000 1.500000 0.000000
vt 0.621320 1.500000 0.000000
vt 1.300000 0.538478 0.000000
vt 1.500000 0.621320 0.000000
vt 1.500000 -0.621320 0.000000
vt 1.300000 -0.538478 0.000000
vt 0.621320 -1.500000 0.000000
vt 0.538478 -1.300000 0.000000
vt 0.000000 -1.500000 0.000000
vt 0.000000 -1.300000 0.000000
vt 0.621320 0.500000 0.000000
vt 0.000000 0.500000 0.000000
vt 0.621320 0.000000 0.000000
vt 0.000000 0.000000 0.000000
vt 0.000000 0.000000 0.000000
vt 1.242641 -0.000000 0.000000
vt 0.000000 0.500000 0.000000
vt 1.242641 0.500000 0.000000
vt -0.000000 0.000000 0.000000
vt 1.242641 0.000000 0.000000
vt -0.000000 0.500000 0.000000
vt 1.242641 0.500000 0.000000
vt -0.000000 0.000000 0.000000
vt 1.242641 -0.000000 0.000000
vt 0.000000 0.500000 0.000000
vt 1.242641 0.500000 0.000000
vt 0.621320 0.000000 0.000000
vt 1.242641 0.000000 0.000000
vt 0.621320 0.500000 0.000000
vt 1.242641 0.500000 0.000000
vn -0.000000 0.000000 -0.100000
vn -0.000000 0.000000 -0.100000
vn -0.000000 0.000000 -0.100000
vn -0.000000 0.000000 -0.100000
vn -0.000000 0.000000 -0.100000
vn -0.000000 0.000000 -0.100000
vn -0.000000 0.000000 -0.100000
vn -0.000000 0.000000 -0.100000
vn -0.000000 0.000000 -0.100000
vn -0.000000 0.000000 -0.100000
vn -0.057735 -0.057735 0.057735
vn -0.057735 -0.057735 0.057735
vn -0.057735 -0.057735 0.057735
vn -0.070711 -0.070711 0.000000
vn -0.070711 -0.070711 0.000000
vn -0.070711 -0.070711 0.000000
vn -0.070711 -0.070711 0.000000
vn 0.070711 0.070711 0.000000
vn 0.070711 0.070711 0.000000
vn 0.070711 0.070711 0.000000
vn 0.070711 0.070711 0.000000
vn 0.057735 0.057735 -0.057735
vn 0.057735 0.057735 -0.057735
vn 0.057735 0.057735 -0.057735
vn -0.070711 0.000000 0.070711
vn -0.070711 0.000000 0.070711
vn -0.070711 0.000000 0.070711
vn 0.070711 0.000000 0.070711
vn 0.070711 0.000000 0.070711
vn 0.070711 0.000000 0.070711
vn -0.100000 0.000000 -0.000000
vn -0.100000 0.000000 -0.000000
vn -0.100000 0.000000 -0.000000
vn -0.100000 0.000000 -0.000000
vn -0.070711 0.000000 -0.070711
vn -0.070711 0.000000 -0.070711
vn -0.070711 0.000000 -0.070711
vn -0.070711 0.000000 -0.070711
vn 0.000000 -0.100000 0.000000
vn 0.000000 -0.100000 0.000000
vn 0.000000 -0.100000 0.000000
vn 0.000000 -0.100000 0.000000
vn 0.000000 -0.070711 0.070711
vn 0.000000 -0.070711 0.070711
vn 0.000000 -0.070711 0.070711
vn 0.000000 -0.070711 0.070711
vn 0.000000 -0.070711 0.070711
vn 0.000000 -0.070711 0.070711
vn 0.000000 0.000000 -0.100000
vn 0.000000 0.000000 -0.100000
vn 0.000000 0.000000 -0.100000
vn 0.000000 0.000000 -0.100000
vn 0.000000 0.000000 -0.100000
vn 0.000000 0.000000 -0.100000
vn 0.000000 -0.070711 -0.070711
vn 0.000000 -0.070711 -0.070711
vn 0.000000 -0.070711 -0.070711
vn 0.000000 -0.070711 -0.070711
vn -0.100000 0.000000 0.000000
vn -0.100000 0.000000 0.000000
vn -0.100000 0.000000 0.000000
vn -0.100000 0.000000 0.000000
vn 0.000000 -0.100000 -0.000000
vn 0.000000 -0.100000 -0.000000
vn 0.000000 -0.100000 -0.000000
vn 0.000000 -0.100000 -0.000000
vn 0.000000 0.100000 0.000000
vn 0.000000 0.100000 0.000000
vn 0.000000 0.100000 0.000000
vn 0.000000 0.100000 0.000000
vn 0.000000 0.070711 -0.070711
vn 0.000000 0.070711 -0.070711
vn 0.000000 0.070711 -0.070711
vn 0.000000 0.070711 -0.070711
vn 0.000000 0.070711 -0.070711
vn 0.000000 0.070711 0.070711
vn 0.000000 0.070711 0.070711
vn 0.000000 0.070711 0.070711
vn 0.100000 0.000000 0.000000
vn 0.100000 0.000000 0.000000
vn 0.100000 0.000000 0.000000
vn 0.100000 0.000000 0.000000
vn 0.100000 0.000000 0.000000
vn 0.100000 0.000000 0.000000
vn 0.100000 0.000000 0.000000
vn 0.100000 0.000000 0.000000
vn 0.100000 0.000000 0.000000
vn 0.100000 0.000000 0.000000
vn 0.100000 0.000000 0.000000
vn 0.100000 0.000000 0.000000
vn -0.070711 -0.000000 0.070711
vn -0.070711 -0.000000 0.070711
vn -0.070711 -0.000000 0.070711
vn -0.070711 -0.000000 0.070711
vn -0.070711 -0.000000 0.070711
vn 0.070711 0.000000 -0.070711
vn 0.070711 0.000000 -0.070711
vn 0.070711 0.000000 -0.070711
vn 0.070711 0.000000 -0.070711
vn 0.070711 0.000000 -0.070711
vn 0.000000 0.000000 0.100000
vn 0.000000 0.000000 0.100000
vn 0.000000 0.000000 0.100000
vn 0.000000 0.000000 0.100000
vn 0.000000 0.000000 0.100000
vn 0.000000 0.000000 0.100000
vn 0.000000 0.000000 0.100000
vn 0.000000 0.000000 0.100000
vn 0.000000 0.000000 0.100000
vn 0.000000 0.000000 0.100000
vn 0.000000 0.000000 0.100000
vn 0.000000 0.000000 0.100000
vn 0.000000 0.100000 0.000000
vn 0.000000 0.100000 0.000000
vn 0.000000 0.100000 0.000000
vn 0.000000 0.100000 0.000000
vn 0.000000 0.070711 0.070711
vn 0.000000 0.070711 0.070711
vn 0.000000 0.070711 0.070711
vn 0.000000 0.070711 0.070711
vn 0.000000 -0.070711 0.070711
vn 0.000000 -0.070711 0.070711
vn 0.000000 -0.100000 0.000000
vn 0.000000 -0.100000 0.000000
vn 0.000000 -0.100000 0.000000
vn 0.000000 -0.100000 0.000000
vn -0.100000 0.000000 0.000000
vn -0.100000 0.000000 0.000000
vn -0.100000 0.000000 0.000000
vn -0.100000 0.000000 0.000000
vn -0.100000 0.000000 0.000000
vn -0.100000 0.000000 0.000000
vn -0.100000 0.000000 0.000000
vn -0.100000 0.000000 0.000000
vn -0.100000 0.000000 0.000000
vn -0.100000 0.000000 0.000000
vn -0.100000 0.000000 0.000000
vn -0.100000 0.000000 0.000000
vn 0.000000 0.100000 0.000000
vn 0.000000 0.100000 0.000000
vn 0.000000 0.100000 0.000000
vn 0.000000 0.100000 0.000000
vn 0.000000 -0.070711 0.070711
vn 0.000000 -0.070711 0.070711
vn 0.000000 -0.070711 0.070711
vn 0.000000 -0.070711 0.070711
vn 0.000000 0.000000 0.100000
vn 0.000000 0.000000 0.100000
vn 0.000000 0.000000 0.100000
vn 0.000000 0.000000 0.100000
vn 0.000000 0.070711 0.070711
vn 0.000000 0.070711 0.070711
vn 0.000000 0.070711 0.070711
vn 0.000000 0.070711 0.070711
vn 0.000000 -0.100000 0.000000
vn 0.000000 -0.100000 0.000000
vn 0.000000 -0.100000 0.000000
vn 0.000000 -0.100000 0.000000
vn 0.070711 0.000000 0.070711
vn 0.070711 0.000000 0.070711
vn 0.070711 0.000000 0.070711
vn 0.070711 0.000000 0.070711
vn 0.100000 0.000000 0.000000
vn 0.100000 0.000000 0.000000
vn 0.100000 0.000000 0.000000
vn 0.100000 0.000000 0.000000
vn 0.100000 0.000000 0.000000
vn 0.100000 0.000000 0.000000
vn 0.100000 0.000000 0.000000
vn 0.100000 0.000000 0.000000
vn -0.000000 0.000000 -0.100000
vn -0.000000 0.000000 -0.100000
vn -0.000000 0.000000 -0.100000
vn -0.000000 0.000000 -0.100000
vn -0.000000 0.000000 -0.100000
vn -0.000000 0.000000 -0.100000
vn -0.000000 0.000000 -0.100000
vn -0.000000 0.000000 -0.100000
vn -0.000000 0.000000 -0.100000
vn -0.000000 0.000000 -0.100000
vn -0.000000 0.000000 -0.100000
vn -0.000000 0.000000 -0.100000
vn -0.000000 0.100000 0.000000
vn -0.000000 0.100000 0.000000
vn -0.000000 0.100000 0.000000
vn -0.000000 0.100000 0.000000
vn -0.000000 0.100000 0.000000
vn -0.000000 0.100000 0.000000
vn -0.000000 0.100000 0.000000
vn -0.000000 0.100000 0.000000
vn -0.000000 0.100000 0.000000
vn -0.000000 0.100000 0.000000
vn -0.000000 0.100000 0.000000
vn -0.000000 0.100000 0.000000
vn -0.100000 -0.000000 0.000000
vn -0.100000 -0.000000 0.000000
vn -0.100000 -0.000000 0.000000
vn -0.100000 -0.000000 0.000000
vn 0.000000 -0.100000 0.000000
vn 0.000000 -0.100000 0.000000
vn 0.000000 -0.100000 0.000000
vn 0.000000 -0.100000 0.000000
vn 0.000000 -0.100000 0.000000
vn 0.000000 -0.100000 0.000000
vn 0.000000 -0.100000 0.000000
vn 0.000000 -0.100000 0.000000
vn 0.000000 -0.100000 0.000000
vn 0.000000 -0.100000 0.000000
vn 0.000000 -0.100000 0.000000
vn 0.000000 -0.100000 0.000000
vn -0.100000 -0.000000 0.000000
vn -0.100000 -0.000000 0.000000
vn -0.100000 -0.000000 0.000000
vn -0.100000 -0.000000 0.000000
vn 0.070711 0.000000 0.070711
vn 0.070711 0.000000 0.070711
vn 0.070711 0.000000 0.070711
vn 0.070711 0.000000 0.070711
vn -0.000000 -0.000000 0.100000
vn -0.000000 -0.000000 0.100000
vn -0.000000 -0.000000 0.100000
vn -0.000000 -0.000000 0.100000
vn -0.070711 -0.000000 0.070711
vn -0.070711 -0.000000 0.070711
vn -0.070711 -0.000000 0.070711
vn -0.070711 -0.000000 0.070711
vn 0.100000 0.000000 0.000000
vn 0.100000 0.000000 0.000000
vn 0.100000 0.000000 0.000000
vn 0.100000 0.000000 0.000000
usemtl Steel_-_Satin
f 10/1/1 1/2/2 8/3/3
f 8/3/3 1/2/2 2/4/4
f 8/3/3 2/4/4 7/5/5
f 7/5/5 2/4/4 6/6/6
f 6/6/6 2/4/4 3/7/7
f 6/6/6 3/7/7 4/8/8
f 4/8/8 5/9/9 6/6/6
f 8/3/3 9/10/10 10/1/1
f 11/11/11 12/12/12 13/13/13
f 14/14/14 11/15/15 15/16/16
f 15/16/16 11/15/15 13/17/17
f 16/18/18 17/19/19 19/20/20
f 19/20/20 17/19/19 18/21/21
f 20/22/22 16/23/23 19/24/24
f 21/25/25 12/26/26 22/27/27
f 23/28/28 24/29/29 25/30/30
f 26/31/31 27/32/32 2/33/33
f 2/33/33 27/32/32 3/34/34
f 28/35/35 29/36/36 26/37/37
f 26/37/37 29/36/36 27/38/38
f 23/39/39 25/40/40 12/41/41
f 12/41/41 25/40/40 22/42/42
f 12/43/43 11/44/44 23/45/45
f 23/45/45 11/44/44 30/46/46
f 23/45/45 30/46/46 31/47/47
f 31/47/47 24/48/48 23/45/45
f 32/49/49 33/50/50 28/51/51
f 28/51/51 33/50/50 34/52/52
f 28/51/51 34/52/52 35/53/53
f 35/53/53 29/54/54 28/51/51
f 28/55/55 26/56/56 32/57/57
f 32/57/57 26/56/56 36/58/58
f 37/59/59 12/60/60 39/61/61
f 39/61/61 12/60/60 38/62/62
f 1/63/63 36/64/64 2/65/65
f 2/65/65 36/64/64 26/66/66
f 17/67/67 16/68/68 40/69/69
f 40/69/69 16/68/68 41/70/70
f 34/71/71 33/72/72 20/73/73
f 20/73/73 33/72/72 41/74/74
f 20/73/73 41/74/74 16/75/75
f 42/76/76 37/77/77 39/78/78
f 40/79/79 41/80/80 43/81/81
f 43/81/81 41/80/80 47/82/82
f 47/82/82 41/80/80 33/83/83
f 47/82/82 33/83/83 46/84/84
f 46/84/84 33/83/83 32/85/85
f 46/84/84 32/85/85 45/86/86
f 45/86/86 32/85/85 44/87/87
f 44/87/87 32/85/85 36/88/88
f 44/87/87 36/88/88 10/89/89
f 10/89/89 36/88/88 1/90/90
f 12/91/26 37/92/91 13/93/92
f 13/93/92 37/92/91 49/94/93
f 49/94/93 37/92/91 48/95/94
f 48/95/94 37/92/91 42/96/95
f 34/97/96 20/98/97 35/99/98
f 35/99/98 20/98/97 50/100/99
f 50/100/99 20/98/97 19/101/100
f 39/102/101 38/103/102 42/104/103
f 42/104/103 38/103/102 21/105/104
f 42/104/103 21/105/104 24/106/105
f 24/106/105 21/105/104 25/107/106
f 25/107/106 21/105/104 22/108/107
f 31/109/108 51/110/109 24/106/105
f 24/106/105 51/110/109 52/111/110
f 24/106/105 52/111/110 42/104/103
f 42/104/103 52/111/110 53/112/111
f 42/104/103 53/112/111 48/113/112
f 7/114/113 54/115/114 8/116/115
f 8/116/115 54/115/114 55/117/116
f 52/118/117 51/119/118 54/120/119
f 54/120/119 51/119/118 55/121/120
f 12/122/43 21/123/121 38/124/122
f 56/125/123 30/126/124 14/127/125
f 14/127/125 30/126/124 11/128/126
f 8/129/127 55/130/128 9/131/129
f 9/131/129 55/130/128 61/132/130
f 61/132/130 55/130/128 51/133/131
f 61/132/130 51/133/131 60/134/132
f 60/134/132 51/133/131 59/135/133
f 59/135/133 51/133/131 31/136/134
f 59/135/133 31/136/134 58/137/135
f 58/137/135 31/136/134 30/138/136
f 58/137/135 30/138/136 57/139/137
f 57/139/137 30/138/136 56/140/138
f 9/141/139 61/142/140 10/143/141
f 10/143/141 61/142/140 44/144/142
f 47/145/143 46/146/144 58/147/145
f 58/147/145 46/146/144 59/148/146
f 46/149/147 45/150/148 59/151/149
f 59/151/149 45/150/148 60/152/150
f 45/153/151 44/154/152 60/155/153
f 60/155/153 44/154/152 61/156/154
f 43/157/155 47/158/156 57/159/157
f 57/159/157 47/158/156 58/160/158
f 52/161/159 54/162/160 53/163/161
f 53/163/161 54/162/160 62/164/162
f 7/165/163 6/166/164 54/167/165
f 54/167/165 6/166/164 62/168/166
f 19/169/167 18/170/168 50/171/169
f 50/171/169 18/170/168 63/172/170
f 65/173/171 66/174/172 64/175/173
f 64/175/173 66/174/172 63/176/174
f 64/175/173 63/176/174 18/177/175
f 64/175/173 18/177/175 15/178/176
f 15/178/176 18/177/175 17/179/177
f 15/178/176 17/179/177 14/180/178
f 14/180/178 17/179/177 56/181/179
f 56/181/179 17/179/177 40/182/180
f 56/181/179 40/182/180 43/183/181
f 43/183/181 57/184/182 56/181/179
f 63/185/183 66/186/184 50/187/185
f 50/187/185 66/186/184 67/188/186
f 50/187/185 67/188/186 35/189/187
f 35/189/187 67/188/186 68/190/188
f 35/189/187 68/190/188 69/191/189
f 35/189/187 69/191/189 29/192/190
f 29/192/190 69/191/189 70/193/191
f 29/192/190 70/193/191 27/194/192
f 27/194/192 70/193/191 4/195/193
f 27/194/192 4/195/193 3/196/194
f 49/197/195 64/198/196 13/199/197
f 13/199/197 64/198/196 15/200/198
f 64/201/199 49/202/200 65/203/201
f 65/203/201 49/202/200 74/204/202
f 74/204/202 49/202/200 48/205/203
f 74/204/202 48/205/203 73/206/204
f 73/206/204 48/205/203 72/207/205
f 72/207/205 48/205/203 53/208/206
f 72/207/205 53/208/206 71/209/207
f 71/209/207 53/208/206 62/210/208
f 71/209/207 62/210/208 5/211/209
f 5/211/209 62/210/208 6/212/210
f 65/213/211 74/214/212 66/215/213
f 66/215/213 74/214/212 67/216/214
f 70/217/215 69/218/216 71/219/217
f 71/219/217 69/218/216 72/220/218
f 69/221/219 68/222/220 72/223/221
f 72/223/221 68/222/220 73/224/222
f 68/225/223 67/226/224 73/227/225
f 73/227/225 67/226/224 74/228/226
f 4/229/227 70/230/228 5/231/229
f 5/231/229 70/230/228 71/232/230
# 74 vertices
# 232 texture params
# 230 normals
# 144 facets

# 1 groups
