# WaveFront *.obj file (generated by Autodesk ATF)

mtllib Upgraded Pipe - T-shape.mtl

g Body18

v 28.727922 28.727923 9.000000
v 50.000000 28.727922 9.000001
v 50.000000 21.272078 9.000001
v 0.000000 21.272078 9.000001
v 0.000000 28.727922 9.000001
v 21.272079 28.727922 9.000001
v 21.272078 50.000000 9.000000
v 28.727922 50.000000 9.000000
v 34.000000 34.000001 3.727922
v 50.000000 34.000001 3.727922
v 16.000000 34.000001 3.727922
v 0.000000 34.000001 3.727922
v 34.000000 34.000001 -0.000000
v 50.000000 34.000001 -0.000000
v 34.000000 50.000000 0.000000
v 40.000000 50.000000 0.000000
v 40.000000 45.000000 0.000000
v 38.000000 45.000000 0.000000
v 38.000000 38.000000 0.000000
v 45.000000 38.000000 0.000000
v 45.000000 40.000000 0.000000
v 50.000000 40.000000 0.000000
v 50.000000 15.999999 3.727922
v 50.000000 15.999999 0.000000
v 0.000000 15.999999 0.000000
v 0.000000 15.999999 3.727922
v 16.000000 34.000001 -0.000000
v 0.000000 34.000001 -0.000000
v 19.615224 30.384776 13.000000
v 12.000000 38.000000 5.384776
v 5.000000 38.000000 5.384776
v 5.000000 30.384776 13.000000
v 5.000000 40.000000 0.000000
v 0.000000 40.000000 0.000000
v 0.000000 40.000000 6.213203
v 5.000000 40.000000 6.213203
v 5.000000 38.000000 0.000000
v 5.000000 31.213203 15.000000
v 5.000000 18.786797 15.000000
v 5.000000 10.000000 6.213203
v 5.000000 10.000000 0.000000
v 5.000000 12.000000 0.000000
v 5.000000 12.000000 5.384776
v 5.000000 19.615224 13.000000
v 0.000000 18.786797 15.000000
v 0.000000 10.000000 6.213203
v 0.000000 31.213203 15.000000
v 0.000000 10.000000 0.000000
v 12.000000 38.000000 0.000000
v 16.000000 50.000000 3.727922
v 16.000000 50.000000 0.000000
v 12.000000 45.000000 0.000000
v 10.000000 45.000000 0.000000
v 10.000000 50.000000 0.000000
v 11.999999 45.000000 5.384777
v 38.000000 38.000000 5.384776
v 45.000000 38.000001 5.384777
v 30.384776 30.384776 13.000000
v 45.000000 30.384777 13.000001
v 50.000000 10.000000 0.000000
v 45.000000 10.000000 0.000000
v 45.000000 12.000000 0.000000
v 50.000000 40.000000 6.213203
v 50.000000 31.213203 15.000000
v 50.000000 18.786797 15.000000
v 50.000000 10.000000 6.213203
v 45.000000 11.999999 5.384777
v 45.000000 19.615223 13.000001
v 45.000000 10.000000 6.213203
v 45.000000 18.786797 15.000000
v 45.000000 31.213203 15.000000
v 45.000000 40.000000 6.213203
v 34.000000 50.000000 3.727922
v 19.615223 45.000000 13.000001
v 38.000001 45.000000 5.384777
v 30.384777 45.000000 13.000001
v 10.000000 50.000000 6.213203
v 18.786797 50.000000 15.000000
v 31.213203 50.000000 15.000000
v 40.000000 50.000000 6.213203
v 40.000000 45.000000 6.213203
v 31.213203 45.000000 15.000000
v 18.786797 45.000000 15.000000
v 10.000000 45.000000 6.213203
vt 0.000000 0.000000 0.000000
vt 0.745584 0.000000 0.000000
vt -0.000000 2.127208 0.000000
vt 0.000000 2.872792 0.000000
vt -2.127208 2.872792 0.000000
vt 0.745584 5.000000 0.000000
vt 0.000000 5.000000 0.000000
vt -2.127208 2.127208 0.000000
vt 0.745584 2.127208 0.000000
vt -0.000000 1.600000 0.000000
vt 0.745584 0.000000 0.000000
vt 0.000000 0.000000 0.000000
vt 0.745584 2.872792 0.000000
vt 0.745584 5.000000 0.000000
vt -0.000000 3.400000 0.000000
vt 0.000000 5.000000 0.000000
vt 0.000000 1.600000 0.000000
vt 0.000000 0.000000 0.000000
vt 0.372792 1.600000 0.000000
vt 0.372792 0.000000 0.000000
vt -2.500000 -0.900000 0.000000
vt -2.000000 -1.300000 0.000000
vt -0.900000 -0.900000 0.000000
vt -1.300000 -1.300000 0.000000
vt -1.300000 -2.000000 0.000000
vt -2.500000 -1.500000 0.000000
vt -2.000000 -1.500000 0.000000
vt -1.500000 -2.000000 0.000000
vt -1.500000 -2.500000 0.000000
vt -0.900000 -2.500000 0.000000
vt 0.000000 0.000000 0.000000
vt 0.372792 0.000000 0.000000
vt 0.000000 5.000000 0.000000
vt 0.372792 5.000000 0.000000
vt 0.000000 0.000000 0.000000
vt 0.745584 0.000000 0.000000
vt -0.000000 5.000000 0.000000
vt 0.745584 5.000000 0.000000
vt 0.000000 3.400000 0.000000
vt 0.372792 3.400000 0.000000
vt 0.000000 5.000000 0.000000
vt 0.372792 5.000000 0.000000
vt 1.076955 1.961522 0.000000
vt 0.000000 1.200000 0.000000
vt 1.076955 0.500000 0.000000
vt 0.000000 0.500000 0.000000
vt 0.621320 0.000000 0.000000
vt 1.242641 0.000000 0.000000
vt 0.621320 0.500000 0.000000
vt 1.242641 0.500000 0.000000
vt 0.000000 1.300000 0.000000
vt 0.000000 1.500000 0.000000
vt -0.538478 1.300000 0.000000
vt -0.621320 1.500000 0.000000
vt -1.300000 0.538478 0.000000
vt -1.500000 0.621320 0.000000
vt -1.500000 -0.621320 0.000000
vt -1.300000 -0.538478 0.000000
vt -0.621320 -1.500000 0.000000
vt -0.538478 -1.300000 0.000000
vt 0.000000 -1.500000 0.000000
vt 0.000000 -1.300000 0.000000
vt 0.000000 0.000000 0.000000
vt 1.242641 0.000000 0.000000
vt 0.000000 0.500000 0.000000
vt 1.242641 0.500000 0.000000
vt 0.000000 0.000000 0.000000
vt 1.242641 0.000000 0.000000
vt 0.000000 0.500000 0.000000
vt 1.242641 0.500000 0.000000
vt 0.000000 0.000000 0.000000
vt 1.242641 0.000000 0.000000
vt 0.000000 0.500000 0.000000
vt 1.242641 0.500000 0.000000
vt 0.621320 0.500000 0.000000
vt 0.000000 0.500000 0.000000
vt 0.621320 0.000000 0.000000
vt 0.000000 0.000000 0.000000
vt 0.900000 0.000000 0.000000
vt 1.500000 0.000000 0.000000
vt 0.900000 0.372792 0.000000
vt 1.500000 0.621320 0.000000
vt 0.372792 0.900000 0.000000
vt 0.621320 1.500000 0.000000
vt -0.621320 1.500000 0.000000
vt -0.372792 0.900000 0.000000
vt -1.500000 0.621320 0.000000
vt -0.900000 0.372792 0.000000
vt -1.500000 0.000000 0.000000
vt -0.900000 -0.000000 0.000000
vt 1.076955 1.200000 0.000000
vt 0.538478 1.200000 0.000000
vt 1.076955 0.500000 0.000000
vt 0.538478 0.500000 0.000000
vt -2.872792 0.041421 0.000000
vt -3.400000 0.787006 0.000000
vt -5.000000 0.041421 0.000000
vt -5.000000 0.787006 0.000000
vt 0.414214 3.400000 0.000000
vt 0.414214 5.000000 0.000000
vt 0.041421 3.400000 0.000000
vt 0.041421 5.000000 0.000000
vt -2.500000 1.500000 0.000000
vt -2.500000 0.900000 0.000000
vt -2.000000 1.300000 0.000000
vt -0.900000 0.900000 0.000000
vt -1.300000 1.300000 0.000000
vt -1.300000 2.000000 0.000000
vt -0.900000 2.500000 0.000000
vt -1.500000 2.500000 0.000000
vt -1.500000 2.000000 0.000000
vt -2.000000 1.500000 0.000000
vt 0.538478 3.800000 0.000000
vt 1.076955 3.800000 0.000000
vt 0.538478 4.500000 0.000000
vt 1.076955 4.500000 0.000000
vt 0.538478 3.800000 0.000000
vt 1.076955 3.800000 0.000000
vt 0.538478 4.500000 0.000000
vt 1.076955 4.500000 0.000000
vt 1.076955 3.038478 0.000000
vt 1.076955 4.500000 0.000000
vt 0.000000 3.800000 0.000000
vt -0.000000 4.500000 0.000000
vt -2.500000 -1.500000 0.000000
vt -2.000000 -1.300000 0.000000
vt -2.500000 -0.900000 0.000000
vt 2.000000 -1.300000 0.000000
vt 2.500000 -0.900000 0.000000
vt 2.500000 -1.500000 0.000000
vt 2.000000 -1.500000 0.000000
vt -2.000000 -1.500000 0.000000
vt 0.000000 0.900000 0.000000
vt 0.000000 1.500000 0.000000
vt -0.372792 0.900000 0.000000
vt -0.621320 1.500000 0.000000
vt -0.900000 0.372792 0.000000
vt -1.500000 0.621320 0.000000
vt -1.500000 -0.621320 0.000000
vt -0.900000 -0.372792 0.000000
vt -0.621320 -1.500000 0.000000
vt -0.372792 -0.900000 0.000000
vt 0.000000 -1.500000 0.000000
vt -0.000000 -0.900000 0.000000
vt 1.076955 4.500000 0.000000
vt -0.000000 4.500000 0.000000
vt 1.076955 0.500000 0.000000
vt 0.000000 0.500000 0.000000
vt 0.538478 0.500000 0.000000
vt 0.538478 4.500000 0.000000
vt 0.000000 0.500000 0.000000
vt -0.000000 4.500000 0.000000
vt 0.000000 1.300000 0.000000
vt 0.538478 1.300000 0.000000
vt 0.000000 1.500000 0.000000
vt 0.621320 1.500000 0.000000
vt 1.300000 0.538478 0.000000
vt 1.500000 0.621320 0.000000
vt 1.500000 -0.621320 0.000000
vt 1.300000 -0.538478 0.000000
vt 0.621320 -1.500000 0.000000
vt 0.538478 -1.300000 0.000000
vt 0.000000 -1.500000 0.000000
vt 0.000000 -1.300000 0.000000
vt 0.621320 0.500000 0.000000
vt 0.000000 0.500000 0.000000
vt 0.621320 0.000000 0.000000
vt -0.000000 0.000000 0.000000
vt 0.000000 0.000000 0.000000
vt 1.242641 0.000000 0.000000
vt 0.000000 0.500000 0.000000
vt 1.242641 0.500000 0.000000
vt 0.000000 0.000000 0.000000
vt 1.242641 0.000000 0.000000
vt 0.000000 0.500000 0.000000
vt 1.242641 0.500000 0.000000
vt 0.000000 0.000000 0.000000
vt 1.242641 0.000000 0.000000
vt 0.000000 0.500000 0.000000
vt 1.242641 0.500000 0.000000
vt 0.621320 0.000000 0.000000
vt 1.242641 0.000000 0.000000
vt 0.621320 0.500000 0.000000
vt 1.242641 0.500000 0.000000
vt 0.787006 5.000000 0.000000
vt 0.414214 5.000000 0.000000
vt 0.787006 3.400000 0.000000
vt 0.414214 3.400000 0.000000
vt -5.000000 0.041421 0.000000
vt -3.400000 0.041421 0.000000
vt -5.000000 0.787006 0.000000
vt -2.872792 0.787006 0.000000
vt 1.076955 3.038478 0.000000
vt 1.076955 4.500000 0.000000
vt 0.000000 3.800000 0.000000
vt -0.000000 4.500000 0.000000
vt 0.000000 3.038478 0.000000
vt 1.076955 3.800000 0.000000
vt -0.000000 4.500000 0.000000
vt 1.076955 4.500000 0.000000
vt 0.538478 3.800000 0.000000
vt 0.538478 4.500000 0.000000
vt -0.000000 3.800000 0.000000
vt -0.000000 4.500000 0.000000
vt -0.372792 0.900000 0.000000
vt -0.621320 1.500000 0.000000
vt -0.900000 0.372792 0.000000
vt -1.500000 0.621320 0.000000
vt -1.500000 -0.621320 0.000000
vt 0.000000 0.900000 0.000000
vt 0.000000 1.500000 0.000000
vt -0.900000 -0.372792 0.000000
vt -0.621320 -1.500000 0.000000
vt -0.372792 -0.900000 0.000000
vt 0.000000 -1.500000 0.000000
vt -0.000000 -0.900000 0.000000
vt -1.461522 3.038478 0.000000
vt -1.461522 1.961522 0.000000
vt 0.000000 3.038478 0.000000
vt 2.538478 1.961522 0.000000
vt 1.076955 3.038478 0.000000
vt 2.538478 3.038478 0.000000
vt 1.076955 4.500000 0.000000
vt -0.000000 4.500000 0.000000
vt 0.000000 1.300000 0.000000
vt 0.538478 1.300000 0.000000
vt 0.000000 1.500000 0.000000
vt 0.621320 1.500000 0.000000
vt 1.300000 0.538478 0.000000
vt 1.500000 0.621320 0.000000
vt 1.500000 -0.621320 0.000000
vt 1.300000 -0.538478 0.000000
vt 0.621320 -1.500000 0.000000
vt 0.538478 -1.300000 0.000000
vt 0.000000 -1.500000 0.000000
vt 0.000000 -1.300000 0.000000
vt 0.621320 0.500000 0.000000
vt 0.000000 0.500000 0.000000
vt 0.621320 0.000000 0.000000
vt 0.000000 0.000000 0.000000
vt 0.000000 0.000000 0.000000
vt 1.242641 -0.000000 0.000000
vt 0.000000 0.500000 0.000000
vt 1.242641 0.500000 0.000000
vt -0.000000 0.000000 0.000000
vt 1.242641 0.000000 0.000000
vt -0.000000 0.500000 0.000000
vt 1.242641 0.500000 0.000000
vt -0.000000 0.000000 0.000000
vt 1.242641 -0.000000 0.000000
vt 0.000000 0.500000 0.000000
vt 1.242641 0.500000 0.000000
vt 0.621320 0.000000 0.000000
vt 1.242641 0.000000 0.000000
vt 0.621320 0.500000 0.000000
vt 1.242641 0.500000 0.000000
vn 0.000000 0.000000 -0.100000
vn 0.000000 0.000000 -0.100000
vn 0.000000 0.000000 -0.100000
vn 0.000000 0.000000 -0.100000
vn 0.000000 0.000000 -0.100000
vn 0.000000 0.000000 -0.100000
vn 0.000000 0.000000 -0.100000
vn 0.000000 0.000000 -0.100000
vn 0.000000 -0.070711 -0.070711
vn 0.000000 -0.070711 -0.070711
vn 0.000000 -0.070711 -0.070711
vn 0.000000 -0.070711 -0.070711
vn 0.000000 -0.070711 -0.070711
vn 0.000000 -0.070711 -0.070711
vn 0.000000 -0.070711 -0.070711
vn 0.000000 -0.070711 -0.070711
vn 0.000000 -0.100000 -0.000000
vn 0.000000 -0.100000 -0.000000
vn 0.000000 -0.100000 -0.000000
vn 0.000000 -0.100000 -0.000000
vn -0.000000 0.000000 -0.100000
vn -0.000000 0.000000 -0.100000
vn -0.000000 0.000000 -0.100000
vn -0.000000 0.000000 -0.100000
vn -0.000000 0.000000 -0.100000
vn -0.000000 0.000000 -0.100000
vn -0.000000 0.000000 -0.100000
vn -0.000000 0.000000 -0.100000
vn -0.000000 0.000000 -0.100000
vn -0.000000 0.000000 -0.100000
vn 0.000000 0.100000 0.000000
vn 0.000000 0.100000 0.000000
vn 0.000000 0.100000 0.000000
vn 0.000000 0.100000 0.000000
vn 0.000000 0.070711 -0.070711
vn 0.000000 0.070711 -0.070711
vn 0.000000 0.070711 -0.070711
vn 0.000000 0.070711 -0.070711
vn 0.000000 -0.100000 -0.000000
vn 0.000000 -0.100000 -0.000000
vn 0.000000 -0.100000 -0.000000
vn 0.000000 -0.100000 -0.000000
vn 0.000000 0.070711 0.070711
vn 0.000000 0.070711 0.070711
vn 0.000000 0.070711 0.070711
vn 0.000000 0.070711 0.070711
vn 0.000000 0.100000 0.000000
vn 0.000000 0.100000 0.000000
vn 0.000000 0.100000 0.000000
vn 0.000000 0.100000 0.000000
vn 0.100000 0.000000 0.000000
vn 0.100000 0.000000 0.000000
vn 0.100000 0.000000 0.000000
vn 0.100000 0.000000 0.000000
vn 0.100000 0.000000 0.000000
vn 0.100000 0.000000 0.000000
vn 0.100000 0.000000 0.000000
vn 0.100000 0.000000 0.000000
vn 0.100000 0.000000 0.000000
vn 0.100000 0.000000 0.000000
vn 0.100000 0.000000 0.000000
vn 0.100000 0.000000 0.000000
vn 0.000000 -0.070711 0.070711
vn 0.000000 -0.070711 0.070711
vn 0.000000 -0.070711 0.070711
vn 0.000000 -0.070711 0.070711
vn 0.000000 0.000000 0.100000
vn 0.000000 0.000000 0.100000
vn 0.000000 0.000000 0.100000
vn 0.000000 0.000000 0.100000
vn 0.000000 0.070711 0.070711
vn 0.000000 0.070711 0.070711
vn 0.000000 0.070711 0.070711
vn 0.000000 0.070711 0.070711
vn 0.000000 -0.100000 -0.000000
vn 0.000000 -0.100000 -0.000000
vn 0.000000 -0.100000 -0.000000
vn 0.000000 -0.100000 -0.000000
vn -0.100000 0.000000 0.000000
vn -0.100000 0.000000 0.000000
vn -0.100000 0.000000 0.000000
vn -0.100000 0.000000 0.000000
vn -0.100000 0.000000 0.000000
vn -0.100000 0.000000 0.000000
vn -0.100000 0.000000 0.000000
vn -0.100000 0.000000 0.000000
vn -0.100000 0.000000 0.000000
vn -0.100000 0.000000 0.000000
vn -0.100000 0.000000 0.000000
vn -0.100000 0.000000 0.000000
vn 0.000000 0.100000 0.000000
vn 0.000000 0.100000 0.000000
vn 0.000000 0.100000 0.000000
vn 0.000000 0.100000 0.000000
vn 0.070711 0.000000 -0.070711
vn 0.070711 0.000000 -0.070711
vn 0.070711 0.000000 -0.070711
vn 0.070711 0.000000 -0.070711
vn 0.100000 0.000000 0.000000
vn 0.100000 0.000000 0.000000
vn 0.100000 0.000000 0.000000
vn 0.100000 0.000000 0.000000
vn -0.000000 0.000000 -0.100000
vn -0.000000 0.000000 -0.100000
vn -0.000000 0.000000 -0.100000
vn -0.000000 0.000000 -0.100000
vn -0.000000 0.000000 -0.100000
vn -0.000000 0.000000 -0.100000
vn -0.000000 0.000000 -0.100000
vn -0.000000 0.000000 -0.100000
vn -0.000000 0.000000 -0.100000
vn -0.000000 0.000000 -0.100000
vn -0.100000 -0.000000 0.000000
vn -0.100000 -0.000000 0.000000
vn -0.100000 -0.000000 0.000000
vn -0.100000 -0.000000 0.000000
vn 0.000000 0.100000 0.000000
vn 0.000000 0.100000 0.000000
vn 0.000000 0.100000 0.000000
vn 0.000000 0.100000 0.000000
vn 0.000000 0.070711 0.070711
vn 0.000000 0.070711 0.070711
vn 0.000000 0.070711 0.070711
vn 0.000000 0.070711 0.070711
vn 0.000000 0.000000 -0.100000
vn 0.000000 0.000000 -0.100000
vn 0.000000 0.000000 -0.100000
vn 0.000000 0.000000 -0.100000
vn 0.000000 0.000000 -0.100000
vn 0.000000 0.000000 -0.100000
vn 0.000000 0.000000 -0.100000
vn 0.000000 0.000000 -0.100000
vn 0.100000 0.000000 0.000000
vn 0.100000 0.000000 0.000000
vn 0.100000 0.000000 0.000000
vn 0.100000 0.000000 0.000000
vn 0.100000 0.000000 0.000000
vn 0.100000 0.000000 0.000000
vn 0.100000 0.000000 0.000000
vn 0.100000 0.000000 0.000000
vn 0.100000 0.000000 0.000000
vn 0.100000 0.000000 0.000000
vn 0.100000 0.000000 0.000000
vn 0.100000 0.000000 0.000000
vn 0.000000 -0.070711 0.070711
vn 0.000000 -0.070711 0.070711
vn 0.000000 -0.070711 0.070711
vn 0.000000 -0.070711 0.070711
vn 0.000000 -0.100000 0.000000
vn 0.000000 -0.100000 0.000000
vn 0.000000 -0.100000 0.000000
vn 0.000000 -0.100000 0.000000
vn -0.100000 0.000000 0.000000
vn -0.100000 0.000000 0.000000
vn -0.100000 0.000000 0.000000
vn -0.100000 0.000000 0.000000
vn -0.100000 0.000000 0.000000
vn -0.100000 0.000000 0.000000
vn -0.100000 0.000000 0.000000
vn -0.100000 0.000000 0.000000
vn -0.100000 0.000000 0.000000
vn -0.100000 0.000000 0.000000
vn -0.100000 0.000000 0.000000
vn -0.100000 0.000000 0.000000
vn 0.000000 0.100000 0.000000
vn 0.000000 0.100000 0.000000
vn 0.000000 0.100000 0.000000
vn 0.000000 0.100000 0.000000
vn 0.000000 -0.070711 0.070711
vn 0.000000 -0.070711 0.070711
vn 0.000000 -0.070711 0.070711
vn 0.000000 -0.070711 0.070711
vn 0.000000 0.000000 0.100000
vn 0.000000 0.000000 0.100000
vn 0.000000 0.000000 0.100000
vn 0.000000 0.000000 0.100000
vn 0.000000 0.070711 0.070711
vn 0.000000 0.070711 0.070711
vn 0.000000 0.070711 0.070711
vn 0.000000 0.070711 0.070711
vn 0.000000 -0.100000 0.000000
vn 0.000000 -0.100000 0.000000
vn 0.000000 -0.100000 0.000000
vn 0.000000 -0.100000 0.000000
vn -0.100000 -0.000000 0.000000
vn -0.100000 -0.000000 0.000000
vn -0.100000 -0.000000 0.000000
vn -0.100000 -0.000000 0.000000
vn -0.070711 -0.000000 -0.070711
vn -0.070711 -0.000000 -0.070711
vn -0.070711 -0.000000 -0.070711
vn -0.070711 -0.000000 -0.070711
vn -0.070711 -0.000000 0.070711
vn -0.070711 -0.000000 0.070711
vn -0.070711 -0.000000 0.070711
vn -0.070711 -0.000000 0.070711
vn 0.070711 0.000000 0.070711
vn 0.070711 0.000000 0.070711
vn 0.070711 0.000000 0.070711
vn 0.070711 0.000000 0.070711
vn 0.100000 0.000000 0.000000
vn 0.100000 0.000000 0.000000
vn 0.100000 0.000000 0.000000
vn 0.100000 0.000000 0.000000
vn -0.000000 0.100000 0.000000
vn -0.000000 0.100000 0.000000
vn -0.000000 0.100000 0.000000
vn -0.000000 0.100000 0.000000
vn -0.000000 0.100000 0.000000
vn -0.000000 0.100000 0.000000
vn -0.000000 0.100000 0.000000
vn -0.000000 0.100000 0.000000
vn -0.000000 0.100000 0.000000
vn -0.000000 0.100000 0.000000
vn -0.000000 0.100000 0.000000
vn -0.000000 0.100000 0.000000
vn 0.000000 0.000000 0.100000
vn 0.000000 0.000000 0.100000
vn 0.000000 0.000000 0.100000
vn 0.000000 0.000000 0.100000
vn 0.000000 0.000000 0.100000
vn 0.000000 0.000000 0.100000
vn 0.000000 0.000000 0.100000
vn 0.000000 0.000000 0.100000
vn 0.000000 -0.100000 0.000000
vn 0.000000 -0.100000 0.000000
vn 0.000000 -0.100000 0.000000
vn 0.000000 -0.100000 0.000000
vn 0.000000 -0.100000 0.000000
vn 0.000000 -0.100000 0.000000
vn 0.000000 -0.100000 0.000000
vn 0.000000 -0.100000 0.000000
vn 0.000000 -0.100000 0.000000
vn 0.000000 -0.100000 0.000000
vn 0.000000 -0.100000 0.000000
vn 0.000000 -0.100000 0.000000
vn -0.100000 -0.000000 0.000000
vn -0.100000 -0.000000 0.000000
vn -0.100000 -0.000000 0.000000
vn -0.100000 -0.000000 0.000000
vn 0.070711 0.000000 0.070711
vn 0.070711 0.000000 0.070711
vn 0.070711 0.000000 0.070711
vn 0.070711 0.000000 0.070711
vn -0.000000 -0.000000 0.100000
vn -0.000000 -0.000000 0.100000
vn -0.000000 -0.000000 0.100000
vn -0.000000 -0.000000 0.100000
vn -0.070711 -0.000000 0.070711
vn -0.070711 -0.000000 0.070711
vn -0.070711 -0.000000 0.070711
vn -0.070711 -0.000000 0.070711
vn 0.100000 0.000000 0.000000
vn 0.100000 0.000000 0.000000
vn 0.100000 0.000000 0.000000
vn 0.100000 0.000000 0.000000
usemtl Steel_-_Satin
f 2/1/1 3/2/2 1/3/3
f 1/3/3 3/2/2 6/4/4
f 1/3/3 6/4/4 7/5/5
f 3/2/2 4/6/6 6/4/4
f 6/4/4 4/6/6 5/7/7
f 7/5/5 8/8/8 1/3/3
f 1/9/9 9/10/10 2/11/11
f 2/11/11 9/10/10 10/12/12
f 6/13/13 5/14/14 11/15/15
f 11/15/15 5/14/14 12/16/16
f 13/17/17 14/18/18 9/19/19
f 9/19/19 14/18/18 10/20/20
f 15/21/21 18/22/22 13/23/23
f 13/23/23 18/22/22 19/24/24
f 13/23/23 19/24/24 20/25/25
f 15/21/21 16/26/26 18/22/22
f 18/22/22 16/26/26 17/27/27
f 21/28/28 22/29/29 20/25/25
f 20/25/25 22/29/29 14/30/30
f 20/25/25 14/30/30 13/23/23
f 23/31/31 24/32/32 26/33/33
f 26/33/33 24/32/32 25/34/34
f 3/35/35 23/36/36 4/37/37
f 4/37/37 23/36/36 26/38/38
f 27/39/39 11/40/40 28/41/41
f 28/41/41 11/40/40 12/42/42
f 29/43/43 30/44/44 32/45/45
f 32/45/45 30/44/44 31/46/46
f 34/47/47 35/48/48 33/49/49
f 33/49/49 35/48/48 36/50/50
f 37/51/51 33/52/52 31/53/53
f 31/53/53 33/52/52 36/54/54
f 31/53/53 36/54/54 32/55/55
f 32/55/55 36/54/54 38/56/56
f 32/55/55 38/56/56 39/57/57
f 32/55/55 39/57/57 44/58/58
f 44/58/58 39/57/57 40/59/59
f 44/58/58 40/59/59 43/60/60
f 43/60/60 40/59/59 41/61/61
f 43/60/60 41/61/61 42/62/62
f 45/63/63 46/64/64 39/65/65
f 39/65/65 46/64/64 40/66/66
f 47/67/67 45/68/68 38/69/69
f 38/69/69 45/68/68 39/70/70
f 35/71/71 47/72/72 36/73/73
f 36/73/73 47/72/72 38/74/74
f 41/75/75 40/76/76 48/77/77
f 48/77/77 40/76/76 46/78/78
f 25/79/79 48/80/80 26/81/81
f 26/81/81 48/80/80 46/82/82
f 26/81/81 46/82/82 4/83/83
f 4/83/83 46/82/82 45/84/84
f 4/83/83 45/84/84 47/85/85
f 4/83/83 47/85/85 5/86/86
f 5/86/86 47/85/85 35/87/87
f 5/86/86 35/87/87 12/88/88
f 12/88/88 35/87/87 34/89/89
f 12/88/88 34/89/89 28/90/90
f 30/91/91 49/92/92 31/93/93
f 31/93/93 49/92/92 37/94/94
f 6/95/95 11/96/96 7/97/97
f 7/97/97 11/96/96 50/98/98
f 27/99/99 51/100/100 11/101/101
f 11/101/101 51/100/100 50/102/102
f 54/103/103 51/104/104 52/105/105
f 52/105/105 51/104/104 27/106/106
f 52/105/105 27/106/106 49/107/107
f 49/107/107 27/106/106 37/108/108
f 37/108/108 27/106/106 28/109/109
f 37/108/108 28/109/109 34/110/110
f 34/110/110 33/111/111 37/108/108
f 52/105/105 53/112/112 54/103/103
f 49/113/113 30/114/114 52/115/115
f 52/115/115 30/114/114 55/116/116
f 19/117/117 56/118/118 20/119/119
f 20/119/119 56/118/118 57/120/120
f 58/121/121 59/122/122 56/123/123
f 56/123/123 59/122/122 57/124/124
f 60/125/125 62/126/126 24/127/127
f 24/127/127 62/126/126 42/128/128
f 24/127/127 42/128/128 25/129/129
f 25/129/129 42/128/128 48/130/130
f 48/130/130 42/128/128 41/131/131
f 60/125/125 61/132/132 62/126/126
f 14/133/133 22/134/134 10/135/135
f 10/135/135 22/134/134 63/136/136
f 10/135/135 63/136/136 2/137/137
f 2/137/137 63/136/136 64/138/138
f 2/137/137 64/138/138 65/139/139
f 2/137/137 65/139/139 3/140/140
f 3/140/140 65/139/139 66/141/141
f 3/140/140 66/141/141 23/142/142
f 23/142/142 66/141/141 60/143/143
f 23/142/142 60/143/143 24/144/144
f 67/145/145 68/146/146 43/147/147
f 43/147/147 68/146/146 44/148/148
f 42/149/149 62/150/150 43/151/151
f 43/151/151 62/150/150 67/152/152
f 20/153/153 57/154/154 21/155/155
f 21/155/155 57/154/154 72/156/156
f 72/156/156 57/154/154 59/157/157
f 72/156/156 59/157/157 71/158/158
f 71/158/158 59/157/157 70/159/159
f 70/159/159 59/157/157 68/160/160
f 70/159/159 68/160/160 69/161/161
f 69/161/161 68/160/160 67/162/162
f 69/161/161 67/162/162 61/163/163
f 61/163/163 67/162/162 62/164/164
f 21/165/165 72/166/166 22/167/167
f 22/167/167 72/166/166 63/168/168
f 66/169/169 65/170/170 69/171/171
f 69/171/171 65/170/170 70/172/172
f 65/173/173 64/174/174 70/175/175
f 70/175/175 64/174/174 71/176/176
f 64/177/177 63/178/178 71/179/179
f 71/179/179 63/178/178 72/180/180
f 60/181/181 66/182/182 61/183/183
f 61/183/183 66/182/182 69/184/184
f 73/185/185 15/186/186 9/187/187
f 9/187/187 15/186/186 13/188/188
f 73/189/189 9/190/190 8/191/191
f 8/191/191 9/190/190 1/192/192
f 29/193/193 74/194/194 30/195/195
f 30/195/195 74/194/194 55/196/196
f 58/197/197 56/198/198 76/199/199
f 76/199/199 56/198/198 75/200/200
f 19/201/201 18/202/202 56/203/203
f 56/203/203 18/202/202 75/204/204
f 50/205/205 77/206/206 7/207/207
f 7/207/207 77/206/206 78/208/208
f 7/207/207 78/208/208 79/209/209
f 51/210/210 54/211/211 50/205/205
f 50/205/205 54/211/211 77/206/206
f 7/207/207 79/209/209 8/212/212
f 8/212/212 79/209/209 80/213/213
f 8/212/212 80/213/213 73/214/214
f 73/214/214 80/213/213 16/215/215
f 73/214/214 16/215/215 15/216/216
f 32/217/217 44/218/218 29/219/219
f 29/219/219 44/218/218 68/220/220
f 29/219/219 68/220/220 58/221/221
f 58/221/221 68/220/220 59/222/222
f 76/223/223 74/224/224 58/221/221
f 58/221/221 74/224/224 29/219/219
f 52/225/225 55/226/226 53/227/227
f 53/227/227 55/226/226 84/228/228
f 84/228/228 55/226/226 74/229/229
f 84/228/228 74/229/229 83/230/230
f 83/230/230 74/229/229 82/231/231
f 82/231/231 74/229/229 76/232/232
f 82/231/231 76/232/232 81/233/233
f 81/233/233 76/232/232 75/234/234
f 81/233/233 75/234/234 17/235/235
f 17/235/235 75/234/234 18/236/236
f 53/237/237 84/238/238 54/239/239
f 54/239/239 84/238/238 77/240/240
f 80/241/241 79/242/242 81/243/243
f 81/243/243 79/242/242 82/244/244
f 79/245/245 78/246/246 82/247/247
f 82/247/247 78/246/246 83/248/248
f 78/249/249 77/250/250 83/251/251
f 83/251/251 77/250/250 84/252/252
f 16/253/253 80/254/254 17/255/255
f 17/255/255 80/254/254 81/256/256
# 84 vertices
# 256 texture params
# 256 normals
# 164 facets

# 1 groups
