# WaveFront *.obj file (generated by Autodesk ATF)

mtllib Upgraded Pipe - Straight.mtl

g Body17

v 5.000000 40.000000 0.000000
v 0.000000 40.000000 0.000000
v 0.000000 40.000000 6.213203
v 5.000000 40.000000 6.213203
v 5.000000 38.000000 0.000000
v 5.000000 31.213203 15.000000
v 5.000000 18.786797 15.000000
v 5.000000 10.000000 6.213203
v 5.000000 10.000000 0.000000
v 5.000000 12.000000 0.000000
v 5.000000 12.000000 5.384776
v 5.000000 19.615224 13.000000
v 5.000000 30.384776 13.000000
v 5.000000 38.000000 5.384776
v 0.000000 18.786797 15.000000
v 0.000000 10.000000 6.213203
v 0.000000 31.213203 15.000000
v 0.000000 10.000000 0.000000
v 0.000000 21.272078 9.000000
v 0.000000 16.000000 3.727922
v 0.000000 16.000000 0.000000
v 0.000000 34.000000 0.000000
v 0.000000 34.000000 3.727922
v 0.000000 28.727922 9.000000
v 50.000000 16.000000 3.727922
v 50.000000 16.000000 0.000000
v 50.000000 21.272078 9.000000
v 50.000000 28.727922 9.000000
v 50.000000 34.000000 3.727922
v 50.000000 34.000000 0.000000
v 45.000000 38.000000 0.000000
v 45.000000 40.000000 0.000000
v 50.000000 40.000000 0.000000
v 50.000000 40.000000 6.213203
v 50.000000 31.213203 15.000000
v 50.000000 18.786797 15.000000
v 50.000000 10.000000 6.213203
v 50.000000 10.000000 0.000000
v 45.000000 38.000001 5.384777
v 45.000000 30.384777 13.000001
v 45.000000 19.615223 13.000001
v 45.000000 11.999999 5.384777
v 45.000000 12.000000 0.000000
v 45.000000 10.000000 0.000000
v 45.000000 10.000000 6.213203
v 45.000000 18.786797 15.000000
v 45.000000 31.213203 15.000000
v 45.000000 40.000000 6.213203
vt 0.621320 0.000000 0.000000
vt 1.242641 0.000000 0.000000
vt 0.621320 0.500000 0.000000
vt 1.242641 0.500000 0.000000
vt 0.000000 1.300000 0.000000
vt 0.000000 1.500000 0.000000
vt -0.538478 1.300000 0.000000
vt -0.621320 1.500000 0.000000
vt -1.300000 0.538478 0.000000
vt -1.500000 0.621320 0.000000
vt -1.500000 -0.621320 0.000000
vt -1.300000 -0.538478 0.000000
vt -0.621320 -1.500000 0.000000
vt -0.538478 -1.300000 0.000000
vt 0.000000 -1.500000 0.000000
vt 0.000000 -1.300000 0.000000
vt 0.000000 0.000000 0.000000
vt 1.242641 0.000000 0.000000
vt 0.000000 0.500000 0.000000
vt 1.242641 0.500000 0.000000
vt 0.000000 0.000000 0.000000
vt 1.242641 0.000000 0.000000
vt 0.000000 0.500000 0.000000
vt 1.242641 0.500000 0.000000
vt 0.000000 0.000000 0.000000
vt 1.242641 0.000000 0.000000
vt 0.000000 0.500000 0.000000
vt 1.242641 0.500000 0.000000
vt 0.621320 0.500000 0.000000
vt 0.000000 0.500000 0.000000
vt 0.621320 0.000000 0.000000
vt 0.000000 0.000000 0.000000
vt 0.900000 0.372792 0.000000
vt 1.500000 0.621320 0.000000
vt 0.372792 0.900000 0.000000
vt 0.621320 1.500000 0.000000
vt -0.621320 1.500000 0.000000
vt 0.900000 0.000000 0.000000
vt 1.500000 0.000000 0.000000
vt -0.372792 0.900000 0.000000
vt -1.500000 0.621320 0.000000
vt -0.900000 0.372792 0.000000
vt -1.500000 0.000000 0.000000
vt -0.900000 0.000000 0.000000
vt 0.787006 5.000000 0.000000
vt 0.414214 5.000000 0.000000
vt 0.787006 0.000000 0.000000
vt 0.414214 0.000000 0.000000
vt 0.000000 0.787006 0.000000
vt -5.000000 0.787006 0.000000
vt 0.000000 0.041421 0.000000
vt -5.000000 0.041421 0.000000
vt 0.000000 0.787006 0.000000
vt -5.000000 0.787006 0.000000
vt 0.000000 0.041421 0.000000
vt -5.000000 0.041421 0.000000
vt 0.000000 0.787006 0.000000
vt -5.000000 0.787006 0.000000
vt 0.000000 0.041421 0.000000
vt -5.000000 0.041421 0.000000
vt 0.414214 5.000000 0.000000
vt 0.041421 5.000000 0.000000
vt 0.414214 0.000000 0.000000
vt 0.041421 0.000000 0.000000
vt -2.000000 1.300000 0.000000
vt 2.500000 0.900000 0.000000
vt 2.000000 1.300000 0.000000
vt 2.500000 1.500000 0.000000
vt 2.000000 1.500000 0.000000
vt -2.000000 1.500000 0.000000
vt -2.500000 1.500000 0.000000
vt -2.500000 0.900000 0.000000
vt -0.372792 0.900000 0.000000
vt -0.621320 1.500000 0.000000
vt -0.900000 0.372792 0.000000
vt -1.500000 0.621320 0.000000
vt -1.500000 -0.621320 0.000000
vt 0.000000 0.900000 0.000000
vt 0.000000 1.500000 0.000000
vt -0.900000 -0.372792 0.000000
vt -0.621320 -1.500000 0.000000
vt -0.372792 -0.900000 0.000000
vt 0.000000 -1.500000 0.000000
vt -0.000000 -0.900000 0.000000
vt 1.076955 4.500000 0.000000
vt 0.538478 4.500000 0.000000
vt 1.076955 0.500000 0.000000
vt 0.538478 0.500000 0.000000
vt 1.076955 4.500000 0.000000
vt -0.000000 4.500000 0.000000
vt 1.076955 0.500000 0.000000
vt 0.000000 0.500000 0.000000
vt 1.076955 4.500000 0.000000
vt -0.000000 4.500000 0.000000
vt 1.076955 0.500000 0.000000
vt 0.000000 0.500000 0.000000
vt 1.076955 4.500000 0.000000
vt -0.000000 4.500000 0.000000
vt 1.076955 0.500000 0.000000
vt 0.000000 0.500000 0.000000
vt 0.538478 0.500000 0.000000
vt 0.538478 4.500000 0.000000
vt 0.000000 0.500000 0.000000
vt -0.000000 4.500000 0.000000
vt 0.000000 1.300000 0.000000
vt 0.538478 1.300000 0.000000
vt 0.000000 1.500000 0.000000
vt 0.621320 1.500000 0.000000
vt 1.300000 0.538478 0.000000
vt 1.500000 0.621320 0.000000
vt 1.500000 -0.621320 0.000000
vt 1.300000 -0.538478 0.000000
vt 0.621320 -1.500000 0.000000
vt 0.538478 -1.300000 0.000000
vt 0.000000 -1.500000 0.000000
vt 0.000000 -1.300000 0.000000
vt 0.621320 0.500000 0.000000
vt 0.000000 0.500000 0.000000
vt 0.621320 0.000000 0.000000
vt -0.000000 0.000000 0.000000
vt 0.000000 0.000000 0.000000
vt 1.242641 0.000000 0.000000
vt 0.000000 0.500000 0.000000
vt 1.242641 0.500000 0.000000
vt 0.000000 0.000000 0.000000
vt 1.242641 0.000000 0.000000
vt 0.000000 0.500000 0.000000
vt 1.242641 0.500000 0.000000
vt 0.000000 0.000000 0.000000
vt 1.242641 0.000000 0.000000
vt 0.000000 0.500000 0.000000
vt 1.242641 0.500000 0.000000
vt 0.621320 0.000000 0.000000
vt 1.242641 0.000000 0.000000
vt 0.621320 0.500000 0.000000
vt 1.242641 0.500000 0.000000
vt 2.500000 -1.500000 0.000000
vt 2.500000 -0.900000 0.000000
vt 2.000000 -1.300000 0.000000
vt -2.500000 -0.900000 0.000000
vt -2.000000 -1.300000 0.000000
vt -2.500000 -1.500000 0.000000
vt -2.000000 -1.500000 0.000000
vt 2.000000 -1.500000 0.000000
vn 0.000000 0.100000 0.000000
vn 0.000000 0.100000 0.000000
vn 0.000000 0.100000 0.000000
vn 0.000000 0.100000 0.000000
vn 0.100000 0.000000 0.000000
vn 0.100000 0.000000 0.000000
vn 0.100000 0.000000 0.000000
vn 0.100000 0.000000 0.000000
vn 0.100000 0.000000 0.000000
vn 0.100000 0.000000 0.000000
vn 0.100000 0.000000 0.000000
vn 0.100000 0.000000 0.000000
vn 0.100000 0.000000 0.000000
vn 0.100000 0.000000 0.000000
vn 0.100000 0.000000 0.000000
vn 0.100000 0.000000 0.000000
vn 0.000000 -0.070711 0.070711
vn 0.000000 -0.070711 0.070711
vn 0.000000 -0.070711 0.070711
vn 0.000000 -0.070711 0.070711
vn 0.000000 0.000000 0.100000
vn 0.000000 0.000000 0.100000
vn 0.000000 0.000000 0.100000
vn 0.000000 0.000000 0.100000
vn 0.000000 0.070711 0.070711
vn 0.000000 0.070711 0.070711
vn 0.000000 0.070711 0.070711
vn 0.000000 0.070711 0.070711
vn 0.000000 -0.100000 -0.000000
vn 0.000000 -0.100000 -0.000000
vn 0.000000 -0.100000 -0.000000
vn 0.000000 -0.100000 -0.000000
vn -0.100000 0.000000 0.000000
vn -0.100000 0.000000 0.000000
vn -0.100000 0.000000 0.000000
vn -0.100000 0.000000 0.000000
vn -0.100000 0.000000 0.000000
vn -0.100000 0.000000 0.000000
vn -0.100000 0.000000 0.000000
vn -0.100000 0.000000 0.000000
vn -0.100000 0.000000 0.000000
vn -0.100000 0.000000 0.000000
vn -0.100000 0.000000 0.000000
vn -0.100000 0.000000 0.000000
vn 0.000000 0.100000 0.000000
vn 0.000000 0.100000 0.000000
vn 0.000000 0.100000 0.000000
vn 0.000000 0.100000 0.000000
vn 0.000000 0.070711 -0.070711
vn 0.000000 0.070711 -0.070711
vn 0.000000 0.070711 -0.070711
vn 0.000000 0.070711 -0.070711
vn 0.000000 0.000000 -0.100000
vn 0.000000 0.000000 -0.100000
vn 0.000000 0.000000 -0.100000
vn 0.000000 0.000000 -0.100000
vn 0.000000 -0.070711 -0.070711
vn 0.000000 -0.070711 -0.070711
vn 0.000000 -0.070711 -0.070711
vn 0.000000 -0.070711 -0.070711
vn 0.000000 -0.100000 0.000000
vn 0.000000 -0.100000 0.000000
vn 0.000000 -0.100000 0.000000
vn 0.000000 -0.100000 0.000000
vn 0.000000 0.000000 -0.100000
vn 0.000000 0.000000 -0.100000
vn 0.000000 0.000000 -0.100000
vn 0.000000 0.000000 -0.100000
vn 0.000000 0.000000 -0.100000
vn 0.000000 0.000000 -0.100000
vn 0.000000 0.000000 -0.100000
vn 0.000000 0.000000 -0.100000
vn 0.100000 0.000000 0.000000
vn 0.100000 0.000000 0.000000
vn 0.100000 0.000000 0.000000
vn 0.100000 0.000000 0.000000
vn 0.100000 0.000000 0.000000
vn 0.100000 0.000000 0.000000
vn 0.100000 0.000000 0.000000
vn 0.100000 0.000000 0.000000
vn 0.100000 0.000000 0.000000
vn 0.100000 0.000000 0.000000
vn 0.100000 0.000000 0.000000
vn 0.100000 0.000000 0.000000
vn 0.000000 0.100000 0.000000
vn 0.000000 0.100000 0.000000
vn 0.000000 0.100000 0.000000
vn 0.000000 0.100000 0.000000
vn 0.000000 0.070711 0.070711
vn 0.000000 0.070711 0.070711
vn 0.000000 0.070711 0.070711
vn 0.000000 0.070711 0.070711
vn 0.000000 0.000000 0.100000
vn 0.000000 0.000000 0.100000
vn 0.000000 0.000000 0.100000
vn 0.000000 0.000000 0.100000
vn 0.000000 -0.070711 0.070711
vn 0.000000 -0.070711 0.070711
vn 0.000000 -0.070711 0.070711
vn 0.000000 -0.070711 0.070711
vn 0.000000 -0.100000 0.000000
vn 0.000000 -0.100000 0.000000
vn 0.000000 -0.100000 0.000000
vn 0.000000 -0.100000 0.000000
vn -0.100000 0.000000 0.000000
vn -0.100000 0.000000 0.000000
vn -0.100000 0.000000 0.000000
vn -0.100000 0.000000 0.000000
vn -0.100000 0.000000 0.000000
vn -0.100000 0.000000 0.000000
vn -0.100000 0.000000 0.000000
vn -0.100000 0.000000 0.000000
vn -0.100000 0.000000 0.000000
vn -0.100000 0.000000 0.000000
vn -0.100000 0.000000 0.000000
vn -0.100000 0.000000 0.000000
vn 0.000000 0.100000 0.000000
vn 0.000000 0.100000 0.000000
vn 0.000000 0.100000 0.000000
vn 0.000000 0.100000 0.000000
vn 0.000000 -0.070711 0.070711
vn 0.000000 -0.070711 0.070711
vn 0.000000 -0.070711 0.070711
vn 0.000000 -0.070711 0.070711
vn 0.000000 0.000000 0.100000
vn 0.000000 0.000000 0.100000
vn 0.000000 0.000000 0.100000
vn 0.000000 0.000000 0.100000
vn 0.000000 0.070711 0.070711
vn 0.000000 0.070711 0.070711
vn 0.000000 0.070711 0.070711
vn 0.000000 0.070711 0.070711
vn 0.000000 -0.100000 0.000000
vn 0.000000 -0.100000 0.000000
vn 0.000000 -0.100000 0.000000
vn 0.000000 -0.100000 0.000000
vn 0.000000 0.000000 -0.100000
vn 0.000000 0.000000 -0.100000
vn 0.000000 0.000000 -0.100000
vn 0.000000 0.000000 -0.100000
vn 0.000000 0.000000 -0.100000
vn 0.000000 0.000000 -0.100000
vn 0.000000 0.000000 -0.100000
vn 0.000000 0.000000 -0.100000
usemtl Steel_-_Satin
f 2/1/1 3/2/2 1/3/3
f 1/3/3 3/2/2 4/4/4
f 5/5/5 1/6/6 14/7/7
f 14/7/7 1/6/6 4/8/8
f 14/7/7 4/8/8 13/9/9
f 13/9/9 4/8/8 6/10/10
f 13/9/9 6/10/10 7/11/11
f 13/9/9 7/11/11 12/12/12
f 12/12/12 7/11/11 8/13/13
f 12/12/12 8/13/13 11/14/14
f 11/14/14 8/13/13 9/15/15
f 11/14/14 9/15/15 10/16/16
f 15/17/17 16/18/18 7/19/19
f 7/19/19 16/18/18 8/20/20
f 17/21/21 15/22/22 6/23/23
f 6/23/23 15/22/22 7/24/24
f 3/25/25 17/26/26 4/27/27
f 4/27/27 17/26/26 6/28/28
f 9/29/29 8/30/30 18/31/31
f 18/31/31 8/30/30 16/32/32
f 20/33/33 16/34/34 19/35/35
f 19/35/35 16/34/34 15/36/36
f 19/35/35 15/36/36 17/37/37
f 21/38/38 18/39/39 20/33/33
f 20/33/33 18/39/39 16/34/34
f 19/35/35 17/37/37 24/40/40
f 24/40/40 17/37/37 3/41/41
f 24/40/40 3/41/41 23/42/42
f 23/42/42 3/41/41 2/43/43
f 23/42/42 2/43/43 22/44/44
f 25/45/45 26/46/46 20/47/47
f 20/47/47 26/46/46 21/48/48
f 19/49/49 27/50/50 20/51/51
f 20/51/51 27/50/50 25/52/52
f 24/53/53 28/54/54 19/55/55
f 19/55/55 28/54/54 27/56/56
f 23/57/57 29/58/58 24/59/59
f 24/59/59 29/58/58 28/60/60
f 30/61/61 29/62/62 22/63/63
f 22/63/63 29/62/62 23/64/64
f 31/65/65 22/66/66 5/67/67
f 5/67/67 22/66/66 2/68/68
f 5/67/67 2/68/68 1/69/69
f 32/70/70 33/71/71 31/65/65
f 31/65/65 33/71/71 30/72/72
f 31/65/65 30/72/72 22/66/66
f 29/73/73 34/74/74 28/75/75
f 28/75/75 34/74/74 35/76/76
f 28/75/75 35/76/76 36/77/77
f 30/78/78 33/79/79 29/73/73
f 29/73/73 33/79/79 34/74/74
f 28/75/75 36/77/77 27/80/80
f 27/80/80 36/77/77 37/81/81
f 27/80/80 37/81/81 25/82/82
f 25/82/82 37/81/81 38/83/83
f 25/82/82 38/83/83 26/84/84
f 39/85/85 31/86/86 14/87/87
f 14/87/87 31/86/86 5/88/88
f 40/89/89 39/90/90 13/91/91
f 13/91/91 39/90/90 14/92/92
f 41/93/93 40/94/94 12/95/95
f 12/95/95 40/94/94 13/96/96
f 42/97/97 41/98/98 11/99/99
f 11/99/99 41/98/98 12/100/100
f 10/101/101 43/102/102 11/103/103
f 11/103/103 43/102/102 42/104/104
f 31/105/105 39/106/106 32/107/107
f 32/107/107 39/106/106 48/108/108
f 48/108/108 39/106/106 40/109/109
f 48/108/108 40/109/109 47/110/110
f 47/110/110 40/109/109 46/111/111
f 46/111/111 40/109/109 41/112/112
f 46/111/111 41/112/112 45/113/113
f 45/113/113 41/112/112 42/114/114
f 45/113/113 42/114/114 44/115/115
f 44/115/115 42/114/114 43/116/116
f 32/117/117 48/118/118 33/119/119
f 33/119/119 48/118/118 34/120/120
f 37/121/121 36/122/122 45/123/123
f 45/123/123 36/122/122 46/124/124
f 36/125/125 35/126/126 46/127/127
f 46/127/127 35/126/126 47/128/128
f 35/129/129 34/130/130 47/131/131
f 47/131/131 34/130/130 48/132/132
f 38/133/133 37/134/134 44/135/135
f 44/135/135 37/134/134 45/136/136
f 18/137/137 21/138/138 10/139/139
f 10/139/139 21/138/138 26/140/140
f 10/139/139 26/140/140 43/141/141
f 43/141/141 26/140/140 38/142/142
f 43/141/141 38/142/142 44/143/143
f 10/139/139 9/144/144 18/137/137
# 48 vertices
# 144 texture params
# 144 normals
# 92 facets

# 1 groups
