# Blender 4.3.2
# www.blender.org
o Drain_Pipe_-_Cross
v -0.150000 -0.000135 -0.150000
v -0.150000 0.061997 -0.150000
v -0.150000 0.061997 -0.450000
v -0.150000 -0.000135 -0.450000
v -0.106066 0.105931 -0.106066
v -0.062132 0.149865 -0.150000
v -0.062132 0.149865 -0.450000
v 0.062132 0.149865 -0.150000
v 0.062132 0.149865 -0.450000
v 0.106066 0.105931 -0.106066
v 0.150000 0.061997 -0.150000
v 0.150000 0.061997 -0.450000
v 0.150000 -0.000135 -0.150000
v 0.150000 -0.000135 -0.450000
v -0.180000 -0.000135 -0.500000
v -0.180000 -0.000135 -0.450000
v -0.180000 0.074423 -0.450000
v -0.180000 0.074423 -0.500000
v -0.074558 0.179865 -0.500000
v -0.074558 0.179865 -0.450000
v 0.074559 0.179865 -0.500000
v 0.074559 0.179865 -0.450000
v 0.180000 0.074423 -0.500000
v 0.180000 0.074423 -0.450000
v 0.180000 -0.000135 -0.450000
v 0.180000 -0.000135 -0.500000
v -0.100000 0.041286 -0.500000
v -0.100000 -0.000135 -0.500000
v 0.100000 -0.000135 -0.500000
v 0.100000 0.041286 -0.500000
v 0.041422 0.099865 -0.500000
v -0.041421 0.099865 -0.500000
v -0.100000 0.099865 0.041421
v -0.100000 0.099865 -0.041421
v -0.100000 0.499865 -0.041421
v -0.100000 0.499865 0.041421
v -0.070710 0.070576 -0.070711
v -0.041421 0.099865 -0.100000
v -0.041421 0.499865 -0.100000
v 0.041422 0.099865 -0.100000
v 0.041422 0.499865 -0.100000
v 0.100000 0.099865 0.041421
v 0.100000 0.099865 -0.041421
v 0.500000 0.099865 -0.041421
v 0.500000 0.099865 0.041421
v 0.070711 0.070576 -0.070711
v 0.100000 0.041286 -0.100000
v 0.500000 0.041286 -0.100000
v 0.100000 -0.000135 -0.100000
v 0.500000 -0.000135 -0.100000
v 0.450000 -0.000135 -0.150000
v 0.450000 -0.000135 -0.180000
v 0.500000 -0.000135 -0.180000
v 0.450000 0.061997 -0.150000
v 0.150000 -0.000135 0.150000
v 0.150000 0.061997 0.150000
v 0.150000 0.061997 0.450000
v 0.150000 -0.000135 0.450000
v 0.106066 0.105931 0.106066
v 0.062132 0.149865 0.150000
v 0.062132 0.149865 0.450000
v -0.062132 0.149865 0.150000
v -0.062132 0.149865 0.450000
v -0.106066 0.105931 0.106066
v -0.150000 0.061997 0.150000
v -0.150000 0.061997 0.450000
v -0.150000 -0.000135 0.450000
v -0.180000 -0.000135 0.450000
v -0.180000 0.074423 0.450000
v -0.074558 0.179865 0.450000
v 0.074559 0.179865 0.450000
v 0.180000 0.074423 0.450000
v 0.180000 -0.000135 0.450000
v -0.180000 0.074423 0.500000
v -0.074558 0.179865 0.500000
v 0.074559 0.179865 0.500000
v 0.180000 0.074423 0.500000
v 0.180000 -0.000135 0.500000
v -0.180000 -0.000135 0.500000
v -0.100000 -0.000135 0.500000
v -0.100000 0.041286 0.500000
v -0.041421 0.099865 0.500000
v 0.041422 0.099865 0.500000
v 0.100000 0.041286 0.500000
v 0.100000 -0.000135 0.500000
v -0.150000 -0.000135 0.150000
v 0.100000 0.499865 0.041421
v 0.100000 0.499865 -0.041421
v 0.070711 0.070576 0.070711
v 0.041422 0.099865 0.100000
v 0.041422 0.499865 0.100000
v -0.041421 0.099865 0.100000
v -0.041421 0.499865 0.100000
v -0.070710 0.070576 0.070711
v -0.500000 0.099865 0.041421
v -0.500000 0.099865 -0.041421
v -0.100000 0.041286 0.100000
v -0.500000 0.041286 0.100000
v -0.100000 -0.000135 0.100000
v -0.500000 -0.000135 0.100000
v -0.450000 -0.000135 0.150000
v -0.450000 -0.000135 0.180000
v -0.500000 -0.000135 0.180000
v -0.450000 0.061997 0.150000
v 0.150000 0.149865 -0.062132
v 0.450000 0.149865 -0.062132
v 0.150000 0.149865 0.062132
v 0.450000 0.149865 0.062132
v 0.450000 0.061997 0.150000
v 0.450000 -0.000135 0.150000
v 0.450000 -0.000135 0.180000
v 0.450000 0.074423 0.180000
v 0.450000 0.179865 0.074558
v 0.450000 0.179865 -0.074558
v 0.450000 0.074423 -0.180000
v 0.500000 0.074423 0.180000
v 0.500000 0.179865 0.074558
v 0.500000 0.179865 -0.074558
v 0.500000 0.074423 -0.180000
v 0.500000 -0.000135 0.180000
v 0.500000 -0.000135 0.100000
v 0.500000 0.041286 0.100000
v 0.100000 0.041286 0.100000
v -0.150000 0.149865 0.062132
v -0.150000 0.149865 -0.062132
v -0.450000 0.149865 -0.062132
v -0.450000 0.149865 0.062132
v -0.450000 0.061997 -0.150000
v -0.450000 -0.000135 -0.150000
v -0.450000 0.074423 0.180000
v -0.500000 0.074423 0.180000
v -0.500000 0.179865 0.074558
v -0.450000 0.179865 0.074558
v -0.500000 0.179865 -0.074558
v -0.450000 0.179865 -0.074558
v -0.500000 0.074423 -0.180000
v -0.450000 0.074423 -0.180000
v -0.450000 -0.000135 -0.180000
v -0.500000 -0.000135 -0.180000
v -0.500000 -0.000135 -0.100000
v -0.500000 0.041286 -0.100000
v -0.062132 0.449865 0.150000
v -0.150000 0.449865 0.062132
v 0.100000 -0.000135 0.100000
v -0.100000 0.041286 -0.100000
v -0.100000 -0.000135 -0.100000
v 0.150000 0.449865 0.062132
v 0.062132 0.449865 0.150000
v 0.062132 0.449865 -0.150000
v 0.150000 0.449865 -0.062132
v -0.062132 0.449865 -0.150000
v -0.150000 0.449865 -0.062132
v 0.180000 0.499865 0.074558
v 0.074559 0.499865 0.180000
v 0.074559 0.449865 0.180000
v 0.180000 0.449865 0.074558
v 0.180000 0.499865 -0.074558
v 0.180000 0.449865 -0.074558
v 0.074559 0.499865 -0.180000
v 0.074559 0.449865 -0.180000
v -0.074558 0.449865 -0.180000
v -0.074558 0.449865 0.180000
v -0.180000 0.449865 0.074558
v -0.180000 0.449865 -0.074558
v -0.074558 0.499865 0.180000
v -0.180000 0.499865 0.074558
v -0.180000 0.499865 -0.074558
v -0.074558 0.499865 -0.180000
vn -1.0000 -0.0000 -0.0000
vn -0.7071 0.7071 -0.0000
vn -0.0000 1.0000 -0.0000
vn 0.7071 0.7071 -0.0000
vn 1.0000 -0.0000 -0.0000
vn -0.0000 -0.0000 -1.0000
vn -0.0000 -0.0000 1.0000
vn 0.7071 -0.0000 0.7071
vn -0.0000 -1.0000 -0.0000
vn -0.0000 -0.7071 0.7071
vn -0.7071 -0.0000 -0.7071
vn 0.7071 -0.0000 -0.7071
vn -0.0000 -0.7071 -0.7071
vn -0.0000 0.7071 -0.7071
vn -0.0000 0.7071 0.7071
vn -0.7071 -0.0000 0.7071
vn -0.7071 -0.7071 -0.0000
vn 0.7071 -0.7071 -0.0000
vt 0.310660 1.750000
vt -0.000000 1.750000
vt 0.310660 0.250000
vt -0.000000 0.250000
vt 0.621320 1.750000
vt 0.310660 1.969670
vt 0.621320 0.250000
vt 0.372792 0.250000
vt 0.372792 -0.000000
vt 0.000000 0.000000
vt 0.745584 -0.000000
vt 0.745584 0.250000
vt 0.500000 -0.000000
vt 0.900000 -0.000000
vt 0.500000 0.207107
vt 0.900000 0.372792
vt 0.207107 0.500000
vt 0.372792 0.900000
vt -0.372792 0.900000
vt -0.207107 0.500000
vt -0.900000 0.372792
vt -0.500000 0.207107
vt -0.900000 -0.000000
vt -0.500000 -0.000000
vt 0.000000 -0.750000
vt -0.310660 -0.750000
vt 0.000000 -0.900000
vt -0.372792 -0.900000
vt -0.750000 -0.310660
vt -0.900000 -0.372792
vt -0.750000 0.310660
vt -0.310660 0.750000
vt 0.000000 0.900000
vt 0.000000 0.750000
vt -0.000000 3.000000
vt 0.414214 3.000000
vt 0.000000 5.000000
vt 0.414214 5.000000
vt 0.000000 3.000000
vt 0.207107 2.853553
vt -0.414214 3.000000
vt -0.414214 5.000000
vt -0.207107 2.853553
vt 0.707107 2.500000
vt 2.707107 2.500000
vt 0.707107 2.707107
vt 2.707107 2.707107
vt -2.700000 0.750000
vt -2.950000 0.500000
vt -1.200000 0.750000
vt -0.950000 0.500000
vt -0.950000 2.500000
vt -2.700000 0.900000
vt -2.950000 0.900000
vt -1.200000 2.250000
vt -1.350000 2.500000
vt -1.350000 2.250000
vt 0.000000 3.250000
vt 0.310660 3.250000
vt 0.000000 4.750000
vt 0.310660 4.750000
vt 0.310660 3.030330
vt 0.621320 4.750000
vt 0.621320 3.250000
vt 0.310660 -0.750000
vt 0.372792 -0.900000
vt 0.750000 -0.310660
vt 0.900000 -0.372792
vt 0.750000 0.310660
vt 0.310660 0.750000
vt 0.000000 -0.500000
vt -0.207107 -0.500000
vt -0.500000 -0.207107
vt 0.000000 0.500000
vt 0.414214 2.000000
vt 0.000000 2.000000
vt 0.414214 0.000000
vt 0.207107 2.146447
vt 0.207107 5.000000
vt -0.207107 5.000000
vt 0.207107 3.000000
vt -0.207107 3.000000
vt -0.414214 2.000000
vt -0.414214 0.000000
vt -0.207107 2.146447
vt 0.500000 2.500000
vt 2.500000 2.500000
vt 0.500000 2.707107
vt 2.500000 2.707107
vt 1.800000 -0.750000
vt 2.050000 -0.500000
vt 0.300000 -0.750000
vt 0.050000 -0.500000
vt 0.300000 -2.250000
vt 0.050000 -2.500000
vt 0.450000 -2.500000
vt 1.800000 -0.900000
vt 2.050000 -0.900000
vt 0.450000 -2.250000
vt -0.414213 3.000000
vt -0.414213 5.000000
vt 0.414213 2.000000
vt -0.414213 2.000000
vt -0.414213 -0.000000
vt -0.207107 -0.000000
vt -0.207107 2.000000
vt -0.207107 2.853554
vt -0.950000 -2.500000
vt -0.950000 -0.500000
vt -1.200000 -0.750000
vt -2.950000 -0.500000
vt -2.700000 -0.750000
vt -2.950000 -0.900000
vt -2.700000 -0.900000
vt -1.200000 -2.250000
vt -1.350000 -2.500000
vt -1.350000 -2.250000
vt -2.500000 2.707107
vt -2.500000 2.500000
vt -0.500000 2.707107
vt -0.500000 2.500000
vt -2.292893 2.707107
vt -2.292893 2.500000
vt -0.292893 2.707107
vt -0.292893 2.500000
vt -0.310660 3.250000
vt -0.310660 4.750000
vt 2.050000 0.500000
vt 0.300000 0.750000
vt 0.050000 0.500000
vt 0.300000 2.250000
vt 0.050000 2.500000
vt 0.450000 2.500000
vt 0.450000 2.250000
vt 1.800000 0.750000
vt 2.050000 0.900000
vt 1.800000 0.900000
vt 0.207107 -0.500000
vt 0.500000 -0.207107
s 1
f 1/1/1 2/2/1 4/3/1
f 4/3/1 2/2/1 3/4/1
f 2/5/2 5/6/2 3/7/2
f 3/7/2 5/6/2 7/4/2
f 7/4/2 5/6/2 6/2/2
f 8/2/3 9/4/3 6/5/3
f 6/5/3 9/4/3 7/7/3
f 8/5/4 10/6/4 9/7/4
f 9/7/4 10/6/4 12/4/4
f 12/4/4 10/6/4 11/2/4
f 11/1/5 13/2/5 12/3/5
f 12/3/5 13/2/5 14/4/5
f 16/8/1 17/4/1 15/9/1
f 15/9/1 17/4/1 18/10/1
f 19/10/2 18/11/2 20/4/2
f 20/4/2 18/11/2 17/12/2
f 21/10/3 19/11/3 22/4/3
f 22/4/3 19/11/3 20/12/3
f 23/10/4 21/11/4 24/4/4
f 24/4/4 21/11/4 22/12/4
f 26/9/5 23/11/5 25/8/5
f 25/8/5 23/11/5 24/12/5
f 28/13/6 15/14/6 27/15/6
f 27/15/6 15/14/6 18/16/6
f 27/15/6 18/16/6 32/17/6
f 32/17/6 18/16/6 19/18/6
f 32/17/6 19/18/6 21/19/6
f 32/17/6 21/19/6 31/20/6
f 31/20/6 21/19/6 23/21/6
f 31/20/6 23/21/6 30/22/6
f 30/22/6 23/21/6 26/23/6
f 30/22/6 26/23/6 29/24/6
f 4/25/7 3/26/7 16/27/7
f 16/27/7 3/26/7 17/28/7
f 17/28/7 3/26/7 7/29/7
f 17/28/7 7/29/7 20/30/7
f 20/30/7 7/29/7 9/31/7
f 20/30/7 9/31/7 22/21/7
f 22/21/7 9/31/7 24/19/7
f 24/19/7 9/31/7 12/32/7
f 24/19/7 12/32/7 25/33/7
f 25/33/7 12/32/7 14/34/7
f 33/35/5 34/36/5 36/37/5
f 36/37/5 34/36/5 35/38/5
f 34/39/8 37/40/8 35/37/8
f 35/37/8 37/40/8 39/38/8
f 39/38/8 37/40/8 38/36/8
f 40/36/7 41/38/7 38/39/7
f 38/39/7 41/38/7 39/37/7
f 42/41/9 43/39/9 45/42/9
f 45/42/9 43/39/9 44/37/9
f 43/41/10 46/43/10 44/42/10
f 44/42/10 46/43/10 48/37/10
f 48/37/10 46/43/10 47/39/10
f 49/44/7 50/45/7 47/46/7
f 47/46/7 50/45/7 48/47/7
f 51/48/9 50/49/9 13/50/9
f 13/50/9 50/49/9 49/51/9
f 13/50/9 49/51/9 29/52/9
f 52/53/9 53/54/9 51/48/9
f 51/48/9 53/54/9 50/49/9
f 13/50/9 29/52/9 14/55/9
f 14/55/9 29/52/9 26/56/9
f 14/55/9 26/56/9 25/57/9
f 13/58/6 11/59/6 51/60/6
f 51/60/6 11/59/6 54/61/6
f 55/58/5 56/59/5 58/60/5
f 58/60/5 56/59/5 57/61/5
f 56/58/4 59/62/4 57/60/4
f 57/60/4 59/62/4 61/63/4
f 61/63/4 59/62/4 60/64/4
f 60/58/3 62/64/3 61/60/3
f 61/60/3 62/64/3 63/63/3
f 62/58/2 64/62/2 63/60/2
f 63/60/2 64/62/2 66/63/2
f 66/63/2 64/62/2 65/64/2
f 67/25/6 68/27/6 66/65/6
f 66/65/6 68/27/6 69/66/6
f 66/65/6 69/66/6 63/67/6
f 63/67/6 69/66/6 70/68/6
f 63/67/6 70/68/6 61/69/6
f 61/69/6 70/68/6 71/16/6
f 61/69/6 71/16/6 72/18/6
f 61/69/6 72/18/6 57/70/6
f 57/70/6 72/18/6 73/33/6
f 57/70/6 73/33/6 58/34/6
f 74/10/2 75/11/2 69/4/2
f 69/4/2 75/11/2 70/12/2
f 75/10/3 76/11/3 70/4/3
f 70/4/3 76/11/3 71/12/3
f 76/10/4 77/11/4 71/4/4
f 71/4/4 77/11/4 72/12/4
f 73/8/5 72/4/5 78/9/5
f 78/9/5 72/4/5 77/10/5
f 79/9/1 74/11/1 68/8/1
f 68/8/1 74/11/1 69/12/1
f 80/71/7 81/72/7 79/27/7
f 79/27/7 81/72/7 74/28/7
f 74/28/7 81/72/7 82/73/7
f 74/28/7 82/73/7 75/30/7
f 75/30/7 82/73/7 83/22/7
f 75/30/7 83/22/7 76/21/7
f 76/21/7 83/22/7 77/19/7
f 77/19/7 83/22/7 84/20/7
f 77/19/7 84/20/7 78/33/7
f 78/33/7 84/20/7 85/74/7
f 65/58/1 86/59/1 66/60/1
f 66/60/1 86/59/1 67/61/1
f 43/75/1 42/76/1 88/77/1
f 88/77/1 42/76/1 87/10/1
f 42/75/11 89/78/11 87/77/11
f 87/77/11 89/78/11 91/10/11
f 91/10/11 89/78/11 90/76/11
f 93/79/6 91/80/6 92/81/6
f 92/81/6 91/80/6 90/82/6
f 92/35/12 94/40/12 93/37/12
f 93/37/12 94/40/12 36/38/12
f 36/38/12 94/40/12 33/36/12
f 34/76/9 33/83/9 96/10/9
f 96/10/9 33/83/9 95/84/9
f 33/76/13 94/85/13 95/10/13
f 95/10/13 94/85/13 98/84/13
f 98/84/13 94/85/13 97/83/13
f 99/86/6 100/87/6 97/88/6
f 97/88/6 100/87/6 98/89/6
f 101/90/9 100/91/9 86/92/9
f 86/92/9 100/91/9 99/93/9
f 86/92/9 99/93/9 67/94/9
f 67/94/9 99/93/9 80/95/9
f 67/94/9 80/95/9 79/96/9
f 102/97/9 103/98/9 101/90/9
f 101/90/9 103/98/9 100/91/9
f 79/96/9 68/99/9 67/94/9
f 86/1/7 65/2/7 101/3/7
f 101/3/7 65/2/7 104/4/7
f 11/58/14 10/62/14 54/60/14
f 54/60/14 10/62/14 106/63/14
f 106/63/14 10/62/14 105/64/14
f 105/58/3 107/64/3 106/60/3
f 106/60/3 107/64/3 108/63/3
f 56/64/15 109/63/15 59/62/15
f 59/62/15 109/63/15 108/60/15
f 59/62/15 108/60/15 107/58/15
f 110/25/1 111/27/1 109/65/1
f 109/65/1 111/27/1 112/66/1
f 109/65/1 112/66/1 108/67/1
f 108/67/1 112/66/1 113/68/1
f 108/67/1 113/68/1 106/69/1
f 106/69/1 113/68/1 114/16/1
f 106/69/1 114/16/1 115/18/1
f 106/69/1 115/18/1 54/70/1
f 54/70/1 115/18/1 52/33/1
f 54/70/1 52/33/1 51/34/1
f 116/10/15 117/11/15 112/4/15
f 112/4/15 117/11/15 113/12/15
f 117/10/3 118/11/3 113/4/3
f 113/4/3 118/11/3 114/12/3
f 118/10/14 119/11/14 114/4/14
f 114/4/14 119/11/14 115/12/14
f 52/8/6 115/4/6 53/9/6
f 53/9/6 115/4/6 119/10/6
f 120/9/7 116/11/7 111/8/7
f 111/8/7 116/11/7 112/12/7
f 121/71/5 122/72/5 120/27/5
f 120/27/5 122/72/5 116/28/5
f 116/28/5 122/72/5 45/73/5
f 116/28/5 45/73/5 117/30/5
f 117/30/5 45/73/5 44/22/5
f 117/30/5 44/22/5 118/21/5
f 118/21/5 44/22/5 119/19/5
f 119/19/5 44/22/5 48/20/5
f 119/19/5 48/20/5 53/33/5
f 53/33/5 48/20/5 50/74/5
f 56/58/7 55/59/7 109/60/7
f 109/60/7 55/59/7 110/61/7
f 40/100/9 38/35/9 31/101/9
f 31/101/9 38/35/9 32/37/9
f 43/76/16 88/10/16 46/78/16
f 46/78/16 88/10/16 41/77/16
f 46/78/16 41/77/16 40/102/16
f 90/103/9 83/104/9 92/76/9
f 92/76/9 83/104/9 82/10/9
f 90/76/17 89/85/17 83/10/17
f 83/10/17 89/85/17 84/104/17
f 84/104/17 89/85/17 123/103/17
f 124/5/3 125/2/3 127/7/3
f 127/7/3 125/2/3 126/4/3
f 2/2/14 128/4/14 5/6/14
f 5/6/14 128/4/14 126/7/14
f 5/6/14 126/7/14 125/5/14
f 65/5/15 64/6/15 104/7/15
f 104/7/15 64/6/15 127/4/15
f 127/4/15 64/6/15 124/2/15
f 2/1/6 1/2/6 128/3/6
f 128/3/6 1/2/6 129/4/6
f 102/8/7 130/4/7 103/9/7
f 103/9/7 130/4/7 131/10/7
f 132/10/15 131/11/15 133/4/15
f 133/4/15 131/11/15 130/12/15
f 134/10/3 132/11/3 135/4/3
f 135/4/3 132/11/3 133/12/3
f 136/10/14 134/11/14 137/4/14
f 137/4/14 134/11/14 135/12/14
f 139/9/6 136/11/6 138/8/6
f 138/8/6 136/11/6 137/12/6
f 100/13/1 103/14/1 98/15/1
f 98/15/1 103/14/1 131/16/1
f 98/15/1 131/16/1 95/17/1
f 95/17/1 131/16/1 132/18/1
f 95/17/1 132/18/1 134/19/1
f 95/17/1 134/19/1 96/20/1
f 96/20/1 134/19/1 136/21/1
f 96/20/1 136/21/1 141/22/1
f 141/22/1 136/21/1 139/23/1
f 141/22/1 139/23/1 140/24/1
f 101/25/5 104/26/5 102/27/5
f 102/27/5 104/26/5 130/28/5
f 130/28/5 104/26/5 127/29/5
f 130/28/5 127/29/5 133/30/5
f 133/30/5 127/29/5 126/31/5
f 133/30/5 126/31/5 135/21/5
f 135/21/5 126/31/5 137/19/5
f 137/19/5 126/31/5 128/32/5
f 137/19/5 128/32/5 138/33/5
f 138/33/5 128/32/5 129/34/5
f 62/64/16 142/63/16 64/62/16
f 64/62/16 142/63/16 143/60/16
f 64/62/16 143/60/16 124/58/16
f 92/103/18 82/104/18 94/85/18
f 94/85/18 82/104/18 81/10/18
f 94/85/18 81/10/18 97/76/18
f 49/82/1 47/39/1 29/80/1
f 29/80/1 47/39/1 30/37/1
f 84/10/1 123/76/1 85/105/1
f 85/105/1 123/76/1 144/106/1
f 40/35/17 31/37/17 46/43/17
f 46/43/17 31/37/17 30/101/17
f 46/43/17 30/101/17 47/100/17
f 146/82/5 28/80/5 145/100/5
f 145/100/5 28/80/5 27/101/5
f 38/100/18 37/107/18 32/101/18
f 32/101/18 37/107/18 27/37/18
f 27/37/18 37/107/18 145/35/18
f 99/106/5 97/103/5 80/105/5
f 80/105/5 97/103/5 81/104/5
f 60/5/8 59/6/8 148/7/8
f 148/7/8 59/6/8 147/4/8
f 147/4/8 59/6/8 107/2/8
f 42/39/13 45/37/13 89/43/13
f 89/43/13 45/37/13 122/42/13
f 89/43/13 122/42/13 123/41/13
f 85/108/9 144/109/9 55/110/9
f 55/110/9 144/109/9 121/111/9
f 55/110/9 121/111/9 110/112/9
f 110/112/9 121/111/9 120/113/9
f 110/112/9 120/113/9 111/114/9
f 55/110/9 58/115/9 85/108/9
f 85/108/9 58/115/9 78/116/9
f 78/116/9 58/115/9 73/117/9
f 122/118/6 121/119/6 123/120/6
f 123/120/6 121/119/6 144/121/6
f 8/2/12 149/4/12 10/6/12
f 10/6/12 149/4/12 150/7/12
f 10/6/12 150/7/12 105/5/12
f 141/122/7 140/123/7 145/124/7
f 145/124/7 140/123/7 146/125/7
f 8/126/6 6/59/6 149/127/6
f 149/127/6 6/59/6 151/61/6
f 140/128/9 1/129/9 146/130/9
f 146/130/9 1/129/9 4/131/9
f 146/130/9 4/131/9 28/132/9
f 28/132/9 4/131/9 15/133/9
f 15/133/9 4/131/9 16/134/9
f 1/129/9 140/128/9 129/135/9
f 129/135/9 140/128/9 139/136/9
f 129/135/9 139/136/9 138/137/9
f 34/83/10 96/84/10 37/85/10
f 37/85/10 96/84/10 141/10/10
f 37/85/10 141/10/10 145/76/10
f 6/58/11 5/62/11 151/60/11
f 151/60/11 5/62/11 152/63/11
f 152/63/11 5/62/11 125/64/11
f 125/58/1 124/64/1 152/60/1
f 152/60/1 124/64/1 143/63/1
f 107/5/5 105/2/5 147/7/5
f 147/7/5 105/2/5 150/4/5
f 153/10/8 154/11/8 156/4/8
f 156/4/8 154/11/8 155/12/8
f 157/10/5 153/11/5 158/4/5
f 158/4/5 153/11/5 156/12/5
f 159/10/12 157/11/12 160/4/12
f 160/4/12 157/11/12 158/12/12
f 151/70/9 160/19/9 149/32/9
f 149/32/9 160/19/9 158/21/9
f 149/32/9 158/21/9 150/31/9
f 150/31/9 158/21/9 156/30/9
f 150/31/9 156/30/9 147/29/9
f 147/29/9 156/30/9 148/26/9
f 148/26/9 156/30/9 155/28/9
f 148/26/9 155/28/9 162/66/9
f 152/69/9 164/16/9 151/70/9
f 151/70/9 164/16/9 161/18/9
f 151/70/9 161/18/9 160/19/9
f 164/16/9 152/69/9 163/68/9
f 163/68/9 152/69/9 143/67/9
f 163/68/9 143/67/9 142/65/9
f 163/68/9 142/65/9 162/66/9
f 162/66/9 142/65/9 148/26/9
f 165/10/16 166/11/16 162/4/16
f 162/4/16 166/11/16 163/12/16
f 166/10/1 167/11/1 163/4/1
f 163/4/1 167/11/1 164/12/1
f 167/10/11 168/11/11 164/4/11
f 164/4/11 168/11/11 161/12/11
f 160/12/6 161/4/6 159/11/6
f 159/11/6 161/4/6 168/10/6
f 154/10/7 165/11/7 155/4/7
f 155/4/7 165/11/7 162/12/7
f 157/16/3 159/18/3 41/17/3
f 41/17/3 159/18/3 168/19/3
f 41/17/3 168/19/3 39/20/3
f 39/20/3 168/19/3 167/21/3
f 39/20/3 167/21/3 35/22/3
f 35/22/3 167/21/3 166/30/3
f 35/22/3 166/30/3 36/73/3
f 36/73/3 166/30/3 93/72/3
f 93/72/3 166/30/3 165/28/3
f 93/72/3 165/28/3 154/66/3
f 93/72/3 154/66/3 91/138/3
f 91/138/3 154/66/3 153/68/3
f 91/138/3 153/68/3 87/139/3
f 87/139/3 153/68/3 88/15/3
f 88/15/3 153/68/3 157/16/3
f 88/15/3 157/16/3 41/17/3
f 60/64/7 148/63/7 62/58/7
f 62/58/7 148/63/7 142/60/7
