# Blender 4.3.2
# www.blender.org
o Drain_Pipe_-_T-shape
v -0.096436 0.104119 0.039574
v -0.096462 0.102621 -0.043255
v -0.082496 0.502312 -0.050486
v -0.082470 0.503810 0.032343
v 0.099906 -0.005343 -0.099953
v 0.101352 0.036046 -0.100702
v 0.101226 0.028816 -0.500637
v 0.099780 -0.012574 -0.499888
v -0.098526 0.043029 -0.100765
v -0.099972 0.001640 -0.100017
v -0.100098 -0.005591 -0.499951
v -0.098652 0.035798 -0.500700
v -0.068222 0.071803 -0.072001
v -0.037937 0.099517 -0.101806
v -0.023972 0.499208 -0.109037
v 0.044855 0.096625 -0.101780
v 0.058820 0.496316 -0.109010
v 0.073113 0.066865 -0.071956
v 0.103416 0.095639 -0.043192
v 0.117382 0.495329 -0.050423
v 0.499662 -0.019309 -0.099827
v 0.179731 -0.015367 -0.499863
v 0.179747 -0.014463 -0.449871
v 0.149765 -0.013416 -0.449880
v 0.149860 -0.007993 -0.149929
v 0.449677 -0.018467 -0.149835
v 0.449668 -0.019009 -0.179830
v 0.499637 -0.020755 -0.179814
v -0.147788 0.064566 -0.151147
v -0.102333 0.107726 -0.108001
v -0.056906 0.149298 -0.152708
v -0.057000 0.143875 -0.452659
v -0.147882 0.059143 -0.451098
v -0.149957 0.002482 -0.150024
v -0.150052 -0.002941 -0.449975
v 0.067283 0.144959 -0.152669
v 0.067188 0.139536 -0.452620
v 0.109670 0.100320 -0.107934
v 0.152029 0.054091 -0.151053
v 0.151935 0.048668 -0.451004
v 0.044729 0.089394 -0.501714
v -0.038064 0.092287 -0.501740
v 0.182350 0.060038 -0.451219
v 0.080654 0.169079 -0.453158
v -0.068372 0.174286 -0.453205
v -0.177430 0.072607 -0.451333
v -0.180033 -0.001894 -0.449985
v 0.182334 0.059134 -0.501211
v 0.080639 0.168175 -0.503150
v -0.068387 0.173382 -0.503197
v -0.177446 0.071703 -0.501324
v -0.180049 -0.002798 -0.499977
v -0.496218 0.116587 -0.043382
v -0.496192 0.118085 0.039447
v 0.503172 0.081673 -0.043066
v 0.501109 0.022081 -0.100576
v -0.447605 0.075040 -0.151242
v -0.444509 0.164428 -0.064977
v -0.144692 0.153954 -0.064882
v 0.451846 0.043617 -0.150958
v -0.046431 0.449066 -0.158131
v 0.077757 0.444727 -0.158092
v -0.449774 0.012956 -0.150119
v 0.155164 0.145726 0.059456
v 0.155125 0.143480 -0.064787
v 0.165599 0.443248 -0.070211
v 0.165638 0.445494 0.054033
v -0.134218 0.453722 -0.070305
v -0.144653 0.156200 0.059362
v -0.059879 0.066921 0.148831
v -0.046337 0.454489 0.141820
v -0.134179 0.455969 0.053938
v 0.064310 0.062582 0.148871
v 0.077852 0.450150 0.141859
v -0.162458 0.504506 -0.083643
v -0.057114 0.498919 -0.189034
v -0.058860 0.448958 -0.188130
v -0.164204 0.454545 -0.082739
v -0.162411 0.507202 0.065449
v -0.164157 0.457241 0.066353
v -0.057000 0.505427 0.170907
v -0.058746 0.455465 0.171811
v 0.090280 0.450259 0.171858
v 0.090166 0.443751 -0.188083
v 0.195577 0.441976 -0.082625
v 0.195624 0.444671 0.066467
v 0.091912 0.493713 -0.188987
v 0.197323 0.491937 -0.083529
v 0.197370 0.494633 0.065563
v 0.092026 0.500220 0.170954
v 0.058884 0.499931 0.090957
v -0.023909 0.502823 0.090931
v 0.117408 0.496827 0.032406
v 0.503198 0.083170 0.039764
v 0.103442 0.097136 0.039637
v -0.039920 0.044599 0.099220
v -0.498219 0.060610 0.099075
v -0.498282 0.056995 -0.100892
v -0.499728 0.015606 -0.100143
v -0.499753 0.014159 -0.180130
v -0.449784 0.012414 -0.180114
v -0.444470 0.166675 0.059267
v -0.447510 0.080463 0.148709
v 0.451941 0.049040 0.148993
v 0.454981 0.135252 0.059551
v 0.042873 0.041707 0.099247
v 0.501172 0.025696 0.099392
v 0.454942 0.133006 -0.064693
v 0.452271 0.055492 -0.181178
v 0.502240 0.053746 -0.181162
v 0.505955 0.161012 -0.077643
v 0.455985 0.162758 -0.077659
v 0.506002 0.163708 0.071449
v 0.456032 0.165453 0.071433
v 0.502354 0.060254 0.178779
v 0.452384 0.061999 0.178764
v 0.449781 -0.012501 0.180111
v 0.499751 -0.014247 0.180127
v 0.499725 -0.015693 0.100140
v 0.449772 -0.013044 0.150116
v -0.499665 0.019221 0.099824
v -0.447180 0.086915 -0.181462
v -0.443466 0.194181 -0.077944
v -0.443419 0.196876 0.071149
v -0.447067 0.093422 0.178479
v -0.449670 0.018921 0.179827
v -0.449680 0.018379 0.149832
v -0.497150 0.088660 -0.181478
v -0.493435 0.195926 -0.077960
v -0.493388 0.198622 0.071133
v -0.497036 0.095168 0.178463
v -0.499640 0.020667 0.179811
vn 0.9994 -0.0349 0.0003
vn -0.9994 0.0349 -0.0003
vn 0.7069 -0.0119 0.7072
vn 0.0003 0.0181 0.9998
vn -0.7065 0.0375 0.7068
vn -0.0349 -0.9992 0.0181
vn -0.6820 0.7312 -0.0130
vn 0.0349 0.9992 -0.0181
vn 0.7314 0.6819 -0.0126
vn -0.7314 -0.6819 0.0126
vn 0.6820 -0.7312 0.0130
vn -0.0003 -0.0181 -0.9998
vn -0.0245 -0.6938 0.7198
vn 0.0245 0.6938 -0.7198
vn 0.7065 -0.0375 -0.7068
vn -0.7069 0.0119 -0.7072
vn -0.0249 -0.7193 -0.6942
vn 0.0249 0.7193 0.6942
vt -0.000000 2.000000
vt -0.414214 2.000000
vt -0.000000 -0.000000
vt -0.414214 -0.000000
vt 0.292893 2.292893
vt 2.292893 2.292893
vt 0.292893 2.500000
vt 2.292893 2.500000
vt -0.707107 2.500000
vt -2.707107 2.500000
vt -0.707107 2.292893
vt -2.707107 2.292893
vt -0.207107 2.146447
vt -0.414213 2.000000
vt 0.500000 2.707107
vt 0.500000 2.292893
vt 2.500000 2.707107
vt 2.500000 2.292893
vt 0.250000 2.000000
vt 0.000000 1.750000
vt 0.250000 0.000000
vt 0.000000 0.250000
vt -0.150000 0.000000
vt -0.150000 0.250000
vt -1.500000 1.750000
vt -1.750000 2.000000
vt -1.750000 1.600000
vt -1.500000 1.600000
vt -0.000000 3.250000
vt 0.310660 3.030330
vt -0.000000 4.750000
vt 0.621320 4.750000
vt 0.621320 3.250000
vt 0.310660 3.250000
vt 0.310660 4.750000
vt 0.000000 3.000000
vt 0.207107 2.853553
vt 0.000000 5.000000
vt 0.414214 5.000000
vt 0.414214 3.000000
vt 0.000000 -0.750000
vt 0.000000 -0.900000
vt 0.310660 -0.750000
vt 0.372792 -0.900000
vt 0.750000 -0.310660
vt 0.900000 -0.372792
vt 0.750000 0.310660
vt 0.900000 0.372792
vt 0.372792 0.900000
vt 0.310660 0.750000
vt 0.000000 0.900000
vt 0.000000 0.750000
vt 0.745584 0.000000
vt 0.745584 0.250000
vt 0.372792 0.250000
vt 0.372792 0.000000
vt 0.000000 -0.500000
vt -0.207107 -0.500000
vt -0.372792 -0.900000
vt -0.500000 -0.207107
vt -0.900000 -0.372792
vt -0.500000 0.207107
vt -0.900000 0.372792
vt -0.372792 0.900000
vt -0.207107 0.500000
vt 0.000000 0.500000
vt 0.414214 2.000000
vt 0.207107 2.146447
vt 0.414214 0.000000
vt 0.207107 2.000000
vt 0.207107 0.000000
vt 0.310660 1.750000
vt 0.310660 0.250000
vt -0.439340 2.810660
vt -1.939340 2.810660
vt -0.439340 2.189340
vt -1.939340 2.189340
vt 0.621320 1.750000
vt 0.310660 1.969670
vt 0.621320 0.250000
vt 0.000000 2.189340
vt -0.000000 2.810660
vt -0.310660 0.750000
vt -0.750000 0.310660
vt -0.750000 -0.310660
vt -0.310660 -0.750000
vt 0.207107 0.500000
vt 0.207107 -0.500000
vt 0.500000 -0.207107
vt 0.500000 0.207107
vt 0.414214 2.707107
vt 0.207107 3.000000
vt 0.207107 5.000000
vt -1.750000 3.000000
vt 0.250000 3.000000
vt 0.250000 5.000000
vt -0.150000 5.000000
vt -0.150000 4.750000
vt -1.500000 3.250000
vt -1.750000 3.400000
vt -1.500000 3.400000
vt -0.414214 2.292893
vt 0.414214 2.292893
vt 0.500000 -0.000000
vt 0.900000 -0.000000
vt -0.900000 -0.000000
vt -0.500000 -0.000000
vt -0.000000 2.292893
vt -2.292893 2.707107
vt 0.000000 2.707107
vt -2.292893 2.292893
vt 1.650000 5.000000
vt 1.250000 5.000000
vt 1.500000 4.750000
vt 1.250000 0.000000
vt 1.500000 0.250000
vt 1.650000 0.000000
vt 1.650000 0.250000
vt 1.650000 4.750000
vt 0.310660 2.810660
vt 0.310660 2.189340
vt 2.250000 2.189340
vt 2.250000 2.810660
s 1
f 1/1/1 2/2/1 4/3/1
f 4/3/1 2/2/1 3/4/1
f 6/5/2 7/6/2 5/7/2
f 5/7/2 7/6/2 8/8/2
f 10/9/1 11/10/1 9/11/1
f 9/11/1 11/10/1 12/12/1
f 2/1/3 13/13/3 3/3/3
f 3/3/3 13/13/3 15/4/3
f 15/4/3 13/13/3 14/14/3
f 14/15/4 16/16/4 15/17/4
f 15/17/4 16/16/4 17/18/4
f 19/2/5 20/4/5 18/13/5
f 18/13/5 20/4/5 17/3/5
f 18/13/5 17/3/5 16/1/5
f 5/19/6 25/20/6 21/21/6
f 21/21/6 25/20/6 26/22/6
f 21/21/6 26/22/6 28/23/6
f 28/23/6 26/22/6 27/24/6
f 25/20/6 5/19/6 24/25/6
f 24/25/6 5/19/6 8/26/6
f 24/25/6 8/26/6 22/27/6
f 22/27/6 23/28/6 24/25/6
f 29/29/7 30/30/7 33/31/7
f 33/31/7 30/30/7 32/32/7
f 32/32/7 30/30/7 31/33/7
f 34/29/2 29/34/2 35/31/2
f 35/31/2 29/34/2 33/35/2
f 31/29/8 36/33/8 32/31/8
f 32/31/8 36/33/8 37/32/8
f 36/29/9 38/30/9 37/31/9
f 37/31/9 38/30/9 40/32/9
f 40/32/9 38/30/9 39/33/9
f 39/29/1 25/34/1 40/31/1
f 40/31/1 25/34/1 24/35/1
f 6/36/10 18/37/10 7/38/10
f 7/38/10 18/37/10 41/39/10
f 41/39/10 18/37/10 16/40/10
f 14/40/6 42/39/6 16/36/6
f 16/36/6 42/39/6 41/38/6
f 9/40/11 12/39/11 13/37/11
f 13/37/11 12/39/11 42/38/11
f 13/37/11 42/38/11 14/36/11
f 24/41/4 23/42/4 40/43/4
f 40/43/4 23/42/4 43/44/4
f 40/43/4 43/44/4 37/45/4
f 37/45/4 43/44/4 44/46/4
f 37/45/4 44/46/4 32/47/4
f 32/47/4 44/46/4 45/48/4
f 32/47/4 45/48/4 46/49/4
f 32/47/4 46/49/4 33/50/4
f 33/50/4 46/49/4 47/51/4
f 33/50/4 47/51/4 35/52/4
f 48/3/9 49/53/9 43/22/9
f 43/22/9 49/53/9 44/54/9
f 49/3/8 50/53/8 44/22/8
f 44/22/8 50/53/8 45/54/8
f 50/3/7 51/53/7 45/22/7
f 45/22/7 51/53/7 46/54/7
f 47/55/2 46/22/2 52/56/2
f 52/56/2 46/22/2 51/3/2
f 22/56/1 48/53/1 23/55/1
f 23/55/1 48/53/1 43/54/1
f 8/57/12 7/58/12 22/42/12
f 22/42/12 7/58/12 48/59/12
f 48/59/12 7/58/12 41/60/12
f 48/59/12 41/60/12 49/61/12
f 49/61/12 41/60/12 42/62/12
f 49/61/12 42/62/12 50/63/12
f 50/63/12 42/62/12 51/64/12
f 51/64/12 42/62/12 12/65/12
f 51/64/12 12/65/12 52/51/12
f 52/51/12 12/65/12 11/66/12
f 53/38/6 2/36/6 54/39/6
f 54/39/6 2/36/6 1/40/6
f 19/67/13 18/68/13 55/69/13
f 55/69/13 18/68/13 56/3/13
f 56/3/13 18/68/13 6/1/13
f 5/1/4 21/3/4 6/70/4
f 6/70/4 21/3/4 56/71/4
f 29/33/14 57/32/14 30/30/14
f 30/30/14 57/32/14 58/31/14
f 30/30/14 58/31/14 59/29/14
f 25/72/12 39/20/12 26/73/12
f 26/73/12 39/20/12 60/22/12
f 31/74/12 61/75/12 36/76/12
f 36/76/12 61/75/12 62/77/12
f 29/29/12 34/34/12 57/31/12
f 57/31/12 34/34/12 63/35/12
f 64/29/1 65/33/1 67/31/1
f 67/31/1 65/33/1 66/32/1
f 36/33/15 62/32/15 38/30/15
f 38/30/15 62/32/15 66/31/15
f 38/30/15 66/31/15 65/29/15
f 31/78/16 30/79/16 61/80/16
f 61/80/16 30/79/16 68/22/16
f 68/22/16 30/79/16 59/20/16
f 70/81/5 71/22/5 69/78/5
f 69/78/5 71/22/5 72/80/5
f 73/82/3 64/33/3 74/31/3
f 74/31/3 64/33/3 67/32/3
f 59/78/2 69/20/2 68/80/2
f 68/80/2 69/20/2 72/22/2
f 75/3/16 76/53/16 78/22/16
f 78/22/16 76/53/16 77/54/16
f 79/3/2 75/53/2 80/22/2
f 80/22/2 75/53/2 78/54/2
f 81/3/5 79/53/5 82/22/5
f 82/22/5 79/53/5 80/54/5
f 74/50/6 82/64/6 71/83/6
f 71/83/6 82/64/6 80/63/6
f 71/83/6 80/63/6 72/84/6
f 72/84/6 80/63/6 78/61/6
f 72/84/6 78/61/6 68/85/6
f 68/85/6 78/61/6 61/86/6
f 61/86/6 78/61/6 77/59/6
f 61/86/6 77/59/6 84/44/6
f 67/47/6 86/48/6 74/50/6
f 74/50/6 86/48/6 83/49/6
f 74/50/6 83/49/6 82/64/6
f 86/48/6 67/47/6 85/46/6
f 85/46/6 67/47/6 66/45/6
f 85/46/6 66/45/6 62/43/6
f 85/46/6 62/43/6 84/44/6
f 84/44/6 62/43/6 61/86/6
f 87/3/15 88/53/15 84/22/15
f 84/22/15 88/53/15 85/54/15
f 88/3/1 89/53/1 85/22/1
f 85/22/1 89/53/1 86/54/1
f 89/3/3 90/53/3 86/22/3
f 86/22/3 90/53/3 83/54/3
f 82/54/4 83/22/4 81/53/4
f 81/53/4 83/22/4 90/3/4
f 76/3/12 87/53/12 77/22/12
f 77/22/12 87/53/12 84/54/12
f 79/48/8 81/49/8 92/87/8
f 92/87/8 81/49/8 90/64/8
f 92/87/8 90/64/8 91/65/8
f 91/65/8 90/64/8 89/63/8
f 91/65/8 89/63/8 93/62/8
f 93/62/8 89/63/8 88/61/8
f 93/62/8 88/61/8 20/60/8
f 20/60/8 88/61/8 17/58/8
f 17/58/8 88/61/8 87/59/8
f 17/58/8 87/59/8 76/44/8
f 17/58/8 76/44/8 15/88/8
f 15/88/8 76/44/8 75/46/8
f 15/88/8 75/46/8 3/89/8
f 3/89/8 75/46/8 4/90/8
f 4/90/8 75/46/8 79/48/8
f 4/90/8 79/48/8 92/87/8
f 55/3/6 94/69/6 19/1/6
f 19/1/6 94/69/6 95/67/6
f 54/38/17 1/36/17 97/39/17
f 97/39/17 1/36/17 96/91/17
f 9/92/4 98/93/4 10/36/4
f 10/36/4 98/93/4 99/38/4
f 11/94/6 10/95/6 34/29/6
f 34/29/6 10/95/6 99/96/6
f 34/29/6 99/96/6 63/31/6
f 63/31/6 99/96/6 100/97/6
f 63/31/6 100/97/6 101/98/6
f 34/29/6 35/99/6 11/94/6
f 11/94/6 35/99/6 52/100/6
f 52/100/6 35/99/6 47/101/6
f 70/82/18 69/33/18 103/31/18
f 103/31/18 69/33/18 102/32/18
f 73/81/18 104/22/18 64/78/18
f 64/78/18 104/22/18 105/80/18
f 69/29/8 59/33/8 102/31/8
f 102/31/8 59/33/8 58/32/8
f 93/3/16 95/1/16 91/4/16
f 91/4/16 95/1/16 106/102/16
f 95/2/2 93/4/2 19/1/2
f 19/1/2 93/4/2 20/3/2
f 94/3/17 107/69/17 95/1/17
f 95/1/17 107/69/17 106/103/17
f 65/78/8 64/20/8 108/80/8
f 108/80/8 64/20/8 105/22/8
f 27/55/12 109/22/12 28/56/12
f 28/56/12 109/22/12 110/3/12
f 111/3/14 110/53/14 112/22/14
f 112/22/14 110/53/14 109/54/14
f 113/3/8 111/53/8 114/22/8
f 114/22/8 111/53/8 112/54/8
f 115/3/18 113/53/18 116/22/18
f 116/22/18 113/53/18 114/54/18
f 118/56/4 115/53/4 117/55/4
f 117/55/4 115/53/4 116/54/4
f 21/104/1 28/105/1 56/90/1
f 56/90/1 28/105/1 110/48/1
f 56/90/1 110/48/1 55/87/1
f 55/87/1 110/48/1 111/49/1
f 55/87/1 111/49/1 113/64/1
f 55/87/1 113/64/1 94/65/1
f 94/65/1 113/64/1 115/63/1
f 94/65/1 115/63/1 107/62/1
f 107/62/1 115/63/1 118/106/1
f 107/62/1 118/106/1 119/107/1
f 26/41/2 60/86/2 27/42/2
f 27/42/2 60/86/2 109/59/2
f 109/59/2 60/86/2 108/85/2
f 109/59/2 108/85/2 112/61/2
f 112/61/2 108/85/2 105/84/2
f 112/61/2 105/84/2 114/63/2
f 114/63/2 105/84/2 116/64/2
f 116/64/2 105/84/2 104/83/2
f 116/64/2 104/83/2 117/51/2
f 117/51/2 104/83/2 120/52/2
f 96/108/15 1/2/15 92/3/15
f 92/3/15 1/2/15 4/4/15
f 39/78/14 38/79/14 60/80/14
f 60/80/14 38/79/14 108/22/14
f 108/22/14 38/79/14 65/20/14
f 92/109/12 106/108/12 96/110/12
f 96/110/12 106/108/12 119/71/12
f 96/110/12 119/71/12 121/93/12
f 92/109/12 91/111/12 106/108/12
f 106/108/12 107/3/12 119/71/12
f 121/93/12 97/38/12 96/110/12
f 2/40/13 53/39/13 13/37/13
f 13/37/13 53/39/13 98/38/13
f 13/37/13 98/38/13 9/36/13
f 63/41/1 101/42/1 57/43/1
f 57/43/1 101/42/1 122/44/1
f 57/43/1 122/44/1 58/45/1
f 58/45/1 122/44/1 123/46/1
f 58/45/1 123/46/1 102/47/1
f 102/47/1 123/46/1 124/48/1
f 102/47/1 124/48/1 125/49/1
f 102/47/1 125/49/1 103/50/1
f 103/50/1 125/49/1 126/51/1
f 103/50/1 126/51/1 127/52/1
f 128/3/14 129/53/14 122/22/14
f 122/22/14 129/53/14 123/54/14
f 129/3/8 130/53/8 123/22/8
f 123/22/8 130/53/8 124/54/8
f 130/3/18 131/53/18 124/22/18
f 124/22/18 131/53/18 125/54/18
f 126/55/4 125/22/4 132/56/4
f 132/56/4 125/22/4 131/3/4
f 100/56/12 128/53/12 101/55/12
f 101/55/12 128/53/12 122/54/12
f 132/112/6 121/113/6 127/114/6
f 127/114/6 121/113/6 119/115/6
f 127/114/6 119/115/6 120/116/6
f 120/116/6 119/115/6 118/117/6
f 120/116/6 118/117/6 117/118/6
f 127/114/6 126/119/6 132/112/6
f 99/57/2 98/58/2 100/42/2
f 100/42/2 98/58/2 128/59/2
f 128/59/2 98/58/2 53/60/2
f 128/59/2 53/60/2 129/61/2
f 129/61/2 53/60/2 54/62/2
f 129/61/2 54/62/2 130/63/2
f 130/63/2 54/62/2 131/64/2
f 131/64/2 54/62/2 97/65/2
f 131/64/2 97/65/2 132/51/2
f 132/51/2 97/65/2 121/66/2
f 103/35/4 127/31/4 70/120/4
f 70/120/4 127/31/4 120/22/4
f 70/120/4 120/22/4 73/121/4
f 73/121/4 120/22/4 104/73/4
f 73/121/4 74/122/4 70/120/4
f 70/120/4 74/122/4 71/123/4
