# Blender 4.3.2
# www.blender.org
o Drain_Pipe_-_Straight
v -0.062132 0.062123 -0.150000
v -0.150000 0.149991 -0.062132
v -0.150000 0.449991 -0.062132
v -0.062132 0.449991 -0.150000
v -0.150000 0.149991 0.062132
v -0.150000 0.449991 0.062132
v -0.062132 0.062123 0.150000
v -0.062132 0.449991 0.150000
v 0.150000 0.149991 -0.062132
v 0.062132 0.062123 -0.150000
v 0.062132 0.449991 -0.150000
v 0.150000 0.449991 -0.062132
v 0.062132 0.062123 0.150000
v 0.150000 0.149991 0.062132
v 0.150000 0.449991 0.062132
v 0.062132 0.449991 0.150000
v 0.180000 0.499991 0.074558
v 0.074558 0.499991 0.180000
v 0.074558 0.449991 0.180000
v 0.180000 0.449991 0.074558
v 0.180000 0.499991 -0.074558
v 0.180000 0.449991 -0.074558
v 0.074558 0.499991 -0.180000
v 0.074558 0.449991 -0.180000
v -0.074558 0.449991 -0.180000
v -0.074558 0.449991 0.180000
v -0.180000 0.449991 0.074558
v -0.180000 0.449991 -0.074558
v -0.074558 0.499991 0.180000
v -0.180000 0.499991 0.074558
v -0.180000 0.499991 -0.074558
v -0.074558 0.499991 -0.180000
v -0.041421 0.499991 -0.100000
v 0.041421 0.499991 -0.100000
v 0.100000 0.499991 -0.041421
v 0.100000 0.499991 0.041421
v 0.041421 0.499991 0.100000
v -0.041421 0.499991 0.100000
v -0.100000 0.499991 0.041421
v -0.100000 0.499991 -0.041421
v -0.041421 0.041412 -0.100000
v -0.500000 0.041412 -0.100000
v -0.500000 -0.000009 -0.100000
v 0.500000 -0.000009 -0.100000
v 0.500000 0.041412 -0.100000
v 0.041421 0.041412 -0.100000
v -0.100000 0.099991 -0.041421
v -0.500000 0.099991 -0.041421
v -0.100000 0.099991 0.041421
v -0.500000 0.099991 0.041421
v 0.450000 0.149991 -0.062132
v 0.450000 0.062123 -0.150000
v -0.041421 0.041412 0.100000
v -0.500000 0.041412 0.100000
v 0.450000 0.149991 0.062132
v 0.450000 0.062123 0.150000
v 0.100000 0.099991 -0.041421
v 0.100000 0.099991 0.041421
v 0.041421 0.041412 0.100000
v 0.500000 0.099991 -0.041421
v 0.500000 0.099991 0.041421
v 0.500000 0.041412 0.100000
v 0.450000 -0.000009 0.150000
v 0.450000 -0.000009 0.180000
v 0.450000 0.074549 0.180000
v 0.450000 0.179991 0.074558
v 0.450000 0.179991 -0.074558
v 0.450000 0.074549 -0.180000
v 0.450000 -0.000009 -0.180000
v 0.450000 -0.000009 -0.150000
v 0.500000 0.074549 0.180000
v 0.500000 0.179991 0.074558
v 0.500000 0.179991 -0.074558
v 0.500000 0.074549 -0.180000
v 0.500000 -0.000009 -0.180000
v 0.500000 -0.000009 0.180000
v 0.500000 -0.000009 0.100000
v -0.500000 -0.000009 0.100000
v -0.500000 -0.000009 -0.180000
v -0.450000 -0.000009 -0.180000
v -0.450000 -0.000009 -0.150000
v -0.450000 -0.000009 0.150000
v -0.450000 -0.000009 0.180000
v -0.500000 -0.000009 0.180000
v -0.450000 0.062123 0.150000
v -0.450000 0.149991 0.062132
v -0.450000 0.149991 -0.062132
v -0.450000 0.062123 -0.150000
v -0.450000 0.074549 0.180000
v -0.500000 0.074549 0.180000
v -0.500000 0.179991 0.074558
v -0.450000 0.179991 0.074558
v -0.500000 0.179991 -0.074558
v -0.450000 0.179991 -0.074558
v -0.500000 0.074549 -0.180000
v -0.450000 0.074549 -0.180000
vn -0.7071 -0.0000 -0.7071
vn -1.0000 -0.0000 -0.0000
vn -0.7071 -0.0000 0.7071
vn 0.7071 -0.0000 -0.7071
vn 0.7071 -0.0000 0.7071
vn 1.0000 -0.0000 -0.0000
vn -0.0000 -1.0000 -0.0000
vn -0.0000 -0.0000 -1.0000
vn -0.0000 -0.0000 1.0000
vn -0.0000 1.0000 -0.0000
vn -0.0000 -0.7071 0.7071
vn -0.0000 0.7071 -0.7071
vn -0.0000 -0.7071 -0.7071
vn -0.0000 0.7071 0.7071
vt -0.000000 2.810660
vt 0.621320 3.250000
vt 0.000000 4.750000
vt 0.621320 4.750000
vt 0.000000 3.250000
vt 0.621320 2.810660
vt 0.000000 2.189340
vt -0.000000 0.250000
vt 0.621320 1.750000
vt 0.621320 0.250000
vt 0.621320 2.189340
vt -0.000000 1.750000
vt 0.000000 0.000000
vt 0.745584 0.000000
vt 0.745584 0.250000
vt 0.310660 0.750000
vt -0.372792 0.900000
vt -0.310660 0.750000
vt -0.900000 0.372792
vt -0.750000 0.310660
vt -0.900000 -0.372792
vt -0.750000 -0.310660
vt -0.310660 -0.750000
vt -0.372792 -0.900000
vt 0.372792 -0.900000
vt 0.750000 0.310660
vt 0.900000 0.372792
vt 0.372792 0.900000
vt 0.900000 -0.372792
vt 0.750000 -0.310660
vt 0.310660 -0.750000
vt 0.207107 0.500000
vt -0.207107 0.500000
vt -0.500000 0.207107
vt -0.500000 -0.207107
vt -0.207107 -0.500000
vt 0.207107 -0.500000
vt 0.500000 -0.207107
vt 0.500000 0.207107
vt 0.207107 0.000000
vt 0.000000 2.292893
vt 0.000000 2.707107
vt -2.292893 2.707107
vt 0.207107 5.000000
vt 0.000000 5.000000
vt -2.292893 2.292893
vt 0.414214 2.292893
vt 0.000000 2.000000
vt 0.414214 0.000000
vt 0.414214 2.000000
vt -0.414214 2.000000
vt -0.414214 -0.000000
vt -0.414214 2.292893
vt 0.414214 5.000000
vt 0.414214 3.000000
vt -0.000000 3.000000
vt 0.414214 2.707107
vt 0.000000 -0.750000
vt 0.000000 -0.900000
vt 0.000000 0.900000
vt 0.000000 0.750000
vt 0.372792 0.250000
vt 0.372792 0.000000
vt 0.000000 -0.500000
vt 0.000000 0.500000
vt -0.414214 0.000000
vt 0.207107 2.707107
vt 0.207107 2.292893
vt 2.500000 2.292893
vt 2.500000 2.707107
vt 1.650000 5.000000
vt 1.250000 5.000000
vt 1.500000 4.750000
vt 1.250000 0.000000
vt 1.500000 0.250000
vt 1.650000 0.000000
vt 1.650000 0.250000
vt 1.650000 4.750000
vt 0.250000 5.000000
vt 0.250000 0.000000
vt -0.150000 0.000000
vt -0.150000 0.250000
vt -0.150000 5.000000
vt -0.150000 4.750000
vt 0.310660 0.250000
vt -1.939340 2.810660
vt 0.310660 4.750000
vt -1.939340 2.189340
vt 0.310660 2.810660
vt 0.310660 2.189340
vt 2.250000 2.189340
vt 2.250000 2.810660
vt 0.500000 -0.000000
vt 0.900000 -0.000000
vt -0.900000 -0.000000
vt -0.500000 -0.000000
s 1
f 1/1/1 2/2/1 4/3/1
f 4/3/1 2/2/1 3/4/1
f 2/5/2 5/2/2 3/3/2
f 3/3/2 5/2/2 6/4/2
f 7/6/3 8/4/3 5/5/3
f 5/5/3 8/4/3 6/3/3
f 10/7/4 11/8/4 9/9/4
f 9/9/4 11/8/4 12/10/4
f 13/11/5 14/12/5 16/10/5
f 16/10/5 14/12/5 15/8/5
f 14/9/6 9/12/6 15/10/6
f 15/10/6 9/12/6 12/8/6
f 17/13/5 18/14/5 20/8/5
f 20/8/5 18/14/5 19/15/5
f 21/13/6 17/14/6 22/8/6
f 22/8/6 17/14/6 20/15/6
f 23/13/4 21/14/4 24/8/4
f 24/8/4 21/14/4 22/15/4
f 4/16/7 24/17/7 11/18/7
f 11/18/7 24/17/7 22/19/7
f 11/18/7 22/19/7 12/20/7
f 12/20/7 22/19/7 20/21/7
f 12/20/7 20/21/7 15/22/7
f 15/22/7 20/21/7 16/23/7
f 16/23/7 20/21/7 19/24/7
f 16/23/7 19/24/7 26/25/7
f 3/26/7 28/27/7 4/16/7
f 4/16/7 28/27/7 25/28/7
f 4/16/7 25/28/7 24/17/7
f 28/27/7 3/26/7 27/29/7
f 27/29/7 3/26/7 6/30/7
f 27/29/7 6/30/7 8/31/7
f 27/29/7 8/31/7 26/25/7
f 26/25/7 8/31/7 16/23/7
f 29/13/3 30/14/3 26/8/3
f 26/8/3 30/14/3 27/15/3
f 30/13/2 31/14/2 27/8/2
f 27/8/2 31/14/2 28/15/2
f 31/13/1 32/14/1 28/8/1
f 28/8/1 32/14/1 25/15/1
f 24/15/8 25/8/8 23/14/8
f 23/14/8 25/8/8 32/13/8
f 18/13/9 29/14/9 19/8/9
f 19/8/9 29/14/9 26/15/9
f 21/27/10 23/28/10 34/32/10
f 34/32/10 23/28/10 32/17/10
f 34/32/10 32/17/10 33/33/10
f 33/33/10 32/17/10 31/19/10
f 33/33/10 31/19/10 40/34/10
f 40/34/10 31/19/10 30/21/10
f 40/34/10 30/21/10 39/35/10
f 39/35/10 30/21/10 38/36/10
f 38/36/10 30/21/10 29/24/10
f 38/36/10 29/24/10 18/25/10
f 38/36/10 18/25/10 37/37/10
f 37/37/10 18/25/10 17/29/10
f 37/37/10 17/29/10 36/38/10
f 36/38/10 17/29/10 35/39/10
f 35/39/10 17/29/10 21/27/10
f 35/39/10 21/27/10 34/32/10
f 42/13/9 43/40/9 41/41/9
f 41/41/9 43/40/9 46/42/9
f 41/41/9 46/42/9 34/43/9
f 43/40/9 44/44/9 46/42/9
f 46/42/9 44/44/9 45/45/9
f 34/43/9 33/46/9 41/41/9
f 41/47/11 47/48/11 42/49/11
f 42/49/11 47/48/11 48/13/11
f 50/13/7 48/49/7 49/48/7
f 49/48/7 48/49/7 47/50/7
f 10/1/12 9/2/12 52/3/12
f 52/3/12 9/2/12 51/4/12
f 50/49/13 49/50/13 54/13/13
f 54/13/13 49/50/13 53/41/13
f 9/5/10 14/2/10 51/3/10
f 51/3/10 14/2/10 55/4/10
f 13/6/14 56/4/14 14/5/14
f 14/5/14 56/4/14 55/3/14
f 46/41/3 57/51/3 34/13/3
f 34/13/3 57/51/3 35/52/3
f 59/53/1 37/52/1 58/48/1
f 58/48/1 37/52/1 36/13/1
f 57/48/2 58/51/2 35/13/2
f 35/13/2 58/51/2 36/52/2
f 60/54/7 61/45/7 57/55/7
f 57/55/7 61/45/7 58/56/7
f 46/57/11 45/54/11 57/56/11
f 57/56/11 45/54/11 60/45/11
f 61/54/13 62/45/13 58/55/13
f 58/55/13 62/45/13 59/42/13
f 63/58/2 64/59/2 56/31/2
f 56/31/2 64/59/2 65/25/2
f 56/31/2 65/25/2 55/30/2
f 55/30/2 65/25/2 66/29/2
f 55/30/2 66/29/2 51/26/2
f 51/26/2 66/29/2 67/27/2
f 51/26/2 67/27/2 68/28/2
f 51/26/2 68/28/2 52/16/2
f 52/16/2 68/28/2 69/60/2
f 52/16/2 69/60/2 70/61/2
f 71/13/14 72/14/14 65/8/14
f 65/8/14 72/14/14 66/15/14
f 72/13/10 73/14/10 66/8/10
f 66/8/10 73/14/10 67/15/10
f 73/13/12 74/14/12 67/8/12
f 67/8/12 74/14/12 68/15/12
f 69/62/8 68/8/8 75/63/8
f 75/63/8 68/8/8 74/13/8
f 76/63/9 71/14/9 64/62/9
f 64/62/9 71/14/9 65/15/9
f 77/64/6 62/36/6 76/59/6
f 76/59/6 62/36/6 71/24/6
f 71/24/6 62/36/6 61/35/6
f 71/24/6 61/35/6 72/21/6
f 72/21/6 61/35/6 60/34/6
f 72/21/6 60/34/6 73/19/6
f 73/19/6 60/34/6 74/17/6
f 74/17/6 60/34/6 45/33/6
f 74/17/6 45/33/6 75/60/6
f 75/60/6 45/33/6 44/65/6
f 41/53/5 33/66/5 47/48/5
f 47/48/5 33/66/5 40/13/5
f 39/13/6 49/48/6 40/66/6
f 40/66/6 49/48/6 47/51/6
f 39/66/4 38/13/4 49/51/4
f 49/51/4 38/13/4 53/41/4
f 62/44/8 77/45/8 59/67/8
f 59/67/8 77/45/8 78/13/8
f 59/67/8 78/13/8 53/68/8
f 53/68/8 78/13/8 54/40/8
f 38/69/8 37/70/8 53/68/8
f 53/68/8 37/70/8 59/67/8
f 75/71/7 44/72/7 70/73/7
f 70/73/7 44/72/7 43/74/7
f 70/73/7 43/74/7 81/75/7
f 81/75/7 43/74/7 79/76/7
f 81/75/7 79/76/7 80/77/7
f 70/73/7 69/78/7 75/71/7
f 77/79/7 63/3/7 78/80/7
f 78/80/7 63/3/7 82/8/7
f 78/80/7 82/8/7 84/81/7
f 84/81/7 82/8/7 83/82/7
f 77/79/7 76/83/7 63/3/7
f 63/3/7 76/83/7 64/84/7
f 85/8/9 82/85/9 7/7/9
f 7/7/9 82/85/9 13/1/9
f 7/7/9 13/1/9 16/86/9
f 82/85/9 63/87/9 13/1/9
f 13/1/9 63/87/9 56/3/9
f 16/86/9 8/88/9 7/7/9
f 7/11/14 5/12/14 85/10/14
f 85/10/14 5/12/14 86/8/14
f 5/9/10 2/12/10 86/10/10
f 86/10/10 2/12/10 87/8/10
f 1/7/12 88/8/12 2/9/12
f 2/9/12 88/8/12 87/10/12
f 52/87/8 70/3/8 10/89/8
f 10/89/8 70/3/8 81/8/8
f 10/89/8 81/8/8 1/90/8
f 1/90/8 81/8/8 88/85/8
f 1/90/8 4/91/8 10/89/8
f 10/89/8 4/91/8 11/92/8
f 83/62/9 89/8/9 84/63/9
f 84/63/9 89/8/9 90/13/9
f 91/13/14 90/14/14 92/8/14
f 92/8/14 90/14/14 89/15/14
f 93/13/10 91/14/10 94/8/10
f 94/8/10 91/14/10 92/15/10
f 95/13/12 93/14/12 96/8/12
f 96/8/12 93/14/12 94/15/12
f 79/63/8 95/14/8 80/62/8
f 80/62/8 95/14/8 96/15/8
f 78/93/2 84/94/2 54/39/2
f 54/39/2 84/94/2 90/27/2
f 54/39/2 90/27/2 50/32/2
f 50/32/2 90/27/2 91/28/2
f 50/32/2 91/28/2 93/17/2
f 50/32/2 93/17/2 48/33/2
f 48/33/2 93/17/2 95/19/2
f 48/33/2 95/19/2 42/34/2
f 42/34/2 95/19/2 79/95/2
f 42/34/2 79/95/2 43/96/2
f 82/58/6 85/23/6 83/59/6
f 83/59/6 85/23/6 89/24/6
f 89/24/6 85/23/6 86/22/6
f 89/24/6 86/22/6 92/21/6
f 92/21/6 86/22/6 87/20/6
f 92/21/6 87/20/6 94/19/6
f 94/19/6 87/20/6 96/17/6
f 96/17/6 87/20/6 88/18/6
f 96/17/6 88/18/6 80/60/6
f 80/60/6 88/18/6 81/61/6
