# Blender 4.4.0
# www.blender.org
o Upgraded_Drain_Pipe_-_L-shape
v -0.180215 0.074629 0.074443
v -0.180215 0.074629 0.499885
v -0.180215 0.000070 0.499885
v -0.180215 0.000070 -0.074674
v -0.180215 0.500070 -0.074674
v -0.180215 0.500070 0.074443
v -0.074774 0.180070 0.179885
v -0.074774 0.180070 0.499885
v 0.074343 0.180070 0.179885
v 0.074343 0.180070 0.499885
v 0.179785 0.000070 0.499885
v 0.179785 0.000070 0.179885
v 0.499785 0.000070 0.179885
v 0.499785 0.000070 0.299885
v 0.399785 0.000070 0.299885
v 0.399785 0.000070 0.259885
v 0.259785 0.000070 0.259885
v 0.259785 0.000070 0.399885
v 0.299785 0.000070 0.399885
v 0.299785 0.000070 0.499885
v -0.300215 0.000070 0.499885
v -0.300215 0.000070 0.399885
v -0.260215 0.000070 0.399885
v -0.260215 0.000070 -0.107815
v -0.107915 0.000070 -0.260115
v 0.399785 0.000070 -0.260115
v 0.399785 0.000070 -0.300115
v 0.499785 0.000070 -0.300115
v 0.499785 0.000070 -0.180115
v -0.074774 0.000070 -0.180115
v -0.074774 0.500070 -0.180115
v 0.179785 0.074629 0.499885
v 0.179785 0.074629 0.179885
v 0.127064 0.127350 0.127164
v -0.260211 0.107770 -0.107815
v -0.107915 0.107770 -0.260111
v -0.107915 0.107766 -0.260115
v -0.260215 0.107766 -0.107815
v -0.107911 0.107766 -0.260115
v -0.260215 0.107766 -0.107811
v -0.260215 0.400070 -0.107811
v -0.107911 0.400070 -0.260115
v 0.179785 0.180070 0.074443
v 0.179785 0.500070 0.074443
v 0.179785 0.500070 -0.074674
v 0.179785 0.180070 -0.074674
v 0.074343 0.500070 -0.180115
v 0.074343 0.074629 -0.180115
v 0.074343 0.500070 0.179885
v -0.074774 0.500070 0.179885
v -0.260215 0.107766 0.107580
v -0.107911 0.260070 0.259885
v -0.107911 0.400070 0.259885
v -0.260215 0.400070 0.107580
v 0.107480 0.260070 0.259885
v 0.107480 0.400070 0.259885
v -0.124479 0.500070 0.299885
v -0.300215 0.500070 0.124149
v -0.300215 0.400070 0.124149
v -0.124479 0.400070 0.299885
v 0.124049 0.500070 0.299885
v 0.124049 0.400070 0.299885
v 0.299785 0.500070 0.124149
v 0.299785 0.400070 0.124149
v 0.183633 0.183918 0.183733
v 0.259785 0.260070 0.107580
v 0.259785 0.400070 0.107580
v -0.300215 0.500070 -0.124379
v -0.300215 0.400070 -0.124379
v 0.124049 0.500070 -0.300115
v 0.299785 0.500070 -0.124379
v 0.299785 0.400070 -0.124379
v 0.124049 0.400070 -0.300115
v -0.124479 0.500070 -0.300115
v -0.124479 0.400070 -0.300115
v 0.259785 0.400070 -0.107811
v 0.107480 0.400070 -0.260115
v 0.259785 0.260070 -0.107811
v 0.107480 0.107766 -0.260115
v 0.399785 0.107766 -0.260115
v 0.259785 0.107766 0.259885
v 0.399785 0.107766 0.259885
v 0.399785 0.260070 0.107580
v 0.107480 0.260070 0.399885
v 0.259785 0.107766 0.399885
v -0.107911 0.260070 0.399885
v 0.399785 0.260070 -0.107811
v -0.260215 0.107766 0.399885
v 0.499785 0.074629 0.179885
v 0.499785 0.180070 0.074443
v 0.499785 0.180070 -0.074674
v 0.299785 0.124334 0.499885
v 0.124049 0.300070 0.499885
v -0.124479 0.300070 0.499885
v -0.300215 0.124334 0.499885
v 0.499785 0.074629 -0.180115
v -0.300215 0.124334 0.399885
v -0.124479 0.300070 0.399885
v 0.124049 0.300070 0.399885
v 0.299785 0.124334 0.399885
v 0.499785 0.124334 -0.300115
v 0.499785 0.300070 -0.124379
v 0.499785 0.300070 0.124149
v 0.499785 0.124334 0.299885
v 0.399785 0.124334 0.299885
v 0.399785 0.300070 0.124149
v 0.399785 0.300070 -0.124379
v 0.399785 0.124334 -0.300115
vn 1.0000 -0.0000 -0.0000
vn 0.7071 -0.7071 -0.0000
vn -0.0000 -1.0000 -0.0000
vn 0.7071 -0.0000 0.7071
vn -1.0000 -0.0000 -0.0000
vn -0.7071 -0.7071 -0.0000
vn -0.5773 0.5774 -0.5774
vn -0.5773 0.5774 -0.5773
vn -0.5772 0.5774 -0.5774
vn -0.0000 0.7071 -0.7071
vn -0.7071 -0.0000 -0.7071
vn -0.7071 -0.0000 0.7071
vn -0.0000 -0.0000 -1.0000
vn 0.7071 -0.0000 -0.7071
vn -0.0000 -0.0000 1.0000
vn -0.0000 1.0000 -0.0000
vn -0.0000 0.7071 0.7071
vn 0.7071 0.7071 -0.0000
vn -0.7071 0.7071 -0.0000
vn -0.0000 -0.7071 -0.7071
vn -0.0000 -0.7071 0.7071
vt 0.000000 0.000000
vt 0.372792 0.000000
vt -0.000000 2.127208
vt 0.372792 2.872792
vt -2.127208 2.872792
vt -2.127208 2.127208
vt 0.745584 2.127208
vt -0.000000 1.600000
vt 0.745584 0.000000
vt 0.745584 1.600000
vt -1.500000 -2.500000
vt -0.900000 -2.500000
vt -1.300000 -2.000000
vt -0.900000 -0.900000
vt -1.300000 -1.300000
vt -2.000000 -1.300000
vt -2.500000 -0.900000
vt -2.500000 -1.500000
vt -2.000000 -1.500000
vt -1.500000 -2.000000
vt 0.900000 -2.500000
vt 1.300000 -2.000000
vt 0.900000 0.372792
vt 1.300000 0.538500
vt 0.372792 0.900000
vt 0.538500 1.300000
vt -2.000000 1.300000
vt 1.500000 -2.500000
vt 1.500000 -2.000000
vt -2.000000 1.500000
vt -2.500000 1.500000
vt -2.500000 0.900000
vt 0.000000 2.500000
vt 0.745584 2.500000
vt 0.372792 1.600000
vt 0.372792 1.863604
vt -0.538446 -0.932616
vt -1.076892 -0.000000
vt -0.538462 -0.932643
vt -1.076924 -0.000000
vt 0.000032 1.961500
vt -0.000000 1.961522
vt -0.000000 1.961500
vt -0.000000 3.038478
vt 0.000032 3.038500
vt -0.000000 4.500000
vt 1.076924 3.038500
vt 1.076955 4.500000
vt 1.076955 3.038478
vt 0.787006 3.400000
vt 0.787006 5.000000
vt 0.041421 3.400000
vt 0.041421 5.000000
vt -5.000000 0.787006
vt -5.000000 0.041421
vt -3.400000 0.787006
vt -2.872792 0.041421
vt -3.400000 0.041421
vt -3.136396 0.414213
vt -2.872792 0.787006
vt 1.076955 3.800000
vt -0.000000 3.800000
vt 1.242641 0.000000
vt 0.000000 0.500000
vt 1.242641 0.500000
vt 0.538478 3.419239
vt 0.538478 1.300000
vt -0.621320 1.500000
vt -0.538478 1.300000
vt -1.500000 0.621320
vt -1.300000 0.538478
vt -1.500000 -0.621320
vt -1.300000 -0.538478
vt -0.538478 -1.300000
vt -0.621320 -1.500000
vt 0.621320 -1.500000
vt 1.300000 0.538478
vt 1.500000 0.621320
vt 0.621320 1.500000
vt 1.500000 -0.621320
vt 1.300000 -0.538478
vt 0.538478 -1.300000
vt -0.372792 0.900000
vt -0.900000 0.372792
vt -0.900000 -0.372792
vt -0.372792 -0.900000
vt 0.900000 -0.372792
vt 0.372792 -0.900000
vt 1.076978 2.500000
vt -1.461522 2.500000
vt -1.461522 3.038478
vt 1.076978 3.038478
vt 1.838478 1.961522
vt 2.538478 1.961522
vt 1.838478 3.038478
vt 2.538478 3.038478
vt -0.538478 0.000000
vt -0.538478 1.076924
vt 0.000000 1.076924
vt 1.076955 1.961522
vt 1.076924 1.961500
vt 1.076955 1.961500
vt -0.527208 2.872792
vt -0.527208 2.127208
vt -0.000000 -0.900000
vt 0.000000 -1.500000
vt 0.000000 1.500000
vt 0.000000 0.900000
vt 0.538478 3.800000
vt 0.538478 4.500000
vt 0.538478 1.961500
vt -1.461522 1.961522
vt 0.000000 1.300000
vt 0.000000 -1.300000
vt 0.621320 0.500000
vt 0.621320 0.000000
vt -2.085786 2.127208
vt 0.414214 2.127208
vt 0.041421 2.872792
vt 0.414214 5.000000
vt -2.085786 2.872792
s 1
f 2/1/1 3/2/1 1/3/1
f 1/3/1 3/2/1 4/4/1
f 1/3/1 4/4/1 5/5/1
f 5/5/1 6/6/1 1/3/1
f 1/7/2 7/8/2 2/9/2
f 2/9/2 7/8/2 8/1/2
f 7/10/3 9/8/3 8/9/3
f 8/9/3 9/8/3 10/1/3
f 20/11/3 11/12/3 18/13/3
f 18/13/3 11/12/3 12/14/3
f 18/13/3 12/14/3 17/15/3
f 17/15/3 12/14/3 16/16/3
f 16/16/3 12/14/3 13/17/3
f 16/16/3 13/17/3 14/18/3
f 14/18/3 15/19/3 16/16/3
f 18/13/3 19/20/3 20/11/3
f 3/21/3 23/22/3 4/23/3
f 4/23/3 23/22/3 24/24/3
f 4/23/3 24/24/3 30/25/3
f 30/25/3 24/24/3 25/26/3
f 30/25/3 25/26/3 26/27/3
f 3/21/3 21/28/3 23/22/3
f 23/22/3 21/28/3 22/29/3
f 27/30/3 28/31/3 26/27/3
f 26/27/3 28/31/3 29/32/3
f 26/27/3 29/32/3 30/25/3
f 31/1/4 5/9/4 30/33/4
f 30/33/4 5/9/4 4/34/4
f 11/1/5 32/2/5 12/8/5
f 12/8/5 32/2/5 33/35/5
f 9/10/6 34/36/6 10/9/6
f 10/9/6 34/36/6 32/1/6
f 32/1/6 34/36/6 33/8/6
f 35/37/7 36/38/8 38/39/9
f 38/39/9 36/38/8 37/40/8
f 36/41/10 39/42/10 37/43/10
f 39/44/11 36/45/11 42/46/11
f 42/46/11 36/45/11 35/47/11
f 42/46/11 35/47/11 41/48/11
f 41/48/11 35/47/11 40/49/11
f 43/50/5 44/51/5 46/52/5
f 46/52/5 44/51/5 45/53/5
f 45/54/12 47/55/12 46/56/12
f 46/56/12 47/55/12 48/57/12
f 43/58/11 34/59/11 44/55/11
f 44/55/11 34/59/11 49/54/11
f 49/54/11 34/59/11 9/56/11
f 7/56/13 50/54/13 9/58/13
f 9/58/13 50/54/13 49/55/13
f 1/60/14 6/54/14 7/58/14
f 7/58/14 6/54/14 50/55/14
f 51/44/12 52/61/12 54/46/12
f 54/46/12 52/61/12 53/48/12
f 52/62/15 55/61/15 53/46/15
f 53/46/15 55/61/15 56/48/15
f 57/1/12 58/63/12 60/64/12
f 60/64/12 58/63/12 59/65/12
f 61/1/15 57/63/15 62/64/15
f 62/64/15 57/63/15 60/65/15
f 63/1/4 61/63/4 64/64/4
f 64/64/4 61/63/4 62/65/4
f 65/66/4 66/61/4 55/62/4
f 55/62/4 66/61/4 56/46/4
f 56/46/4 66/61/4 67/48/4
f 58/1/5 68/63/5 59/64/5
f 59/64/5 68/63/5 69/65/5
f 70/1/14 71/63/14 73/64/14
f 73/64/14 71/63/14 72/65/14
f 74/1/13 70/63/13 75/64/13
f 75/64/13 70/63/13 73/65/13
f 68/1/11 74/63/11 69/64/11
f 69/64/11 74/63/11 75/65/11
f 64/65/1 72/64/1 63/63/1
f 63/63/1 72/64/1 71/1/1
f 76/67/3 64/68/3 67/69/3
f 67/69/3 64/68/3 62/70/3
f 67/69/3 62/70/3 56/71/3
f 56/71/3 62/70/3 60/72/3
f 56/71/3 60/72/3 53/73/3
f 53/73/3 60/72/3 54/74/3
f 54/74/3 60/72/3 59/75/3
f 54/74/3 59/75/3 69/76/3
f 77/77/3 73/78/3 76/67/3
f 76/67/3 73/78/3 72/79/3
f 76/67/3 72/79/3 64/68/3
f 73/78/3 77/77/3 75/80/3
f 75/80/3 77/77/3 42/81/3
f 75/80/3 42/81/3 41/82/3
f 75/80/3 41/82/3 69/76/3
f 69/76/3 41/82/3 54/74/3
f 66/62/1 78/61/1 67/46/1
f 67/46/1 78/61/1 76/48/1
f 44/25/16 71/68/16 45/83/16
f 45/83/16 71/68/16 70/70/16
f 45/83/16 70/70/16 47/84/16
f 47/84/16 70/70/16 74/72/16
f 47/84/16 74/72/16 31/85/16
f 31/85/16 74/72/16 5/86/16
f 5/86/16 74/72/16 68/75/16
f 5/86/16 68/75/16 58/76/16
f 49/23/16 61/78/16 44/25/16
f 44/25/16 61/78/16 63/79/16
f 44/25/16 63/79/16 71/68/16
f 61/78/16 49/23/16 57/80/16
f 57/80/16 49/23/16 50/87/16
f 57/80/16 50/87/16 6/88/16
f 57/80/16 6/88/16 58/76/16
f 58/76/16 6/88/16 5/86/16
f 42/48/13 77/46/13 39/49/13
f 39/49/13 77/46/13 79/44/13
f 39/49/13 79/44/13 25/89/13
f 25/89/13 79/44/13 26/90/13
f 26/90/13 79/44/13 80/91/13
f 25/89/13 37/92/13 39/49/13
f 79/49/14 77/48/14 78/62/14
f 78/62/14 77/48/14 76/46/14
f 65/66/17 81/61/17 66/62/17
f 66/62/17 81/61/17 83/46/17
f 83/46/17 81/61/17 82/48/17
f 65/66/18 55/61/18 81/62/18
f 81/62/18 55/61/18 85/46/18
f 85/46/18 55/61/18 84/48/18
f 52/93/16 86/94/16 55/95/16
f 55/95/16 86/94/16 84/96/16
f 78/62/16 66/61/16 87/46/16
f 87/46/16 66/61/16 83/48/16
f 51/49/19 88/48/19 52/62/19
f 52/62/19 88/48/19 86/46/19
f 24/97/11 38/1/11 25/98/11
f 25/98/11 38/1/11 37/99/11
f 33/8/13 89/1/13 12/35/13
f 12/35/13 89/1/13 13/2/13
f 43/8/20 90/1/20 34/36/20
f 34/36/20 90/1/20 89/9/20
f 34/36/20 89/9/20 33/10/20
f 40/100/19 35/101/19 38/102/19
f 46/103/3 91/5/3 43/104/3
f 43/104/3 91/5/3 90/6/3
f 3/105/15 2/86/15 21/106/15
f 21/106/15 2/86/15 95/75/15
f 95/75/15 2/86/15 8/85/15
f 95/75/15 8/85/15 94/72/15
f 94/72/15 8/85/15 10/84/15
f 94/72/15 10/84/15 93/70/15
f 93/70/15 10/84/15 92/68/15
f 92/68/15 10/84/15 32/83/15
f 92/68/15 32/83/15 20/107/15
f 20/107/15 32/83/15 11/108/15
f 79/44/10 78/61/10 80/46/10
f 80/46/10 78/61/10 87/48/10
f 48/60/21 96/54/21 46/58/21
f 46/58/21 96/54/21 91/55/21
f 17/109/1 81/61/1 18/110/1
f 18/110/1 81/61/1 85/48/1
f 38/43/5 24/111/5 40/42/5
f 40/42/5 24/111/5 51/44/5
f 40/42/5 51/44/5 41/112/5
f 41/112/5 51/44/5 54/91/5
f 24/111/5 23/110/5 51/44/5
f 51/44/5 23/110/5 88/46/5
f 18/113/13 85/67/13 19/107/13
f 19/107/13 85/67/13 100/79/13
f 100/79/13 85/67/13 84/77/13
f 100/79/13 84/77/13 99/78/13
f 99/78/13 84/77/13 98/80/13
f 98/80/13 84/77/13 86/81/13
f 98/80/13 86/81/13 97/76/13
f 97/76/13 86/81/13 88/82/13
f 97/76/13 88/82/13 22/106/13
f 22/106/13 88/82/13 23/114/13
f 19/115/1 100/64/1 20/116/1
f 20/116/1 100/64/1 92/1/1
f 95/1/19 94/63/19 97/64/19
f 97/64/19 94/63/19 98/65/19
f 94/1/16 93/63/16 98/64/16
f 98/64/16 93/63/16 99/65/16
f 93/1/18 92/63/18 99/64/18
f 99/64/18 92/63/18 100/65/18
f 21/116/5 95/63/5 22/115/5
f 22/115/5 95/63/5 97/65/5
f 17/109/15 16/110/15 81/62/15
f 81/62/15 16/110/15 82/46/15
f 31/117/15 30/118/15 48/119/15
f 48/119/15 30/118/15 29/120/15
f 48/119/15 29/120/15 96/53/15
f 48/119/15 47/121/15 31/117/15
f 29/108/1 28/107/1 96/83/1
f 96/83/1 28/107/1 101/68/1
f 96/83/1 101/68/1 91/84/1
f 91/84/1 101/68/1 102/70/1
f 91/84/1 102/70/1 103/72/1
f 91/84/1 103/72/1 90/85/1
f 90/85/1 103/72/1 104/75/1
f 90/85/1 104/75/1 89/86/1
f 89/86/1 104/75/1 14/106/1
f 89/86/1 14/106/1 13/105/1
f 26/113/5 80/67/5 27/107/5
f 27/107/5 80/67/5 108/79/5
f 108/79/5 80/67/5 87/77/5
f 108/79/5 87/77/5 107/78/5
f 107/78/5 87/77/5 106/80/5
f 106/80/5 87/77/5 83/81/5
f 106/80/5 83/81/5 105/76/5
f 105/76/5 83/81/5 82/82/5
f 105/76/5 82/82/5 15/106/5
f 15/106/5 82/82/5 16/114/5
f 27/115/13 108/64/13 28/116/13
f 28/116/13 108/64/13 101/1/13
f 104/1/17 103/63/17 105/64/17
f 105/64/17 103/63/17 106/65/17
f 103/1/16 102/63/16 106/64/16
f 106/64/16 102/63/16 107/65/16
f 102/1/10 101/63/10 107/64/10
f 107/64/10 101/63/10 108/65/10
f 14/116/15 104/63/15 15/115/15
f 15/115/15 104/63/15 105/65/15
