# Blender 4.4.0
# www.blender.org
o Upgraded_Drain_Pipe_-_T-shape
v 0.180000 0.074523 -0.179984
v 0.127279 0.127243 -0.127263
v 0.074558 0.179964 -0.179984
v 0.074558 0.179964 -0.499984
v 0.180000 0.074523 -0.499984
v 0.180000 0.179964 -0.074543
v 0.180000 0.499964 -0.074543
v 0.074558 0.499964 -0.179984
v 0.180000 0.179964 0.074574
v 0.180000 0.499964 0.074574
v 0.180000 -0.000036 -0.179984
v 0.180000 -0.000036 -0.499984
v -0.074558 0.074523 0.180016
v -0.074558 0.499964 0.180016
v 0.074558 0.499964 0.180016
v 0.074558 0.074523 0.180016
v 0.500000 0.074523 0.180016
v 0.500000 -0.000036 0.180016
v -0.500000 -0.000036 0.180016
v -0.500000 0.074523 0.180016
v -0.180000 0.179964 -0.074543
v -0.127279 0.127243 -0.127263
v -0.074558 0.179964 -0.179984
v -0.074558 0.499964 -0.179984
v -0.180000 0.499964 -0.074543
v -0.180000 0.074523 -0.179984
v -0.180000 0.074523 -0.499984
v -0.074558 0.179964 -0.499984
v -0.180000 -0.000036 -0.179984
v -0.180000 -0.000036 -0.499984
v -0.180000 0.179964 0.074574
v -0.180000 0.499964 0.074574
v 0.500000 -0.000036 -0.179984
v 0.300000 -0.000036 -0.499984
v 0.300000 -0.000036 -0.399984
v 0.260000 -0.000036 -0.399984
v 0.260000 -0.000036 -0.259984
v 0.400000 -0.000036 -0.259984
v 0.400000 -0.000036 -0.299984
v 0.500000 -0.000036 -0.299984
v -0.500000 -0.000036 -0.179984
v -0.500000 -0.000036 -0.299984
v -0.400000 -0.000036 -0.299984
v -0.400000 -0.000036 -0.259984
v -0.260000 -0.000036 -0.259984
v -0.260000 -0.000036 -0.399984
v -0.300000 -0.000036 -0.399984
v -0.300000 -0.000036 -0.499984
v -0.260000 0.107660 -0.259984
v -0.183848 0.183812 -0.183832
v -0.107696 0.259964 -0.259984
v -0.107696 0.259964 -0.399984
v -0.260000 0.107660 -0.399984
v 0.107695 0.259964 -0.259984
v 0.107696 0.259964 -0.399984
v 0.183848 0.183812 -0.183832
v 0.260000 0.107660 -0.259984
v 0.260000 0.107660 -0.399984
v 0.300000 0.124228 -0.499984
v 0.300000 0.124228 -0.399984
v -0.124264 0.299964 -0.499984
v -0.300000 0.124228 -0.499984
v -0.300000 0.124228 -0.399984
v -0.124264 0.299964 -0.399984
v 0.124264 0.299964 -0.499984
v 0.124264 0.299964 -0.399984
v -0.500000 0.179964 0.074574
v -0.500000 0.179964 -0.074543
v 0.500000 0.074523 -0.179984
v 0.500000 0.179964 -0.074543
v -0.400000 0.107660 -0.259984
v -0.400000 0.259964 -0.107680
v -0.260000 0.259964 -0.107680
v 0.400000 0.107660 -0.259984
v -0.107696 0.399964 -0.259984
v 0.107696 0.399964 -0.259984
v -0.260000 0.399964 -0.107680
v -0.260000 0.259964 0.107711
v -0.260000 0.399964 0.107711
v -0.107695 0.107660 0.260016
v -0.107696 0.399964 0.260016
v 0.260000 0.399964 -0.107680
v 0.260000 0.259964 -0.107680
v -0.300000 0.499964 -0.124248
v -0.124264 0.499964 -0.299984
v -0.124264 0.399964 -0.299984
v -0.300000 0.399964 -0.124248
v -0.300000 0.499964 0.124280
v -0.300000 0.399964 0.124280
v -0.124264 0.499964 0.300016
v -0.124264 0.399964 0.300016
v 0.124264 0.499964 -0.299984
v 0.124264 0.399964 -0.299984
v 0.300000 0.499964 0.124280
v 0.124264 0.499964 0.300016
v 0.124264 0.399964 0.300016
v 0.300000 0.399964 0.124280
v 0.300000 0.499964 -0.124248
v 0.300000 0.399964 -0.124248
v 0.107696 0.399964 0.260016
v 0.260000 0.399964 0.107711
v 0.260000 0.259964 0.107711
v 0.107696 0.107660 0.260016
v -0.500000 0.074523 -0.179984
v 0.400000 0.259964 -0.107680
v 0.400000 0.259964 0.107711
v -0.400000 0.259964 0.107711
v -0.400000 0.107660 0.260016
v 0.400000 0.107660 0.260016
v 0.400000 -0.000036 0.260016
v -0.400000 -0.000036 0.260016
v -0.400000 -0.000036 0.300016
v -0.500000 -0.000036 0.300016
v 0.500000 -0.000036 0.300016
v 0.400000 -0.000036 0.300016
v 0.500000 0.179964 0.074574
v 0.500000 0.124228 0.300016
v 0.400000 0.124228 0.300016
v 0.400000 0.299964 0.124280
v 0.400000 0.299964 -0.124248
v 0.400000 0.124228 -0.299984
v 0.500000 0.299964 -0.124248
v 0.500000 0.124228 -0.299984
v 0.500000 0.299964 0.124280
v -0.500000 0.124228 -0.299984
v -0.400000 0.124228 -0.299984
v -0.500000 0.299964 0.124280
v -0.500000 0.124228 0.300016
v -0.400000 0.124228 0.300016
v -0.400000 0.299964 0.124280
v -0.500000 0.299964 -0.124248
v -0.400000 0.299964 -0.124248
vn -0.7071 -0.7071 -0.0000
vn -0.7071 -0.0000 0.7071
vn -1.0000 -0.0000 -0.0000
vn -0.0000 -0.0000 -1.0000
vn 0.7071 -0.0000 0.7071
vn 0.7071 -0.7071 -0.0000
vn 1.0000 -0.0000 -0.0000
vn -0.0000 -0.0000 1.0000
vn -0.0000 -1.0000 -0.0000
vn -0.7071 0.7071 -0.0000
vn -0.0000 1.0000 -0.0000
vn 0.7071 0.7071 -0.0000
vn -0.0000 -0.7071 0.7071
vn -0.0000 0.7071 -0.7071
vn -0.7071 -0.0000 -0.7071
vn 0.7071 -0.0000 -0.7071
vn -0.0000 -0.7071 -0.7071
vn -0.0000 0.7071 0.7071
vt -3.400000 0.041421
vt -3.136396 0.414214
vt -5.000000 0.041421
vt -5.000000 0.787006
vt -3.400000 0.787006
vt -0.745584 1.600000
vt -0.745584 0.000000
vt -0.372792 1.863604
vt -0.000000 0.000000
vt 0.000000 1.600000
vt 1.314214 2.127208
vt 2.914214 2.127208
vt 1.314214 2.872792
vt 2.914214 2.872792
vt 0.414214 3.400000
vt 0.787006 3.400000
vt 0.414214 5.000000
vt 0.787006 5.000000
vt -2.085786 2.872792
vt 0.041421 2.127208
vt 0.041421 2.872792
vt 0.414214 0.000000
vt -2.085786 2.127208
vt 0.041421 0.000000
vt 0.041421 5.000000
vt 0.041421 3.400000
vt -0.485786 2.872792
vt -0.485786 2.127208
vt 1.314213 2.872792
vt 1.314213 2.127208
vt 2.500000 -1.500000
vt 2.500000 -0.900000
vt 2.000000 -1.300000
vt 0.900000 -0.900000
vt 1.300000 -1.300000
vt 1.300000 -2.000000
vt 0.900000 -2.500000
vt 1.500000 -2.500000
vt 1.500000 -2.000000
vt 2.000000 -1.500000
vt -2.500000 -0.900000
vt -2.000000 -1.300000
vt -0.900000 -0.900000
vt -1.300000 -1.300000
vt -1.300000 -2.000000
vt -2.500000 -1.500000
vt -2.000000 -1.500000
vt -1.500000 -2.000000
vt -1.500000 -2.500000
vt -0.900000 -2.500000
vt 0.538478 3.419239
vt 1.076955 3.800000
vt 0.000000 3.800000
vt -0.000000 4.500000
vt 1.076955 4.500000
vt 0.538478 3.800000
vt 0.538478 4.500000
vt 0.621320 0.000000
vt 1.242641 0.000000
vt 0.621320 0.500000
vt 1.242641 0.500000
vt -0.000000 0.500000
vt 0.000000 1.300000
vt 0.538478 1.300000
vt 0.000000 1.500000
vt 0.621320 1.500000
vt 1.300000 0.538478
vt 1.500000 0.621320
vt 1.500000 -0.621320
vt 1.300000 -0.538478
vt 0.621320 -1.500000
vt 0.538478 -1.300000
vt 0.000000 -1.500000
vt 0.000000 -1.300000
vt -0.372792 0.900000
vt -0.621320 1.500000
vt -0.900000 0.372792
vt -1.500000 0.621320
vt -1.500000 -0.621320
vt 0.000000 0.900000
vt -0.900000 -0.372792
vt -0.621320 -1.500000
vt -0.372792 -0.900000
vt -0.000000 -1.500000
vt -0.000000 -0.900000
vt -1.600000 0.041421
vt 0.000000 0.041421
vt -1.863604 0.414213
vt 0.000000 0.787006
vt -1.600000 0.787006
vt 0.787006 0.000000
vt 0.414214 1.600000
vt 0.787006 1.600000
vt 0.538478 1.200000
vt 0.000000 1.200000
vt 0.538478 0.500000
vt -0.761522 1.961522
vt -0.761522 3.038478
vt -1.461522 1.961522
vt -1.461522 3.038478
vt 1.076955 3.038478
vt -0.538478 1.300000
vt -1.300000 0.538478
vt -1.300000 -0.538478
vt -0.538478 -1.300000
vt 0.372792 0.900000
vt 0.372792 -0.900000
vt 0.900000 -0.372792
vt 0.900000 0.372792
vt -0.000000 3.038478
vt -2.872792 0.787006
vt 0.538478 1.580761
vt 1.076955 1.200000
vt 1.076955 0.500000
vt 0.000000 1.961522
vt -2.000000 1.300000
vt 2.500000 0.900000
vt 2.000000 1.300000
vt 2.500000 1.500000
vt 2.000000 1.500000
vt -2.000000 1.500000
vt -2.500000 1.500000
vt -2.500000 0.900000
vt 1.076955 1.961522
vt 2.538478 1.961522
vt 2.538478 3.038478
vt -0.745584 2.127208
vt -2.127208 0.787006
vt 0.900000 0.000000
vt 1.500000 0.000000
vt -1.500000 0.000000
vt -0.900000 0.000000
vt 0.000000 2.127208
s 1
f 1/1/1 2/2/1 5/3/1
f 5/3/1 2/2/1 4/4/1
f 4/4/1 2/2/1 3/5/1
f 6/6/2 7/7/2 2/8/2
f 2/8/2 7/7/2 8/9/2
f 2/8/2 8/9/2 3/10/2
f 9/11/3 10/12/3 6/13/3
f 6/13/3 10/12/3 7/14/3
f 11/15/3 1/16/3 12/17/3
f 12/17/3 1/16/3 5/18/3
f 14/19/4 16/20/4 13/21/4
f 13/21/4 16/20/4 18/22/4
f 13/21/4 18/22/4 19/17/4
f 14/19/4 15/23/4 16/20/4
f 16/20/4 17/24/4 18/22/4
f 19/17/4 20/25/4 13/21/4
f 21/10/5 22/8/5 25/9/5
f 25/9/5 22/8/5 24/7/5
f 24/7/5 22/8/5 23/6/5
f 26/5/6 27/4/6 22/2/6
f 22/2/6 27/4/6 28/3/6
f 22/2/6 28/3/6 23/1/6
f 26/26/7 29/15/7 27/25/7
f 27/25/7 29/15/7 30/17/7
f 21/27/7 25/19/7 31/28/7
f 31/28/7 25/19/7 32/23/7
f 23/29/8 3/30/8 24/14/8
f 24/14/8 3/30/8 8/12/8
f 40/31/9 33/32/9 38/33/9
f 38/33/9 33/32/9 11/34/9
f 38/33/9 11/34/9 37/35/9
f 37/35/9 11/34/9 36/36/9
f 36/36/9 11/34/9 12/37/9
f 36/36/9 12/37/9 34/38/9
f 34/38/9 35/39/9 36/36/9
f 38/33/9 39/40/9 40/31/9
f 41/41/9 44/42/9 29/43/9
f 29/43/9 44/42/9 45/44/9
f 29/43/9 45/44/9 46/45/9
f 41/41/9 42/46/9 44/42/9
f 44/42/9 42/46/9 43/47/9
f 47/48/9 48/49/9 46/45/9
f 46/45/9 48/49/9 30/50/9
f 46/45/9 30/50/9 29/43/9
f 50/51/10 51/52/10 49/53/10
f 49/53/10 51/52/10 53/54/10
f 53/54/10 51/52/10 52/55/10
f 45/56/3 49/52/3 46/57/3
f 46/57/3 49/52/3 53/55/3
f 51/53/11 54/52/11 52/54/11
f 52/54/11 54/52/11 55/55/11
f 56/51/12 57/52/12 54/53/12
f 54/53/12 57/52/12 55/54/12
f 55/54/12 57/52/12 58/55/12
f 37/56/7 36/57/7 57/53/7
f 57/53/7 36/57/7 58/54/7
f 34/58/7 59/59/7 35/60/7
f 35/60/7 59/59/7 60/61/7
f 61/9/10 62/59/10 64/62/10
f 64/62/10 62/59/10 63/61/10
f 65/9/11 61/59/11 66/62/11
f 66/62/11 61/59/11 64/61/11
f 59/9/12 65/59/12 60/62/12
f 60/62/12 65/59/12 66/61/12
f 47/60/3 63/62/3 48/58/3
f 48/58/3 63/62/3 62/9/3
f 46/63/8 53/64/8 47/65/8
f 47/65/8 53/64/8 63/66/8
f 63/66/8 53/64/8 52/67/8
f 63/66/8 52/67/8 64/68/8
f 64/68/8 52/67/8 66/69/8
f 66/69/8 52/67/8 55/70/8
f 66/69/8 55/70/8 60/71/8
f 60/71/8 55/70/8 58/72/8
f 60/71/8 58/72/8 35/73/8
f 35/73/8 58/72/8 36/74/8
f 27/75/4 62/76/4 28/77/4
f 28/77/4 62/76/4 61/78/4
f 28/77/4 61/78/4 65/79/4
f 30/80/4 48/65/4 27/75/4
f 27/75/4 48/65/4 62/76/4
f 28/77/4 65/79/4 4/81/4
f 4/81/4 65/79/4 59/82/4
f 4/81/4 59/82/4 5/83/4
f 5/83/4 59/82/4 34/84/4
f 5/83/4 34/84/4 12/85/4
f 23/5/9 28/4/9 3/1/9
f 3/1/9 28/4/9 4/3/9
f 31/5/9 67/4/9 21/1/9
f 21/1/9 67/4/9 68/3/9
f 1/86/13 69/87/13 2/88/13
f 2/88/13 69/87/13 70/89/13
f 2/88/13 70/89/13 6/90/13
f 33/22/8 69/91/8 11/92/8
f 11/92/8 69/91/8 1/93/8
f 50/51/14 49/52/14 73/53/14
f 73/53/14 49/52/14 72/54/14
f 72/54/14 49/52/14 71/55/14
f 37/94/4 57/95/4 38/96/4
f 38/96/4 57/95/4 74/62/4
f 54/97/4 51/98/4 76/99/4
f 76/99/4 51/98/4 75/100/4
f 45/56/4 44/57/4 49/53/4
f 49/53/4 44/57/4 71/54/4
f 50/51/15 73/52/15 51/53/15
f 51/53/15 73/52/15 75/54/15
f 75/54/15 73/52/15 77/55/15
f 73/53/3 78/52/3 77/54/3
f 77/54/3 78/52/3 79/55/3
f 80/101/2 81/55/2 78/53/2
f 78/53/2 81/55/2 79/54/2
f 56/51/16 54/52/16 83/53/16
f 83/53/16 54/52/16 82/54/16
f 82/54/16 54/52/16 76/55/16
f 84/9/15 85/59/15 87/62/15
f 87/62/15 85/59/15 86/61/15
f 88/9/3 84/59/3 89/62/3
f 89/62/3 84/59/3 87/61/3
f 90/9/2 88/59/2 91/62/2
f 91/62/2 88/59/2 89/61/2
f 85/9/4 92/59/4 86/62/4
f 86/62/4 92/59/4 93/61/4
f 94/9/5 95/59/5 97/62/5
f 97/62/5 95/59/5 96/61/5
f 98/9/7 94/59/7 99/62/7
f 99/62/7 94/59/7 97/61/7
f 92/9/16 98/59/16 93/62/16
f 93/62/16 98/59/16 99/61/16
f 91/61/8 96/62/8 90/59/8
f 90/59/8 96/62/8 95/9/8
f 100/64/9 91/76/9 81/102/9
f 81/102/9 91/76/9 89/78/9
f 81/102/9 89/78/9 79/103/9
f 79/103/9 89/78/9 87/79/9
f 79/103/9 87/79/9 77/104/9
f 77/104/9 87/79/9 75/105/9
f 75/105/9 87/79/9 86/82/9
f 75/105/9 86/82/9 93/71/9
f 101/67/9 97/68/9 100/64/9
f 100/64/9 97/68/9 96/66/9
f 100/64/9 96/66/9 91/76/9
f 97/68/9 101/67/9 99/69/9
f 99/69/9 101/67/9 82/70/9
f 99/69/9 82/70/9 76/72/9
f 99/69/9 76/72/9 93/71/9
f 93/71/9 76/72/9 75/105/9
f 88/68/11 90/66/11 14/106/11
f 14/106/11 90/66/11 95/76/11
f 14/106/11 95/76/11 15/75/11
f 15/75/11 95/76/11 94/78/11
f 15/75/11 94/78/11 10/77/11
f 10/77/11 94/78/11 98/79/11
f 10/77/11 98/79/11 7/81/11
f 7/81/11 98/79/11 8/83/11
f 8/83/11 98/79/11 92/82/11
f 8/83/11 92/82/11 85/71/11
f 8/83/11 85/71/11 24/107/11
f 24/107/11 85/71/11 84/69/11
f 24/107/11 84/69/11 25/108/11
f 25/108/11 84/69/11 32/109/11
f 32/109/11 84/69/11 88/68/11
f 32/109/11 88/68/11 14/106/11
f 102/53/7 83/52/7 101/54/7
f 101/54/7 83/52/7 82/55/7
f 103/110/5 102/52/5 100/54/5
f 100/54/5 102/52/5 101/55/5
f 104/18/8 41/17/8 26/16/8
f 26/16/8 41/17/8 29/15/8
f 21/5/13 68/4/13 22/2/13
f 22/2/13 68/4/13 104/3/13
f 22/2/13 104/3/13 26/1/13
f 67/3/17 31/1/17 20/4/17
f 20/4/17 31/1/17 13/111/17
f 56/112/14 83/95/14 57/113/14
f 57/113/14 83/95/14 74/114/14
f 74/114/14 83/95/14 105/62/14
f 83/113/11 102/95/11 105/114/11
f 105/114/11 102/95/11 106/62/11
f 80/110/18 78/52/18 108/54/18
f 108/54/18 78/52/18 107/55/18
f 103/115/18 109/62/18 102/113/18
f 102/113/18 109/62/18 106/114/18
f 111/116/9 18/117/9 110/118/9
f 110/118/9 18/117/9 114/119/9
f 110/118/9 114/119/9 115/120/9
f 112/121/9 113/122/9 111/116/9
f 111/116/9 113/122/9 19/123/9
f 111/116/9 19/123/9 18/117/9
f 108/55/8 111/57/8 80/101/8
f 80/101/8 111/57/8 110/96/8
f 80/101/8 110/96/8 103/124/8
f 103/124/8 110/96/8 109/114/8
f 103/124/8 100/125/8 80/101/8
f 80/101/8 100/125/8 81/126/8
f 10/9/15 9/10/15 15/7/15
f 15/7/15 9/10/15 16/127/15
f 116/87/17 17/89/17 9/86/17
f 9/86/17 17/89/17 16/128/17
f 6/86/9 70/87/9 9/90/9
f 9/90/9 70/87/9 116/89/9
f 114/58/8 117/59/8 115/60/8
f 115/60/8 117/59/8 118/61/8
f 110/63/3 115/65/3 109/102/3
f 109/102/3 115/65/3 118/76/3
f 109/102/3 118/76/3 106/103/3
f 106/103/3 118/76/3 119/78/3
f 106/103/3 119/78/3 120/79/3
f 106/103/3 120/79/3 105/104/3
f 105/104/3 120/79/3 121/82/3
f 105/104/3 121/82/3 74/105/3
f 74/105/3 121/82/3 39/73/3
f 74/105/3 39/73/3 38/74/3
f 122/9/14 123/59/14 120/62/14
f 120/62/14 123/59/14 121/61/14
f 124/9/11 122/59/11 119/62/11
f 119/62/11 122/59/11 120/61/11
f 117/9/18 124/59/18 118/62/18
f 118/62/18 124/59/18 119/61/18
f 39/60/4 121/62/4 40/58/4
f 40/58/4 121/62/4 123/9/4
f 69/109/7 123/68/7 70/106/7
f 70/106/7 123/68/7 122/66/7
f 70/106/7 122/66/7 124/76/7
f 33/129/7 40/130/7 69/109/7
f 69/109/7 40/130/7 123/68/7
f 70/106/7 124/76/7 116/75/7
f 116/75/7 124/76/7 117/78/7
f 116/75/7 117/78/7 17/77/7
f 17/77/7 117/78/7 114/131/7
f 17/77/7 114/131/7 18/132/7
f 13/133/16 31/6/16 14/9/16
f 14/9/16 31/6/16 32/7/16
f 78/53/11 73/52/11 107/54/11
f 107/54/11 73/52/11 72/55/11
f 42/58/4 125/59/4 43/60/4
f 43/60/4 125/59/4 126/61/4
f 127/9/18 128/59/18 130/62/18
f 130/62/18 128/59/18 129/61/18
f 131/9/11 127/59/11 132/62/11
f 132/62/11 127/59/11 130/61/11
f 125/9/14 131/59/14 126/62/14
f 126/62/14 131/59/14 132/61/14
f 112/60/8 129/62/8 113/58/8
f 113/58/8 129/62/8 128/9/8
f 111/63/7 108/64/7 112/65/7
f 112/65/7 108/64/7 129/66/7
f 129/66/7 108/64/7 107/67/7
f 129/66/7 107/67/7 130/68/7
f 130/68/7 107/67/7 132/69/7
f 132/69/7 107/67/7 72/70/7
f 132/69/7 72/70/7 126/71/7
f 126/71/7 72/70/7 71/72/7
f 126/71/7 71/72/7 43/73/7
f 43/73/7 71/72/7 44/74/7
f 20/75/3 128/76/3 67/77/3
f 67/77/3 128/76/3 127/78/3
f 67/77/3 127/78/3 131/79/3
f 19/80/3 113/65/3 20/75/3
f 20/75/3 113/65/3 128/76/3
f 67/77/3 131/79/3 68/81/3
f 68/81/3 131/79/3 125/82/3
f 68/81/3 125/82/3 104/83/3
f 104/83/3 125/82/3 42/73/3
f 104/83/3 42/73/3 41/85/3
