# Blender 4.4.0
# www.blender.org
o Upgraded_Drain_Pipe_-_Straight
v 0.107695 0.107686 -0.260000
v 0.260000 0.259990 -0.107696
v 0.400000 0.259990 -0.107696
v 0.400000 0.107686 -0.260000
v 0.260000 0.259990 0.107695
v 0.400000 0.259990 0.107695
v 0.107695 0.107686 0.260000
v 0.400000 0.107686 0.260000
v 0.400000 -0.000010 0.300000
v 0.500000 -0.000010 0.300000
v 0.500000 0.124254 0.300000
v 0.400000 0.124254 0.300000
v 0.500000 0.299990 -0.124264
v 0.500000 0.124254 -0.300000
v 0.400000 0.124254 -0.300000
v 0.400000 0.299990 -0.124264
v 0.500000 0.299990 0.124264
v 0.400000 0.299990 0.124264
v 0.500000 -0.000010 -0.300000
v 0.400000 -0.000010 -0.300000
v 0.400000 -0.000010 -0.260000
v 0.400000 -0.000010 0.260000
v 0.500000 0.179990 -0.074558
v 0.500000 0.074549 -0.180000
v 0.500000 -0.000010 -0.180000
v 0.500000 -0.000010 0.180000
v 0.500000 0.074549 0.180000
v 0.500000 0.179990 0.074558
v 0.074558 0.499990 -0.180000
v 0.074558 0.074549 -0.180000
v 0.180000 0.179990 -0.074558
v 0.180000 0.499990 -0.074558
v 0.180000 0.179990 0.074558
v 0.180000 0.499990 0.074558
v 0.074558 0.074549 0.180000
v 0.074558 0.499990 0.180000
v -0.500000 -0.000010 0.180000
v -0.500000 0.074549 0.180000
v -0.074558 0.074549 0.180000
v -0.074558 0.499990 0.180000
v -0.400000 -0.000010 0.260000
v -0.400000 -0.000010 0.300000
v -0.500000 -0.000010 0.300000
v -0.400000 -0.000010 -0.300000
v -0.500000 -0.000010 -0.300000
v -0.500000 0.124254 -0.300000
v -0.400000 0.124254 -0.300000
v -0.400000 -0.000010 -0.260000
v -0.400000 0.299990 -0.124264
v -0.400000 0.299990 0.124264
v -0.400000 0.124254 0.300000
v -0.400000 0.107686 0.260000
v -0.400000 0.259990 0.107695
v -0.400000 0.259990 -0.107696
v -0.400000 0.107686 -0.260000
v -0.500000 0.299990 0.124264
v -0.500000 0.124254 0.300000
v -0.500000 0.299990 -0.124264
v -0.500000 0.179990 0.074558
v -0.500000 -0.000010 -0.180000
v -0.500000 0.074549 -0.180000
v -0.500000 0.179990 -0.074558
v -0.260000 0.259990 -0.107696
v -0.107695 0.107686 -0.260000
v -0.260000 0.259990 0.107695
v -0.107695 0.107686 0.260000
v -0.107696 0.399990 -0.260000
v 0.107696 0.399990 -0.260000
v -0.260000 0.399990 -0.107696
v -0.260000 0.399990 0.107695
v -0.107696 0.399990 0.260000
v 0.107696 0.399990 0.260000
v -0.180000 0.179990 0.074558
v -0.180000 0.179990 -0.074558
v -0.074558 0.074549 -0.180000
v -0.180000 0.499990 0.074558
v -0.180000 0.499990 -0.074558
v -0.074558 0.499990 -0.180000
v 0.260000 0.399990 0.107695
v 0.260000 0.399990 -0.107696
v 0.300000 0.499990 0.124264
v 0.124264 0.499990 0.300000
v 0.124264 0.399990 0.300000
v 0.300000 0.399990 0.124264
v 0.300000 0.499990 -0.124264
v 0.300000 0.399990 -0.124264
v 0.124264 0.499990 -0.300000
v 0.124264 0.399990 -0.300000
v -0.124264 0.499990 0.300000
v -0.124264 0.399990 0.300000
v -0.300000 0.499990 -0.124264
v -0.124264 0.499990 -0.300000
v -0.124264 0.399990 -0.300000
v -0.300000 0.399990 -0.124264
v -0.300000 0.499990 0.124264
v -0.300000 0.399990 0.124264
vn -0.0000 0.7071 -0.7071
vn -0.0000 1.0000 -0.0000
vn -0.0000 0.7071 0.7071
vn -0.0000 -0.0000 1.0000
vn -0.0000 -0.0000 -1.0000
vn -1.0000 -0.0000 -0.0000
vn 1.0000 -0.0000 -0.0000
vn -0.7071 -0.0000 0.7071
vn -0.7071 -0.0000 -0.7071
vn -0.0000 -1.0000 -0.0000
vn -0.0000 -0.7071 -0.7071
vn -0.0000 -0.7071 0.7071
vn 0.7071 -0.0000 -0.7071
vn 0.7071 -0.0000 0.7071
vt 0.000000 3.038478
vt 1.076955 3.800000
vt -0.000000 4.500000
vt 1.076955 4.500000
vt 0.000000 3.800000
vt 1.076955 3.038478
vt 0.621320 0.000000
vt 1.242641 0.000000
vt 0.621320 0.500000
vt 1.242641 0.500000
vt 0.000000 0.000000
vt 0.000000 0.500000
vt 0.000000 1.300000
vt 0.538478 1.300000
vt 0.000000 1.500000
vt 0.621320 1.500000
vt 1.300000 0.538478
vt 1.500000 0.621320
vt 1.500000 -0.621320
vt 1.300000 -0.538478
vt 0.621320 -1.500000
vt 0.538478 -1.300000
vt 0.000000 -1.500000
vt 0.000000 -1.300000
vt -0.372792 0.900000
vt -0.621320 1.500000
vt -0.900000 0.372792
vt -1.500000 0.621320
vt -1.500000 -0.621320
vt 0.000000 0.900000
vt -0.900000 -0.372792
vt -0.621320 -1.500000
vt -0.372792 -0.900000
vt -0.000000 -0.900000
vt -2.872792 0.041421
vt -3.400000 0.787006
vt -5.000000 0.041421
vt -5.000000 0.787006
vt -3.400000 0.041421
vt -2.872792 0.787006
vt 0.787006 5.000000
vt 0.041421 5.000000
vt 0.787006 2.872792
vt 0.041421 2.872792
vt 2.914214 2.500000
vt -2.085786 2.500000
vt -2.085786 2.872792
vt 2.914214 2.872792
vt 1.250000 -1.300000
vt -3.250000 -0.900000
vt -2.750000 -1.300000
vt -3.250000 -1.500000
vt -2.750000 -1.500000
vt 1.250000 -1.500000
vt 1.750000 -1.500000
vt 1.750000 -0.900000
vt -0.538478 1.300000
vt -1.300000 0.538478
vt -1.300000 -0.538478
vt -0.538478 -1.300000
vt 0.900000 0.372792
vt 0.372792 0.900000
vt 0.900000 0.000000
vt 1.500000 0.000000
vt -1.500000 0.000000
vt -0.900000 0.000000
vt 0.000000 1.961522
vt 1.076955 1.200000
vt 1.076955 0.500000
vt 0.000000 1.200000
vt 1.076955 1.961522
vt -1.461522 3.038478
vt -1.461522 2.500000
vt 2.538478 2.500000
vt 2.538478 3.038478
vt -0.745584 2.872792
vt 0.000000 3.400000
vt -0.745584 5.000000
vt 0.000000 5.000000
vt -0.745584 3.400000
vt -0.000000 2.872792
vt 0.000000 1.600000
vt -0.745584 0.000000
vt -0.745584 2.127208
vt -0.745584 1.600000
vt -0.000000 2.127208
vt -3.250000 1.500000
vt -3.250000 0.900000
vt -2.750000 1.300000
vt 1.750000 0.900000
vt 1.250000 1.300000
vt 1.750000 1.500000
vt 1.250000 1.500000
vt -2.750000 1.500000
vt 0.372792 -0.900000
vt 0.900000 -0.372792
s 1
f 1/1/1 2/2/1 4/3/1
f 4/3/1 2/2/1 3/4/1
f 2/5/2 5/2/2 3/3/2
f 3/3/2 5/2/2 6/4/2
f 7/6/3 8/4/3 5/5/3
f 5/5/3 8/4/3 6/3/3
f 10/7/4 11/8/4 9/9/4
f 9/9/4 11/8/4 12/10/4
f 13/11/1 14/8/1 16/12/1
f 16/12/1 14/8/1 15/10/1
f 17/11/2 13/8/2 18/12/2
f 18/12/2 13/8/2 16/10/2
f 11/11/3 17/8/3 12/12/3
f 12/12/3 17/8/3 18/10/3
f 20/9/5 15/12/5 19/7/5
f 19/7/5 15/12/5 14/11/5
f 21/13/6 4/14/6 20/15/6
f 20/15/6 4/14/6 15/16/6
f 15/16/6 4/14/6 3/17/6
f 15/16/6 3/17/6 16/18/6
f 16/18/6 3/17/6 18/19/6
f 18/19/6 3/17/6 6/20/6
f 18/19/6 6/20/6 12/21/6
f 12/21/6 6/20/6 8/22/6
f 12/21/6 8/22/6 9/23/6
f 9/23/6 8/22/6 22/24/6
f 24/25/7 14/26/7 23/27/7
f 23/27/7 14/26/7 13/28/7
f 23/27/7 13/28/7 17/29/7
f 25/30/7 19/15/7 24/25/7
f 24/25/7 19/15/7 14/26/7
f 23/27/7 17/29/7 28/31/7
f 28/31/7 17/29/7 11/32/7
f 28/31/7 11/32/7 27/33/7
f 27/33/7 11/32/7 10/23/7
f 27/33/7 10/23/7 26/34/7
f 30/35/8 31/36/8 29/37/8
f 29/37/8 31/36/8 32/38/8
f 33/36/6 34/38/6 31/39/6
f 31/39/6 34/38/6 32/37/6
f 34/37/9 33/39/9 36/38/9
f 36/38/9 33/39/9 35/40/9
f 40/41/5 36/42/5 39/43/5
f 39/43/5 36/42/5 35/44/5
f 39/43/5 35/44/5 37/45/5
f 37/45/5 35/44/5 26/46/5
f 26/46/5 35/44/5 27/47/5
f 37/45/5 38/48/5 39/43/5
f 41/49/10 26/50/10 22/51/10
f 22/51/10 26/50/10 10/52/10
f 22/51/10 10/52/10 9/53/10
f 42/54/10 43/55/10 41/49/10
f 41/49/10 43/55/10 37/56/10
f 41/49/10 37/56/10 26/50/10
f 45/7/5 46/8/5 44/9/5
f 44/9/5 46/8/5 47/10/5
f 48/13/7 44/15/7 55/57/7
f 55/57/7 44/15/7 47/26/7
f 55/57/7 47/26/7 54/58/7
f 54/58/7 47/26/7 49/28/7
f 54/58/7 49/28/7 50/29/7
f 54/58/7 50/29/7 53/59/7
f 53/59/7 50/29/7 51/32/7
f 53/59/7 51/32/7 52/60/7
f 52/60/7 51/32/7 42/23/7
f 52/60/7 42/23/7 41/24/7
f 56/11/3 57/8/3 50/12/3
f 50/12/3 57/8/3 51/10/3
f 58/11/2 56/8/2 49/12/2
f 49/12/2 56/8/2 50/10/2
f 46/11/1 58/8/1 47/12/1
f 47/12/1 58/8/1 49/10/1
f 42/9/4 51/12/4 43/7/4
f 43/7/4 51/12/4 57/11/4
f 38/61/6 57/18/6 59/62/6
f 59/62/6 57/18/6 56/16/6
f 59/62/6 56/16/6 58/26/6
f 37/63/6 43/64/6 38/61/6
f 38/61/6 43/64/6 57/18/6
f 59/62/6 58/26/6 62/25/6
f 62/25/6 58/26/6 46/28/6
f 62/25/6 46/28/6 61/27/6
f 61/27/6 46/28/6 45/65/6
f 61/27/6 45/65/6 60/66/6
f 64/67/1 55/12/1 63/68/1
f 63/68/1 55/12/1 54/69/1
f 65/68/2 63/70/2 53/69/2
f 53/69/2 63/70/2 54/12/2
f 66/71/3 65/70/3 52/69/3
f 52/69/3 65/70/3 53/12/3
f 4/72/5 21/73/5 1/1/5
f 1/1/5 21/73/5 48/74/5
f 1/1/5 48/74/5 64/6/5
f 64/6/5 48/74/5 55/75/5
f 67/4/5 68/3/5 64/6/5
f 64/6/5 68/3/5 1/1/5
f 64/1/9 63/2/9 67/3/9
f 67/3/9 63/2/9 69/4/9
f 63/5/6 65/2/6 69/3/6
f 69/3/6 65/2/6 70/4/6
f 66/6/8 71/4/8 65/5/8
f 65/5/8 71/4/8 70/3/8
f 72/4/4 71/3/4 7/6/4
f 7/6/4 71/3/4 66/1/4
f 7/6/4 66/1/4 22/74/4
f 22/74/4 66/1/4 41/73/4
f 41/73/4 66/1/4 52/72/4
f 22/74/4 8/75/4 7/6/4
f 35/76/11 33/77/11 27/78/11
f 27/78/11 33/77/11 28/79/11
f 33/80/10 31/77/10 28/78/10
f 28/78/10 31/77/10 23/79/10
f 30/81/12 24/79/12 31/80/12
f 31/80/12 24/79/12 23/78/12
f 59/11/11 73/82/11 38/83/11
f 38/83/11 73/82/11 39/84/11
f 74/82/10 73/85/10 62/11/10
f 62/11/10 73/85/10 59/83/10
f 75/86/12 74/85/12 61/11/12
f 61/11/12 74/85/12 62/83/12
f 76/38/13 40/37/13 73/36/13
f 73/36/13 40/37/13 39/35/13
f 74/36/7 77/38/7 73/39/7
f 73/39/7 77/38/7 76/37/7
f 75/40/14 78/38/14 74/39/14
f 74/39/14 78/38/14 77/37/14
f 7/1/14 5/2/14 72/3/14
f 72/3/14 5/2/14 79/4/14
f 29/41/4 78/42/4 30/43/4
f 30/43/4 78/42/4 75/44/4
f 30/43/4 75/44/4 25/45/4
f 25/45/4 75/44/4 60/46/4
f 60/46/4 75/44/4 61/47/4
f 25/45/4 24/48/4 30/43/4
f 5/5/7 2/2/7 79/3/7
f 79/3/7 2/2/7 80/4/7
f 19/87/10 25/88/10 21/89/10
f 21/89/10 25/88/10 60/90/10
f 21/89/10 60/90/10 48/91/10
f 48/91/10 60/90/10 45/92/10
f 48/91/10 45/92/10 44/93/10
f 21/89/10 20/94/10 19/87/10
f 81/11/14 82/8/14 84/12/14
f 84/12/14 82/8/14 83/10/14
f 85/11/7 81/8/7 86/12/7
f 86/12/7 81/8/7 84/10/7
f 87/11/13 85/8/13 88/12/13
f 88/12/13 85/8/13 86/10/13
f 1/6/13 68/4/13 2/5/13
f 2/5/13 68/4/13 80/3/13
f 82/11/4 89/8/4 83/12/4
f 83/12/4 89/8/4 90/10/4
f 91/11/9 92/8/9 94/12/9
f 94/12/9 92/8/9 93/10/9
f 95/11/6 91/8/6 96/12/6
f 96/12/6 91/8/6 94/10/6
f 89/11/8 95/8/8 90/12/8
f 90/12/8 95/8/8 96/10/8
f 88/10/5 93/12/5 87/8/5
f 87/8/5 93/12/5 92/11/5
f 67/14/10 88/26/10 68/57/10
f 68/57/10 88/26/10 86/28/10
f 68/57/10 86/28/10 80/58/10
f 80/58/10 86/28/10 84/29/10
f 80/58/10 84/29/10 79/59/10
f 79/59/10 84/29/10 72/60/10
f 72/60/10 84/29/10 83/32/10
f 72/60/10 83/32/10 90/21/10
f 69/17/10 94/18/10 67/14/10
f 67/14/10 94/18/10 93/16/10
f 67/14/10 93/16/10 88/26/10
f 94/18/10 69/17/10 96/19/10
f 96/19/10 69/17/10 70/20/10
f 96/19/10 70/20/10 71/22/10
f 96/19/10 71/22/10 90/21/10
f 90/21/10 71/22/10 72/60/10
f 85/18/2 87/16/2 29/62/2
f 29/62/2 87/16/2 92/26/2
f 29/62/2 92/26/2 78/25/2
f 78/25/2 92/26/2 91/28/2
f 78/25/2 91/28/2 77/27/2
f 77/27/2 91/28/2 95/29/2
f 77/27/2 95/29/2 76/31/2
f 76/31/2 95/29/2 40/33/2
f 40/33/2 95/29/2 89/32/2
f 40/33/2 89/32/2 82/21/2
f 40/33/2 82/21/2 36/95/2
f 36/95/2 82/21/2 81/19/2
f 36/95/2 81/19/2 34/96/2
f 34/96/2 81/19/2 32/61/2
f 32/61/2 81/19/2 85/18/2
f 32/61/2 85/18/2 29/62/2
