<svg xmlns="http://www.w3.org/2000/svg" xmlns:xlink="http://www.w3.org/1999/xlink" width="500" zoomAndPan="magnify" viewBox="0 0 375 374.999991" height="500" preserveAspectRatio="xMidYMid meet" version="1.0"><defs><clipPath id="687b3106f1"><path d="M 103 21.332031 L 288.648438 21.332031 L 288.648438 353.246094 L 103 353.246094 Z M 103 21.332031 " clip-rule="nonzero"/></clipPath><clipPath id="9f64447d62"><path d="M 114.945312 160.984375 L 260.046875 26.507812 C 265.011719 21.90625 272.230469 20.683594 278.4375 23.390625 C 284.640625 26.101562 288.648438 32.226562 288.648438 38.996094 L 288.648438 335.996094 C 288.648438 342.765625 284.640625 348.894531 278.4375 351.601562 C 272.230469 354.3125 265.011719 353.089844 260.046875 348.484375 L 114.945312 214.007812 C 107.566406 207.167969 103.371094 197.558594 103.371094 187.496094 C 103.371094 177.433594 107.566406 167.828125 114.945312 160.984375 Z M 114.945312 160.984375 " clip-rule="nonzero"/></clipPath><clipPath id="b9fac720bf"><path d="M 0.199219 0.332031 L 185.648438 0.332031 L 185.648438 332.246094 L 0.199219 332.246094 Z M 0.199219 0.332031 " clip-rule="nonzero"/></clipPath><clipPath id="deeb49e59c"><path d="M 11.945312 139.984375 L 157.046875 5.507812 C 162.011719 0.90625 169.230469 -0.316406 175.4375 2.390625 C 181.640625 5.101562 185.648438 11.226562 185.648438 17.996094 L 185.648438 314.996094 C 185.648438 321.765625 181.640625 327.894531 175.4375 330.601562 C 169.230469 333.3125 162.011719 332.089844 157.046875 327.484375 L 11.945312 193.007812 C 4.566406 186.167969 0.371094 176.558594 0.371094 166.496094 C 0.371094 156.433594 4.566406 146.828125 11.945312 139.984375 Z M 11.945312 139.984375 " clip-rule="nonzero"/></clipPath><clipPath id="21af71ea0f"><rect x="0" width="186" y="0" height="333"/></clipPath></defs><g clip-path="url(#687b3106f1)"><g clip-path="url(#9f64447d62)"><g transform="matrix(1, 0, 0, 1, 103, 21)"><g clip-path="url(#21af71ea0f)"><g clip-path="url(#b9fac720bf)"><g clip-path="url(#deeb49e59c)"><path fill="#ffffff" d="M 185.648438 -21.003906 L 185.648438 354.371094 L -16.65625 354.371094 L -16.65625 -21.003906 Z M 185.648438 -21.003906 " fill-opacity="1" fill-rule="nonzero"/></g></g></g></g></g></g></svg>