<svg xmlns="http://www.w3.org/2000/svg" xmlns:xlink="http://www.w3.org/1999/xlink" width="500" zoomAndPan="magnify" viewBox="0 0 375 374.999991" height="500" preserveAspectRatio="xMidYMid meet" version="1.0"><defs><clipPath id="bd3272e92a"><path d="M 86.347656 21.75 L 272 21.75 L 272 353.660156 L 86.347656 353.660156 Z M 86.347656 21.75 " clip-rule="nonzero"/></clipPath><clipPath id="a720ee980b"><path d="M 260.054688 214.007812 L 114.953125 348.484375 C 109.988281 353.089844 102.769531 354.3125 96.5625 351.601562 C 90.359375 348.894531 86.347656 342.765625 86.347656 335.996094 L 86.351562 38.996094 C 86.351562 32.226562 90.359375 26.101562 96.5625 23.390625 C 102.769531 20.683594 109.988281 21.90625 114.953125 26.507812 L 260.054688 160.984375 C 267.433594 167.828125 271.628906 177.433594 271.628906 187.496094 C 271.628906 197.558594 267.433594 207.167969 260.054688 214.007812 Z M 260.054688 214.007812 " clip-rule="nonzero"/></clipPath><clipPath id="7396ba29fd"><path d="M 0.347656 0.75 L 185.679688 0.75 L 185.679688 332.660156 L 0.347656 332.660156 Z M 0.347656 0.75 " clip-rule="nonzero"/></clipPath><clipPath id="a57545f9ef"><path d="M 174.054688 193.007812 L 28.953125 327.484375 C 23.988281 332.089844 16.769531 333.3125 10.5625 330.601562 C 4.359375 327.894531 0.347656 321.765625 0.347656 314.996094 L 0.351562 17.996094 C 0.351562 11.226562 4.359375 5.101562 10.5625 2.390625 C 16.769531 -0.316406 23.988281 0.90625 28.953125 5.507812 L 174.054688 139.984375 C 181.433594 146.828125 185.628906 156.433594 185.628906 166.496094 C 185.628906 176.558594 181.433594 186.167969 174.054688 193.007812 Z M 174.054688 193.007812 " clip-rule="nonzero"/></clipPath><clipPath id="6ecce6bc0b"><rect x="0" width="186" y="0" height="333"/></clipPath></defs><g clip-path="url(#bd3272e92a)"><g clip-path="url(#a720ee980b)"><g transform="matrix(1, 0, 0, 1, 86, 21)"><g clip-path="url(#6ecce6bc0b)"><g clip-path="url(#7396ba29fd)"><g clip-path="url(#a57545f9ef)"><path fill="#ffffff" d="M 0.347656 353.996094 L 0.347656 -21.378906 L 202.65625 -21.378906 L 202.65625 353.996094 Z M 0.347656 353.996094 " fill-opacity="1" fill-rule="nonzero"/></g></g></g></g></g></g></svg>