<svg xmlns="http://www.w3.org/2000/svg" xmlns:xlink="http://www.w3.org/1999/xlink" width="500" zoomAndPan="magnify" viewBox="0 0 375 374.999991" height="500" preserveAspectRatio="xMidYMid meet" version="1.0"><defs><clipPath id="c9ce6c0f56"><path d="M 23 0.699219 L 352.648438 0.699219 L 352.648438 374.199219 L 23 374.199219 Z M 23 0.699219 " clip-rule="nonzero"/></clipPath></defs><g clip-path="url(#c9ce6c0f56)"><path fill="#000000" d="M 315.808594 352.664062 L 315.808594 30.5625 L 325.121094 30.5625 L 325.121094 0.699219 L 49.691406 0.699219 L 49.691406 30.5625 L 59 30.5625 L 59 353.152344 L 23.226562 353.152344 L 23.226562 374.199219 L 155.058594 374.199219 L 155.058594 266.507812 L 220.242188 266.507812 L 220.242188 374.199219 L 352.074219 374.199219 L 352.074219 353.152344 L 315.808594 353.152344 Z M 130.0625 235.179688 L 95.269531 235.179688 L 95.269531 200.421875 L 130.0625 200.421875 Z M 130.0625 160.28125 L 95.269531 160.28125 L 95.269531 125.527344 L 130.0625 125.527344 Z M 130.0625 85.386719 L 95.269531 85.386719 L 95.269531 50.140625 L 130.0625 50.140625 Z M 205.046875 235.179688 L 170.25 235.179688 L 170.25 200.421875 L 205.046875 200.421875 C 205.046875 200.421875 205.046875 235.179688 205.046875 235.179688 Z M 205.046875 160.28125 L 170.25 160.28125 L 170.25 125.527344 L 205.046875 125.527344 C 205.046875 125.527344 205.046875 160.28125 205.046875 160.28125 Z M 205.046875 85.386719 L 170.25 85.386719 L 170.25 50.140625 L 205.046875 50.140625 C 205.046875 50.140625 205.046875 85.386719 205.046875 85.386719 Z M 280.03125 235.179688 L 244.746094 235.179688 L 244.746094 200.421875 L 280.03125 200.421875 Z M 280.03125 160.28125 L 244.746094 160.28125 L 244.746094 125.527344 L 280.03125 125.527344 Z M 280.03125 85.386719 L 244.746094 85.386719 L 244.746094 50.140625 L 280.03125 50.140625 Z M 280.03125 85.386719 " fill-opacity="1" fill-rule="nonzero"/></g></svg>