<svg xmlns="http://www.w3.org/2000/svg" xmlns:xlink="http://www.w3.org/1999/xlink" width="500" zoomAndPan="magnify" viewBox="0 0 375 374.999991" height="500" preserveAspectRatio="xMidYMid meet" version="1.0"><path fill="#d32f2f" d="M 188.007812 280.390625 C 197.996094 280.355469 206.0625 288.425781 206.0625 298.410156 C 206.0625 298.578125 206.0625 298.773438 206.0625 298.941406 C 206.296875 308.925781 198.359375 317.160156 188.40625 317.390625 C 178.453125 317.589844 170.1875 309.6875 169.988281 299.699219 C 169.988281 299.46875 169.988281 299.207031 169.988281 298.941406 C 169.691406 288.988281 177.527344 280.6875 187.480469 280.390625 C 187.679688 280.390625 187.84375 280.390625 188.042969 280.390625 Z M 188.007812 114.066406 C 188.371094 114.03125 188.738281 114.03125 189.101562 114.066406 C 200.277344 114.332031 209.105469 123.621094 208.808594 134.765625 C 208.808594 134.964844 208.808594 135.164062 208.773438 135.359375 L 202.527344 243.355469 C 201.964844 251.027344 195.316406 256.8125 187.644531 256.25 C 180.734375 255.753906 175.246094 250.265625 174.75 243.355469 L 168.46875 135.359375 C 167.871094 124.183594 176.4375 114.660156 187.578125 114.066406 C 187.777344 114.066406 187.976562 114.066406 188.140625 114.066406 Z M 188.007812 24.09375 C 182.984375 24.390625 178.453125 27.167969 175.90625 31.53125 L 4.523438 328.304688 C 0.421875 335.445312 2.871094 344.539062 10.011719 348.640625 C 12.261719 349.929688 14.808594 350.625 17.417969 350.625 L 360.121094 350.625 C 368.355469 350.625 375 343.976562 375 335.742188 C 375 333.132812 374.304688 330.550781 373.015625 328.304688 L 201.699219 31.53125 C 198.886719 26.703125 193.628906 23.828125 188.042969 24.09375 L 188.007812 24.09375 " fill-opacity="1" fill-rule="nonzero"/></svg>