<svg xmlns="http://www.w3.org/2000/svg" xmlns:xlink="http://www.w3.org/1999/xlink" width="500" zoomAndPan="magnify" viewBox="0 0 375 374.999991" height="500" preserveAspectRatio="xMidYMid meet" version="1.0"><path fill="#442f00" d="M 52.617188 358.8125 L 15.539062 323.035156 L 159.945312 178.632812 L 196.367188 215.054688 Z M 52.617188 358.8125 " fill-opacity="1" fill-rule="nonzero"/><path fill="#7f5603" d="M 60.421875 275.550781 L 71.292969 264.398438 C 73.355469 262.46875 74.078125 262.085938 75.714844 262.890625 L 124.933594 285.765625 C 126.570312 286.570312 126.449219 287.578125 125.464844 288.558594 L 113.285156 301.109375 C 111.808594 302.214844 110.5 303.421875 108.863281 302.617188 L 60.945312 278.441406 C 59.304688 277.636719 59.121094 276.851562 60.421875 275.550781 Z M 60.421875 275.550781 " fill-opacity="1" fill-rule="nonzero"/><path fill="#7f5603" d="M 43.511719 292.460938 L 55.679688 280.007812 C 57.746094 278.078125 58.46875 277.699219 60.101562 278.5 L 108.023438 302.679688 C 109.65625 303.480469 109.535156 304.492188 108.550781 305.46875 L 96.371094 318.023438 C 94.898438 319.125 93.585938 320.332031 91.949219 319.53125 L 44.03125 295.351562 C 42.390625 294.550781 42.207031 293.765625 43.511719 292.460938 Z M 43.511719 292.460938 " fill-opacity="1" fill-rule="nonzero"/><path fill="#7f5603" d="M 26.597656 309.375 L 38.769531 296.921875 C 40.832031 294.992188 41.554688 294.609375 43.191406 295.414062 L 91.109375 319.589844 C 92.746094 320.394531 92.621094 321.40625 91.640625 322.382812 L 79.460938 334.933594 C 77.984375 336.039062 76.671875 337.246094 75.039062 336.441406 L 27.121094 312.265625 C 25.480469 311.460938 25.296875 310.675781 26.597656 309.375 Z M 26.597656 309.375 " fill-opacity="1" fill-rule="nonzero"/><path fill="#7f5603" d="M 74.730469 336.695312 L 42.863281 320.4375 L 59.609375 352.335938 C 60.425781 353.964844 61.21875 354.144531 62.503906 352.828125 L 73.5625 341.867188 C 75.476562 339.777344 74.730469 336.695312 74.730469 336.695312 Z M 74.730469 336.695312 " fill-opacity="1" fill-rule="nonzero"/><path fill="#7f5603" d="M 76.035156 262.542969 L 107.902344 277.503906 L 91.644531 246.929688 C 90.808594 245.308594 90.34375 245.628906 88.78125 247.191406 L 77.199219 257.632812 C 75.308594 259.730469 76.035156 262.542969 76.035156 262.542969 Z M 76.035156 262.542969 " fill-opacity="1" fill-rule="nonzero"/><path fill="#5b5b5b" d="M 16.914062 317.757812 L 0 334.671875 L 0.675781 347.058594 L 27.941406 374.324219 L 40.328125 375 L 57.242188 358.085938 Z M 16.914062 317.757812 " fill-opacity="1" fill-rule="nonzero"/><path fill="#919191" d="M 192.566406 4.414062 L 155.144531 -0.00390625 L 71.105469 84.042969 L 75.515625 121.460938 L 91.09375 137.039062 L 208.144531 19.992188 Z M 192.566406 4.414062 " fill-opacity="1" fill-rule="nonzero"/><path fill="#919191" d="M 370.585938 182.433594 L 375.003906 219.855469 L 290.957031 303.894531 L 253.539062 299.484375 L 237.960938 283.90625 L 355.007812 166.855469 Z M 370.585938 182.433594 " fill-opacity="1" fill-rule="nonzero"/><path fill="#5b5b5b" d="M 192.5625 4.410156 L 370.585938 182.425781 L 253.539062 299.476562 L 75.515625 121.460938 Z M 192.5625 4.410156 " fill-opacity="1" fill-rule="nonzero"/></svg>