<svg xmlns="http://www.w3.org/2000/svg" xmlns:xlink="http://www.w3.org/1999/xlink" width="500" zoomAndPan="magnify" viewBox="0 0 375 374.999991" height="500" preserveAspectRatio="xMidYMid meet" version="1.0"><path fill="#a5a5a5" d="M 375.007812 187.519531 C 375.007812 190.589844 374.933594 193.65625 374.78125 196.722656 C 374.632812 199.785156 374.40625 202.84375 374.105469 205.898438 C 373.804688 208.953125 373.429688 212 372.976562 215.035156 C 372.527344 218.070312 372.003906 221.09375 371.40625 224.101562 C 370.804688 227.113281 370.132812 230.105469 369.386719 233.082031 C 368.640625 236.058594 367.824219 239.015625 366.933594 241.953125 C 366.042969 244.886719 365.082031 247.800781 364.046875 250.691406 C 363.011719 253.578125 361.910156 256.441406 360.734375 259.277344 C 359.558594 262.113281 358.316406 264.917969 357.003906 267.691406 C 355.691406 270.464844 354.3125 273.207031 352.867188 275.910156 C 351.421875 278.617188 349.90625 281.289062 348.332031 283.917969 C 346.753906 286.550781 345.109375 289.144531 343.40625 291.695312 C 341.703125 294.246094 339.933594 296.753906 338.105469 299.21875 C 336.277344 301.683594 334.390625 304.101562 332.445312 306.476562 C 330.496094 308.847656 328.496094 311.171875 326.433594 313.445312 C 324.371094 315.71875 322.257812 317.9375 320.085938 320.109375 C 317.917969 322.277344 315.695312 324.394531 313.421875 326.457031 C 311.148438 328.515625 308.824219 330.519531 306.453125 332.464844 C 304.082031 334.414062 301.664062 336.300781 299.199219 338.128906 C 296.734375 339.957031 294.222656 341.722656 291.671875 343.429688 C 289.121094 345.132812 286.53125 346.773438 283.898438 348.351562 C 281.265625 349.929688 278.597656 351.441406 275.890625 352.886719 C 273.183594 354.335938 270.441406 355.714844 267.667969 357.027344 C 264.894531 358.339844 262.089844 359.582031 259.253906 360.757812 C 256.417969 361.929688 253.558594 363.035156 250.667969 364.066406 C 247.777344 365.101562 244.867188 366.0625 241.929688 366.957031 C 238.992188 367.847656 236.035156 368.664062 233.058594 369.410156 C 230.082031 370.15625 227.089844 370.828125 224.078125 371.425781 C 221.070312 372.023438 218.046875 372.550781 215.011719 373 C 211.976562 373.449219 208.929688 373.824219 205.878906 374.125 C 202.824219 374.425781 199.765625 374.652344 196.699219 374.804688 C 193.632812 374.953125 190.566406 375.027344 187.5 375.027344 C 184.429688 375.027344 181.363281 374.953125 178.296875 374.804688 C 175.234375 374.652344 172.171875 374.425781 169.121094 374.125 C 166.066406 373.824219 163.019531 373.449219 159.984375 373 C 156.949219 372.550781 153.925781 372.023438 150.917969 371.425781 C 147.90625 370.828125 144.914062 370.15625 141.9375 369.410156 C 138.960938 368.664062 136.003906 367.847656 133.066406 366.957031 C 130.132812 366.0625 127.21875 365.101562 124.328125 364.066406 C 121.4375 363.035156 118.578125 361.929688 115.742188 360.757812 C 112.90625 359.582031 110.101562 358.339844 107.328125 357.027344 C 104.554688 355.714844 101.8125 354.335938 99.109375 352.886719 C 96.402344 351.441406 93.730469 349.929688 91.101562 348.351562 C 88.46875 346.773438 85.875 345.132812 83.324219 343.429688 C 80.773438 341.722656 78.265625 339.957031 75.800781 338.128906 C 73.335938 336.300781 70.917969 334.414062 68.542969 332.464844 C 66.171875 330.519531 63.847656 328.515625 61.574219 326.457031 C 59.300781 324.394531 57.078125 322.277344 54.910156 320.109375 C 52.738281 317.9375 50.625 315.71875 48.5625 313.445312 C 46.503906 311.171875 44.5 308.847656 42.550781 306.476562 C 40.605469 304.101562 38.71875 301.683594 36.890625 299.21875 C 35.0625 296.753906 33.296875 294.246094 31.589844 291.695312 C 29.886719 289.144531 28.246094 286.550781 26.667969 283.917969 C 25.089844 281.289062 23.578125 278.617188 22.128906 275.910156 C 20.683594 273.207031 19.304688 270.464844 17.992188 267.691406 C 16.679688 264.917969 15.4375 262.113281 14.261719 259.277344 C 13.089844 256.441406 11.984375 253.578125 10.949219 250.691406 C 9.917969 247.800781 8.953125 244.886719 8.0625 241.953125 C 7.171875 239.015625 6.355469 236.058594 5.609375 233.082031 C 4.863281 230.105469 4.191406 227.113281 3.59375 224.101562 C 2.992188 221.09375 2.46875 218.070312 2.019531 215.035156 C 1.570312 212 1.195312 208.953125 0.894531 205.898438 C 0.59375 202.84375 0.367188 199.785156 0.214844 196.722656 C 0.0664062 193.65625 -0.0117188 190.589844 -0.0117188 187.519531 C -0.0117188 184.453125 0.0664062 181.386719 0.214844 178.320312 C 0.367188 175.253906 0.59375 172.195312 0.894531 169.140625 C 1.195312 166.085938 1.570312 163.042969 2.019531 160.007812 C 2.46875 156.972656 2.992188 153.949219 3.59375 150.9375 C 4.191406 147.929688 4.863281 144.9375 5.609375 141.960938 C 6.355469 138.984375 7.171875 136.027344 8.0625 133.089844 C 8.953125 130.152344 9.917969 127.238281 10.949219 124.351562 C 11.984375 121.460938 13.089844 118.597656 14.261719 115.765625 C 15.4375 112.929688 16.679688 110.125 17.992188 107.351562 C 19.304688 104.574219 20.683594 101.835938 22.128906 99.128906 C 23.578125 96.421875 25.089844 93.753906 26.667969 91.121094 C 28.246094 88.488281 29.886719 85.898438 31.589844 83.347656 C 33.296875 80.792969 35.0625 78.285156 36.890625 75.820312 C 38.71875 73.355469 40.605469 70.9375 42.550781 68.566406 C 44.5 66.195312 46.503906 63.871094 48.5625 61.597656 C 50.625 59.324219 52.738281 57.101562 54.910156 54.933594 C 57.078125 52.761719 59.300781 50.644531 61.574219 48.585938 C 63.847656 46.523438 66.171875 44.519531 68.542969 42.574219 C 70.917969 40.628906 73.335938 38.738281 75.800781 36.910156 C 78.265625 35.085938 80.773438 33.316406 83.324219 31.613281 C 85.875 29.90625 88.46875 28.265625 91.101562 26.6875 C 93.730469 25.109375 96.402344 23.597656 99.109375 22.152344 C 101.8125 20.707031 104.554688 19.328125 107.328125 18.015625 C 110.101562 16.703125 112.90625 15.460938 115.742188 14.285156 C 118.578125 13.109375 121.4375 12.007812 124.328125 10.972656 C 127.21875 9.9375 130.132812 8.976562 133.066406 8.085938 C 136.003906 7.195312 138.960938 6.375 141.9375 5.632812 C 144.914062 4.886719 147.90625 4.214844 150.917969 3.613281 C 153.925781 3.015625 156.949219 2.492188 159.984375 2.042969 C 163.019531 1.589844 166.066406 1.214844 169.121094 0.914062 C 172.171875 0.613281 175.234375 0.386719 178.296875 0.238281 C 181.363281 0.0859375 184.429688 0.0117188 187.5 0.0117188 C 190.566406 0.0117188 193.632812 0.0859375 196.699219 0.238281 C 199.765625 0.386719 202.824219 0.613281 205.878906 0.914062 C 208.929688 1.214844 211.976562 1.589844 215.011719 2.042969 C 218.046875 2.492188 221.070312 3.015625 224.078125 3.613281 C 227.089844 4.214844 230.082031 4.886719 233.058594 5.632812 C 236.035156 6.375 238.992188 7.195312 241.929688 8.085938 C 244.867188 8.976562 247.777344 9.9375 250.667969 10.972656 C 253.558594 12.007812 256.417969 13.109375 259.253906 14.285156 C 262.089844 15.460938 264.894531 16.703125 267.667969 18.015625 C 270.441406 19.328125 273.183594 20.707031 275.890625 22.152344 C 278.597656 23.597656 281.265625 25.109375 283.898438 26.6875 C 286.53125 28.265625 289.121094 29.90625 291.671875 31.613281 C 294.222656 33.316406 296.734375 35.085938 299.199219 36.910156 C 301.664062 38.738281 304.082031 40.628906 306.453125 42.574219 C 308.824219 44.519531 311.148438 46.523438 313.421875 48.585938 C 315.695312 50.648438 317.917969 52.761719 320.085938 54.933594 C 322.257812 57.101562 324.371094 59.324219 326.433594 61.597656 C 328.496094 63.871094 330.496094 66.195312 332.445312 68.566406 C 334.390625 70.9375 336.277344 73.355469 338.105469 75.820312 C 339.933594 78.285156 341.703125 80.792969 343.40625 83.347656 C 345.109375 85.898438 346.753906 88.488281 348.332031 91.121094 C 349.90625 93.753906 351.421875 96.421875 352.867188 99.128906 C 354.3125 101.835938 355.691406 104.574219 357.003906 107.351562 C 358.316406 110.125 359.558594 112.929688 360.734375 115.765625 C 361.910156 118.597656 363.011719 121.460938 364.046875 124.351562 C 365.082031 127.238281 366.042969 130.152344 366.933594 133.089844 C 367.824219 136.027344 368.640625 138.984375 369.386719 141.960938 C 370.132812 144.9375 370.804688 147.929688 371.40625 150.9375 C 372.003906 153.949219 372.527344 156.972656 372.976562 160.007812 C 373.429688 163.042969 373.804688 166.085938 374.105469 169.140625 C 374.40625 172.195312 374.632812 175.253906 374.78125 178.320312 C 374.933594 181.386719 375.007812 184.453125 375.007812 187.519531 Z M 375.007812 187.519531 " fill-opacity="1" fill-rule="nonzero"/><path fill="#c6c6c6" d="M 371.371094 187.519531 C 371.371094 190.53125 371.300781 193.535156 371.152344 196.542969 C 371.003906 199.546875 370.78125 202.546875 370.488281 205.542969 C 370.191406 208.539062 369.824219 211.523438 369.382812 214.5 C 368.941406 217.476562 368.425781 220.441406 367.839844 223.390625 C 367.253906 226.34375 366.59375 229.277344 365.863281 232.199219 C 365.132812 235.117188 364.328125 238.015625 363.457031 240.894531 C 362.582031 243.777344 361.636719 246.632812 360.625 249.464844 C 359.609375 252.300781 358.527344 255.105469 357.375 257.886719 C 356.226562 260.667969 355.003906 263.417969 353.71875 266.136719 C 352.433594 268.855469 351.078125 271.542969 349.660156 274.199219 C 348.242188 276.851562 346.761719 279.46875 345.210938 282.050781 C 343.664062 284.632812 342.054688 287.171875 340.382812 289.675781 C 338.710938 292.175781 336.980469 294.636719 335.1875 297.054688 C 333.394531 299.472656 331.542969 301.84375 329.636719 304.167969 C 327.726562 306.496094 325.761719 308.773438 323.742188 311.003906 C 321.71875 313.234375 319.644531 315.410156 317.515625 317.539062 C 315.390625 319.667969 313.210938 321.742188 310.980469 323.761719 C 308.75 325.78125 306.472656 327.75 304.148438 329.65625 C 301.820312 331.566406 299.449219 333.417969 297.03125 335.210938 C 294.617188 337.003906 292.15625 338.734375 289.652344 340.40625 C 287.152344 342.078125 284.609375 343.6875 282.027344 345.234375 C 279.449219 346.78125 276.832031 348.265625 274.175781 349.683594 C 271.523438 351.101562 268.835938 352.453125 266.113281 353.742188 C 263.394531 355.027344 260.644531 356.246094 257.863281 357.398438 C 255.085938 358.550781 252.277344 359.632812 249.445312 360.644531 C 246.609375 361.660156 243.753906 362.605469 240.875 363.476562 C 237.996094 364.351562 235.09375 365.152344 232.175781 365.882812 C 229.257812 366.617188 226.320312 367.273438 223.371094 367.863281 C 220.417969 368.449219 217.457031 368.964844 214.476562 369.40625 C 211.5 369.847656 208.515625 370.214844 205.519531 370.507812 C 202.527344 370.804688 199.527344 371.027344 196.519531 371.171875 C 193.515625 371.320312 190.507812 371.394531 187.5 371.394531 C 184.488281 371.394531 181.480469 371.320312 178.476562 371.171875 C 175.46875 371.027344 172.46875 370.804688 169.476562 370.507812 C 166.480469 370.214844 163.496094 369.847656 160.519531 369.40625 C 157.542969 368.964844 154.578125 368.449219 151.625 367.863281 C 148.675781 367.273438 145.738281 366.617188 142.820312 365.882812 C 139.902344 365.152344 137.003906 364.351562 134.121094 363.476562 C 131.242188 362.605469 128.386719 361.660156 125.554688 360.644531 C 122.71875 359.632812 119.914062 358.550781 117.132812 357.398438 C 114.351562 356.246094 111.601562 355.027344 108.882812 353.742188 C 106.160156 352.453125 103.476562 351.101562 100.820312 349.683594 C 98.167969 348.265625 95.550781 346.78125 92.96875 345.234375 C 90.386719 343.6875 87.84375 342.078125 85.34375 340.40625 C 82.839844 338.734375 80.382812 337.003906 77.964844 335.210938 C 75.546875 333.417969 73.175781 331.566406 70.851562 329.65625 C 68.523438 327.75 66.246094 325.78125 64.015625 323.761719 C 61.785156 321.742188 59.609375 319.667969 57.480469 317.539062 C 55.351562 315.410156 53.277344 313.234375 51.257812 311.003906 C 49.234375 308.773438 47.269531 306.496094 45.363281 304.167969 C 43.453125 301.84375 41.601562 299.472656 39.808594 297.054688 C 38.015625 294.636719 36.285156 292.175781 34.613281 289.675781 C 32.941406 287.171875 31.332031 284.632812 29.785156 282.050781 C 28.238281 279.46875 26.753906 276.851562 25.335938 274.199219 C 23.917969 271.542969 22.566406 268.855469 21.277344 266.136719 C 19.992188 263.417969 18.773438 260.667969 17.621094 257.886719 C 16.46875 255.105469 15.386719 252.300781 14.371094 249.464844 C 13.359375 246.632812 12.414062 243.777344 11.542969 240.894531 C 10.667969 238.015625 9.867188 235.117188 9.132812 232.199219 C 8.402344 229.277344 7.746094 226.34375 7.15625 223.390625 C 6.570312 220.441406 6.054688 217.476562 5.613281 214.5 C 5.171875 211.523438 4.804688 208.539062 4.507812 205.542969 C 4.214844 202.546875 3.992188 199.546875 3.84375 196.542969 C 3.699219 193.535156 3.625 190.53125 3.625 187.519531 C 3.625 184.511719 3.699219 181.503906 3.84375 178.5 C 3.992188 175.492188 4.214844 172.492188 4.507812 169.496094 C 4.804688 166.503906 5.171875 163.515625 5.613281 160.539062 C 6.054688 157.5625 6.570312 154.601562 7.15625 151.648438 C 7.746094 148.695312 8.402344 145.761719 9.132812 142.84375 C 9.867188 139.921875 10.667969 137.023438 11.542969 134.144531 C 12.414062 131.265625 13.359375 128.410156 14.371094 125.574219 C 15.386719 122.742188 16.46875 119.933594 17.621094 117.15625 C 18.773438 114.375 19.992188 111.625 21.277344 108.902344 C 22.566406 106.183594 23.917969 103.496094 25.335938 100.84375 C 26.753906 98.1875 28.238281 95.570312 29.785156 92.988281 C 31.332031 90.410156 32.941406 87.867188 34.613281 85.367188 C 36.285156 82.863281 38.015625 80.402344 39.808594 77.988281 C 41.601562 75.570312 43.453125 73.199219 45.363281 70.871094 C 47.269531 68.546875 49.234375 66.269531 51.257812 64.039062 C 53.277344 61.808594 55.351562 59.628906 57.480469 57.5 C 59.609375 55.375 61.785156 53.300781 64.015625 51.277344 C 66.246094 49.257812 68.523438 47.292969 70.851562 45.382812 C 73.175781 43.476562 75.546875 41.625 77.964844 39.832031 C 80.382812 38.039062 82.839844 36.304688 85.34375 34.632812 C 87.84375 32.960938 90.386719 31.351562 92.96875 29.804688 C 95.550781 28.257812 98.167969 26.777344 100.820312 25.359375 C 103.476562 23.9375 106.160156 22.585938 108.882812 21.300781 C 111.601562 20.011719 114.351562 18.792969 117.132812 17.644531 C 119.914062 16.492188 122.71875 15.410156 125.554688 14.394531 C 128.386719 13.382812 131.242188 12.4375 134.121094 11.5625 C 137.003906 10.691406 139.902344 9.886719 142.820312 9.15625 C 145.738281 8.425781 148.675781 7.765625 151.625 7.179688 C 154.578125 6.59375 157.542969 6.078125 160.519531 5.636719 C 163.496094 5.195312 166.480469 4.828125 169.476562 4.53125 C 172.46875 4.238281 175.46875 4.015625 178.476562 3.867188 C 181.480469 3.71875 184.488281 3.644531 187.5 3.644531 C 190.507812 3.644531 193.515625 3.71875 196.519531 3.867188 C 199.527344 4.015625 202.527344 4.238281 205.519531 4.53125 C 208.515625 4.828125 211.5 5.195312 214.476562 5.636719 C 217.457031 6.078125 220.417969 6.59375 223.371094 7.179688 C 226.320312 7.765625 229.257812 8.425781 232.175781 9.15625 C 235.09375 9.886719 237.996094 10.691406 240.875 11.5625 C 243.753906 12.4375 246.609375 13.382812 249.445312 14.394531 C 252.277344 15.410156 255.085938 16.492188 257.863281 17.644531 C 260.644531 18.792969 263.394531 20.011719 266.113281 21.300781 C 268.835938 22.585938 271.523438 23.9375 274.175781 25.359375 C 276.832031 26.777344 279.449219 28.257812 282.027344 29.804688 C 284.609375 31.351562 287.152344 32.960938 289.652344 34.632812 C 292.15625 36.304688 294.617188 38.039062 297.03125 39.832031 C 299.449219 41.625 301.820312 43.472656 304.148438 45.382812 C 306.472656 47.292969 308.75 49.257812 310.980469 51.277344 C 313.210938 53.300781 315.390625 55.375 317.515625 57.5 C 319.644531 59.628906 321.71875 61.808594 323.742188 64.039062 C 325.761719 66.269531 327.726562 68.546875 329.636719 70.871094 C 331.542969 73.199219 333.394531 75.570312 335.1875 77.988281 C 336.980469 80.402344 338.710938 82.863281 340.382812 85.367188 C 342.054688 87.867188 343.664062 90.410156 345.210938 92.988281 C 346.761719 95.570312 348.242188 98.1875 349.660156 100.84375 C 351.078125 103.496094 352.433594 106.183594 353.71875 108.902344 C 355.003906 111.625 356.226562 114.375 357.375 117.15625 C 358.527344 119.933594 359.609375 122.742188 360.625 125.574219 C 361.636719 128.410156 362.582031 131.265625 363.457031 134.144531 C 364.328125 137.023438 365.132812 139.921875 365.863281 142.84375 C 366.59375 145.761719 367.253906 148.695312 367.839844 151.648438 C 368.425781 154.601562 368.941406 157.5625 369.382812 160.539062 C 369.824219 163.515625 370.191406 166.503906 370.488281 169.496094 C 370.78125 172.492188 371.003906 175.492188 371.152344 178.5 C 371.300781 181.503906 371.371094 184.511719 371.371094 187.519531 Z M 371.371094 187.519531 " fill-opacity="1" fill-rule="nonzero"/><path fill="#a5a5a5" d="M 187.5 33.527344 C 150.414062 33.597656 113.53125 47.527344 85.734375 72.09375 C 58.140625 96.457031 39.832031 130.984375 35.054688 167.464844 C 30.546875 171.570312 28.257812 178.972656 28.257812 187.519531 C 28.257812 196.136719 30.546875 203.539062 35.054688 207.578125 C 39.832031 244.054688 58.207031 278.582031 85.734375 302.945312 C 113.53125 327.511719 150.414062 341.445312 187.5 341.511719 C 224.582031 341.445312 261.464844 327.511719 289.261719 302.945312 C 316.855469 278.582031 335.164062 244.054688 339.941406 207.578125 C 344.453125 203.472656 346.738281 196.066406 346.738281 187.519531 C 346.738281 179.039062 344.519531 171.703125 340.144531 167.53125 C 335.367188 131.050781 316.992188 96.457031 289.398438 72.09375 C 261.53125 47.527344 224.582031 33.527344 187.5 33.527344 Z M 187.5 33.527344 " fill-opacity="1" fill-rule="nonzero"/><path fill="#494949" d="M 187.5 36.289062 C 111.378906 36.355469 47.167969 93.09375 37.613281 168.609375 C 33.777344 171.433594 31.015625 178.769531 31.015625 187.453125 C 31.015625 196.136719 33.777344 203.472656 37.613281 206.296875 C 47.101562 281.878906 111.308594 338.550781 187.5 338.617188 C 263.621094 338.550781 327.828125 281.8125 337.382812 206.296875 C 341.222656 203.472656 343.980469 196.136719 343.980469 187.453125 C 343.980469 178.90625 341.289062 171.570312 337.519531 168.675781 C 328.027344 93.09375 263.753906 36.289062 187.5 36.289062 Z M 187.5 36.289062 " fill-opacity="1" fill-rule="nonzero"/><path fill="#c6c6c6" d="M 335.972656 187.519531 C 335.972656 189.949219 335.910156 192.378906 335.792969 194.804688 C 335.671875 197.234375 335.496094 199.65625 335.257812 202.074219 C 335.019531 204.492188 334.71875 206.902344 334.363281 209.304688 C 334.007812 211.710938 333.59375 214.101562 333.117188 216.484375 C 332.644531 218.871094 332.113281 221.238281 331.523438 223.597656 C 330.929688 225.953125 330.285156 228.292969 329.578125 230.621094 C 328.871094 232.945312 328.109375 235.25 327.292969 237.539062 C 326.472656 239.828125 325.597656 242.09375 324.667969 244.339844 C 323.738281 246.582031 322.753906 248.804688 321.714844 251 C 320.675781 253.195312 319.585938 255.367188 318.441406 257.511719 C 317.292969 259.652344 316.097656 261.765625 314.847656 263.851562 C 313.597656 265.933594 312.300781 267.988281 310.949219 270.007812 C 309.597656 272.027344 308.199219 274.015625 306.753906 275.964844 C 305.304688 277.917969 303.8125 279.832031 302.269531 281.710938 C 300.726562 283.589844 299.140625 285.429688 297.507812 287.230469 C 295.878906 289.027344 294.203125 290.789062 292.484375 292.507812 C 290.765625 294.222656 289.007812 295.898438 287.207031 297.53125 C 285.40625 299.164062 283.566406 300.75 281.6875 302.292969 C 279.808594 303.832031 277.894531 305.328125 275.945312 306.773438 C 273.992188 308.222656 272.003906 309.621094 269.984375 310.972656 C 267.964844 312.320312 265.914062 313.621094 263.828125 314.871094 C 261.746094 316.117188 259.632812 317.316406 257.488281 318.460938 C 255.34375 319.605469 253.175781 320.699219 250.980469 321.738281 C 248.78125 322.777344 246.5625 323.761719 244.316406 324.691406 C 242.070312 325.621094 239.804688 326.496094 237.515625 327.3125 C 235.230469 328.132812 232.921875 328.894531 230.597656 329.601562 C 228.273438 330.304688 225.929688 330.953125 223.574219 331.542969 C 221.21875 332.132812 218.847656 332.667969 216.464844 333.140625 C 214.082031 333.613281 211.6875 334.03125 209.285156 334.386719 C 206.878906 334.742188 204.46875 335.039062 202.050781 335.277344 C 199.632812 335.515625 197.210938 335.695312 194.785156 335.8125 C 192.355469 335.933594 189.929688 335.992188 187.5 335.992188 C 185.070312 335.992188 182.640625 335.933594 180.214844 335.8125 C 177.785156 335.695312 175.363281 335.515625 172.945312 335.277344 C 170.527344 335.039062 168.117188 334.742188 165.714844 334.386719 C 163.308594 334.03125 160.917969 333.613281 158.53125 333.140625 C 156.148438 332.667969 153.78125 332.132812 151.421875 331.542969 C 149.066406 330.953125 146.722656 330.304688 144.398438 329.601562 C 142.074219 328.894531 139.765625 328.132812 137.480469 327.3125 C 135.191406 326.496094 132.925781 325.621094 130.679688 324.691406 C 128.4375 323.761719 126.214844 322.777344 124.019531 321.738281 C 121.820312 320.699219 119.652344 319.605469 117.507812 318.460938 C 115.367188 317.316406 113.253906 316.117188 111.167969 314.871094 C 109.085938 313.621094 107.03125 312.320312 105.011719 310.972656 C 102.992188 309.621094 101.003906 308.222656 99.054688 306.773438 C 97.101562 305.328125 95.1875 303.832031 93.308594 302.292969 C 91.429688 300.75 89.589844 299.164062 87.789062 297.53125 C 85.988281 295.898438 84.230469 294.222656 82.511719 292.507812 C 80.792969 290.789062 79.121094 289.027344 77.488281 287.230469 C 75.855469 285.429688 74.269531 283.589844 72.726562 281.710938 C 71.1875 279.832031 69.691406 277.917969 68.246094 275.964844 C 66.796875 274.015625 65.398438 272.027344 64.046875 270.007812 C 62.699219 267.988281 61.398438 265.933594 60.148438 263.851562 C 58.898438 261.765625 57.703125 259.652344 56.558594 257.511719 C 55.410156 255.367188 54.320312 253.195312 53.28125 251 C 52.242188 248.804688 51.257812 246.582031 50.328125 244.339844 C 49.398438 242.09375 48.523438 239.828125 47.707031 237.539062 C 46.886719 235.25 46.125 232.945312 45.417969 230.621094 C 44.714844 228.292969 44.066406 225.953125 43.476562 223.597656 C 42.886719 221.238281 42.351562 218.871094 41.878906 216.484375 C 41.40625 214.101562 40.988281 211.710938 40.632812 209.304688 C 40.277344 206.902344 39.980469 204.492188 39.742188 202.074219 C 39.503906 199.65625 39.324219 197.234375 39.203125 194.804688 C 39.085938 192.378906 39.027344 189.949219 39.027344 187.519531 C 39.027344 185.089844 39.085938 182.664062 39.203125 180.234375 C 39.324219 177.808594 39.503906 175.386719 39.742188 172.96875 C 39.980469 170.550781 40.277344 168.136719 40.632812 165.734375 C 40.988281 163.332031 41.40625 160.9375 41.878906 158.554688 C 42.351562 156.171875 42.886719 153.800781 43.476562 151.445312 C 44.066406 149.085938 44.714844 146.746094 45.417969 144.421875 C 46.125 142.097656 46.886719 139.789062 47.707031 137.5 C 48.523438 135.214844 49.398438 132.949219 50.328125 130.703125 C 51.257812 128.457031 52.242188 126.238281 53.28125 124.039062 C 54.320312 121.84375 55.410156 119.675781 56.558594 117.53125 C 57.703125 115.386719 58.898438 113.273438 60.148438 111.191406 C 61.398438 109.105469 62.699219 107.054688 64.046875 105.035156 C 65.398438 103.011719 66.796875 101.027344 68.246094 99.074219 C 69.691406 97.125 71.1875 95.207031 72.726562 93.332031 C 74.269531 91.453125 75.855469 89.613281 77.488281 87.8125 C 79.121094 86.011719 80.792969 84.253906 82.511719 82.535156 C 84.230469 80.816406 85.988281 79.140625 87.789062 77.507812 C 89.589844 75.878906 91.429688 74.292969 93.308594 72.75 C 95.1875 71.207031 97.101562 69.714844 99.054688 68.265625 C 101.003906 66.820312 102.992188 65.421875 105.011719 64.070312 C 107.03125 62.71875 109.085938 61.421875 111.167969 60.171875 C 113.253906 58.921875 115.367188 57.726562 117.507812 56.578125 C 119.652344 55.433594 121.820312 54.339844 124.019531 53.304688 C 126.214844 52.265625 128.4375 51.28125 130.679688 50.351562 C 132.925781 49.417969 135.191406 48.546875 137.480469 47.726562 C 139.765625 46.910156 142.074219 46.144531 144.398438 45.441406 C 146.722656 44.734375 149.066406 44.089844 151.421875 43.496094 C 153.78125 42.90625 156.148438 42.375 158.53125 41.902344 C 160.917969 41.425781 163.308594 41.011719 165.714844 40.65625 C 168.117188 40.296875 170.527344 40 172.945312 39.761719 C 175.363281 39.523438 177.785156 39.347656 180.214844 39.226562 C 182.640625 39.109375 185.070312 39.046875 187.5 39.046875 C 189.929688 39.046875 192.355469 39.109375 194.785156 39.226562 C 197.210938 39.347656 199.632812 39.523438 202.050781 39.761719 C 204.46875 40 206.878906 40.296875 209.285156 40.65625 C 211.6875 41.011719 214.082031 41.425781 216.464844 41.902344 C 218.847656 42.375 221.21875 42.90625 223.574219 43.496094 C 225.929688 44.089844 228.273438 44.734375 230.597656 45.441406 C 232.921875 46.144531 235.230469 46.910156 237.515625 47.726562 C 239.804688 48.546875 242.070312 49.417969 244.316406 50.351562 C 246.5625 51.28125 248.78125 52.265625 250.980469 53.304688 C 253.175781 54.339844 255.34375 55.433594 257.488281 56.578125 C 259.632812 57.726562 261.746094 58.921875 263.828125 60.171875 C 265.914062 61.421875 267.964844 62.71875 269.984375 64.070312 C 272.003906 65.421875 273.992188 66.820312 275.945312 68.265625 C 277.894531 69.714844 279.808594 71.207031 281.6875 72.75 C 283.566406 74.292969 285.40625 75.878906 287.207031 77.507812 C 289.007812 79.140625 290.765625 80.816406 292.484375 82.535156 C 294.203125 84.253906 295.878906 86.011719 297.507812 87.8125 C 299.140625 89.613281 300.726562 91.453125 302.269531 93.332031 C 303.8125 95.207031 305.304688 97.125 306.753906 99.074219 C 308.199219 101.027344 309.597656 103.011719 310.949219 105.035156 C 312.300781 107.054688 313.597656 109.105469 314.847656 111.191406 C 316.097656 113.273438 317.292969 115.386719 318.441406 117.53125 C 319.585938 119.675781 320.675781 121.84375 321.714844 124.039062 C 322.753906 126.238281 323.738281 128.457031 324.667969 130.703125 C 325.597656 132.949219 326.472656 135.214844 327.292969 137.5 C 328.109375 139.789062 328.871094 142.097656 329.578125 144.421875 C 330.285156 146.746094 330.929688 149.085938 331.523438 151.445312 C 332.113281 153.800781 332.644531 156.171875 333.117188 158.554688 C 333.59375 160.9375 334.007812 163.332031 334.363281 165.734375 C 334.71875 168.136719 335.019531 170.550781 335.257812 172.96875 C 335.496094 175.386719 335.671875 177.808594 335.792969 180.234375 C 335.910156 182.664062 335.972656 185.089844 335.972656 187.519531 Z M 335.972656 187.519531 " fill-opacity="1" fill-rule="nonzero"/><path fill="#a5a5a5" d="M 119.992188 307.523438 C 119.925781 307.523438 119.925781 307.589844 119.859375 307.589844 C 119.789062 307.65625 119.722656 307.726562 119.65625 307.859375 C 119.722656 307.792969 119.859375 307.65625 119.859375 307.65625 C 119.859375 307.65625 119.925781 307.589844 119.992188 307.523438 Z M 119.992188 307.523438 " fill-opacity="1" fill-rule="nonzero"/><path fill="#a5a5a5" d="M 240.804688 304.5625 C 231.515625 304.5625 223.640625 307.792969 218.1875 312.371094 C 215.632812 314.457031 213.207031 316.878906 209.035156 322.867188 C 208.96875 322.9375 208.765625 322.9375 208.765625 322.9375 C 208.765625 322.9375 208.296875 323.339844 208.296875 323.339844 C 208.296875 323.339844 208.027344 324.011719 208.027344 324.011719 C 208.027344 324.011719 208.027344 324.550781 208.027344 324.550781 C 208.027344 324.550781 208.09375 324.753906 208.160156 324.820312 C 208.226562 324.886719 208.226562 324.953125 208.226562 324.953125 C 208.296875 325.089844 208.296875 325.089844 208.363281 325.089844 C 208.363281 325.089844 208.363281 325.15625 208.429688 325.292969 C 208.429688 325.359375 208.496094 325.359375 208.566406 325.425781 C 208.632812 325.492188 208.765625 325.628906 208.765625 325.628906 C 208.765625 325.628906 209.238281 325.898438 209.238281 325.898438 C 209.238281 325.898438 209.976562 325.964844 209.976562 325.964844 C 209.976562 325.964844 210.582031 325.695312 210.582031 325.695312 C 210.582031 325.695312 210.71875 325.5625 210.785156 325.492188 C 225.929688 322.867188 240.601562 317.820312 254.128906 310.417969 C 254.667969 310.148438 255.003906 309.878906 255.207031 309.542969 C 255.273438 309.476562 255.273438 309.476562 255.273438 309.40625 C 255.207031 309.476562 255.140625 309.542969 255.140625 309.542969 C 255.140625 309.542969 254.9375 309.746094 254.9375 309.746094 C 254.9375 309.746094 254.535156 309.945312 254.535156 309.945312 C 254.535156 309.945312 253.792969 310.011719 253.792969 310.011719 C 253.792969 310.011719 253.523438 309.878906 253.320312 309.746094 C 253.253906 309.675781 253.121094 309.609375 253.121094 309.609375 C 253.121094 309.609375 253.121094 309.609375 253.121094 309.542969 C 253.1875 309.476562 254.195312 308.53125 254.195312 308.53125 C 254.195312 308.53125 255.609375 308.128906 255.609375 308.128906 C 255.609375 308.195312 255.609375 308.261719 255.675781 308.261719 C 255.675781 308.261719 255.609375 307.996094 255.609375 307.996094 C 255.609375 307.996094 255.542969 307.726562 255.542969 307.726562 C 255.542969 307.726562 255.207031 307.320312 255.207031 307.320312 C 255.207031 307.320312 254.667969 307.050781 254.535156 306.984375 C 254.398438 306.917969 254.265625 306.78125 254.0625 306.714844 C 250.089844 305.4375 245.648438 304.5625 240.804688 304.5625 Z M 240.804688 304.5625 " fill-opacity="1" fill-rule="nonzero"/><path fill="#a5a5a5" d="M 134.195312 304.5625 C 129.347656 304.5625 124.90625 305.4375 121.003906 306.984375 C 120.664062 307.121094 120.53125 307.253906 120.328125 307.390625 C 120.398438 307.390625 120.398438 307.320312 120.398438 307.320312 L 120.800781 307.253906 C 120.800781 307.253906 120.867188 308.53125 120.867188 308.667969 C 120.867188 308.667969 119.589844 308.195312 119.523438 308.128906 C 119.523438 308.0625 119.523438 308.0625 119.589844 307.996094 C 119.589844 307.996094 119.523438 308.0625 119.523438 308.128906 C 119.523438 308.128906 119.453125 308.398438 119.453125 308.398438 C 119.453125 308.398438 119.453125 308.601562 119.453125 308.601562 C 119.453125 308.800781 119.453125 308.667969 119.453125 308.667969 C 119.453125 308.667969 119.453125 308.734375 119.453125 308.734375 C 119.453125 308.734375 120.800781 308.734375 120.867188 308.734375 C 120.734375 308.871094 119.992188 309.746094 119.992188 309.746094 C 119.992188 309.746094 119.859375 309.609375 119.859375 309.609375 C 119.859375 309.609375 119.859375 309.542969 119.789062 309.542969 C 119.859375 309.609375 119.859375 309.609375 119.859375 309.675781 C 120.058594 309.945312 120.464844 310.28125 120.933594 310.550781 C 134.464844 317.886719 149.066406 323.003906 164.277344 325.628906 C 164.347656 325.695312 164.414062 325.761719 164.414062 325.761719 C 164.414062 325.761719 164.882812 326.03125 164.882812 326.03125 C 164.882812 326.03125 165.625 326.097656 165.625 326.097656 C 165.625 326.097656 166.164062 325.898438 166.164062 325.898438 C 166.164062 325.898438 166.433594 325.695312 166.433594 325.628906 C 166.433594 325.628906 166.5 325.492188 166.566406 325.492188 C 166.703125 325.292969 166.703125 325.292969 166.703125 325.222656 C 166.703125 325.222656 166.703125 325.222656 166.769531 325.089844 C 166.769531 325.023438 166.835938 325.023438 166.835938 324.953125 C 166.835938 324.886719 166.972656 324.6875 166.972656 324.6875 C 166.972656 324.6875 167.039062 324.214844 167.039062 324.214844 C 167.039062 324.214844 166.835938 323.542969 166.835938 323.542969 C 166.835938 323.542969 166.363281 323.070312 166.363281 323.070312 C 166.363281 323.070312 166.027344 322.9375 165.960938 322.867188 C 163 318.492188 160.507812 315.464844 156.808594 312.4375 C 151.355469 307.792969 143.480469 304.5625 134.195312 304.5625 Z M 134.195312 304.5625 " fill-opacity="1" fill-rule="nonzero"/><path fill="#a5a5a5" d="M 134.195312 256.441406 C 124.90625 256.441406 117.03125 259.671875 111.578125 264.246094 C 106.0625 268.824219 102.695312 274.207031 99.667969 278.785156 C 97.378906 282.285156 95.761719 284.574219 94.484375 286.121094 C 93.746094 286.996094 93.273438 288.074219 93.273438 289.148438 C 93.273438 290.292969 93.746094 291.371094 94.617188 292.179688 C 97.042969 294.332031 99.601562 296.417969 102.15625 298.371094 C 103.167969 299.109375 104.378906 299.378906 105.523438 299.3125 C 106.667969 299.246094 107.878906 298.773438 108.6875 297.765625 C 111.242188 294.734375 113.261719 291.640625 115.078125 288.8125 C 118.039062 284.234375 120.597656 280.601562 123.289062 278.3125 C 125.914062 276.160156 128.675781 274.746094 134.125 274.746094 C 139.578125 274.746094 142.335938 276.09375 144.960938 278.3125 C 147.65625 280.601562 150.210938 284.234375 153.171875 288.8125 C 156.136719 293.390625 159.5 298.707031 164.953125 303.28125 C 170.402344 307.859375 178.144531 311.15625 187.363281 311.15625 C 196.585938 311.15625 204.390625 307.859375 209.777344 303.28125 C 215.226562 298.707031 218.59375 293.320312 221.554688 288.8125 C 224.515625 284.234375 227.074219 280.601562 229.765625 278.3125 C 232.390625 276.160156 235.148438 274.746094 240.601562 274.746094 C 246.121094 274.746094 248.8125 276.09375 251.4375 278.3125 C 254.128906 280.601562 256.6875 284.234375 259.648438 288.8125 C 261.464844 291.640625 263.484375 294.667969 266.042969 297.765625 C 266.851562 298.773438 268.0625 299.175781 269.207031 299.3125 C 270.351562 299.378906 271.5625 299.175781 272.570312 298.371094 C 275.128906 296.351562 277.6875 294.332031 280.109375 292.179688 C 280.984375 291.371094 281.523438 290.292969 281.453125 289.148438 C 281.453125 288.003906 280.984375 286.996094 280.242188 286.121094 C 278.5625 284.035156 276.945312 281.609375 275.0625 278.785156 C 272.101562 274.207031 268.667969 268.824219 263.214844 264.246094 C 257.695312 259.671875 249.890625 256.441406 240.601562 256.441406 C 231.3125 256.441406 223.4375 259.671875 217.988281 264.246094 C 212.46875 268.824219 209.101562 274.207031 206.140625 278.785156 C 203.179688 283.359375 200.621094 287.0625 197.929688 289.285156 C 195.375 291.4375 192.679688 292.785156 187.363281 292.785156 C 181.980469 292.785156 179.355469 291.4375 176.796875 289.285156 C 174.105469 286.996094 171.546875 283.359375 168.585938 278.785156 C 165.625 274.207031 162.191406 268.824219 156.671875 264.246094 C 151.355469 259.671875 143.480469 256.441406 134.195312 256.441406 Z M 134.195312 256.441406 " fill-opacity="1" fill-rule="nonzero"/><path fill="#a5a5a5" d="M 134.195312 208.25 C 124.90625 208.25 117.03125 211.480469 111.578125 216.058594 C 106.0625 220.632812 102.695312 226.019531 99.667969 230.59375 C 96.707031 235.171875 94.148438 238.875 91.457031 241.09375 C 88.898438 243.246094 86.207031 244.59375 80.890625 244.59375 C 75.503906 244.59375 72.878906 243.246094 70.324219 241.09375 C 67.628906 238.804688 65.074219 235.171875 62.113281 230.59375 C 59.015625 225.816406 56.863281 222.921875 54.507812 220.363281 L 51.949219 221.710938 C 54.976562 233.960938 59.554688 245.738281 65.746094 256.707031 C 66.417969 257.921875 67.496094 258.996094 68.707031 259.9375 C 69.917969 260.882812 71.128906 261.757812 72.476562 262.027344 C 75.101562 262.632812 77.859375 262.96875 80.820312 262.96875 C 90.042969 262.96875 97.851562 259.671875 103.234375 255.09375 C 108.6875 250.515625 112.050781 245.132812 115.011719 240.625 C 117.972656 236.046875 120.53125 232.410156 123.222656 230.125 C 125.847656 227.96875 128.609375 226.558594 134.058594 226.558594 C 139.511719 226.558594 142.269531 227.902344 144.894531 230.125 C 147.585938 232.414062 150.144531 236.046875 153.105469 240.625 C 156.066406 245.199219 159.433594 250.515625 164.882812 255.09375 C 170.335938 259.671875 178.074219 262.96875 187.296875 262.96875 C 196.515625 262.96875 204.324219 259.671875 209.707031 255.09375 C 215.160156 250.515625 218.527344 245.132812 221.488281 240.625 C 224.449219 236.046875 227.007812 232.410156 229.699219 230.125 C 232.324219 227.96875 235.082031 226.558594 240.535156 226.558594 C 246.054688 226.558594 248.746094 227.902344 251.371094 230.125 C 254.0625 232.414062 256.621094 236.046875 259.582031 240.625 C 262.542969 245.199219 265.90625 250.515625 271.359375 255.09375 C 276.8125 259.671875 284.617188 262.96875 293.773438 262.96875 C 296.734375 262.96875 299.492188 262.632812 302.117188 262.027344 C 303.464844 261.6875 304.675781 260.882812 305.886719 259.9375 C 307.097656 258.996094 308.175781 257.851562 308.847656 256.707031 C 315.039062 245.738281 319.617188 233.894531 322.644531 221.710938 L 320.085938 220.363281 C 317.800781 222.921875 315.644531 225.882812 312.480469 230.59375 C 309.519531 235.171875 306.964844 238.875 304.269531 241.09375 C 301.714844 243.246094 299.019531 244.59375 293.703125 244.59375 C 288.320312 244.59375 285.695312 243.246094 283.136719 241.09375 C 280.445312 238.804688 277.886719 235.171875 274.925781 230.59375 C 271.964844 226.019531 268.53125 220.632812 263.082031 216.058594 C 257.5625 211.480469 249.753906 208.25 240.464844 208.25 C 231.179688 208.25 223.304688 211.480469 217.851562 216.058594 C 212.332031 220.632812 208.96875 226.019531 205.941406 230.59375 C 202.976562 235.171875 200.421875 238.875 197.730469 241.09375 C 195.171875 243.246094 192.480469 244.59375 187.160156 244.59375 C 181.777344 244.59375 179.152344 243.246094 176.59375 241.09375 C 173.902344 238.804688 171.34375 235.171875 168.382812 230.59375 C 165.421875 226.019531 161.992188 220.632812 156.472656 216.058594 C 151.355469 211.480469 143.480469 208.25 134.195312 208.25 Z M 134.195312 208.25 " fill-opacity="1" fill-rule="nonzero"/><path fill="#a5a5a5" d="M 134.195312 160.128906 C 124.90625 160.128906 117.03125 163.359375 111.578125 167.933594 C 106.0625 172.511719 102.695312 177.894531 99.667969 182.472656 C 96.707031 187.050781 94.148438 190.75 91.457031 192.972656 C 88.898438 195.125 86.207031 196.472656 80.890625 196.472656 C 75.503906 196.472656 72.878906 195.125 70.324219 192.972656 C 67.628906 190.683594 65.074219 187.050781 62.113281 182.472656 C 57.398438 175.269531 54.910156 172.039062 52.082031 169.550781 C 51.679688 169.214844 51.34375 168.945312 50.871094 168.808594 C 50.601562 168.742188 50.332031 168.742188 50.0625 168.742188 C 49.792969 168.808594 49.527344 168.878906 49.660156 168.878906 C 48.851562 169.214844 48.449219 169.953125 48.3125 171.097656 C 47.4375 178.03125 47.167969 183.953125 47.4375 189.40625 C 47.574219 192.03125 48.851562 195.796875 50.402344 198.019531 C 52.554688 201.117188 55.113281 204.210938 58.476562 207.105469 C 63.929688 211.683594 71.667969 214.980469 80.890625 214.980469 C 90.109375 214.980469 97.917969 211.683594 103.300781 207.105469 C 108.753906 202.527344 112.117188 197.144531 115.078125 192.636719 C 118.039062 188.058594 120.597656 184.425781 123.289062 182.203125 C 125.914062 180.050781 128.675781 178.636719 134.125 178.636719 C 139.644531 178.636719 142.335938 179.980469 144.960938 182.203125 C 147.65625 184.492188 150.210938 188.125 153.171875 192.636719 C 156.136719 197.210938 159.5 202.527344 164.953125 207.105469 C 170.402344 211.683594 178.144531 214.980469 187.363281 214.980469 C 196.585938 214.980469 204.390625 211.683594 209.777344 207.105469 C 215.226562 202.527344 218.59375 197.144531 221.554688 192.636719 C 224.515625 188.058594 227.074219 184.425781 229.765625 182.203125 C 232.390625 180.050781 235.148438 178.636719 240.601562 178.636719 C 246.121094 178.636719 248.8125 179.980469 251.4375 182.203125 C 254.128906 184.492188 256.6875 188.125 259.648438 192.636719 C 262.609375 197.210938 265.976562 202.527344 271.425781 207.105469 C 276.878906 211.683594 284.683594 214.980469 293.839844 214.980469 C 303.058594 214.980469 310.867188 211.683594 316.25 207.105469 C 319.683594 204.210938 322.171875 201.117188 324.328125 198.019531 C 325.875 195.867188 327.152344 192.097656 327.289062 189.40625 C 327.558594 183.414062 327.222656 177.425781 326.480469 171.03125 C 326.347656 169.886719 325.875 169.144531 325.136719 168.808594 C 325.335938 168.878906 325 168.742188 324.730469 168.675781 C 324.460938 168.609375 324.191406 168.675781 323.921875 168.742188 C 323.453125 168.878906 323.117188 169.144531 322.710938 169.484375 C 319.886719 172.039062 317.328125 175.269531 312.617188 182.472656 C 309.65625 187.050781 307.097656 190.75 304.40625 192.972656 C 301.847656 195.125 299.15625 196.472656 293.839844 196.472656 C 288.453125 196.472656 285.828125 195.125 283.273438 192.972656 C 280.578125 190.683594 278.023438 187.050781 275.0625 182.472656 C 272.097656 177.894531 268.667969 172.511719 263.214844 167.933594 C 257.695312 163.359375 249.890625 160.128906 240.601562 160.128906 C 231.3125 160.128906 223.4375 163.359375 217.988281 167.933594 C 212.46875 172.511719 209.101562 177.894531 206.074219 182.472656 C 203.113281 187.050781 200.554688 190.75 197.863281 192.972656 C 195.304688 195.125 192.613281 196.472656 187.296875 196.472656 C 181.914062 196.472656 179.289062 195.125 176.730469 192.972656 C 174.039062 190.683594 171.480469 187.050781 168.519531 182.472656 C 165.558594 177.894531 162.125 172.511719 156.605469 167.933594 C 151.355469 163.359375 143.480469 160.128906 134.195312 160.128906 Z M 134.195312 160.128906 " fill-opacity="1" fill-rule="nonzero"/><path fill="#a5a5a5" d="M 134.195312 111.9375 C 134.125 111.9375 134.058594 111.9375 133.992188 111.9375 C 124.769531 112.003906 117.03125 115.167969 111.578125 119.746094 C 106.0625 124.320312 102.695312 129.707031 99.734375 134.28125 C 96.773438 138.859375 94.214844 142.5625 91.523438 144.78125 C 88.964844 146.9375 86.273438 148.28125 80.957031 148.28125 C 75.570312 148.28125 72.949219 146.9375 70.390625 144.78125 C 66.957031 141.550781 64.332031 137.648438 61.773438 133.8125 C 61.4375 133.339844 61.167969 133.003906 60.832031 132.800781 C 60.765625 132.800781 60.765625 132.800781 60.699219 132.734375 C 60.699219 132.734375 60.628906 132.734375 60.628906 132.667969 C 60.699219 132.667969 60.699219 132.734375 60.699219 132.734375 L 60.765625 132.800781 L 61.304688 133.945312 C 61.304688 133.945312 61.238281 134.148438 61.167969 134.417969 L 59.824219 133.945312 C 59.824219 133.945312 59.824219 132.464844 59.824219 132.464844 L 59.351562 132.464844 L 59.148438 132.53125 C 59.148438 132.53125 59.148438 132.53125 59.082031 132.53125 C 59.015625 132.601562 58.8125 132.800781 58.679688 132.9375 C 58.8125 132.800781 58.878906 132.734375 58.878906 132.667969 C 58.8125 132.734375 58.679688 132.800781 58.613281 132.871094 C 58.542969 132.9375 58.542969 133.003906 58.476562 133.070312 L 58.410156 133.070312 C 58.410156 133.070312 58.410156 133.140625 58.410156 133.140625 C 58.207031 133.40625 58.003906 133.675781 57.871094 134.082031 C 56.121094 138.523438 54.574219 143.03125 53.226562 147.609375 C 52.824219 148.957031 52.957031 150.367188 53.292969 151.78125 C 53.632812 153.195312 54.035156 154.542969 54.976562 155.550781 C 59.417969 160.261719 67.5625 166.65625 80.890625 166.65625 C 90.109375 166.65625 97.917969 163.359375 103.300781 158.78125 C 108.753906 154.203125 112.050781 148.820312 115.078125 144.3125 C 118.039062 139.734375 120.597656 136.101562 123.289062 133.878906 C 125.914062 131.726562 128.675781 130.3125 134.125 130.3125 C 139.644531 130.3125 142.335938 131.65625 144.960938 133.878906 C 147.65625 136.167969 150.210938 139.800781 153.242188 144.3125 C 156.203125 148.886719 159.566406 154.203125 165.019531 158.78125 C 170.46875 163.359375 178.210938 166.65625 187.429688 166.65625 C 196.652344 166.65625 204.460938 163.359375 209.84375 158.78125 C 215.296875 154.203125 218.660156 148.820312 221.621094 144.3125 C 224.582031 139.734375 227.140625 136.101562 229.832031 133.878906 C 232.457031 131.726562 235.21875 130.3125 240.667969 130.3125 C 246.1875 130.3125 248.878906 131.65625 251.503906 133.878906 C 254.195312 136.167969 256.753906 139.800781 259.714844 144.3125 C 262.675781 148.886719 266.042969 154.203125 271.492188 158.78125 C 276.945312 163.359375 284.683594 166.65625 293.90625 166.65625 C 303.125 166.65625 310.933594 163.359375 316.316406 158.78125 C 317.664062 157.636719 318.808594 156.492188 319.953125 155.28125 C 320.894531 154.273438 321.296875 152.925781 321.636719 151.511719 C 321.90625 150.097656 322.039062 148.6875 321.703125 147.339844 C 320.355469 142.832031 318.808594 138.386719 316.992188 134.011719 C 316.789062 133.476562 316.519531 133.140625 316.25 132.800781 C 316.117188 132.667969 315.980469 132.601562 315.847656 132.53125 C 315.847656 132.53125 315.78125 132.464844 315.78125 132.464844 L 315.644531 132.398438 C 315.644531 132.398438 315.578125 132.398438 315.578125 132.398438 C 315.578125 132.398438 315.511719 132.398438 315.511719 132.332031 C 315.441406 132.332031 315.375 132.332031 315.375 132.265625 C 315.308594 132.265625 315.308594 132.265625 315.242188 132.265625 L 315.175781 132.265625 C 315.105469 132.265625 314.972656 132.265625 314.835938 132.332031 C 314.769531 132.332031 314.703125 132.332031 314.703125 132.332031 C 314.636719 132.332031 314.566406 132.398438 314.5 132.398438 C 314.5 132.398438 314.636719 132.667969 314.703125 132.800781 C 314.703125 133.476562 314.703125 135.089844 314.703125 135.089844 C 314.703125 135.089844 314.636719 135.089844 314.636719 135.023438 C 314.636719 135.023438 314.636719 135.023438 314.566406 135.023438 C 314.5 135.023438 314.5 134.957031 314.433594 134.957031 C 314.367188 134.886719 313.960938 134.550781 313.960938 134.550781 L 313.695312 134.015625 L 314.03125 132.667969 L 314.230469 132.464844 C 314.230469 132.464844 314.300781 132.398438 314.367188 132.398438 C 314.300781 132.464844 314.230469 132.464844 314.164062 132.464844 C 313.828125 132.667969 313.492188 133.003906 313.222656 133.476562 C 310.664062 137.3125 308.105469 141.214844 304.675781 144.511719 C 302.117188 146.667969 299.425781 148.011719 294.109375 148.011719 C 288.722656 148.011719 286.097656 146.667969 283.542969 144.511719 C 280.847656 142.226562 278.292969 138.589844 275.332031 134.015625 C 272.367188 129.4375 268.9375 124.054688 263.484375 119.476562 C 257.964844 114.898438 250.160156 111.667969 240.871094 111.667969 C 231.582031 111.667969 223.707031 114.898438 218.257812 119.476562 C 212.738281 124.054688 209.371094 129.4375 206.34375 134.015625 C 203.382812 138.589844 200.824219 142.292969 198.132812 144.511719 C 195.574219 146.667969 192.882812 148.011719 187.566406 148.011719 C 182.179688 148.011719 179.554688 146.667969 177 144.511719 C 174.308594 142.226562 171.75 138.589844 168.789062 134.015625 C 165.828125 129.4375 162.394531 124.050781 156.875 119.476562 C 151.355469 115.167969 143.550781 111.9375 134.195312 111.9375 Z M 134.195312 111.9375 " fill-opacity="1" fill-rule="nonzero"/><path fill="#a5a5a5" d="M 134.195312 63.816406 C 124.90625 63.816406 117.03125 67.046875 111.578125 71.621094 C 106.0625 76.199219 102.695312 81.585938 99.734375 86.160156 C 96.773438 90.738281 94.214844 94.371094 91.523438 96.660156 C 89.03125 98.882812 86.070312 99.824219 82.976562 100.09375 C 81.628906 100.226562 80.214844 100.632812 78.871094 101.238281 C 77.523438 101.84375 76.3125 102.515625 75.503906 103.660156 C 73.417969 106.417969 71.464844 109.3125 69.582031 112.273438 C 68.976562 113.285156 68.839844 114.429688 69.109375 115.304688 C 69.378906 116.109375 70.253906 116.984375 71.332031 117.324219 C 74.292969 118.128906 77.523438 118.667969 80.957031 118.667969 C 90.175781 118.667969 97.984375 115.371094 103.367188 110.792969 C 108.820312 106.21875 112.117188 100.832031 115.148438 96.324219 C 118.109375 91.746094 120.664062 88.113281 123.359375 85.824219 C 125.984375 83.671875 128.742188 82.257812 134.195312 82.257812 C 139.710938 82.257812 142.40625 83.601562 145.03125 85.824219 C 147.722656 88.113281 150.28125 91.746094 153.242188 96.324219 C 156.203125 100.898438 159.566406 106.21875 165.019531 110.792969 C 170.46875 115.371094 178.210938 118.667969 187.429688 118.667969 C 196.652344 118.667969 204.460938 115.371094 209.84375 110.792969 C 215.296875 106.21875 218.660156 100.832031 221.621094 96.324219 C 224.582031 91.746094 227.140625 88.113281 229.832031 85.824219 C 232.457031 83.671875 235.21875 82.257812 240.667969 82.257812 C 246.1875 82.257812 248.878906 83.601562 251.503906 85.824219 C 254.195312 88.113281 256.753906 91.746094 259.714844 96.324219 C 262.675781 100.898438 266.042969 106.21875 271.492188 110.792969 C 276.945312 115.371094 284.683594 118.667969 293.90625 118.667969 C 297.40625 118.667969 300.703125 118.128906 303.734375 117.253906 C 304.808594 116.917969 305.683594 116.042969 305.953125 115.234375 C 306.289062 114.359375 306.15625 113.148438 305.480469 112.207031 C 303.597656 109.3125 301.644531 106.488281 299.625 103.726562 C 298.820312 102.648438 297.609375 101.976562 296.261719 101.371094 C 294.914062 100.765625 293.503906 100.363281 292.15625 100.226562 C 288.992188 99.957031 285.964844 98.8125 283.339844 96.792969 C 280.648438 94.507812 278.089844 90.871094 275.128906 86.296875 C 272.167969 81.71875 268.734375 76.335938 263.214844 71.757812 C 257.695312 67.179688 249.890625 63.949219 240.601562 63.949219 C 231.3125 63.949219 223.4375 67.179688 217.988281 71.757812 C 212.46875 76.335938 209.101562 81.71875 206.074219 86.296875 C 203.113281 90.871094 200.554688 94.574219 197.863281 96.792969 C 195.304688 98.949219 192.613281 100.292969 187.296875 100.292969 C 181.914062 100.292969 179.289062 98.949219 176.730469 96.792969 C 174.039062 94.507812 171.480469 90.871094 168.519531 86.296875 C 165.558594 81.71875 162.125 76.335938 156.605469 71.757812 C 151.15625 67.179688 143.347656 63.949219 134.058594 63.949219 Z M 134.195312 63.816406 " fill-opacity="1" fill-rule="nonzero"/><path fill="#a5a5a5" d="M 202.910156 48.203125 C 201.699219 48.203125 200.554688 48.46875 199.210938 48.941406 C 197.730469 49.414062 196.25 50.019531 195.035156 50.625 C 193.152344 51.566406 190.863281 52.039062 187.5 52.039062 C 184.335938 52.039062 182.179688 51.632812 180.363281 50.824219 C 179.152344 50.289062 177.605469 49.683594 176.058594 49.210938 C 174.578125 48.738281 173.164062 48.402344 171.816406 48.539062 C 167.710938 49.007812 163.605469 49.613281 159.5 50.488281 C 158.355469 50.691406 157.546875 51.5 157.277344 52.105469 C 157.144531 52.375 157.078125 52.914062 157.144531 53.382812 C 157.210938 53.855469 157.480469 54.324219 157.816406 54.796875 C 159.769531 57.488281 162.058594 60.179688 165.019531 62.671875 C 170.46875 67.25 178.210938 70.546875 187.429688 70.546875 C 196.652344 70.546875 204.460938 67.25 209.84375 62.671875 C 212.871094 60.113281 215.226562 57.355469 217.246094 54.59375 C 217.582031 54.125 217.785156 53.652344 217.921875 53.183594 C 217.988281 52.710938 217.921875 52.171875 217.785156 51.902344 C 217.515625 51.296875 216.640625 50.488281 215.5625 50.289062 C 211.527344 49.480469 207.488281 48.808594 203.382812 48.335938 C 203.246094 48.203125 203.113281 48.203125 202.910156 48.203125 Z M 202.910156 48.203125 " fill-opacity="1" fill-rule="nonzero"/><path fill="#494949" d="M 203.246094 49.75 C 201.566406 49.546875 197.929688 50.824219 195.710938 51.96875 C 193.554688 53.046875 191 53.585938 187.5 53.585938 C 184.199219 53.585938 181.777344 53.113281 179.757812 52.238281 C 177.402344 51.164062 173.769531 49.882812 172.019531 50.085938 C 167.914062 50.558594 163.875 51.164062 159.835938 51.96875 C 159.027344 52.105469 158.761719 52.441406 158.691406 52.710938 C 158.625 52.914062 158.558594 53.316406 159.027344 53.988281 C 160.914062 56.613281 163.132812 59.171875 165.960938 61.59375 C 171.144531 65.96875 178.546875 69.066406 187.429688 69.066406 C 196.316406 69.066406 203.71875 65.902344 208.902344 61.59375 C 211.863281 59.105469 214.082031 56.480469 216.035156 53.789062 C 216.507812 53.113281 216.4375 52.777344 216.371094 52.507812 C 216.304688 52.238281 216.035156 51.96875 215.226562 51.769531 C 211.324219 50.824219 207.285156 50.21875 203.246094 49.75 Z M 134.195312 65.296875 C 125.242188 65.296875 117.773438 68.390625 112.523438 72.765625 C 107.203125 77.140625 103.90625 82.390625 100.945312 86.96875 C 97.984375 91.546875 95.425781 95.3125 92.464844 97.738281 C 89.707031 100.226562 86.339844 101.304688 83.042969 101.507812 C 80.957031 101.640625 77.660156 103.121094 76.648438 104.46875 C 74.5625 107.226562 72.609375 110.054688 70.792969 112.949219 C 70.390625 113.621094 70.324219 114.226562 70.523438 114.699219 C 70.660156 115.167969 70.996094 115.574219 71.734375 115.773438 C 74.5625 116.582031 77.660156 117.054688 80.957031 117.054688 C 89.839844 117.054688 97.242188 113.890625 102.425781 109.582031 C 107.675781 105.140625 110.90625 99.957031 113.867188 95.382812 C 116.828125 90.804688 119.453125 87.035156 122.414062 84.613281 C 125.242188 82.257812 128.472656 80.710938 134.261719 80.710938 C 140.050781 80.710938 143.28125 82.257812 146.105469 84.613281 C 149.066406 87.101562 151.691406 90.871094 154.652344 95.382812 C 157.617188 99.957031 160.914062 105.140625 166.097656 109.582031 C 171.277344 113.957031 178.683594 117.054688 187.566406 117.054688 C 196.449219 117.054688 203.851562 113.890625 209.035156 109.582031 C 214.285156 105.140625 217.515625 99.957031 220.476562 95.382812 C 223.4375 90.804688 226.0625 87.035156 229.023438 84.613281 C 231.851562 82.257812 235.082031 80.710938 240.871094 80.710938 C 246.660156 80.710938 249.890625 82.257812 252.714844 84.613281 C 255.675781 87.101562 258.300781 90.871094 261.265625 95.382812 C 264.226562 99.957031 267.523438 105.140625 272.707031 109.582031 C 277.886719 113.957031 285.292969 117.054688 294.175781 117.054688 C 297.539062 117.054688 300.703125 116.582031 303.597656 115.707031 C 304.339844 115.503906 304.609375 115.101562 304.808594 114.628906 C 304.945312 114.160156 304.945312 113.554688 304.539062 112.878906 C 302.722656 109.984375 300.769531 107.226562 298.753906 104.46875 C 297.742188 103.121094 294.578125 101.773438 292.359375 101.574219 C 288.925781 101.238281 285.628906 100.023438 282.734375 97.804688 C 282.734375 97.804688 282.667969 97.738281 282.667969 97.738281 C 279.703125 95.246094 277.148438 91.476562 274.1875 86.902344 C 271.15625 82.324219 267.925781 77.074219 262.609375 72.699219 C 257.359375 68.390625 249.890625 65.230469 240.9375 65.230469 C 231.988281 65.230469 224.515625 68.324219 219.265625 72.699219 C 213.949219 77.074219 210.652344 82.324219 207.691406 86.902344 C 204.660156 91.476562 202.101562 95.246094 199.210938 97.738281 C 196.449219 100.09375 193.285156 101.640625 187.632812 101.640625 C 181.980469 101.640625 178.882812 100.09375 176.125 97.738281 C 173.164062 95.246094 170.605469 91.476562 167.644531 86.902344 C 164.613281 82.324219 161.382812 77.074219 156.066406 72.699219 C 150.683594 68.460938 143.144531 65.296875 134.195312 65.296875 Z M 134.195312 113.484375 C 125.242188 113.484375 117.773438 116.582031 112.523438 120.957031 C 107.203125 125.332031 103.90625 130.582031 100.945312 135.15625 C 97.917969 139.734375 95.359375 143.503906 92.464844 145.992188 C 89.707031 148.347656 86.542969 149.898438 80.890625 149.898438 C 75.234375 149.898438 72.140625 148.347656 69.378906 145.992188 C 69.378906 145.992188 69.3125 145.925781 69.3125 145.925781 C 65.746094 142.5625 63.054688 138.523438 60.496094 134.6875 C 60.023438 133.945312 59.753906 134.015625 59.824219 134.015625 C 59.890625 134.015625 59.6875 133.945312 59.351562 134.753906 C 57.601562 139.128906 56.054688 143.570312 54.773438 148.148438 C 54.304688 149.898438 55.042969 153.464844 56.1875 154.609375 C 60.429688 159.117188 68.167969 165.242188 80.957031 165.242188 C 89.839844 165.242188 97.242188 162.078125 102.425781 157.773438 C 107.675781 153.328125 110.90625 148.148438 113.867188 143.570312 C 116.828125 138.996094 119.453125 135.226562 122.414062 132.800781 C 125.242188 130.445312 128.472656 128.898438 134.261719 128.898438 C 140.050781 128.898438 143.28125 130.445312 146.105469 132.800781 C 149.066406 135.292969 151.691406 139.0625 154.652344 143.570312 C 157.617188 148.148438 160.914062 153.328125 166.097656 157.773438 C 171.277344 162.148438 178.683594 165.242188 187.566406 165.242188 C 196.449219 165.242188 203.851562 162.078125 209.035156 157.773438 C 214.285156 153.328125 217.515625 148.148438 220.476562 143.570312 C 223.4375 138.996094 226.0625 135.226562 229.023438 132.800781 C 231.851562 130.445312 235.082031 128.898438 240.871094 128.898438 C 246.660156 128.898438 249.890625 130.445312 252.714844 132.800781 C 255.675781 135.292969 258.300781 139.0625 261.265625 143.570312 C 264.226562 148.148438 267.523438 153.328125 272.707031 157.773438 C 277.886719 162.148438 285.292969 165.242188 294.175781 165.242188 C 303.058594 165.242188 310.460938 162.078125 315.644531 157.773438 C 316.925781 156.695312 318.066406 155.550781 319.144531 154.40625 C 320.289062 153.195312 321.03125 149.628906 320.492188 147.945312 C 319.144531 143.4375 317.597656 139.0625 315.847656 134.753906 C 315.511719 133.945312 315.242188 133.945312 315.308594 133.945312 C 315.375 133.945312 315.105469 133.878906 314.636719 134.621094 C 312.078125 138.457031 309.453125 142.492188 305.820312 145.859375 C 305.820312 145.859375 305.75 145.925781 305.75 145.925781 C 302.992188 148.28125 299.828125 149.832031 294.242188 149.832031 C 288.589844 149.832031 285.425781 148.28125 282.667969 145.925781 C 279.703125 143.4375 277.148438 139.667969 274.1875 135.089844 C 271.15625 130.515625 267.925781 125.265625 262.609375 120.890625 C 257.359375 116.582031 249.890625 113.417969 240.9375 113.417969 C 231.988281 113.417969 224.515625 116.515625 219.265625 120.890625 C 213.949219 125.265625 210.652344 130.515625 207.691406 135.089844 C 204.660156 139.667969 202.101562 143.4375 199.210938 145.925781 C 196.449219 148.28125 193.285156 149.832031 187.632812 149.832031 C 181.980469 149.832031 178.882812 148.28125 176.125 145.925781 C 173.164062 143.4375 170.605469 139.667969 167.644531 135.089844 C 164.613281 130.515625 161.382812 125.265625 156.066406 120.890625 C 150.683594 116.582031 143.144531 113.484375 134.195312 113.484375 Z M 134.195312 161.609375 C 125.242188 161.609375 117.773438 164.703125 112.523438 169.078125 C 107.203125 173.453125 103.90625 178.703125 100.945312 183.28125 C 97.917969 187.855469 95.359375 191.625 92.464844 194.117188 C 89.707031 196.472656 86.542969 198.019531 80.890625 198.019531 C 75.234375 198.019531 72.140625 196.472656 69.378906 194.117188 C 66.417969 191.625 63.859375 187.855469 60.898438 183.28125 C 56.1875 176.144531 53.765625 173.050781 51.074219 170.628906 C 50.46875 170.089844 50.265625 170.222656 50.265625 170.222656 C 50.199219 170.222656 49.929688 170.425781 49.863281 171.234375 C 48.988281 178.097656 48.785156 183.886719 48.988281 189.269531 C 49.054688 191.355469 50.46875 195.328125 51.679688 197.078125 C 53.765625 200.105469 56.257812 203.136719 59.488281 205.894531 C 64.667969 210.269531 72.074219 213.363281 80.957031 213.363281 C 89.839844 213.363281 97.242188 210.203125 102.425781 205.894531 C 107.675781 201.453125 110.90625 196.269531 113.867188 191.691406 C 116.828125 187.117188 119.453125 183.347656 122.414062 180.925781 C 125.242188 178.570312 128.472656 177.019531 134.261719 177.019531 C 140.050781 177.019531 143.28125 178.570312 146.105469 180.925781 C 149.066406 183.414062 151.691406 187.183594 154.652344 191.691406 C 157.617188 196.269531 160.914062 201.453125 166.097656 205.894531 C 171.277344 210.269531 178.683594 213.363281 187.566406 213.363281 C 196.449219 213.363281 203.851562 210.203125 209.035156 205.894531 C 214.285156 201.453125 217.515625 196.269531 220.476562 191.691406 C 223.4375 187.117188 226.0625 183.347656 229.023438 180.925781 C 231.851562 178.570312 235.082031 177.019531 240.871094 177.019531 C 246.660156 177.019531 249.890625 178.570312 252.714844 180.925781 C 255.675781 183.414062 258.300781 187.183594 261.265625 191.691406 C 264.226562 196.269531 267.523438 201.453125 272.707031 205.894531 C 277.886719 210.269531 285.292969 213.363281 294.175781 213.363281 C 303.058594 213.363281 310.460938 210.203125 315.644531 205.894531 C 318.941406 203.136719 321.367188 200.105469 323.453125 197.078125 C 324.664062 195.328125 326.011719 191.355469 326.144531 189.269531 C 326.414062 183.347656 326.078125 177.425781 325.335938 171.164062 C 325.203125 170.359375 324.933594 170.15625 324.933594 170.15625 C 324.867188 170.15625 324.730469 170.019531 324.125 170.558594 C 321.433594 172.984375 318.941406 176.078125 314.300781 183.28125 C 311.269531 187.855469 308.714844 191.625 305.820312 194.117188 C 303.058594 196.472656 299.894531 198.019531 294.308594 198.019531 C 288.65625 198.019531 285.492188 196.472656 282.734375 194.117188 C 279.773438 191.625 277.214844 187.855469 274.253906 183.28125 C 271.226562 178.703125 267.992188 173.453125 262.675781 169.078125 C 257.425781 164.773438 249.957031 161.609375 241.003906 161.609375 C 232.054688 161.609375 224.582031 164.703125 219.332031 169.078125 C 214.015625 173.453125 210.71875 178.703125 207.757812 183.28125 C 204.726562 187.855469 202.171875 191.625 199.277344 194.117188 C 196.515625 196.472656 193.355469 198.019531 187.699219 198.019531 C 182.046875 198.019531 178.949219 196.472656 176.191406 194.117188 C 173.230469 191.625 170.671875 187.855469 167.710938 183.28125 C 164.683594 178.703125 161.453125 173.453125 156.136719 169.078125 C 150.683594 164.703125 143.144531 161.609375 134.195312 161.609375 Z M 134.195312 209.730469 C 125.242188 209.730469 117.773438 212.828125 112.523438 217.203125 C 107.203125 221.578125 103.90625 226.824219 100.945312 231.402344 C 97.917969 235.980469 95.359375 239.75 92.464844 242.238281 C 89.707031 244.59375 86.542969 246.140625 80.890625 246.140625 C 75.234375 246.140625 72.140625 244.59375 69.378906 242.238281 C 66.417969 239.75 63.859375 235.980469 60.898438 231.402344 C 57.804688 226.691406 55.71875 223.796875 53.429688 221.308594 C 56.457031 233.421875 60.96875 245.066406 67.09375 255.96875 C 68.035156 257.652344 71.199219 260.207031 72.878906 260.613281 C 75.371094 261.21875 78.0625 261.554688 80.890625 261.554688 C 89.773438 261.554688 97.175781 258.390625 102.359375 254.085938 C 107.609375 249.640625 110.839844 244.460938 113.800781 239.882812 C 116.761719 235.304688 119.386719 231.539062 122.347656 229.113281 C 125.175781 226.757812 128.40625 225.210938 134.195312 225.210938 C 139.980469 225.210938 143.210938 226.757812 146.039062 229.113281 C 149 231.605469 151.625 235.375 154.585938 239.882812 C 157.546875 244.460938 160.847656 249.640625 166.027344 254.085938 C 171.210938 258.457031 178.613281 261.554688 187.5 261.554688 C 196.382812 261.554688 203.785156 258.390625 208.96875 254.085938 C 214.21875 249.640625 217.449219 244.460938 220.410156 239.882812 C 223.371094 235.304688 225.996094 231.539062 228.957031 229.113281 C 231.785156 226.757812 235.015625 225.210938 240.804688 225.210938 C 246.589844 225.210938 249.820312 226.757812 252.648438 229.113281 C 255.609375 231.605469 258.234375 235.375 261.195312 239.882812 C 264.15625 244.460938 267.457031 249.640625 272.636719 254.085938 C 277.820312 258.457031 285.222656 261.554688 294.109375 261.554688 C 296.933594 261.554688 299.625 261.21875 302.117188 260.613281 C 303.867188 260.207031 306.964844 257.71875 307.90625 255.96875 C 314.03125 245.132812 318.539062 233.421875 321.566406 221.308594 C 319.347656 223.796875 317.191406 226.625 314.164062 231.402344 C 311.136719 235.980469 308.578125 239.75 305.683594 242.238281 C 302.925781 244.59375 299.761719 246.140625 294.175781 246.140625 C 288.523438 246.140625 285.359375 244.59375 282.597656 242.238281 C 279.636719 239.75 277.082031 235.980469 274.117188 231.402344 C 271.089844 226.824219 267.859375 221.578125 262.542969 217.203125 C 257.292969 212.894531 249.820312 209.730469 240.871094 209.730469 C 231.917969 209.730469 224.449219 212.828125 219.199219 217.203125 C 213.882812 221.578125 210.582031 226.824219 207.621094 231.402344 C 204.59375 235.980469 202.035156 239.75 199.140625 242.238281 C 196.382812 244.59375 193.21875 246.140625 187.566406 246.140625 C 181.914062 246.140625 178.816406 244.59375 176.058594 242.238281 C 173.09375 239.75 170.539062 235.980469 167.578125 231.402344 C 164.546875 226.824219 161.316406 221.578125 156 217.203125 C 150.683594 212.894531 143.144531 209.730469 134.195312 209.730469 Z M 134.195312 257.921875 C 125.242188 257.921875 117.773438 261.015625 112.523438 265.390625 C 107.203125 269.765625 103.90625 275.015625 100.945312 279.59375 C 98.65625 283.160156 97.042969 285.378906 95.695312 287.0625 C 94.550781 288.476562 94.484375 290.023438 95.628906 291.101562 C 98.050781 293.253906 100.542969 295.273438 103.097656 297.226562 C 104.378906 298.167969 106.597656 298.035156 107.542969 296.820312 C 110.03125 293.859375 111.984375 290.832031 113.800781 288.003906 C 116.761719 283.429688 119.386719 279.660156 122.347656 277.238281 C 125.175781 274.882812 128.40625 273.332031 134.195312 273.332031 C 139.980469 273.332031 143.210938 274.882812 146.039062 277.238281 C 149 279.726562 151.625 283.496094 154.585938 288.003906 C 157.546875 292.582031 160.847656 297.765625 166.027344 302.207031 C 171.210938 306.582031 178.613281 309.675781 187.5 309.675781 C 196.382812 309.675781 203.785156 306.515625 208.96875 302.207031 C 214.21875 297.765625 217.449219 292.582031 220.410156 288.003906 C 223.371094 283.429688 225.996094 279.660156 228.957031 277.238281 C 231.785156 274.882812 235.015625 273.332031 240.804688 273.332031 C 246.589844 273.332031 249.820312 274.882812 252.648438 277.238281 C 255.609375 279.726562 258.234375 283.496094 261.195312 288.003906 C 263.011719 290.832031 265.03125 293.859375 267.457031 296.820312 C 268.398438 297.964844 270.6875 298.167969 271.898438 297.226562 C 274.457031 295.273438 276.945312 293.1875 279.367188 291.101562 C 280.578125 290.023438 280.511719 288.476562 279.300781 287.128906 C 277.550781 284.976562 275.867188 282.484375 274.050781 279.660156 C 271.023438 275.082031 267.792969 269.832031 262.476562 265.457031 C 257.226562 261.152344 249.753906 257.988281 240.804688 257.988281 C 231.851562 257.988281 224.382812 261.082031 219.132812 265.457031 C 213.8125 269.832031 210.515625 275.082031 207.554688 279.660156 C 204.527344 284.234375 201.96875 288.003906 199.074219 290.496094 C 196.316406 292.851562 193.152344 294.398438 187.5 294.398438 C 181.84375 294.398438 178.75 292.851562 175.988281 290.496094 C 173.027344 288.003906 170.46875 284.234375 167.507812 279.660156 C 164.480469 275.082031 161.25 269.832031 155.933594 265.457031 C 150.683594 261.015625 143.144531 257.921875 134.195312 257.921875 Z M 134.195312 306.042969 C 129.550781 306.042969 125.308594 306.917969 121.539062 308.332031 C 120.734375 308.601562 120.867188 308.800781 120.867188 308.667969 C 120.867188 308.53125 120.800781 308.800781 121.609375 309.207031 C 135.070312 316.542969 149.671875 321.589844 164.75 324.148438 C 165.691406 324.28125 165.625 324.011719 165.355469 324.347656 C 165.152344 324.6875 165.421875 324.617188 164.882812 323.878906 C 161.855469 319.4375 159.5 316.476562 155.796875 313.445312 C 150.683594 309.136719 143.144531 306.042969 134.195312 306.042969 Z M 240.804688 306.042969 C 231.851562 306.042969 224.382812 309.136719 219.132812 313.511719 C 216.574219 315.667969 214.285156 317.753906 210.046875 323.945312 C 209.507812 324.6875 209.777344 324.753906 209.574219 324.417969 C 209.371094 324.082031 209.304688 324.347656 210.246094 324.214844 C 225.390625 321.65625 239.929688 316.609375 253.390625 309.273438 C 254.128906 308.871094 254.128906 308.601562 254.128906 308.734375 C 254.128906 308.871094 254.265625 308.667969 253.457031 308.398438 C 249.6875 306.917969 245.445312 306.042969 240.804688 306.042969 Z M 240.804688 306.042969 " fill-opacity="1" fill-rule="nonzero"/></svg>