<svg xmlns="http://www.w3.org/2000/svg" xmlns:xlink="http://www.w3.org/1999/xlink" width="500" zoomAndPan="magnify" viewBox="0 0 375 374.999991" height="500" preserveAspectRatio="xMidYMid meet" version="1.0"><defs><clipPath id="e5111b9184"><path d="M 337 83.671875 L 375 83.671875 L 375 291 L 337 291 Z M 337 83.671875 " clip-rule="nonzero"/></clipPath><clipPath id="44f96464ca"><path d="M 168 83.671875 L 338 83.671875 L 338 291 L 168 291 Z M 168 83.671875 " clip-rule="nonzero"/></clipPath><clipPath id="5f4222df79"><path d="M 0 83.671875 L 169 83.671875 L 169 291 L 0 291 Z M 0 83.671875 " clip-rule="nonzero"/></clipPath></defs><g clip-path="url(#e5111b9184)"><path fill="#ffffff" d="M 337.511719 83.847656 L 337.511719 290.703125 L 374.964844 290.703125 L 374.964844 83.847656 Z M 337.511719 83.847656 " fill-opacity="1" fill-rule="nonzero"/></g><g clip-path="url(#44f96464ca)"><path fill="#ffffff" d="M 168.773438 187.273438 L 168.773438 290.703125 L 337.511719 187.273438 L 168.773438 83.847656 Z M 168.773438 187.273438 " fill-opacity="1" fill-rule="nonzero"/></g><g clip-path="url(#5f4222df79)"><path fill="#ffffff" d="M 0.0351562 290.703125 L 168.773438 187.273438 L 0.0351562 83.847656 Z M 0.0351562 290.703125 " fill-opacity="1" fill-rule="nonzero"/></g></svg>