<svg xmlns="http://www.w3.org/2000/svg" xmlns:xlink="http://www.w3.org/1999/xlink" width="500" zoomAndPan="magnify" viewBox="0 0 375 374.999991" height="500" preserveAspectRatio="xMidYMid meet" version="1.0"><defs><clipPath id="76e7f896a3"><path d="M 36 18.046875 L 375 18.046875 L 375 357 L 36 357 Z M 36 18.046875 " clip-rule="nonzero"/></clipPath></defs><path fill="#d9d9d9" d="M 191.914062 252.371094 L 296.515625 356.949219 L 330.347656 323.101562 L 221.207031 223.015625 L 191.914062 252.371094 " fill-opacity="1" fill-rule="nonzero"/><path fill="#d9d9d9" d="M 65.183594 165.472656 L 58.9375 159.230469 L 68.042969 150.125 L 77.15625 159.230469 L 87.953125 148.429688 L 141.179688 201.644531 L 168.285156 174.484375 L 112.78125 123.589844 C 98.585938 61.449219 147.296875 41.84375 166.695312 36.582031 C 169.917969 35.703125 170.59375 31.375 167.800781 29.535156 C 150.367188 18.03125 128.601562 23.605469 111.71875 31.613281 C 98.054688 38.09375 85.867188 47.300781 75.179688 57.996094 L 25.554688 107.640625 L 34.664062 116.753906 L 25.558594 125.859375 L 20.714844 121.015625 L 0.160156 141.582031 L 44.628906 186.035156 L 65.183594 165.472656 " fill-opacity="1" fill-rule="nonzero"/><g clip-path="url(#76e7f896a3)"><path fill="#d9d9d9" d="M 344.484375 127.683594 L 282.273438 111.046875 L 265.617188 48.777344 L 296.082031 18.25 C 254.167969 19.179688 220.445312 53.445312 220.4375 95.625 C 220.4375 108.566406 223.640625 120.738281 229.242188 131.4375 L 115.964844 244.949219 C 109.398438 242.363281 102.296875 240.84375 94.816406 240.84375 C 62.804688 240.867188 36.835938 266.882812 36.835938 298.941406 C 36.835938 303.457031 37.476562 307.792969 38.441406 312.003906 L 69.15625 281.210938 L 103.332031 290.371094 L 112.496094 324.570312 L 81.769531 355.359375 C 85.941406 356.308594 90.222656 356.949219 94.6875 356.949219 C 94.726562 356.949219 94.773438 356.949219 94.816406 356.949219 C 126.84375 356.925781 152.800781 330.90625 152.800781 298.859375 C 152.800781 291.355469 151.269531 284.253906 148.679688 277.664062 L 261.945312 164.160156 C 272.613281 169.746094 284.710938 172.957031 297.585938 172.957031 C 297.636719 172.957031 297.683594 172.957031 297.734375 172.957031 C 339.847656 172.921875 374.058594 139.117188 374.941406 97.15625 L 344.484375 127.683594 " fill-opacity="1" fill-rule="nonzero"/></g></svg>