<svg xmlns="http://www.w3.org/2000/svg" xmlns:xlink="http://www.w3.org/1999/xlink" width="500" zoomAndPan="magnify" viewBox="0 0 375 374.999991" height="500" preserveAspectRatio="xMidYMid meet" version="1.0"><defs><g/><clipPath id="080d8e06f4"><rect x="0" width="375" y="0" height="351"/></clipPath></defs><g transform="matrix(1, 0, 0, 1, 0, 24)"><g clip-path="url(#080d8e06f4)"><g fill="#000000" fill-opacity="1"><g transform="translate(-6.332078, 279.085812)"><g><path d="M 164.90625 -253.359375 L 164.90625 -202.6875 L 76.15625 -202.6875 L 76.15625 -152.3125 L 158.15625 -152.3125 L 158.15625 -101.640625 L 76.15625 -101.640625 L 76.15625 0 L 18.421875 0 L 18.421875 -253.359375 Z M 164.90625 -253.359375 "/></g></g></g><g fill="#000000" fill-opacity="1"><g transform="translate(167.766196, 279.085812)"><g><path d="M 200.84375 0 L 135.125 0 L 100.421875 -44.53125 L 65.71875 0 L 0 0 L 67.25 -82.296875 L 9.515625 -157.546875 L 73.09375 -157.546875 L 100.421875 -121 L 127.75 -157.546875 L 191.3125 -157.546875 L 133.578125 -82.296875 Z M 200.84375 0 "/></g></g></g></g></g></svg>