<svg xmlns="http://www.w3.org/2000/svg" xmlns:xlink="http://www.w3.org/1999/xlink" width="500" zoomAndPan="magnify" viewBox="0 0 375 374.999991" height="500" preserveAspectRatio="xMidYMid meet" version="1.0"><defs><clipPath id="7270e0d8bb"><path d="M 1.402344 0 L 374.902344 0 L 374.902344 373.5 L 1.402344 373.5 Z M 1.402344 0 " clip-rule="nonzero"/></clipPath></defs><g clip-path="url(#7270e0d8bb)"><path fill="#000000" d="M 337.636719 112.078125 L 262.917969 112.078125 L 262.917969 37.359375 L 337.636719 37.359375 Z M 337.636719 224.15625 L 262.917969 224.15625 L 262.917969 149.4375 L 337.636719 149.4375 Z M 337.636719 336.234375 L 262.917969 336.234375 L 262.917969 261.515625 L 337.636719 261.515625 Z M 225.558594 112.078125 L 150.839844 112.078125 L 150.839844 37.359375 L 225.558594 37.359375 Z M 225.558594 224.15625 L 150.839844 224.15625 L 150.839844 149.4375 L 225.558594 149.4375 Z M 225.558594 336.234375 L 150.839844 336.234375 L 150.839844 261.515625 L 225.558594 261.515625 Z M 113.480469 112.078125 L 38.761719 112.078125 L 38.761719 37.359375 L 113.480469 37.359375 Z M 113.480469 224.15625 L 38.761719 224.15625 L 38.761719 149.4375 L 113.480469 149.4375 Z M 113.480469 336.234375 L 38.761719 336.234375 L 38.761719 261.515625 L 113.480469 261.515625 Z M 337.636719 0 L 1.402344 0 L 1.402344 373.59375 L 374.996094 373.59375 L 374.996094 0 L 337.636719 0 " fill-opacity="1" fill-rule="nonzero"/></g></svg>