<svg xmlns="http://www.w3.org/2000/svg" xmlns:xlink="http://www.w3.org/1999/xlink" width="500" zoomAndPan="magnify" viewBox="0 0 375 374.999991" height="500" preserveAspectRatio="xMidYMid meet" version="1.0"><path fill="#818181" d="M 187.738281 0.136719 C 84.296875 0.136719 0.132812 84.292969 0.132812 187.738281 C 0.132812 291.179688 84.296875 375.339844 187.738281 375.339844 C 291.191406 375.339844 375.339844 291.179688 375.339844 187.738281 C 375.339844 84.292969 291.191406 0.136719 187.738281 0.136719 M 187.738281 345.222656 C 100.90625 345.222656 30.261719 274.578125 30.261719 187.738281 C 30.261719 100.902344 100.90625 30.257812 187.738281 30.257812 C 274.578125 30.257812 345.214844 100.902344 345.214844 187.738281 C 345.214844 274.578125 274.578125 345.222656 187.738281 345.222656 M 184.757812 248.207031 C 178.070312 248.207031 172.367188 250.570312 167.648438 255.28125 C 162.929688 260 160.570312 265.707031 160.570312 272.382812 C 160.570312 279.070312 162.929688 284.777344 167.648438 289.496094 C 172.367188 294.210938 178.070312 296.570312 184.757812 296.570312 C 191.441406 296.570312 197.148438 294.210938 201.875 289.496094 C 206.585938 284.777344 208.945312 279.070312 208.945312 272.382812 C 208.945312 265.707031 206.585938 260 201.875 255.28125 C 197.15625 250.570312 191.445312 248.207031 184.757812 248.207031 M 237.789062 92.71875 C 230.699219 88.011719 222.683594 84.539062 213.746094 82.28125 C 204.808594 80.027344 195.625 78.898438 186.210938 78.898438 C 177.191406 78.898438 168.558594 80.363281 160.3125 83.3125 C 152.074219 86.25 144.757812 90.21875 138.386719 95.210938 C 132.003906 100.214844 126.902344 105.992188 123.082031 112.566406 C 119.257812 119.128906 117.34375 126.042969 117.34375 133.304688 C 117.34375 139.191406 119.253906 143.652344 123.082031 146.699219 C 126.902344 149.738281 131.375 151.261719 136.476562 151.261719 C 141.179688 151.261719 144.863281 150.277344 147.511719 148.3125 C 150.167969 146.355469 152.371094 143.957031 154.136719 141.105469 C 155.90625 138.257812 157.464844 135.175781 158.84375 131.835938 C 160.21875 128.503906 162.023438 125.40625 164.289062 122.566406 C 166.550781 119.722656 169.484375 117.324219 173.125 115.355469 C 176.75 113.394531 181.699219 112.414062 187.984375 112.414062 C 196.816406 112.414062 203.726562 114.621094 208.730469 119.039062 C 213.730469 123.453125 216.238281 129.6875 216.238281 137.722656 C 216.238281 142.632812 214.96875 146.953125 212.449219 150.671875 C 209.921875 154.40625 206.75 157.988281 202.925781 161.421875 C 199.097656 164.851562 194.984375 168.1875 190.570312 171.429688 C 186.15625 174.664062 182.03125 178.148438 178.203125 181.878906 C 174.382812 185.601562 171.195312 189.679688 168.648438 194.097656 C 166.09375 198.511719 164.828125 203.660156 164.828125 209.546875 C 164.828125 214.246094 166.390625 218.714844 169.535156 222.929688 C 172.667969 227.160156 177.378906 229.265625 183.664062 229.265625 C 188.566406 229.265625 192.25 228.472656 194.703125 226.90625 C 197.148438 225.34375 199.058594 223.332031 200.441406 220.871094 C 201.800781 218.421875 202.941406 215.722656 203.820312 212.777344 C 204.707031 209.84375 206.03125 207.089844 207.792969 204.535156 C 209.359375 202.179688 211.765625 199.828125 215.015625 197.472656 C 218.253906 195.121094 221.835938 192.515625 225.765625 189.671875 C 229.691406 186.832031 233.769531 183.6875 238 180.253906 C 242.214844 176.828125 246.050781 173.042969 249.484375 168.925781 C 252.917969 164.800781 255.714844 160.195312 257.878906 155.09375 C 260.035156 149.992188 261.128906 144.207031 261.128906 137.722656 C 261.128906 127.324219 259.011719 118.398438 254.777344 110.957031 C 250.535156 103.5 244.867188 97.421875 237.789062 92.71875 " fill-opacity="1" fill-rule="nonzero"/></svg>