<svg xmlns="http://www.w3.org/2000/svg" xmlns:xlink="http://www.w3.org/1999/xlink" width="500" zoomAndPan="magnify" viewBox="0 0 375 374.999991" height="500" preserveAspectRatio="xMidYMid meet" version="1.0"><defs><clipPath id="d10cd47e22"><path d="M 7.550781 0 L 367.550781 0 L 367.550781 360 L 7.550781 360 Z M 7.550781 0 " clip-rule="nonzero"/></clipPath></defs><g clip-path="url(#d10cd47e22)"><path fill="#818181" d="M 187.5 0 C 88.273438 0 7.550781 80.722656 7.550781 179.945312 C 7.550781 279.171875 88.273438 359.894531 187.5 359.894531 C 286.722656 359.894531 367.445312 279.171875 367.445312 179.945312 C 367.445312 80.722656 286.722656 0 187.5 0 Z M 187.5 325.066406 C 107.480469 325.066406 42.378906 259.964844 42.378906 179.945312 C 42.378906 99.929688 107.480469 34.828125 187.5 34.828125 C 267.519531 34.828125 332.617188 99.929688 332.617188 179.945312 C 332.617188 259.964844 267.519531 325.066406 187.5 325.066406 Z M 187.5 325.066406 " fill-opacity="1" fill-rule="nonzero"/></g><path fill="#818181" d="M 187.5 123.066406 C 177.878906 123.066406 170.085938 130.867188 170.085938 140.480469 L 170.085938 269.035156 C 170.085938 278.652344 177.878906 286.449219 187.5 286.449219 C 197.117188 286.449219 204.914062 278.652344 204.914062 269.035156 L 204.914062 140.480469 C 204.914062 130.867188 197.117188 123.066406 187.5 123.066406 Z M 187.5 123.066406 " fill-opacity="1" fill-rule="nonzero"/><path fill="#818181" d="M 187.5 73.445312 C 177.878906 73.445312 170.085938 81.242188 170.085938 90.859375 L 170.085938 90.914062 C 170.085938 100.527344 177.878906 108.304688 187.5 108.304688 C 197.117188 108.304688 204.914062 100.472656 204.914062 90.859375 C 204.914062 81.242188 197.117188 73.445312 187.5 73.445312 Z M 187.5 73.445312 " fill-opacity="1" fill-rule="nonzero"/></svg>