<svg xmlns="http://www.w3.org/2000/svg" xmlns:xlink="http://www.w3.org/1999/xlink" width="500" zoomAndPan="magnify" viewBox="0 0 375 374.999991" height="500" preserveAspectRatio="xMidYMid meet" version="1.0"><path fill="#ffffff" d="M 251.316406 0 L 300.660156 0 C 301.628906 0 302.59375 0.046875 303.558594 0.140625 C 304.523438 0.238281 305.484375 0.378906 306.433594 0.570312 C 307.386719 0.757812 308.324219 0.992188 309.253906 1.273438 C 310.179688 1.554688 311.089844 1.882812 311.988281 2.253906 C 312.882812 2.625 313.757812 3.039062 314.613281 3.496094 C 315.46875 3.953125 316.300781 4.449219 317.105469 4.988281 C 317.910156 5.527344 318.691406 6.105469 319.4375 6.71875 C 320.1875 7.335938 320.90625 7.984375 321.59375 8.671875 C 322.277344 9.355469 322.929688 10.074219 323.542969 10.824219 C 324.160156 11.574219 324.734375 12.351562 325.273438 13.15625 C 325.8125 13.964844 326.308594 14.792969 326.765625 15.648438 C 327.222656 16.503906 327.636719 17.378906 328.007812 18.277344 C 328.378906 19.171875 328.707031 20.082031 328.988281 21.011719 C 329.269531 21.9375 329.503906 22.878906 329.695312 23.828125 C 329.882812 24.78125 330.027344 25.738281 330.121094 26.703125 C 330.214844 27.667969 330.261719 28.636719 330.261719 29.605469 L 330.261719 345.394531 C 330.261719 346.363281 330.214844 347.332031 330.121094 348.296875 C 330.027344 349.261719 329.882812 350.21875 329.695312 351.171875 C 329.503906 352.121094 329.269531 353.058594 328.988281 353.988281 C 328.707031 354.917969 328.378906 355.828125 328.007812 356.722656 C 327.636719 357.621094 327.222656 358.496094 326.765625 359.351562 C 326.308594 360.207031 325.8125 361.035156 325.273438 361.84375 C 324.734375 362.648438 324.15625 363.425781 323.542969 364.175781 C 322.929688 364.925781 322.277344 365.644531 321.59375 366.328125 C 320.90625 367.015625 320.1875 367.664062 319.4375 368.28125 C 318.691406 368.894531 317.910156 369.472656 317.105469 370.011719 C 316.300781 370.550781 315.46875 371.046875 314.613281 371.503906 C 313.757812 371.960938 312.882812 372.375 311.988281 372.746094 C 311.089844 373.117188 310.179688 373.441406 309.25 373.726562 C 308.324219 374.007812 307.382812 374.242188 306.433594 374.429688 C 305.484375 374.621094 304.523438 374.761719 303.558594 374.855469 C 302.59375 374.953125 301.628906 375 300.65625 375 L 251.316406 375 C 250.347656 375 249.378906 374.953125 248.414062 374.855469 C 247.449219 374.761719 246.492188 374.621094 245.539062 374.429688 C 244.589844 374.242188 243.648438 374.007812 242.722656 373.726562 C 241.792969 373.441406 240.882812 373.117188 239.984375 372.746094 C 239.089844 372.375 238.214844 371.960938 237.359375 371.503906 C 236.503906 371.046875 235.675781 370.550781 234.867188 370.011719 C 234.0625 369.472656 233.285156 368.894531 232.535156 368.28125 C 231.785156 367.664062 231.066406 367.015625 230.382812 366.328125 C 229.695312 365.644531 229.046875 364.925781 228.429688 364.175781 C 227.816406 363.425781 227.238281 362.648438 226.699219 361.84375 C 226.160156 361.035156 225.664062 360.207031 225.207031 359.351562 C 224.75 358.496094 224.335938 357.621094 223.964844 356.722656 C 223.59375 355.828125 223.265625 354.917969 222.984375 353.988281 C 222.703125 353.058594 222.46875 352.121094 222.28125 351.171875 C 222.089844 350.21875 221.949219 349.261719 221.851562 348.296875 C 221.757812 347.332031 221.710938 346.363281 221.710938 345.394531 L 221.710938 29.605469 C 221.710938 28.636719 221.757812 27.667969 221.851562 26.703125 C 221.949219 25.738281 222.089844 24.78125 222.28125 23.828125 C 222.46875 22.878906 222.703125 21.9375 222.984375 21.011719 C 223.265625 20.082031 223.59375 19.171875 223.964844 18.277344 C 224.335938 17.378906 224.75 16.503906 225.207031 15.648438 C 225.664062 14.792969 226.160156 13.964844 226.699219 13.15625 C 227.238281 12.351562 227.816406 11.574219 228.429688 10.824219 C 229.046875 10.074219 229.695312 9.355469 230.382812 8.671875 C 231.066406 7.984375 231.785156 7.335938 232.535156 6.71875 C 233.285156 6.105469 234.0625 5.527344 234.867188 4.988281 C 235.675781 4.449219 236.503906 3.953125 237.359375 3.496094 C 238.214844 3.039062 239.089844 2.625 239.984375 2.253906 C 240.882812 1.882812 241.792969 1.554688 242.722656 1.273438 C 243.648438 0.992188 244.589844 0.757812 245.539062 0.570312 C 246.492188 0.378906 247.449219 0.238281 248.414062 0.140625 C 249.378906 0.046875 250.347656 0 251.316406 0 Z M 251.316406 0 " fill-opacity="1" fill-rule="nonzero"/><path fill="#ffffff" d="M 73.683594 0 L 123.027344 0 C 123.996094 0 124.964844 0.046875 125.929688 0.140625 C 126.894531 0.238281 127.851562 0.378906 128.800781 0.570312 C 129.753906 0.757812 130.691406 0.992188 131.621094 1.273438 C 132.546875 1.554688 133.460938 1.882812 134.355469 2.253906 C 135.25 2.625 136.128906 3.039062 136.980469 3.496094 C 137.835938 3.953125 138.667969 4.449219 139.472656 4.988281 C 140.28125 5.527344 141.058594 6.105469 141.808594 6.71875 C 142.558594 7.335938 143.273438 7.984375 143.960938 8.671875 C 144.644531 9.355469 145.296875 10.074219 145.910156 10.824219 C 146.527344 11.574219 147.105469 12.351562 147.640625 13.15625 C 148.179688 13.964844 148.679688 14.792969 149.136719 15.648438 C 149.59375 16.503906 150.007812 17.378906 150.378906 18.277344 C 150.75 19.171875 151.074219 20.082031 151.355469 21.011719 C 151.636719 21.9375 151.875 22.878906 152.0625 23.828125 C 152.25 24.78125 152.394531 25.738281 152.488281 26.703125 C 152.585938 27.667969 152.632812 28.636719 152.632812 29.605469 L 152.632812 345.394531 C 152.632812 346.363281 152.585938 347.332031 152.488281 348.296875 C 152.394531 349.261719 152.25 350.21875 152.0625 351.171875 C 151.875 352.121094 151.636719 353.058594 151.355469 353.988281 C 151.074219 354.917969 150.75 355.828125 150.378906 356.722656 C 150.007812 357.621094 149.59375 358.496094 149.136719 359.351562 C 148.679688 360.207031 148.179688 361.035156 147.640625 361.84375 C 147.101562 362.648438 146.527344 363.425781 145.910156 364.175781 C 145.296875 364.925781 144.644531 365.644531 143.960938 366.328125 C 143.273438 367.015625 142.558594 367.664062 141.808594 368.28125 C 141.058594 368.894531 140.28125 369.472656 139.472656 370.011719 C 138.667969 370.550781 137.835938 371.046875 136.980469 371.503906 C 136.128906 371.960938 135.25 372.375 134.355469 372.746094 C 133.460938 373.117188 132.546875 373.441406 131.621094 373.726562 C 130.691406 374.007812 129.753906 374.242188 128.800781 374.429688 C 127.851562 374.621094 126.894531 374.761719 125.929688 374.855469 C 124.964844 374.953125 123.996094 375 123.027344 375 L 73.683594 375 C 72.714844 375 71.746094 374.953125 70.78125 374.855469 C 69.816406 374.761719 68.859375 374.621094 67.910156 374.429688 C 66.957031 374.242188 66.019531 374.007812 65.089844 373.726562 C 64.164062 373.441406 63.25 373.117188 62.355469 372.746094 C 61.457031 372.375 60.582031 371.960938 59.726562 371.503906 C 58.875 371.046875 58.042969 370.550781 57.238281 370.011719 C 56.429688 369.472656 55.652344 368.894531 54.902344 368.28125 C 54.152344 367.664062 53.4375 367.015625 52.75 366.328125 C 52.066406 365.644531 51.414062 364.925781 50.800781 364.175781 C 50.183594 363.425781 49.605469 362.648438 49.066406 361.84375 C 48.53125 361.035156 48.03125 360.207031 47.574219 359.351562 C 47.117188 358.496094 46.703125 357.621094 46.332031 356.722656 C 45.960938 355.828125 45.636719 354.917969 45.355469 353.988281 C 45.074219 353.058594 44.835938 352.121094 44.648438 351.171875 C 44.457031 350.21875 44.316406 349.261719 44.222656 348.296875 C 44.125 347.332031 44.078125 346.363281 44.078125 345.394531 L 44.078125 29.605469 C 44.078125 28.636719 44.125 27.667969 44.222656 26.703125 C 44.316406 25.738281 44.457031 24.78125 44.648438 23.828125 C 44.835938 22.878906 45.074219 21.9375 45.355469 21.011719 C 45.636719 20.082031 45.960938 19.171875 46.332031 18.277344 C 46.703125 17.378906 47.117188 16.503906 47.574219 15.648438 C 48.03125 14.792969 48.53125 13.964844 49.066406 13.15625 C 49.605469 12.351562 50.183594 11.574219 50.800781 10.824219 C 51.414062 10.074219 52.066406 9.355469 52.75 8.671875 C 53.4375 7.984375 54.152344 7.335938 54.902344 6.71875 C 55.652344 6.105469 56.429688 5.527344 57.238281 4.988281 C 58.042969 4.449219 58.875 3.953125 59.726562 3.496094 C 60.582031 3.039062 61.457031 2.625 62.355469 2.253906 C 63.25 1.882812 64.164062 1.554688 65.089844 1.273438 C 66.019531 0.992188 66.957031 0.757812 67.910156 0.570312 C 68.859375 0.378906 69.816406 0.238281 70.78125 0.140625 C 71.746094 0.046875 72.714844 0 73.683594 0 Z M 73.683594 0 " fill-opacity="1" fill-rule="nonzero"/></svg>