<svg xmlns="http://www.w3.org/2000/svg" xmlns:xlink="http://www.w3.org/1999/xlink" width="500" zoomAndPan="magnify" viewBox="0 0 375 374.999991" height="500" preserveAspectRatio="xMidYMid meet" version="1.0"><defs><clipPath id="b846cd5f9f"><path d="M 18.925781 2 L 353 2 L 353 373 L 18.925781 373 Z M 18.925781 2 " clip-rule="nonzero"/></clipPath><clipPath id="52930e4beb"><path d="M 351.492188 190.050781 L 23.515625 372.445312 C 22.558594 372.976562 21.390625 372.964844 20.449219 372.410156 C 19.503906 371.855469 18.925781 370.839844 18.925781 369.746094 L 18.925781 5.246094 C 18.925781 4.152344 19.503906 3.140625 20.449219 2.585938 C 21.390625 2.03125 22.558594 2.015625 23.515625 2.550781 L 351.492188 184.945312 C 352.417969 185.460938 352.992188 186.4375 352.992188 187.496094 C 352.992188 188.558594 352.417969 189.535156 351.492188 190.050781 Z M 351.492188 190.050781 " clip-rule="nonzero"/></clipPath><clipPath id="380057d19b"><path d="M 0.925781 0 L 335 0 L 335 371 L 0.925781 371 Z M 0.925781 0 " clip-rule="nonzero"/></clipPath><clipPath id="7721fcddb9"><path d="M 333.492188 188.050781 L 5.515625 370.445312 C 4.558594 370.976562 3.390625 370.964844 2.449219 370.410156 C 1.503906 369.855469 0.925781 368.839844 0.925781 367.746094 L 0.925781 3.246094 C 0.925781 2.152344 1.503906 1.140625 2.449219 0.585938 C 3.390625 0.03125 4.558594 0.015625 5.515625 0.550781 L 333.492188 182.945312 C 334.417969 183.460938 334.992188 184.4375 334.992188 185.496094 C 334.992188 186.558594 334.417969 187.535156 333.492188 188.050781 Z M 333.492188 188.050781 " clip-rule="nonzero"/></clipPath><clipPath id="e1d554abb7"><rect x="0" width="335" y="0" height="371"/></clipPath></defs><g clip-path="url(#b846cd5f9f)"><g clip-path="url(#52930e4beb)"><g transform="matrix(1, 0, 0, 1, 18, 2)"><g clip-path="url(#e1d554abb7)"><g clip-path="url(#380057d19b)"><g clip-path="url(#7721fcddb9)"><path fill="#ffffff" d="M 0.925781 372.996094 L 0.925781 -2.347656 L 338.078125 -2.347656 L 338.078125 372.996094 Z M 0.925781 372.996094 " fill-opacity="1" fill-rule="nonzero"/></g></g></g></g></g></g></svg>