<svg xmlns="http://www.w3.org/2000/svg" xmlns:xlink="http://www.w3.org/1999/xlink" width="500" zoomAndPan="magnify" viewBox="0 0 375 374.999991" height="500" preserveAspectRatio="xMidYMid meet" version="1.0"><defs><clipPath id="6f6d856956"><path d="M 14 31 L 356 31 L 356 349 L 14 349 Z M 14 31 " clip-rule="nonzero"/></clipPath><clipPath id="eb7032fd4b"><path d="M 4.355469 296.613281 L 315.230469 16.4375 L 370.964844 78.277344 L 60.089844 358.453125 Z M 4.355469 296.613281 " clip-rule="nonzero"/></clipPath><clipPath id="917255bd9c"><path d="M 4.355469 296.613281 L 315.230469 16.4375 L 370.964844 78.277344 L 60.089844 358.453125 Z M 4.355469 296.613281 " clip-rule="nonzero"/></clipPath><clipPath id="e1818851a0"><path d="M 4.355469 296.613281 L 315.230469 16.4375 L 370.964844 78.277344 L 60.089844 358.453125 Z M 4.355469 296.613281 " clip-rule="nonzero"/></clipPath><clipPath id="5f035ff0b1"><path d="M 18 31 L 356 31 L 356 306 L 18 306 Z M 18 31 " clip-rule="nonzero"/></clipPath><clipPath id="48f7051015"><path d="M 4.355469 296.613281 L 315.230469 16.4375 L 370.964844 78.277344 L 60.089844 358.453125 Z M 4.355469 296.613281 " clip-rule="nonzero"/></clipPath><clipPath id="e206af1e8c"><path d="M 4.355469 296.613281 L 315.230469 16.4375 L 370.964844 78.277344 L 60.089844 358.453125 Z M 4.355469 296.613281 " clip-rule="nonzero"/></clipPath><clipPath id="3d09b33283"><path d="M 4.355469 296.613281 L 315.230469 16.4375 L 370.964844 78.277344 L 60.089844 358.453125 Z M 4.355469 296.613281 " clip-rule="nonzero"/></clipPath><clipPath id="8649f6d982"><path d="M 14.058594 296.910156 L 309.058594 31.042969 L 355.773438 82.875 L 60.773438 348.742188 Z M 14.058594 296.910156 " clip-rule="nonzero"/></clipPath><clipPath id="e7681fbf8a"><path d="M 14 31 L 356 31 L 356 306 L 14 306 Z M 14 31 " clip-rule="nonzero"/></clipPath><clipPath id="28fec1d263"><path d="M 4.355469 296.613281 L 315.230469 16.4375 L 370.964844 78.277344 L 60.089844 358.453125 Z M 4.355469 296.613281 " clip-rule="nonzero"/></clipPath><clipPath id="ee1b423ea4"><path d="M 4.355469 296.613281 L 315.230469 16.4375 L 370.964844 78.277344 L 60.089844 358.453125 Z M 4.355469 296.613281 " clip-rule="nonzero"/></clipPath><clipPath id="0df11f8370"><path d="M 4.355469 296.613281 L 315.230469 16.4375 L 370.964844 78.277344 L 60.089844 358.453125 Z M 4.355469 296.613281 " clip-rule="nonzero"/></clipPath><clipPath id="64c5b18f23"><path d="M 14.058594 296.910156 L 309.058594 31.042969 L 355.773438 82.875 L 60.773438 348.742188 Z M 14.058594 296.910156 " clip-rule="nonzero"/></clipPath><clipPath id="51c7b875f6"><path d="M 48 31 L 356 31 L 356 341 L 48 341 Z M 48 31 " clip-rule="nonzero"/></clipPath><clipPath id="c60a48a553"><path d="M 4.355469 296.613281 L 315.230469 16.4375 L 370.964844 78.277344 L 60.089844 358.453125 Z M 4.355469 296.613281 " clip-rule="nonzero"/></clipPath><clipPath id="b08b57dead"><path d="M 4.355469 296.613281 L 315.230469 16.4375 L 370.964844 78.277344 L 60.089844 358.453125 Z M 4.355469 296.613281 " clip-rule="nonzero"/></clipPath><clipPath id="13414f6696"><path d="M 4.355469 296.613281 L 315.230469 16.4375 L 370.964844 78.277344 L 60.089844 358.453125 Z M 4.355469 296.613281 " clip-rule="nonzero"/></clipPath><clipPath id="399b1ead17"><path d="M 14.058594 296.910156 L 309.058594 31.042969 L 355.773438 82.875 L 60.773438 348.742188 Z M 14.058594 296.910156 " clip-rule="nonzero"/></clipPath><clipPath id="f6237898f5"><path d="M 50 31 L 356 31 L 356 349 L 50 349 Z M 50 31 " clip-rule="nonzero"/></clipPath><clipPath id="1985aae7f5"><path d="M 4.355469 296.613281 L 315.230469 16.4375 L 370.964844 78.277344 L 60.089844 358.453125 Z M 4.355469 296.613281 " clip-rule="nonzero"/></clipPath><clipPath id="8cc482466b"><path d="M 4.355469 296.613281 L 315.230469 16.4375 L 370.964844 78.277344 L 60.089844 358.453125 Z M 4.355469 296.613281 " clip-rule="nonzero"/></clipPath><clipPath id="974bdccbb0"><path d="M 4.355469 296.613281 L 315.230469 16.4375 L 370.964844 78.277344 L 60.089844 358.453125 Z M 4.355469 296.613281 " clip-rule="nonzero"/></clipPath><clipPath id="59b6d55374"><path d="M 14.058594 296.910156 L 309.058594 31.042969 L 355.773438 82.875 L 60.773438 348.742188 Z M 14.058594 296.910156 " clip-rule="nonzero"/></clipPath><clipPath id="55dc756554"><path d="M 37 31 L 356 31 L 356 349 L 37 349 Z M 37 31 " clip-rule="nonzero"/></clipPath><clipPath id="d22196af8d"><path d="M 4.355469 296.613281 L 315.230469 16.4375 L 370.964844 78.277344 L 60.089844 358.453125 Z M 4.355469 296.613281 " clip-rule="nonzero"/></clipPath><clipPath id="7faecda6c5"><path d="M 4.355469 296.613281 L 315.230469 16.4375 L 370.964844 78.277344 L 60.089844 358.453125 Z M 4.355469 296.613281 " clip-rule="nonzero"/></clipPath><clipPath id="d3d760205f"><path d="M 4.355469 296.613281 L 315.230469 16.4375 L 370.964844 78.277344 L 60.089844 358.453125 Z M 4.355469 296.613281 " clip-rule="nonzero"/></clipPath><clipPath id="f591fde0d4"><path d="M 14.058594 296.910156 L 309.058594 31.042969 L 355.773438 82.875 L 60.773438 348.742188 Z M 14.058594 296.910156 " clip-rule="nonzero"/></clipPath><clipPath id="a9eafdfb13"><path d="M 14 262 L 96 262 L 96 349 L 14 349 Z M 14 262 " clip-rule="nonzero"/></clipPath><clipPath id="1a29552d05"><path d="M 4.355469 296.613281 L 315.230469 16.4375 L 370.964844 78.277344 L 60.089844 358.453125 Z M 4.355469 296.613281 " clip-rule="nonzero"/></clipPath><clipPath id="0cbd17459b"><path d="M 4.355469 296.613281 L 315.230469 16.4375 L 370.964844 78.277344 L 60.089844 358.453125 Z M 4.355469 296.613281 " clip-rule="nonzero"/></clipPath><clipPath id="c4ff395c86"><path d="M 4.355469 296.613281 L 315.230469 16.4375 L 370.964844 78.277344 L 60.089844 358.453125 Z M 4.355469 296.613281 " clip-rule="nonzero"/></clipPath><clipPath id="4bfa8c9ee4"><path d="M 14.058594 296.910156 L 309.058594 31.042969 L 355.773438 82.875 L 60.773438 348.742188 Z M 14.058594 296.910156 " clip-rule="nonzero"/></clipPath><clipPath id="4787c2f3f9"><path d="M 134 131 L 241 131 L 241 244 L 134 244 Z M 134 131 " clip-rule="nonzero"/></clipPath><clipPath id="d5abebd4ea"><path d="M 4.355469 296.613281 L 315.230469 16.4375 L 370.964844 78.277344 L 60.089844 358.453125 Z M 4.355469 296.613281 " clip-rule="nonzero"/></clipPath><clipPath id="a19a405c91"><path d="M 4.355469 296.613281 L 315.230469 16.4375 L 370.964844 78.277344 L 60.089844 358.453125 Z M 4.355469 296.613281 " clip-rule="nonzero"/></clipPath><clipPath id="58a847d784"><path d="M 4.355469 296.613281 L 315.230469 16.4375 L 370.964844 78.277344 L 60.089844 358.453125 Z M 4.355469 296.613281 " clip-rule="nonzero"/></clipPath><clipPath id="d060cd3659"><path d="M 14.058594 296.910156 L 309.058594 31.042969 L 355.773438 82.875 L 60.773438 348.742188 Z M 14.058594 296.910156 " clip-rule="nonzero"/></clipPath><clipPath id="dab9c10d06"><path d="M 280 31 L 356 31 L 356 113 L 280 113 Z M 280 31 " clip-rule="nonzero"/></clipPath><clipPath id="ab5a982c4d"><path d="M 4.355469 296.613281 L 315.230469 16.4375 L 370.964844 78.277344 L 60.089844 358.453125 Z M 4.355469 296.613281 " clip-rule="nonzero"/></clipPath><clipPath id="153119d214"><path d="M 4.355469 296.613281 L 315.230469 16.4375 L 370.964844 78.277344 L 60.089844 358.453125 Z M 4.355469 296.613281 " clip-rule="nonzero"/></clipPath><clipPath id="9e73e08f72"><path d="M 4.355469 296.613281 L 315.230469 16.4375 L 370.964844 78.277344 L 60.089844 358.453125 Z M 4.355469 296.613281 " clip-rule="nonzero"/></clipPath><clipPath id="76a5a808f9"><path d="M 14.058594 296.910156 L 309.058594 31.042969 L 355.773438 82.875 L 60.773438 348.742188 Z M 14.058594 296.910156 " clip-rule="nonzero"/></clipPath><clipPath id="0c552ecea8"><path d="M 9 284 L 75 284 L 75 353 L 9 353 Z M 9 284 " clip-rule="nonzero"/></clipPath><clipPath id="0cab2921ea"><path d="M 4.355469 296.613281 L 315.230469 16.4375 L 370.964844 78.277344 L 60.089844 358.453125 Z M 4.355469 296.613281 " clip-rule="nonzero"/></clipPath><clipPath id="0ed7419de1"><path d="M 4.355469 296.613281 L 315.230469 16.4375 L 370.964844 78.277344 L 60.089844 358.453125 Z M 4.355469 296.613281 " clip-rule="nonzero"/></clipPath><clipPath id="b1e4dddfbe"><path d="M 4.355469 296.613281 L 315.230469 16.4375 L 370.964844 78.277344 L 60.089844 358.453125 Z M 4.355469 296.613281 " clip-rule="nonzero"/></clipPath><clipPath id="cf8ff9d17f"><path d="M 13 299 L 44 299 L 44 333 L 13 333 Z M 13 299 " clip-rule="nonzero"/></clipPath><clipPath id="22429a4c0c"><path d="M 4.355469 296.613281 L 315.230469 16.4375 L 370.964844 78.277344 L 60.089844 358.453125 Z M 4.355469 296.613281 " clip-rule="nonzero"/></clipPath><clipPath id="cce322fc20"><path d="M 4.355469 296.613281 L 315.230469 16.4375 L 370.964844 78.277344 L 60.089844 358.453125 Z M 4.355469 296.613281 " clip-rule="nonzero"/></clipPath><clipPath id="c2157c12fd"><path d="M 4.355469 296.613281 L 315.230469 16.4375 L 370.964844 78.277344 L 60.089844 358.453125 Z M 4.355469 296.613281 " clip-rule="nonzero"/></clipPath><clipPath id="c47d938042"><path d="M 43 332 L 50 332 L 50 339 L 43 339 Z M 43 332 " clip-rule="nonzero"/></clipPath><clipPath id="8bb1205e58"><path d="M 4.355469 296.613281 L 315.230469 16.4375 L 370.964844 78.277344 L 60.089844 358.453125 Z M 4.355469 296.613281 " clip-rule="nonzero"/></clipPath><clipPath id="7d283f65b5"><path d="M 4.355469 296.613281 L 315.230469 16.4375 L 370.964844 78.277344 L 60.089844 358.453125 Z M 4.355469 296.613281 " clip-rule="nonzero"/></clipPath><clipPath id="529f7d26a9"><path d="M 4.355469 296.613281 L 315.230469 16.4375 L 370.964844 78.277344 L 60.089844 358.453125 Z M 4.355469 296.613281 " clip-rule="nonzero"/></clipPath><clipPath id="f1a08c0057"><path d="M 155 153 L 220 153 L 220 222 L 155 222 Z M 155 153 " clip-rule="nonzero"/></clipPath><clipPath id="fc5454b834"><path d="M 4.355469 296.613281 L 315.230469 16.4375 L 370.964844 78.277344 L 60.089844 358.453125 Z M 4.355469 296.613281 " clip-rule="nonzero"/></clipPath><clipPath id="6f7fab36ad"><path d="M 4.355469 296.613281 L 315.230469 16.4375 L 370.964844 78.277344 L 60.089844 358.453125 Z M 4.355469 296.613281 " clip-rule="nonzero"/></clipPath><clipPath id="c78b008c19"><path d="M 4.355469 296.613281 L 315.230469 16.4375 L 370.964844 78.277344 L 60.089844 358.453125 Z M 4.355469 296.613281 " clip-rule="nonzero"/></clipPath><clipPath id="4085537de0"><path d="M 158 168 L 190 168 L 190 202 L 158 202 Z M 158 168 " clip-rule="nonzero"/></clipPath><clipPath id="9b008969f6"><path d="M 4.355469 296.613281 L 315.230469 16.4375 L 370.964844 78.277344 L 60.089844 358.453125 Z M 4.355469 296.613281 " clip-rule="nonzero"/></clipPath><clipPath id="420a5c1809"><path d="M 4.355469 296.613281 L 315.230469 16.4375 L 370.964844 78.277344 L 60.089844 358.453125 Z M 4.355469 296.613281 " clip-rule="nonzero"/></clipPath><clipPath id="c2b13a145f"><path d="M 4.355469 296.613281 L 315.230469 16.4375 L 370.964844 78.277344 L 60.089844 358.453125 Z M 4.355469 296.613281 " clip-rule="nonzero"/></clipPath><clipPath id="4dd79e2de5"><path d="M 189 201 L 196 201 L 196 208 L 189 208 Z M 189 201 " clip-rule="nonzero"/></clipPath><clipPath id="460bc7aa8a"><path d="M 4.355469 296.613281 L 315.230469 16.4375 L 370.964844 78.277344 L 60.089844 358.453125 Z M 4.355469 296.613281 " clip-rule="nonzero"/></clipPath><clipPath id="9cabcc7df1"><path d="M 4.355469 296.613281 L 315.230469 16.4375 L 370.964844 78.277344 L 60.089844 358.453125 Z M 4.355469 296.613281 " clip-rule="nonzero"/></clipPath><clipPath id="1a980e297d"><path d="M 4.355469 296.613281 L 315.230469 16.4375 L 370.964844 78.277344 L 60.089844 358.453125 Z M 4.355469 296.613281 " clip-rule="nonzero"/></clipPath><clipPath id="db07f0b872"><path d="M 300 22 L 366 22 L 366 91 L 300 91 Z M 300 22 " clip-rule="nonzero"/></clipPath><clipPath id="48ac2665ec"><path d="M 4.355469 296.613281 L 315.230469 16.4375 L 370.964844 78.277344 L 60.089844 358.453125 Z M 4.355469 296.613281 " clip-rule="nonzero"/></clipPath><clipPath id="25851b7e9b"><path d="M 4.355469 296.613281 L 315.230469 16.4375 L 370.964844 78.277344 L 60.089844 358.453125 Z M 4.355469 296.613281 " clip-rule="nonzero"/></clipPath><clipPath id="c446cb8e97"><path d="M 4.355469 296.613281 L 315.230469 16.4375 L 370.964844 78.277344 L 60.089844 358.453125 Z M 4.355469 296.613281 " clip-rule="nonzero"/></clipPath><clipPath id="205ab14124"><path d="M 304 36 L 335 36 L 335 71 L 304 71 Z M 304 36 " clip-rule="nonzero"/></clipPath><clipPath id="6a1b991a34"><path d="M 4.355469 296.613281 L 315.230469 16.4375 L 370.964844 78.277344 L 60.089844 358.453125 Z M 4.355469 296.613281 " clip-rule="nonzero"/></clipPath><clipPath id="eef818a43e"><path d="M 4.355469 296.613281 L 315.230469 16.4375 L 370.964844 78.277344 L 60.089844 358.453125 Z M 4.355469 296.613281 " clip-rule="nonzero"/></clipPath><clipPath id="5c9d34d3dd"><path d="M 4.355469 296.613281 L 315.230469 16.4375 L 370.964844 78.277344 L 60.089844 358.453125 Z M 4.355469 296.613281 " clip-rule="nonzero"/></clipPath><clipPath id="a938cc2424"><path d="M 334 70 L 341 70 L 341 77 L 334 77 Z M 334 70 " clip-rule="nonzero"/></clipPath><clipPath id="40755dffe4"><path d="M 4.355469 296.613281 L 315.230469 16.4375 L 370.964844 78.277344 L 60.089844 358.453125 Z M 4.355469 296.613281 " clip-rule="nonzero"/></clipPath><clipPath id="87435cf806"><path d="M 4.355469 296.613281 L 315.230469 16.4375 L 370.964844 78.277344 L 60.089844 358.453125 Z M 4.355469 296.613281 " clip-rule="nonzero"/></clipPath><clipPath id="b4ad16910a"><path d="M 4.355469 296.613281 L 315.230469 16.4375 L 370.964844 78.277344 L 60.089844 358.453125 Z M 4.355469 296.613281 " clip-rule="nonzero"/></clipPath></defs><g clip-path="url(#6f6d856956)"><g clip-path="url(#eb7032fd4b)"><g clip-path="url(#917255bd9c)"><g clip-path="url(#e1818851a0)"><path fill="#bdbdbd" d="M 14.058594 296.910156 L 309.058594 31.042969 L 355.773438 82.875 L 60.773438 348.742188 Z M 14.058594 296.910156 " fill-opacity="1" fill-rule="evenodd"/></g></g></g></g><g clip-path="url(#5f035ff0b1)"><g clip-path="url(#48f7051015)"><g clip-path="url(#e206af1e8c)"><g clip-path="url(#3d09b33283)"><g clip-path="url(#8649f6d982)"><path fill="#ffffff" d="M 18.007812 301.292969 L 464.347656 -100.972656 L 468.296875 -96.589844 L 21.957031 305.671875 Z M 18.007812 301.292969 " fill-opacity="0.34" fill-rule="evenodd"/></g></g></g></g></g><g clip-path="url(#e7681fbf8a)"><g clip-path="url(#28fec1d263)"><g clip-path="url(#ee1b423ea4)"><g clip-path="url(#0df11f8370)"><g clip-path="url(#64c5b18f23)"><path fill="#ffffff" d="M 14.058594 296.910156 L 460.402344 -105.351562 L 468.296875 -96.589844 L 21.957031 305.671875 Z M 14.058594 296.910156 " fill-opacity="0.05" fill-rule="evenodd"/></g></g></g></g></g><g clip-path="url(#51c7b875f6)"><g clip-path="url(#c60a48a553)"><g clip-path="url(#b08b57dead)"><g clip-path="url(#13414f6696)"><g clip-path="url(#399b1ead17)"><path fill="#000000" d="M 48.175781 334.765625 L 494.519531 -67.5 L 500.03125 -61.382812 L 53.6875 340.882812 Z M 48.175781 334.765625 " fill-opacity="0.06" fill-rule="evenodd"/></g></g></g></g></g><g clip-path="url(#f6237898f5)"><g clip-path="url(#1985aae7f5)"><g clip-path="url(#8cc482466b)"><g clip-path="url(#974bdccbb0)"><g clip-path="url(#59b6d55374)"><path fill="#000000" d="M 50.933594 337.824219 L 497.273438 -64.441406 L 509.84375 -50.492188 L 63.5 351.773438 Z M 50.933594 337.824219 " fill-opacity="0.06" fill-rule="evenodd"/></g></g></g></g></g><g clip-path="url(#55dc756554)"><g clip-path="url(#d22196af8d)"><g clip-path="url(#7faecda6c5)"><g clip-path="url(#d3d760205f)"><g clip-path="url(#f591fde0d4)"><path fill="#000000" d="M 37.414062 322.828125 L 483.757812 -79.4375 L 509.84375 -50.492188 L 63.503906 351.773438 Z M 37.414062 322.828125 " fill-opacity="0.06" fill-rule="evenodd"/></g></g></g></g></g><g clip-path="url(#a9eafdfb13)"><g clip-path="url(#1a29552d05)"><g clip-path="url(#0cbd17459b)"><g clip-path="url(#c4ff395c86)"><g clip-path="url(#4bfa8c9ee4)"><path fill="#000000" d="M -10.660156 284.558594 L 14.046875 262.292969 L 95.203125 352.34375 L 70.5 374.609375 Z M -10.660156 284.558594 " fill-opacity="0.17" fill-rule="evenodd"/></g></g></g></g></g><g clip-path="url(#4787c2f3f9)"><g clip-path="url(#d5abebd4ea)"><g clip-path="url(#a19a405c91)"><g clip-path="url(#58a847d784)"><g clip-path="url(#d060cd3659)"><path fill="#000000" d="M 134.769531 153.492188 L 159.472656 131.226562 L 240.632812 221.277344 L 215.925781 243.542969 Z M 134.769531 153.492188 " fill-opacity="0.17" fill-rule="evenodd"/></g></g></g></g></g><g clip-path="url(#dab9c10d06)"><g clip-path="url(#ab5a982c4d)"><g clip-path="url(#153119d214)"><g clip-path="url(#9e73e08f72)"><g clip-path="url(#76a5a808f9)"><path fill="#000000" d="M 280.195312 22.425781 L 304.898438 0.160156 L 386.058594 90.210938 L 361.351562 112.476562 Z M 280.195312 22.425781 " fill-opacity="0.17" fill-rule="evenodd"/></g></g></g></g></g><g clip-path="url(#0c552ecea8)"><g clip-path="url(#0cab2921ea)"><g clip-path="url(#0ed7419de1)"><g clip-path="url(#b1e4dddfbe)"><path fill="#818181" d="M 33.421875 288.597656 C 28.429688 283.0625 19.890625 282.613281 14.363281 287.597656 C 8.832031 292.582031 8.390625 301.125 13.378906 306.660156 L 51.003906 348.40625 C 55.996094 353.945312 64.535156 354.390625 70.066406 349.40625 C 75.597656 344.421875 76.035156 335.882812 71.046875 330.347656 Z M 33.421875 288.597656 " fill-opacity="1" fill-rule="evenodd"/></g></g></g></g><g clip-path="url(#cf8ff9d17f)"><g clip-path="url(#22429a4c0c)"><g clip-path="url(#cce322fc20)"><g clip-path="url(#c2157c12fd)"><path fill="#ffffff" d="M 13.8125 301.71875 C 13.230469 301.078125 13.273438 300.089844 13.914062 299.507812 C 14.550781 298.929688 15.539062 298.972656 16.121094 299.613281 L 43.488281 329.636719 C 44.070312 330.273438 44.023438 331.265625 43.386719 331.84375 C 42.75 332.425781 41.761719 332.378906 41.179688 331.742188 Z M 13.8125 301.71875 " fill-opacity="0.58" fill-rule="evenodd"/></g></g></g></g><g clip-path="url(#c47d938042)"><g clip-path="url(#8bb1205e58)"><g clip-path="url(#7d283f65b5)"><g clip-path="url(#529f7d26a9)"><path fill="#ffffff" d="M 44.332031 335.273438 C 43.75 334.636719 43.796875 333.648438 44.433594 333.066406 C 45.070312 332.484375 46.058594 332.53125 46.640625 333.167969 L 49.386719 336.179688 C 49.96875 336.820312 49.921875 337.808594 49.285156 338.390625 C 48.648438 338.96875 47.660156 338.925781 47.078125 338.285156 Z M 44.332031 335.273438 " fill-opacity="0.58" fill-rule="evenodd"/></g></g></g></g><g clip-path="url(#f1a08c0057)"><g clip-path="url(#fc5454b834)"><g clip-path="url(#6f7fab36ad)"><g clip-path="url(#c78b008c19)"><path fill="#818181" d="M 178.847656 157.53125 C 173.859375 151.996094 165.320312 151.546875 159.789062 156.53125 C 154.257812 161.515625 153.816406 170.058594 158.808594 175.59375 L 196.433594 217.34375 C 201.421875 222.878906 209.960938 223.324219 215.492188 218.339844 C 221.023438 213.355469 221.460938 204.816406 216.472656 199.28125 Z M 178.847656 157.53125 " fill-opacity="1" fill-rule="evenodd"/></g></g></g></g><g clip-path="url(#4085537de0)"><g clip-path="url(#9b008969f6)"><g clip-path="url(#420a5c1809)"><g clip-path="url(#c2b13a145f)"><path fill="#ffffff" d="M 159.238281 170.652344 C 158.65625 170.015625 158.703125 169.023438 159.339844 168.441406 C 159.976562 167.863281 160.96875 167.90625 161.546875 168.546875 L 188.914062 198.570312 C 189.496094 199.207031 189.453125 200.199219 188.8125 200.777344 C 188.175781 201.359375 187.1875 201.3125 186.605469 200.675781 Z M 159.238281 170.652344 " fill-opacity="0.58" fill-rule="evenodd"/></g></g></g></g><g clip-path="url(#4dd79e2de5)"><g clip-path="url(#460bc7aa8a)"><g clip-path="url(#9cabcc7df1)"><g clip-path="url(#1a980e297d)"><path fill="#ffffff" d="M 189.757812 204.207031 C 189.175781 203.570312 189.222656 202.582031 189.859375 202 C 190.496094 201.417969 191.488281 201.464844 192.070312 202.101562 L 194.8125 205.113281 C 195.394531 205.753906 195.351562 206.742188 194.710938 207.324219 C 194.074219 207.90625 193.085938 207.859375 192.503906 207.21875 Z M 189.757812 204.207031 " fill-opacity="0.58" fill-rule="evenodd"/></g></g></g></g><g clip-path="url(#db07f0b872)"><g clip-path="url(#48ac2665ec)"><g clip-path="url(#25851b7e9b)"><g clip-path="url(#c446cb8e97)"><path fill="#818181" d="M 324.273438 26.464844 C 319.285156 20.929688 310.746094 20.484375 305.214844 25.46875 C 299.683594 30.453125 299.246094 38.992188 304.234375 44.527344 L 341.859375 86.277344 C 346.847656 91.8125 355.390625 92.261719 360.921875 87.273438 C 366.449219 82.292969 366.890625 73.75 361.902344 68.214844 Z M 324.273438 26.464844 " fill-opacity="1" fill-rule="evenodd"/></g></g></g></g><g clip-path="url(#205ab14124)"><g clip-path="url(#6a1b991a34)"><g clip-path="url(#eef818a43e)"><g clip-path="url(#5c9d34d3dd)"><path fill="#ffffff" d="M 304.664062 39.585938 C 304.085938 38.949219 304.128906 37.957031 304.765625 37.378906 C 305.40625 36.796875 306.394531 36.84375 306.976562 37.480469 L 334.34375 67.503906 C 334.925781 68.144531 334.878906 69.132812 334.242188 69.714844 C 333.605469 70.292969 332.613281 70.246094 332.03125 69.609375 Z M 304.664062 39.585938 " fill-opacity="0.58" fill-rule="evenodd"/></g></g></g></g><g clip-path="url(#a938cc2424)"><g clip-path="url(#40755dffe4)"><g clip-path="url(#87435cf806)"><g clip-path="url(#b4ad16910a)"><path fill="#ffffff" d="M 335.1875 73.144531 C 334.605469 72.503906 334.648438 71.515625 335.289062 70.933594 C 335.925781 70.351562 336.914062 70.398438 337.496094 71.039062 L 340.242188 74.050781 C 340.824219 74.6875 340.777344 75.675781 340.140625 76.257812 C 339.503906 76.839844 338.511719 76.792969 337.929688 76.15625 Z M 335.1875 73.144531 " fill-opacity="0.58" fill-rule="evenodd"/></g></g></g></g></svg>