<svg xmlns="http://www.w3.org/2000/svg" xmlns:xlink="http://www.w3.org/1999/xlink" width="500" zoomAndPan="magnify" viewBox="0 0 375 374.999991" height="500" preserveAspectRatio="xMidYMid meet" version="1.0"><defs><clipPath id="7cfdd71ab5"><path d="M 13.472656 0 L 361.472656 0 L 361.472656 348 L 13.472656 348 Z M 13.472656 0 " clip-rule="nonzero"/></clipPath></defs><g clip-path="url(#7cfdd71ab5)"><path fill="#818181" d="M 187.496094 245.796875 C 147.855469 245.796875 115.722656 213.664062 115.722656 174.023438 C 115.722656 134.382812 147.855469 102.25 187.496094 102.25 C 227.136719 102.25 259.269531 134.382812 259.269531 174.023438 C 259.269531 213.664062 227.136719 245.796875 187.496094 245.796875 Z M 352.125 140.46875 L 319.992188 136.664062 C 317.089844 126.339844 312.96875 116.289062 307.613281 106.742188 L 327.632812 81.34375 C 330.976562 77.105469 330.617188 71.035156 326.800781 67.226562 L 294.296875 34.71875 C 290.484375 30.902344 284.414062 30.542969 280.175781 33.886719 L 254.777344 53.90625 C 245.230469 48.550781 235.179688 44.433594 224.859375 41.53125 L 221.054688 9.394531 C 220.417969 4.035156 215.878906 0 210.480469 0 L 164.511719 0 C 159.117188 0 154.574219 4.035156 153.941406 9.394531 L 150.136719 41.53125 C 139.8125 44.433594 129.761719 48.550781 120.214844 53.90625 L 94.8125 33.886719 C 90.578125 30.542969 84.511719 30.902344 80.695312 34.71875 L 48.191406 67.226562 C 44.375 71.035156 44.015625 77.105469 47.359375 81.34375 L 67.378906 106.742188 C 62.023438 116.289062 57.902344 126.339844 55.003906 136.664062 L 22.867188 140.46875 C 17.507812 141.101562 13.472656 145.644531 13.472656 151.039062 L 13.472656 197.007812 C 13.472656 202.402344 17.507812 206.945312 22.867188 207.582031 L 55.003906 211.382812 C 57.902344 221.703125 62.023438 231.757812 67.378906 241.304688 L 47.359375 266.703125 C 44.015625 270.941406 44.375 277.011719 48.191406 280.820312 L 80.695312 313.328125 C 84.511719 317.144531 90.578125 317.503906 94.8125 314.160156 L 120.214844 294.140625 C 129.761719 299.496094 139.8125 303.613281 150.136719 306.515625 L 153.941406 338.648438 C 154.574219 344.011719 159.117188 348.046875 164.511719 348.046875 L 209.71875 348.046875 C 215.019531 348.046875 219.511719 344.148438 220.257812 338.898438 L 224.859375 306.515625 C 235.179688 303.613281 245.230469 299.496094 254.777344 294.140625 L 280.175781 314.160156 C 284.414062 317.503906 290.484375 317.144531 294.296875 313.328125 L 326.800781 280.820312 C 330.617188 277.011719 330.976562 270.941406 327.632812 266.703125 L 307.613281 241.304688 C 312.96875 231.757812 317.089844 221.703125 319.992188 211.382812 L 352.125 207.582031 C 357.484375 206.945312 361.519531 202.402344 361.519531 197.007812 L 361.519531 151.039062 C 361.519531 145.644531 357.484375 141.101562 352.125 140.46875 " fill-opacity="1" fill-rule="nonzero"/></g></svg>