<svg xmlns="http://www.w3.org/2000/svg" xmlns:xlink="http://www.w3.org/1999/xlink" width="500" zoomAndPan="magnify" viewBox="0 0 375 374.999991" height="500" preserveAspectRatio="xMidYMid meet" version="1.0"><defs><clipPath id="36e617fd11"><path d="M 141 274 L 193 274 L 193 364.5 L 141 364.5 Z M 141 274 " clip-rule="nonzero"/></clipPath></defs><path fill="#26477a" d="M 327.050781 128.078125 L 325.5625 128.078125 C 327.34375 122.367188 328.222656 116.519531 328.191406 110.535156 C 328.191406 107.714844 327.996094 104.90625 327.597656 102.117188 C 327.203125 99.324219 326.609375 96.574219 325.824219 93.867188 C 325.039062 91.15625 324.066406 88.519531 322.90625 85.949219 C 321.746094 83.378906 320.410156 80.902344 318.898438 78.523438 C 317.390625 76.140625 315.71875 73.878906 313.886719 71.738281 C 312.054688 69.59375 310.082031 67.589844 307.964844 65.726562 C 305.851562 63.863281 303.617188 62.160156 301.257812 60.613281 C 298.902344 59.066406 296.449219 57.695312 293.894531 56.496094 C 291.34375 55.300781 288.722656 54.289062 286.027344 53.464844 C 283.332031 52.636719 280.59375 52.007812 277.808594 51.570312 C 275.027344 51.132812 272.226562 50.894531 269.40625 50.855469 C 266.589844 50.816406 263.785156 50.976562 260.988281 51.335938 C 258.195312 51.695312 255.4375 52.25 252.722656 53.003906 C 250.003906 53.753906 247.355469 54.691406 244.773438 55.816406 C 242.1875 56.945312 239.699219 58.246094 237.300781 59.726562 C 234.902344 61.207031 232.617188 62.851562 230.453125 64.652344 C 229.953125 62.347656 229.347656 60.070312 228.640625 57.820312 C 227.933594 55.570312 227.121094 53.355469 226.210938 51.179688 C 225.300781 49.003906 224.289062 46.875 223.183594 44.789062 C 222.078125 42.707031 220.878906 40.679688 219.585938 38.707031 C 218.292969 36.730469 216.914062 34.820312 215.449219 32.976562 C 213.980469 31.128906 212.433594 29.351562 210.800781 27.648438 C 209.171875 25.941406 207.46875 24.316406 205.6875 22.765625 C 203.910156 21.21875 202.066406 19.753906 200.152344 18.375 C 198.238281 16.996094 196.265625 15.707031 194.234375 14.511719 C 192.203125 13.3125 190.125 12.210938 187.992188 11.203125 C 185.859375 10.195312 183.683594 9.289062 181.46875 8.480469 C 179.253906 7.671875 177.007812 6.96875 174.726562 6.367188 C 172.449219 5.765625 170.144531 5.269531 167.820312 4.878906 C 165.496094 4.488281 163.15625 4.207031 160.804688 4.03125 C 158.457031 3.855469 156.101562 3.789062 153.742188 3.828125 C 151.386719 3.871094 149.035156 4.019531 146.691406 4.273438 C 144.347656 4.53125 142.023438 4.894531 139.710938 5.363281 C 137.402344 5.832031 135.117188 6.40625 132.859375 7.085938 C 130.601562 7.765625 128.378906 8.546875 126.191406 9.429688 C 124.007812 10.3125 121.867188 11.292969 119.769531 12.375 C 117.671875 13.453125 115.628906 14.625 113.640625 15.894531 C 111.652344 17.160156 109.726562 18.515625 107.863281 19.960938 C 105.996094 21.402344 104.203125 22.929688 102.476562 24.539062 C 100.753906 26.148438 99.105469 27.832031 97.535156 29.589844 C 95.964844 31.351562 94.476562 33.179688 93.074219 35.074219 C 91.671875 36.96875 90.359375 38.925781 89.132812 40.941406 C 87.910156 42.960938 86.78125 45.027344 85.746094 47.148438 C 84.710938 49.269531 83.777344 51.433594 82.941406 53.636719 C 82.105469 55.84375 81.371094 58.082031 80.742188 60.355469 C 80.109375 62.628906 79.585938 64.929688 79.164062 67.25 C 78.742188 69.570312 78.429688 71.90625 78.222656 74.257812 C 78.015625 76.609375 77.917969 78.960938 77.929688 81.320312 C 77.933594 86.285156 78.429688 91.195312 79.417969 96.058594 C 76.21875 95.605469 73.003906 95.371094 69.777344 95.359375 C 68.007812 95.351562 66.242188 95.417969 64.476562 95.558594 C 62.714844 95.699219 60.960938 95.914062 59.214844 96.199219 C 57.46875 96.484375 55.738281 96.839844 54.023438 97.269531 C 52.304688 97.699219 50.609375 98.195312 48.9375 98.765625 C 47.261719 99.335938 45.613281 99.972656 43.988281 100.675781 C 42.367188 101.378906 40.777344 102.152344 39.21875 102.988281 C 37.660156 103.824219 36.136719 104.722656 34.652344 105.683594 C 33.167969 106.648438 31.726562 107.667969 30.324219 108.75 C 28.925781 109.832031 27.570312 110.96875 26.265625 112.160156 C 24.957031 113.355469 23.703125 114.601562 22.5 115.898438 C 21.296875 117.195312 20.148438 118.539062 19.054688 119.929688 C 17.960938 121.320312 16.929688 122.757812 15.953125 124.234375 C 14.980469 125.710938 14.066406 127.226562 13.21875 128.777344 C 12.367188 130.332031 11.585938 131.914062 10.867188 133.535156 C 10.148438 135.152344 9.496094 136.796875 8.914062 138.464844 C 8.332031 140.136719 7.816406 141.828125 7.375 143.542969 C 6.929688 145.257812 6.558594 146.984375 6.257812 148.730469 C 5.957031 150.472656 5.730469 152.226562 5.574219 153.992188 C 5.417969 155.753906 5.335938 157.519531 5.324219 159.292969 C 5.3125 161.0625 5.375 162.828125 5.511719 164.59375 C 5.648438 166.359375 5.855469 168.113281 6.136719 169.863281 C 6.417969 171.609375 6.769531 173.34375 7.191406 175.0625 C 7.617188 176.78125 8.109375 178.476562 8.675781 180.15625 C 9.238281 181.832031 9.871094 183.484375 10.570312 185.109375 C 11.269531 186.738281 12.035156 188.332031 12.867188 189.894531 C 13.699219 191.453125 14.59375 192.980469 15.550781 194.46875 C 16.507812 195.957031 17.523438 197.402344 18.601562 198.808594 C 19.679688 200.210938 20.8125 201.570312 22 202.878906 C 23.1875 204.191406 24.429688 205.449219 25.722656 206.65625 C 27.015625 207.867188 28.355469 209.019531 29.742188 210.117188 C 31.132812 211.214844 32.5625 212.25 34.035156 213.230469 C 35.507812 214.210938 37.019531 215.125 38.570312 215.980469 C 42.5 218.613281 46.726562 220.617188 51.25 221.992188 C 55.773438 223.367188 60.402344 224.054688 65.128906 224.050781 L 327.050781 224.050781 C 328.621094 224.046875 330.1875 223.96875 331.75 223.8125 C 333.308594 223.65625 334.859375 223.421875 336.398438 223.113281 C 337.9375 222.804688 339.457031 222.421875 340.960938 221.964844 C 342.460938 221.507812 343.9375 220.976562 345.386719 220.375 C 346.835938 219.773438 348.253906 219.101562 349.636719 218.359375 C 351.019531 217.617188 352.363281 216.8125 353.667969 215.9375 C 354.972656 215.0625 356.234375 214.128906 357.445312 213.132812 C 358.660156 212.136719 359.820312 211.082031 360.929688 209.972656 C 362.039062 208.859375 363.09375 207.699219 364.089844 206.484375 C 365.085938 205.269531 366.019531 204.011719 366.890625 202.703125 C 367.765625 201.398438 368.570312 200.054688 369.3125 198.667969 C 370.054688 197.285156 370.726562 195.867188 371.328125 194.414062 C 371.929688 192.964844 372.457031 191.488281 372.914062 189.984375 C 373.375 188.484375 373.757812 186.960938 374.0625 185.421875 C 374.371094 183.878906 374.605469 182.328125 374.761719 180.765625 C 374.917969 179.203125 374.996094 177.636719 375 176.066406 C 374.996094 174.496094 374.910156 172.929688 374.753906 171.367188 C 374.59375 169.804688 374.359375 168.253906 374.050781 166.714844 C 373.738281 165.175781 373.355469 163.65625 372.894531 162.15625 C 372.4375 160.652344 371.90625 159.179688 371.304688 157.730469 C 370.699219 156.28125 370.027344 154.863281 369.285156 153.480469 C 368.546875 152.097656 367.738281 150.75 366.867188 149.445312 C 365.992188 148.140625 365.058594 146.882812 364.0625 145.671875 C 363.066406 144.457031 362.015625 143.296875 360.90625 142.183594 C 359.796875 141.074219 358.636719 140.023438 357.421875 139.023438 C 356.210938 138.027344 354.953125 137.09375 353.648438 136.21875 C 352.34375 135.347656 351.003906 134.539062 349.621094 133.796875 C 348.238281 133.054688 346.820312 132.382812 345.375 131.777344 C 343.925781 131.175781 342.449219 130.644531 340.949219 130.183594 C 339.449219 129.726562 337.929688 129.339844 336.394531 129.03125 C 334.855469 128.71875 333.304688 128.484375 331.746094 128.328125 C 330.183594 128.167969 328.621094 128.085938 327.050781 128.078125 Z M 327.050781 128.078125 " fill-opacity="1" fill-rule="nonzero"/><path fill="#ffb544" d="M 117.375 165.539062 L 161.464844 165.539062 L 117.375 224.402344 L 154.101562 224.402344 L 73.28125 320.023438 L 102.648438 246.421875 L 73.28125 246.421875 Z M 117.375 165.539062 " fill-opacity="1" fill-rule="nonzero"/><path fill="#ffb544" d="M 267.355469 224.050781 L 304.785156 224.050781 L 267.355469 273.96875 L 298.5625 273.96875 L 229.925781 355.113281 L 254.910156 292.652344 L 229.925781 292.652344 Z M 267.355469 224.050781 " fill-opacity="1" fill-rule="nonzero"/><g clip-path="url(#36e617fd11)"><path fill="#ffb544" d="M 166.8125 274.316406 L 192.496094 274.316406 L 166.8125 308.707031 L 188.203125 308.707031 L 141.042969 364.5 L 158.222656 321.515625 L 141.042969 321.515625 Z M 166.8125 274.316406 " fill-opacity="1" fill-rule="nonzero"/></g></svg>