<svg xmlns="http://www.w3.org/2000/svg" xmlns:xlink="http://www.w3.org/1999/xlink" width="500" zoomAndPan="magnify" viewBox="0 0 375 374.999991" height="500" preserveAspectRatio="xMidYMid meet" version="1.0"><defs><clipPath id="cd2546512a"><path d="M 0 3.046875 L 375 3.046875 L 375 372 L 0 372 Z M 0 3.046875 " clip-rule="nonzero"/></clipPath></defs><path fill="#f6c129" d="M 284.832031 187.5 C 284.832031 189.066406 284.792969 190.636719 284.714844 192.203125 C 284.636719 193.765625 284.519531 195.332031 284.363281 196.890625 C 284.207031 198.453125 284.011719 200.007812 283.777344 201.558594 C 283.542969 203.109375 283.269531 204.65625 282.960938 206.191406 C 282.648438 207.730469 282.300781 209.261719 281.914062 210.78125 C 281.527344 212.300781 281.101562 213.8125 280.640625 215.3125 C 280.175781 216.8125 279.675781 218.300781 279.140625 219.777344 C 278.605469 221.253906 278.03125 222.71875 277.421875 224.167969 C 276.8125 225.617188 276.167969 227.046875 275.484375 228.464844 C 274.804688 229.882812 274.089844 231.285156 273.339844 232.667969 C 272.585938 234.050781 271.800781 235.414062 270.984375 236.757812 C 270.164062 238.101562 269.3125 239.429688 268.425781 240.730469 C 267.542969 242.035156 266.625 243.316406 265.675781 244.578125 C 264.726562 245.835938 263.75 247.070312 262.738281 248.285156 C 261.726562 249.496094 260.6875 250.683594 259.617188 251.84375 C 258.546875 253.007812 257.449219 254.140625 256.324219 255.25 C 255.195312 256.359375 254.042969 257.441406 252.863281 258.492188 C 251.683594 259.546875 250.476562 260.570312 249.246094 261.566406 C 248.015625 262.558594 246.757812 263.523438 245.480469 264.457031 C 244.199219 265.394531 242.898438 266.296875 241.574219 267.167969 C 240.25 268.039062 238.902344 268.875 237.539062 269.683594 C 236.171875 270.488281 234.785156 271.261719 233.382812 272 C 231.976562 272.738281 230.554688 273.445312 229.113281 274.117188 C 227.675781 274.785156 226.21875 275.421875 224.746094 276.019531 C 223.273438 276.621094 221.789062 277.183594 220.289062 277.714844 C 218.789062 278.242188 217.277344 278.734375 215.753906 279.1875 C 214.230469 279.644531 212.695312 280.0625 211.148438 280.441406 C 209.605469 280.824219 208.050781 281.167969 206.488281 281.472656 C 204.925781 281.78125 203.355469 282.046875 201.78125 282.277344 C 200.207031 282.507812 198.625 282.699219 197.039062 282.851562 C 195.453125 283.007812 193.867188 283.121094 192.277344 283.199219 C 190.683594 283.277344 189.09375 283.316406 187.5 283.316406 C 185.90625 283.316406 184.316406 283.277344 182.722656 283.199219 C 181.132812 283.121094 179.546875 283.007812 177.960938 282.851562 C 176.375 282.699219 174.792969 282.507812 173.21875 282.277344 C 171.644531 282.046875 170.074219 281.78125 168.511719 281.472656 C 166.949219 281.167969 165.394531 280.824219 163.851562 280.441406 C 162.304688 280.0625 160.769531 279.644531 159.246094 279.1875 C 157.722656 278.734375 156.210938 278.242188 154.710938 277.714844 C 153.210938 277.183594 151.726562 276.621094 150.253906 276.019531 C 148.78125 275.421875 147.324219 274.785156 145.886719 274.117188 C 144.445312 273.445312 143.023438 272.738281 141.617188 272 C 140.214844 271.261719 138.828125 270.488281 137.460938 269.683594 C 136.097656 268.875 134.75 268.039062 133.425781 267.167969 C 132.101562 266.296875 130.800781 265.394531 129.519531 264.457031 C 128.242188 263.523438 126.984375 262.558594 125.753906 261.566406 C 124.523438 260.570312 123.316406 259.546875 122.136719 258.492188 C 120.957031 257.441406 119.804688 256.359375 118.675781 255.25 C 117.550781 254.140625 116.453125 253.007812 115.382812 251.84375 C 114.3125 250.683594 113.273438 249.496094 112.261719 248.285156 C 111.25 247.070312 110.273438 245.835938 109.324219 244.578125 C 108.375 243.316406 107.457031 242.035156 106.574219 240.730469 C 105.6875 239.429688 104.835938 238.101562 104.015625 236.757812 C 103.199219 235.414062 102.414062 234.050781 101.660156 232.667969 C 100.910156 231.285156 100.195312 229.882812 99.515625 228.464844 C 98.832031 227.046875 98.1875 225.617188 97.578125 224.167969 C 96.96875 222.71875 96.394531 221.253906 95.859375 219.777344 C 95.324219 218.300781 94.824219 216.8125 94.359375 215.3125 C 93.898438 213.8125 93.472656 212.300781 93.085938 210.78125 C 92.699219 209.261719 92.351562 207.730469 92.039062 206.191406 C 91.730469 204.65625 91.457031 203.109375 91.222656 201.558594 C 90.988281 200.007812 90.792969 198.453125 90.636719 196.890625 C 90.480469 195.332031 90.363281 193.765625 90.285156 192.203125 C 90.207031 190.636719 90.167969 189.066406 90.167969 187.5 C 90.167969 185.933594 90.207031 184.363281 90.285156 182.796875 C 90.363281 181.230469 90.480469 179.667969 90.636719 178.109375 C 90.792969 176.546875 90.988281 174.992188 91.222656 173.441406 C 91.457031 171.890625 91.730469 170.34375 92.039062 168.808594 C 92.351562 167.269531 92.699219 165.738281 93.085938 164.21875 C 93.472656 162.699219 93.898438 161.1875 94.359375 159.6875 C 94.824219 158.1875 95.324219 156.699219 95.859375 155.222656 C 96.394531 153.746094 96.96875 152.28125 97.578125 150.832031 C 98.1875 149.382812 98.832031 147.953125 99.515625 146.535156 C 100.195312 145.117188 100.910156 143.714844 101.660156 142.332031 C 102.414062 140.949219 103.199219 139.585938 104.015625 138.242188 C 104.835938 136.894531 105.6875 135.570312 106.574219 134.269531 C 107.457031 132.964844 108.375 131.683594 109.324219 130.421875 C 110.273438 129.164062 111.25 127.929688 112.261719 126.714844 C 113.273438 125.503906 114.3125 124.316406 115.382812 123.15625 C 116.453125 121.992188 117.550781 120.859375 118.675781 119.75 C 119.804688 118.640625 120.957031 117.558594 122.136719 116.507812 C 123.316406 115.453125 124.523438 114.429688 125.753906 113.433594 C 126.984375 112.441406 128.242188 111.476562 129.519531 110.539062 C 130.800781 109.605469 132.101562 108.703125 133.425781 107.832031 C 134.75 106.960938 136.097656 106.125 137.460938 105.316406 C 138.828125 104.511719 140.214844 103.738281 141.617188 103 C 143.023438 102.261719 144.445312 101.554688 145.886719 100.882812 C 147.324219 100.214844 148.78125 99.578125 150.253906 98.980469 C 151.726562 98.378906 153.210938 97.816406 154.710938 97.285156 C 156.210938 96.757812 157.722656 96.265625 159.246094 95.8125 C 160.769531 95.355469 162.304688 94.9375 163.851562 94.558594 C 165.394531 94.175781 166.949219 93.832031 168.511719 93.527344 C 170.074219 93.21875 171.644531 92.953125 173.21875 92.722656 C 174.792969 92.492188 176.375 92.300781 177.960938 92.148438 C 179.546875 91.992188 181.132812 91.878906 182.722656 91.800781 C 184.316406 91.722656 185.90625 91.683594 187.5 91.683594 C 189.09375 91.683594 190.683594 91.722656 192.277344 91.800781 C 193.867188 91.878906 195.453125 91.992188 197.039062 92.148438 C 198.625 92.300781 200.207031 92.492188 201.78125 92.722656 C 203.355469 92.953125 204.925781 93.21875 206.488281 93.527344 C 208.050781 93.832031 209.605469 94.175781 211.148438 94.558594 C 212.695312 94.9375 214.230469 95.355469 215.753906 95.8125 C 217.277344 96.265625 218.789062 96.757812 220.289062 97.285156 C 221.789062 97.816406 223.273438 98.378906 224.746094 98.980469 C 226.21875 99.578125 227.675781 100.214844 229.113281 100.882812 C 230.554688 101.554688 231.976562 102.261719 233.382812 103 C 234.785156 103.738281 236.171875 104.511719 237.539062 105.316406 C 238.902344 106.125 240.25 106.960938 241.574219 107.832031 C 242.898438 108.703125 244.199219 109.605469 245.480469 110.539062 C 246.757812 111.476562 248.015625 112.441406 249.246094 113.433594 C 250.476562 114.429688 251.683594 115.453125 252.863281 116.507812 C 254.042969 117.558594 255.195312 118.640625 256.324219 119.75 C 257.449219 120.859375 258.546875 121.992188 259.617188 123.15625 C 260.6875 124.316406 261.726562 125.503906 262.738281 126.714844 C 263.75 127.929688 264.726562 129.164062 265.675781 130.421875 C 266.625 131.683594 267.542969 132.964844 268.425781 134.269531 C 269.3125 135.570312 270.164062 136.894531 270.984375 138.242188 C 271.800781 139.585938 272.585938 140.949219 273.339844 142.332031 C 274.089844 143.714844 274.804688 145.117188 275.484375 146.535156 C 276.167969 147.953125 276.8125 149.382812 277.421875 150.832031 C 278.03125 152.28125 278.605469 153.746094 279.140625 155.222656 C 279.675781 156.699219 280.175781 158.1875 280.640625 159.6875 C 281.101562 161.1875 281.527344 162.699219 281.914062 164.21875 C 282.300781 165.738281 282.648438 167.269531 282.960938 168.808594 C 283.269531 170.34375 283.542969 171.890625 283.777344 173.441406 C 284.011719 174.992188 284.207031 176.546875 284.363281 178.109375 C 284.519531 179.667969 284.636719 181.230469 284.714844 182.796875 C 284.792969 184.363281 284.832031 185.933594 284.832031 187.5 Z M 284.832031 187.5 " fill-opacity="1" fill-rule="nonzero"/><g clip-path="url(#cd2546512a)"><path fill="#d1a12a" d="M 187.5 67.933594 C 184.671875 67.933594 182.445312 65.710938 182.445312 62.878906 L 182.445312 8.101562 C 182.445312 5.269531 184.671875 3.046875 187.5 3.046875 C 190.328125 3.046875 192.554688 5.269531 192.554688 8.101562 L 192.554688 62.878906 C 192.554688 65.609375 190.230469 67.933594 187.5 67.933594 Z M 192.554688 366.898438 L 192.554688 312.121094 C 192.554688 309.289062 190.328125 307.066406 187.5 307.066406 C 184.671875 307.066406 182.445312 309.289062 182.445312 312.121094 L 182.445312 366.898438 C 182.445312 369.730469 184.671875 371.953125 187.5 371.953125 C 190.328125 371.953125 192.554688 369.730469 192.554688 366.898438 Z M 65.8125 187.5 C 65.8125 184.671875 63.589844 182.445312 60.757812 182.445312 L 5.167969 182.445312 C 2.339844 182.445312 0.117188 184.671875 0.117188 187.5 C 0.117188 190.328125 2.339844 192.554688 5.167969 192.554688 L 60.757812 192.554688 C 63.589844 192.554688 65.8125 190.328125 65.8125 187.5 Z M 374.882812 187.5 C 374.882812 184.671875 372.660156 182.445312 369.832031 182.445312 L 314.242188 182.445312 C 311.410156 182.445312 309.1875 184.671875 309.1875 187.5 C 309.1875 190.328125 311.410156 192.554688 314.242188 192.554688 L 369.832031 192.554688 C 372.660156 192.554688 374.882812 190.328125 374.882812 187.5 Z M 101.488281 102.902344 C 103.410156 100.882812 103.410156 97.75 101.386719 95.726562 L 62.070312 57.019531 C 60.050781 55.097656 56.917969 55.097656 54.894531 57.121094 C 52.976562 59.140625 52.976562 62.273438 54.996094 64.296875 L 94.3125 103.003906 C 95.324219 104.015625 96.535156 104.421875 97.851562 104.421875 C 99.164062 104.421875 100.480469 103.914062 101.488281 102.902344 Z M 320.003906 317.980469 C 321.921875 315.960938 321.921875 312.828125 319.902344 310.804688 L 280.585938 272.097656 C 278.5625 270.175781 275.429688 270.175781 273.410156 272.195312 C 271.488281 274.21875 271.488281 277.351562 273.511719 279.371094 L 312.828125 318.082031 C 313.835938 319.09375 315.050781 319.496094 316.363281 319.496094 C 317.679688 319.496094 318.992188 318.992188 320.003906 317.980469 Z M 62.070312 317.980469 L 101.386719 279.273438 C 103.410156 277.351562 103.410156 274.117188 101.488281 272.097656 C 99.570312 270.074219 96.335938 270.074219 94.3125 271.996094 L 54.996094 310.804688 C 52.976562 312.726562 52.976562 315.960938 54.894531 317.980469 C 55.90625 318.992188 57.21875 319.496094 58.535156 319.496094 C 59.847656 319.496094 61.0625 318.992188 62.070312 317.980469 Z M 280.585938 103.003906 L 319.902344 64.296875 C 321.921875 62.375 321.921875 59.140625 320.003906 57.121094 C 318.082031 55.097656 314.847656 55.097656 312.828125 57.019531 L 273.511719 95.726562 C 271.488281 97.648438 271.488281 100.882812 273.410156 102.902344 C 274.421875 103.914062 275.734375 104.421875 277.046875 104.421875 C 278.363281 104.421875 279.675781 103.914062 280.585938 103.003906 Z M 140.804688 76.726562 C 143.332031 75.617188 144.546875 72.683594 143.535156 70.15625 L 133.628906 46.609375 C 132.519531 44.082031 129.585938 42.867188 126.957031 43.878906 C 124.433594 44.992188 123.21875 47.921875 124.230469 50.449219 L 134.136719 74 C 134.945312 75.917969 136.863281 77.132812 138.785156 77.132812 C 139.59375 77.132812 140.199219 77.03125 140.804688 76.726562 Z M 247.941406 331.222656 C 250.464844 330.109375 251.679688 327.179688 250.667969 324.652344 L 240.765625 301.101562 C 239.652344 298.574219 236.722656 297.363281 234.09375 298.375 C 231.566406 299.484375 230.355469 302.417969 231.363281 304.945312 L 241.269531 328.492188 C 242.078125 330.414062 244 331.625 245.917969 331.625 C 246.625 331.625 247.332031 331.425781 247.941406 331.222656 Z M 48.125 249.757812 L 72.078125 239.957031 C 74.707031 238.945312 75.917969 235.914062 74.808594 233.386719 C 73.796875 230.757812 70.765625 229.546875 68.238281 230.65625 L 44.285156 240.460938 C 41.65625 241.472656 40.441406 244.503906 41.554688 247.03125 C 42.363281 248.949219 44.285156 250.164062 46.203125 250.164062 C 46.808594 250.164062 47.519531 250.0625 48.125 249.757812 Z M 306.660156 144.445312 L 330.617188 134.640625 C 333.242188 133.628906 334.457031 130.597656 333.34375 128.070312 C 332.332031 125.441406 329.300781 124.230469 326.773438 125.34375 L 302.820312 135.144531 C 300.191406 136.15625 298.980469 139.1875 300.09375 141.714844 C 300.902344 143.636719 302.820312 144.847656 304.742188 144.847656 C 305.449219 144.746094 306.054688 144.644531 306.660156 144.445312 Z M 240.765625 74.097656 L 250.667969 50.550781 C 251.78125 48.023438 250.566406 44.992188 247.941406 43.980469 C 245.3125 42.867188 242.382812 44.082031 241.269531 46.710938 L 231.363281 70.257812 C 230.253906 72.785156 231.464844 75.816406 234.09375 76.828125 C 234.699219 77.132812 235.40625 77.230469 236.011719 77.230469 C 238.035156 77.132812 239.957031 76.019531 240.765625 74.097656 Z M 133.628906 328.492188 L 143.535156 304.945312 C 144.644531 302.417969 143.433594 299.382812 140.804688 298.375 C 138.179688 297.261719 135.246094 298.476562 134.136719 301.101562 L 124.230469 324.652344 C 123.117188 327.179688 124.332031 330.210938 126.957031 331.222656 C 127.566406 331.523438 128.273438 331.625 128.878906 331.625 C 130.902344 331.625 132.820312 330.414062 133.628906 328.492188 Z M 74.90625 141.613281 C 75.917969 138.984375 74.707031 136.054688 72.179688 135.042969 L 48.226562 125.242188 C 45.597656 124.230469 42.667969 125.441406 41.65625 127.96875 C 40.644531 130.597656 41.859375 133.527344 44.382812 134.539062 L 68.339844 144.34375 C 68.945312 144.644531 69.652344 144.746094 70.257812 144.746094 C 72.179688 144.746094 74.097656 143.535156 74.90625 141.613281 Z M 333.445312 247.03125 C 334.457031 244.402344 333.242188 241.472656 330.714844 240.460938 L 306.660156 230.65625 C 304.035156 229.644531 301.101562 230.859375 300.09375 233.386719 C 299.082031 236.015625 300.292969 238.945312 302.820312 239.957031 L 326.773438 249.757812 C 327.382812 250.0625 328.089844 250.164062 328.695312 250.164062 C 330.714844 250.164062 332.636719 248.949219 333.445312 247.03125 Z M 333.445312 247.03125 " fill-opacity="1" fill-rule="nonzero"/></g></svg>