<svg xmlns="http://www.w3.org/2000/svg" xmlns:xlink="http://www.w3.org/1999/xlink" width="500" zoomAndPan="magnify" viewBox="0 0 375 374.999991" height="500" preserveAspectRatio="xMidYMid meet" version="1.0"><path fill="#cccccc" d="M 349.847656 122.628906 C 329.832031 142.640625 300.578125 147.78125 275.824219 138.019531 L 138.019531 275.824219 C 147.78125 300.585938 142.640625 329.832031 122.628906 349.847656 C 102.613281 369.859375 73.355469 375 48.605469 365.238281 L 100.628906 313.214844 C 103.773438 310.070312 103.765625 304.964844 100.628906 301.816406 L 73.1875 274.378906 C 70.042969 271.234375 64.9375 271.226562 61.792969 274.378906 L 9.753906 326.394531 C 0 301.644531 5.132812 272.378906 25.144531 252.371094 C 45.160156 232.359375 74.421875 227.226562 99.167969 236.980469 L 236.972656 99.175781 C 227.21875 74.421875 232.351562 45.160156 252.367188 25.152344 C 272.386719 5.140625 301.648438 0.0078125 326.394531 9.753906 L 272.621094 63.53125 C 269.472656 66.675781 269.472656 71.789062 272.621094 74.933594 L 300.058594 102.371094 C 303.207031 105.519531 308.316406 105.519531 311.464844 102.371094 L 365.238281 48.597656 C 375 73.355469 369.859375 102.613281 349.847656 122.621094 Z M 349.847656 122.628906 " fill-opacity="1" fill-rule="nonzero"/></svg>